<?xml version="1.0" encoding="utf-8"?>
<!-- Generator: Adobe Illustrator 19.1.0, SVG Export Plug-In . SVG Version: 6.00 Build 0)  -->
<!DOCTYPE svg PUBLIC "-//W3C//DTD SVG 1.1//EN" "http://www.w3.org/Graphics/SVG/1.1/DTD/svg11.dtd">
<svg version="1.1" id="Layer_1" xmlns="http://www.w3.org/2000/svg" xmlns:xlink="http://www.w3.org/1999/xlink" x="0px" y="0px"
	 viewBox="0 0 749.6 137.2" style="enable-background:new 0 0 749.6 137.2;" xml:space="preserve">
<style type="text/css">
	.st0{fill:#222222;}
</style>
<g>
	<g>
		<g>
			<path class="st0" d="M65.2,55.4h-9.6l2.1-7.9c0.7-2.6,1.2-5,1.5-7.3c0.3-2.2,0.6-4.2,0.9-5.9c0.3-1.7,0.7-3.1,1.2-4.2
				c0.5-1.1,1.4-1.8,2.5-2.2c0.9-0.3,1.8-0.5,2.7-0.5c0.7,0,1.3,0.1,1.8,0.2c0.5,0.2,0.7,0.4,0.7,0.6c0,0.2-0.2,0.4-0.6,0.5
				c-2.8,0.7-4.3,2.6-4.3,5.7c0,1.7,0.6,2.9,1.8,3.8c1.2,0.9,2.7,1.4,4.5,1.4c2,0,3.6-0.7,4.7-2.2c1.1-1.5,1.6-3.1,1.6-4.9
				c0-0.8-0.2-1.6-0.5-2.4c-0.3-0.8-0.8-1.5-1.5-2.2c-0.7-0.7-1.7-1.2-2.8-1.7c-1.2-0.4-2.6-0.6-4.4-0.6c-3.8,0-7.2,0.7-10.3,2.2
				c-3.1,1.5-5.8,3.4-8.2,5.8c-2.4,2.4-4.5,5.2-6.2,8.3c-1.7,3.1-3.1,6.3-4,9.5l-1.2,3.9h-9.2l-0.5,2h9.2L23,110
				c-1.7,6.5-3.7,11.4-6,14.8c-2.2,3.4-4.8,5.1-7.7,5.1c-1.3,0-2-0.2-2-0.5c0-0.3,0.4-0.6,1.1-0.7c0.7-0.2,1.5-0.6,2.4-1.4
				c0.9-0.7,1.4-1.9,1.4-3.5c0-1.5-0.5-2.9-1.5-4.2c-1-1.3-2.5-1.9-4.4-1.9c-1.6,0-3,0.5-4.3,1.7c-1.3,1.1-1.9,2.7-1.9,4.8
				c0,2.6,0.9,4.5,2.6,5.7c1.7,1.2,4,1.8,6.7,1.8c4.4,0,8.5-0.9,12.2-2.7c3.7-1.8,7-4.1,9.8-6.9c2.8-2.8,5.2-6,7.2-9.5
				c2-3.5,3.4-7,4.4-10.5l12.3-44.9h9.4L65.2,55.4z M93.3,90c0-0.7-0.3-1.1-0.8-1.1c-0.6,0-1,0.4-1.3,1.1c-2,3.9-3.8,6.8-5.5,8.6
				c-1.7,1.8-3.1,2.7-4.2,2.7c-1.1,0-1.7-0.8-1.7-2.5c0-0.4,0-0.9,0.1-1.5c0.1-0.6,0.3-1.6,0.7-2.9l11.7-43.1L67.2,55l-0.6,2
				l6.7-0.8l-10,36.7c-0.5,1.9-0.7,3.5-0.7,5c0,3.1,0.9,5.4,2.7,7c1.8,1.6,4.3,2.4,7.3,2.4c5.2,0,9.3-1.4,12.4-4.3
				c3.1-2.9,5.7-6.7,7.9-11.5C93.2,90.9,93.3,90.5,93.3,90z M206.5,93.5l18.8-69.9l-24.4,4.1l-0.5,1.9l6.6-1.3l-8.7,32.6
				c-0.9-1.7-2.2-3.1-4.1-4.4c-1.9-1.3-4.5-1.9-7.9-1.9c-4.9,0-9.3,1-13.2,3c-3.9,2-7.3,4.5-10,7.6c-2.7,3.1-4.8,6.5-6.3,10.2
				c-1.5,3.7-2.2,7.2-2.2,10.5c0,0.7,0,1.5,0.1,2.2c-0.3,0.1-0.5,0.4-0.8,0.8c-2.2,3.8-4.1,6.5-5.6,8.2c-1.5,1.7-2.7,2.5-3.7,2.5
				c-1.3,0-1.9-1-1.9-3.1c0-0.5,0.1-1.1,0.2-1.8c0.2-0.7,0.4-1.8,0.8-3.4l5.1-18.7c0.4-1.3,0.6-2.5,0.8-3.5c0.1-1,0.2-1.8,0.2-2.5
				c0-3.5-1.1-6.6-3.4-9.2c-2.2-2.6-5.5-3.9-9.6-3.9c-4.3,0-7.9,0.8-10.7,2.5c-2.8,1.7-5.2,3.7-7.3,6.1l2.8-9.7l-25.3,3.9l-0.6,2
				l6.7-1.3l-13,48.7h17.5l9.6-35.3c0.5-2,1.4-3.9,2.6-5.6c1.2-1.7,2.4-3.1,3.8-4.2c1.3-1.1,2.7-2,4-2.7c1.3-0.6,2.4-0.9,3.2-0.9
				c1.3,0,2.1,0.5,2.6,1.4c0.5,0.9,0.7,2,0.7,3.4c0,1.5-0.4,3.8-1.2,6.9l-5.7,21.1c-0.6,2.4-0.9,4.4-0.9,6.3c0,3.2,0.8,5.7,2.4,7.5
				c1.6,1.9,3.9,2.8,7,2.8c4.8,0,8.9-1.6,12.3-4.7c3.1-2.8,5.6-6.3,7.6-10.5c0.2,1.1,0.4,2.2,0.7,3.2c0.7,2.6,1.9,4.8,3.5,6.7
				c1.6,1.9,3.6,3.4,6.1,4.4c2.4,1.1,5.4,1.6,8.7,1.6c3.7,0,6.7-0.6,9.1-1.9s4.5-3.1,6.4-5.6c0.1,0.9,0.3,1.7,0.8,2.6
				c0.4,0.9,1.1,1.7,1.9,2.4c0.9,0.7,2,1.4,3.4,1.8c1.4,0.5,3.1,0.7,5.1,0.7c2.4,0,4.8-0.5,7-1.5c2.2-1,4.2-2.3,6.1-3.9
				c1.8-1.6,3.5-3.3,5-5.2c1.5-1.9,2.8-3.7,4-5.4c0.2-0.2,0.2-0.5,0.2-0.8c0-0.8-0.4-1.2-1.1-1.2c-0.6,0-1,0.3-1.3,0.8
				c-2.8,4.1-5.3,7-7.5,8.7c-2.2,1.7-3.9,2.6-5.1,2.6c-1.7,0-2.5-1.1-2.5-3.3c0-0.9,0.1-1.6,0.2-2.2
				C206.1,95.2,206.3,94.5,206.5,93.5z M188.9,94.2c-0.9,3-2.3,5.3-4.4,7c-2.1,1.7-4.2,2.5-6.4,2.5c-1.7,0-2.9-0.5-3.7-1.6
				c-0.8-1.1-1.2-2.4-1.2-4.1c0-0.7,0.3-2.2,0.8-4.6c0.5-2.4,1.2-5,1.9-8c0.8-3,1.6-6,2.5-9.1c0.9-3.1,1.6-5.8,2.2-8
				c1-3.4,2.1-6,3.2-7.8c1.1-1.8,2.9-2.7,5.3-2.7c1.2,0,2.2,0.2,3.1,0.7c0.9,0.5,1.6,1.1,2.3,1.8c0.7,0.7,1.2,1.6,1.7,2.4
				c0.4,0.9,0.8,1.7,1,2.4L188.9,94.2z M310.2,62.7c0-2.5-0.6-4.5-1.9-5.8c-1.3-1.4-3.1-2.1-5.4-2.1c-2.1,0-3.9,0.5-5.3,1.5
				c-1.2,0.9-2.5,2.4-3.9,4.7c-1.4,2.3-2.9,5-4.3,8c-1.5,3.1-2.9,6.3-4.4,9.7c-1.5,3.4-2.8,6.7-4.1,9.7L275,62.2
				c-0.7-3.1-2.1-5.4-4.3-6.6c-2.2-1.3-5-1.9-8.6-1.9c-2.7,0-5.2,0.6-7.4,1.7c-2.3,1.1-4.4,2.5-6.3,4.2c-1.9,1.7-3.6,3.4-5.1,5.4
				c-1.5,1.9-2.8,3.7-4,5.3c-0.2,0.2-0.4,0.5-0.4,0.8c0,0.7,0.3,1.1,0.9,1.1c0.4,0,0.7-0.2,0.9-0.7c0.8-1.2,1.7-2.4,2.8-3.7
				c1.1-1.3,2.2-2.4,3.3-3.5c1.1-1.1,2.2-1.9,3.3-2.7c1.1-0.7,2-1.1,2.8-1.1c0.9,0,1.6,0.2,2.1,0.5c0.5,0.3,1,0.8,1.4,1.6
				c0.4,0.7,0.7,1.7,0.9,3c0.3,1.2,0.6,2.7,1,4.4l9.1,43.1c-0.6,1.4-1.8,3.3-3.4,5.7c-1.7,2.4-3.5,4.8-5.7,7.1
				c-2.1,2.3-4.4,4.3-6.7,6c-2.3,1.7-4.4,2.5-6.3,2.5c1.1-0.5,2.2-1.3,3.2-2.5c1-1.2,1.5-2.7,1.5-4.5c0-2.1-0.7-3.9-2.1-5.4
				c-1.4-1.5-3.2-2.2-5.6-2.2c-1.4,0-2.6,0.3-3.7,0.8c-1,0.5-1.9,1.2-2.5,1.9c-0.7,0.8-1.2,1.7-1.5,2.7c-0.3,1-0.5,2-0.5,3
				c0,2.5,0.9,4.6,2.8,6.3c1.8,1.7,4.2,2.5,6.9,2.5c3.1,0,6.1-1,9.1-2.9c3-1.9,5.9-4.6,8.8-8c2.9-3.4,5.7-7.4,8.4-12
				c2.8-4.6,5.4-9.6,7.9-14.9c1.7-3.4,3.3-7.1,5-11.1c1.7-4,3.3-7.8,4.8-11.2c1.5-3.5,2.9-6.3,4.1-8.6c1.2-2.3,2-3.4,2.6-3.4
				c0.2,0,0.3,0.1,0.5,0.4c0.6,1.7,1.6,3,2.9,3.8c1.3,0.8,2.7,1.2,4.1,1.2c2,0,3.8-0.7,5.4-2.1C309.4,66.8,310.2,65,310.2,62.7z
				 M334.7,54.2c-4,0-7.9,0.8-11.6,2.4c-3.7,1.6-7,3.8-9.8,6.6c-2.8,2.8-5.1,6-6.8,9.8c-1.7,3.8-2.5,7.8-2.5,12.2
				c0,3.2,0.5,6.1,1.4,8.7c0.9,2.7,2.3,5,4.2,7c1.9,2,4.3,3.5,7.1,4.7c2.8,1.1,6.2,1.7,10,1.7c4.5,0,8.7-0.8,12.5-2.3
				c3.9-1.5,7.2-3.7,10-6.4c2.8-2.7,5.1-5.9,6.7-9.6c1.6-3.7,2.4-7.8,2.4-12.2c0-7-2.1-12.5-6.2-16.5
				C347.9,56.2,342.1,54.2,334.7,54.2z M342.6,65.8c-0.2,1-0.5,2.4-0.9,4.4c-0.4,1.9-1.1,4.5-1.9,7.7c-0.8,3.2-1.9,7.3-3.4,12.5
				c-0.5,1.7-1,3.5-1.5,5.3c-0.6,1.8-1.2,3.4-2.1,4.8c-0.8,1.4-1.8,2.6-2.9,3.5c-1.1,0.9-2.5,1.4-4.1,1.4c-2.5,0-4.3-0.8-5.2-2.4
				c-0.9-1.6-1.4-3.5-1.4-5.6c0-0.7,0.1-1.5,0.2-2.4c0.1-0.9,0.4-2.1,0.8-3.8c0.4-1.7,0.9-4,1.7-6.9c0.7-2.9,1.7-6.8,3-11.6
				c0.5-2.1,1.1-4.2,1.8-6.1c0.6-1.9,1.4-3.6,2.4-5.1c0.9-1.5,2-2.7,3.3-3.6c1.3-0.9,2.8-1.4,4.7-1.4c2.3,0,3.8,0.6,4.7,1.9
				c0.8,1.3,1.2,2.9,1.2,4.9C342.8,64,342.7,64.9,342.6,65.8z M471.1,56.7c-1.7-1.5-3.9-2.3-6.5-2.3c-3.5,0-6.5,0.7-9,2
				c-2.4,1.3-4.4,2.9-5.9,4.6l2.4-8.9l-25,4.1l-0.5,1.9l6.5-1.1L424.4,89c-0.1,0-0.2-0.1-0.3-0.1c-0.5,0-0.9,0.4-1.2,1.2
				c-2.3,4.4-4.4,7.5-6.3,9.2c-1.9,1.7-3.6,2.5-4.9,2.5c-0.8,0-1.4-0.3-1.9-0.9c-0.5-0.6-0.7-1.3-0.7-2.2c0-0.2,0-0.5,0.1-0.7
				c0-0.2,0.1-0.5,0.2-0.8L420.6,55H403l-8.9,33c-0.8,3-1.8,5.5-3,7.4c-1.2,1.9-2.5,3.5-3.8,4.7c-1.3,1.2-2.5,2-3.7,2.5
				c-1.2,0.5-2.1,0.7-2.8,0.7c-1,0-1.8-0.4-2.4-1.2c-0.6-0.8-0.9-2.3-0.9-4.3c0-1.2,0.1-2.6,0.4-4.3c0.2-1.7,0.7-3.6,1.3-5.8l9-34.4
				l-24.7,3.1l-0.5,1.9l6.6-0.8L362.8,82c-1,3.9-1.5,7.4-1.5,10.5c0,3.2,0.4,5.7,1.3,7.7c0.9,2,1.9,3.5,3.2,4.5
				c1.3,1.1,2.6,1.8,4.1,2.1c1.5,0.4,2.9,0.5,4.1,0.5c2.9,0,5.4-0.4,7.6-1.1c2.1-0.7,3.9-1.6,5.4-2.7c1.5-1.1,2.7-2.3,3.7-3.7
				c1-1.3,1.8-2.6,2.5-3.9c0,1.4,0.1,2.8,0.4,4.1c0.3,1.3,0.8,2.5,1.5,3.5c0.7,1.1,1.8,1.9,3.1,2.5c1.3,0.6,2.9,0.9,4.9,0.9
				c2.8,0,5.3-0.4,7.4-1.1c2.1-0.7,4-1.8,5.7-3.2c1.7-1.4,3.2-3.1,4.6-5.1c0.7-1.1,1.4-2.2,2.1-3.4l-3.1,11.5h17.8l10.2-37.4
				c0.9-3.2,2.5-5.8,5-7.9c2.4-2,5-3.3,7.8-3.8c-1.3,0.4-2.4,1.2-3.2,2.5c-0.8,1.3-1.2,2.7-1.2,4.4c0,2.1,0.8,4,2.3,5.6
				c1.5,1.6,3.6,2.4,6.3,2.4c2.3,0,4.3-0.7,6.2-2.1c1.8-1.4,2.8-3.4,2.8-6.2C473.7,60.5,472.9,58.3,471.1,56.7z M526.5,57.1
				c-1.5-1-3.5-1.8-5.8-2.4c-2.3-0.6-5.1-0.9-8.2-0.9c-3,0-5.8,0.4-8.4,1.1c-2.6,0.7-4.9,1.8-6.9,3.2c-1.9,1.4-3.5,3.2-4.6,5.3
				c-1.1,2.1-1.7,4.4-1.7,7c0,2.4,0.8,4.8,2.4,7.1c1.6,2.3,4.1,4.4,7.7,6.4c3.5,1.9,5.9,3.9,7.4,6.1c1.5,2.2,2.2,4.3,2.2,6.3
				c0,3.2-0.9,5.4-2.8,6.9c-1.9,1.4-4.3,2.1-7.3,2.1c-1.9,0-3.6-0.2-5.3-0.6c-1.6-0.4-3-0.9-4.2-1.5c-1.2-0.5-2.1-1.1-2.8-1.7
				c-0.7-0.6-1.1-1.1-1.1-1.5c0-0.2,0.2-0.4,0.7-0.6c1.7-0.2,3.1-0.9,4.3-1.9c1.2-1.1,1.8-2.4,1.8-4.1c0-2-0.7-3.6-2.1-4.7
				c-1.4-1.1-2.9-1.7-4.7-1.7c-2,0-3.7,0.7-4.8,2.1c-1.2,1.4-1.8,3-1.8,4.9c0,1.5,0.4,3,1.3,4.6c0.9,1.6,2.1,3,3.8,4.3
				c1.7,1.3,3.8,2.3,6.3,3.1c2.5,0.8,5.4,1.2,8.6,1.2c4.1,0,7.7-0.5,10.7-1.5c3.1-1,5.6-2.3,7.7-4c2-1.7,3.6-3.7,4.6-5.9
				c1-2.2,1.5-4.7,1.5-7.3c0-7.4-3.8-13.1-11.3-17c-3.5-1.8-6-3.5-7.3-5c-1.3-1.5-2-3.1-2-4.7c0-2.2,0.9-3.8,2.7-4.7
				c1.8-0.9,3.7-1.4,5.7-1.4c3.4,0,6,0.4,8,1.2c1.9,0.8,2.9,1.5,2.9,2.1c0,0.3-0.3,0.6-0.8,0.8c-1.2,0.5-2,1.1-2.5,1.9
				c-0.5,0.8-0.8,1.7-0.8,2.7c0,1.7,0.6,3.1,1.7,4c1.1,0.9,2.5,1.4,4.1,1.4c1.8,0,3.2-0.6,4.1-1.7c0.9-1.1,1.4-2.5,1.4-4
				c0-1.3-0.4-2.5-1.1-3.7C529.2,59.2,528,58.1,526.5,57.1z M566.6,96.3c0.2-0.4,0.2-0.7,0.1-1c-0.1-0.3-0.3-0.5-0.5-0.6
				c-0.2-0.1-0.5-0.1-0.8,0c-0.3,0.1-0.5,0.3-0.6,0.6c-1.4,2.8-3,4.8-4.7,6c-1.7,1.3-3.3,1.9-4.9,1.9c-2.2,0-3.8-0.8-4.8-2.3
				c-1-1.5-1-4.1-0.1-7.6l8.3-31.9h10.2l0.5-1.9h-10.2l6.6-24.3h-1.5c-1.5,3-3,5.6-4.6,7.7c-1.6,2.1-3.2,3.9-5,5.4
				c-1.7,1.5-3.6,2.8-5.6,3.8c-2,1.1-4.1,2-6.5,2.9l-1.2,4.5h-8.5l-0.5,1.9h8.5l-6.4,23.7c-0.9,3.2-1.1,6.2-0.8,8.9
				c0.3,2.7,1.1,5,2.5,7c1.3,2,3.2,3.5,5.5,4.6c2.3,1.1,5,1.7,8.1,1.7c4,0,7.5-1.1,10.5-3.2C563.1,101.9,565.3,99.3,566.6,96.3z
				 M636.1,62.7c0-2.5-0.6-4.5-1.9-5.8c-1.3-1.4-3.1-2.1-5.4-2.1c-2.1,0-3.9,0.5-5.3,1.5c-1.2,0.9-2.5,2.4-3.9,4.7
				c-1.4,2.3-2.9,5-4.3,8c-1.5,3.1-2.9,6.3-4.4,9.7c-1.5,3.4-2.8,6.7-4.1,9.7l-5.9-26.3c-0.7-3.1-2.1-5.4-4.3-6.6
				c-2.2-1.3-5-1.9-8.6-1.9c-2.7,0-5.2,0.6-7.4,1.7c-2.3,1.1-4.4,2.5-6.3,4.2c-1.9,1.7-3.6,3.4-5.1,5.4c-1.5,1.9-2.8,3.7-4,5.3
				c-0.2,0.2-0.4,0.5-0.4,0.8c0,0.7,0.3,1.1,0.9,1.1c0.4,0,0.7-0.2,0.9-0.7c0.8-1.2,1.7-2.4,2.8-3.7c1.1-1.3,2.2-2.4,3.3-3.5
				c1.1-1.1,2.2-1.9,3.3-2.7c1.1-0.7,2-1.1,2.8-1.1c0.9,0,1.6,0.2,2.1,0.5c0.6,0.3,1,0.8,1.4,1.6c0.4,0.7,0.7,1.7,0.9,3
				c0.3,1.2,0.6,2.7,1,4.4l9.1,43.1c-0.6,1.4-1.8,3.3-3.4,5.7c-1.7,2.4-3.5,4.8-5.7,7.1c-2.1,2.3-4.4,4.3-6.7,6
				c-2.3,1.7-4.4,2.5-6.3,2.5c1.1-0.5,2.2-1.3,3.2-2.5c1-1.2,1.5-2.7,1.5-4.5c0-2.1-0.7-3.9-2.1-5.4c-1.4-1.5-3.2-2.2-5.6-2.2
				c-1.4,0-2.6,0.3-3.7,0.8c-1,0.5-1.9,1.2-2.5,1.9c-0.7,0.8-1.2,1.7-1.5,2.7c-0.3,1-0.5,2-0.5,3c0,2.5,0.9,4.6,2.8,6.3
				c1.8,1.7,4.2,2.5,6.9,2.5c3.1,0,6.1-1,9.1-2.9c3-1.9,5.9-4.6,8.8-8c2.9-3.4,5.7-7.4,8.4-12c2.8-4.6,5.4-9.6,7.9-14.9
				c1.7-3.4,3.3-7.1,5-11.1c1.7-4,3.3-7.8,4.8-11.2c1.5-3.5,2.9-6.3,4.1-8.6c1.2-2.3,2-3.4,2.6-3.4c0.2,0,0.3,0.1,0.5,0.4
				c0.6,1.7,1.6,3,2.9,3.8c1.3,0.8,2.7,1.2,4.1,1.2c2,0,3.8-0.7,5.4-2.1C635.3,66.8,636.1,65,636.1,62.7z M678.8,90.2l1.9-8
				c1.5,0.5,3.3,0.9,5.4,1.2c2.1,0.4,4.4,0.5,6.7,0.5c3.3,0,6.4-0.4,9.2-1.1c2.8-0.7,5.3-1.7,7.3-3.1c2-1.3,3.6-3,4.7-4.9
				c1.1-1.9,1.7-4.2,1.7-6.7c0-1.7-0.4-3.5-1.1-5.2c-0.7-1.7-1.9-3.2-3.4-4.5c-1.5-1.3-3.5-2.4-5.8-3.2c-2.3-0.8-5.1-1.2-8.3-1.2
				c-5.4,0-10.3,1-14.5,2.9c-4.3,1.9-7.8,4.4-10.7,7.5c-2.9,3.1-5.1,6.5-6.6,10.3c-1.5,3.8-2.2,7.5-2.2,11.2c0,1.4,0.1,2.7,0.3,4
				c-2.3,4.5-4.6,7.7-6.7,9.6c-2.2,2-4.1,3-5.7,3c-1.7,0-2.6-1.1-2.6-3.3c0-0.4,0-0.8,0.1-1.3c0.1-0.5,0.2-1.2,0.5-2.1l19.8-72.5
				l-25.4,4.1l-0.5,2l6.9-1.1l-17,61.4c-0.4,1.3-0.7,2.5-0.9,3.5c-0.2,1-0.3,2.1-0.3,3.2c0,1.8,0.3,3.4,1,4.7
				c0.7,1.3,1.5,2.4,2.6,3.3c1.1,0.9,2.3,1.5,3.7,1.9c1.4,0.4,2.9,0.6,4.4,0.6c2.8,0,5.3-0.4,7.4-1.1c2.1-0.7,4-1.8,5.7-3.2
				c1.7-1.4,3.2-3.1,4.5-5c1-1.5,2.1-3.2,3.1-5.1c0.1,0.4,0.2,0.8,0.4,1.2c0.9,2.6,2.3,4.8,4.1,6.7c1.8,1.9,4.2,3.5,7,4.7
				c2.8,1.2,6.2,1.8,10,1.8c3.1,0,5.9-0.4,8.6-1.2c2.7-0.8,5.1-1.8,7.4-3.2c2.2-1.3,4.3-2.9,6-4.5c1.8-1.7,3.3-3.5,4.7-5.4
				c0.3-0.4,0.5-0.7,0.6-1.1c0.1-0.3,0.1-0.6,0.1-0.8c0-0.7-0.3-1.1-0.8-1.1c-0.5,0-0.9,0.3-1.4,0.9c-3,4.3-6.6,7.6-10.8,10.1
				c-4.2,2.5-8.8,3.7-13.9,3.7c-2.1,0-4.1-0.6-5.8-1.8c-1.7-1.2-2.6-3-2.6-5.3c0-1.3,0.1-2.5,0.2-3.5
				C678.2,93.2,678.4,91.9,678.8,90.2z M684.4,68.7c0.5-1.7,1-3.2,1.7-4.8c0.6-1.5,1.4-2.9,2.3-4.1c0.9-1.2,2-2.1,3.2-2.8
				c1.2-0.7,2.6-1.1,4.2-1.1c2,0,3.5,0.6,4.4,1.9c0.9,1.3,1.3,3,1.3,5c0,6-1.4,10.5-4.2,13.5c-2.8,3-6.4,4.5-10.7,4.5
				c-0.9,0-1.9-0.1-2.7-0.2c-0.9-0.2-1.7-0.3-2.6-0.5L684.4,68.7z M735.6,117.2c-0.1-0.2-0.3-0.3-0.3-0.5c0-0.3-0.2-0.5-0.4-0.7
				c-0.2-0.2-0.3-0.3-0.4-0.6c-0.1-0.2-0.2-0.5-0.4-0.7c-0.2-0.2-0.3-0.2-0.5,0c-0.3,0.4-0.6,0.7-0.8,1.1c-0.3,0.5-0.6,0.8-1.2,0.7
				c-0.1,0-0.3,0-0.3,0.1c-0.2,0.2-0.3,0.3-0.6,0.1c-0.1,0-0.2,0-0.3,0.1c0,0,0,0.2,0.1,0.3c0.4,0.4,0.8,0.6,1.4,0.6
				c0.4,0,0.7,0,1.1,0.2c0.2,0.1,0.3,0.1,0.5,0c0.3-0.1,0.5-0.1,0.8,0.1c0.1,0.1,0.2,0.1,0.3,0.1c0.2,0,0.4,0,0.6-0.1
				c0.3-0.1,0.4-0.3,0.5-0.5C735.9,117.4,735.7,117.3,735.6,117.2z M718.9,107c0.2,0.1,0.4,0.2,0.6,0.3c0.3,0.1,0.5,0,0.7-0.1
				c0.1,0,0.1-0.2,0.1-0.3c0,0-0.1-0.1-0.2-0.1c-0.6-0.1-1.2-0.2-1.7-0.3c0,0-0.1,0-0.1,0c0,0-0.1,0.1-0.1,0.1
				c0.1,0.2,0.2,0.4,0.3,0.6c0,0.1,0.1,0.1,0.2,0.1c0-0.1,0.1-0.1,0.1-0.2c0,0,0,0-0.1,0c0-0.1,0-0.1,0.1-0.2
				C718.8,106.9,718.9,106.9,718.9,107z M718.3,107.6c0,0-0.1-0.1-0.1-0.1c-0.1,0-0.2,0-0.3,0c0,0.1,0.1,0.2,0.1,0.3
				c0,0.1,0.1,0.1,0.2,0.1c0.1,0,0.2-0.1,0.2-0.1C718.4,107.7,718.3,107.7,718.3,107.6z M717.3,106.5c0.1,0.1,0.2,0.3,0.3,0.4
				c0,0,0.1,0,0.1,0c-0.1-0.2-0.1-0.3-0.2-0.6C717.4,106.4,717.3,106.5,717.3,106.5z M734,120.7c-0.3-0.1-0.7-0.2-1-0.2
				c-0.3,0-0.7,0-1,0.1c-0.6,0-1.2,0.3-1.8,0.2c-0.3,0-0.6,0-0.7,0.3c-0.2,0.3-0.3,0.4-0.6,0.2c-0.1,0-0.1-0.1-0.2-0.1
				c-0.1,0-0.2,0-0.3,0c0,0.1,0,0.2,0,0.3c0,0.1,0.1,0.2,0.1,0.3c0,0.1,0,0.2,0,0.2c-0.1,0-0.1-0.1-0.2-0.1c0,0-0.1,0-0.1-0.1
				c0,0.1,0,0.1-0.1,0.2c0,0.2,0.1,0.4,0,0.6c-0.1,0.2-0.1,0.4,0.1,0.6c0.2,0.2,0.1,0.4-0.1,0.6c-0.2,0.2-0.3,0.4-0.4,0.6
				c0,0,0,0.1,0.1,0.1c0.4,0.2,0.8,0,0.9-0.4c0.1-0.4,0.1-0.4,0.5-0.5c0.5-0.1,0.9-0.1,1.4-0.1c0.1,0,0.2-0.1,0.3-0.1
				c-0.1-0.1-0.1-0.1-0.2-0.2c-0.1-0.1-0.1-0.2-0.1-0.2c0.1,0,0.2-0.1,0.3-0.1c0.1,0,0.2,0.1,0.3,0.1c0.1,0,0.1,0,0.2,0
				c0-0.1,0-0.1,0-0.2c-0.3-0.5-0.7-0.5-1-0.1c-0.1,0.1-0.1,0.2-0.2,0c-0.1-0.2-0.2-0.2-0.3,0c-0.1,0.1-0.1,0.1-0.2,0.2
				c0,0-0.1,0-0.2-0.1c0.2-0.3-0.1-0.3-0.3-0.3c-0.1,0-0.2,0-0.3-0.1c0,0-0.1-0.1-0.1-0.1c0,0,0.1-0.1,0.1-0.1
				c0.5,0,0.9-0.1,1.3-0.3c0.1-0.1,0.3-0.1,0.4,0.1c0.1,0.1,0.3,0.2,0.4,0.2c0.1,0,0.2-0.1,0.3-0.3c0,0,0-0.2-0.1-0.2
				c-0.1-0.1-0.3-0.2-0.1-0.4c0.2-0.2,0.3,0.1,0.4,0.1c0,0,0,0,0,0.1c0.1,0.2,0.2,0.2,0.4,0.2c0.3-0.1,0.5,0,0.8-0.2
				c0.1-0.1,0.3,0,0.5,0c0.5,0.1,0.7-0.3,1-0.5C734.2,120.9,734.2,120.8,734,120.7z M728.8,122.9C728.8,122.9,728.8,123,728.8,122.9
				C728.8,123,728.8,123,728.8,122.9C728.8,123,728.8,123,728.8,122.9C728.8,122.9,728.8,122.9,728.8,122.9z M730.6,121.7
				C730.6,121.7,730.6,121.7,730.6,121.7c0-0.1,0-0.1,0-0.2C730.7,121.6,730.7,121.7,730.6,121.7
				C730.7,121.7,730.6,121.7,730.6,121.7z M717.2,105c-0.1,0.2-0.1,0.2-0.1,0.3c0,0.1,0.1,0.2,0.2,0.3c0.1-0.1,0.2-0.2,0.2-0.2
				C717.4,105.3,717.3,105.2,717.2,105z M725.6,121.9c0.1-0.2,0.2-0.3,0.5-0.1c0.2,0.1,0.3,0,0.4-0.1c0.3-0.3,0.5-0.8,0.6-1.2
				c0-0.1-0.1-0.2-0.1-0.3c-0.4-0.2-0.4-0.1-0.5-0.6c-0.1-0.8,0-1.6,0.1-2.3c0.1-0.5,0.2-1,0.3-1.6c-0.1-0.1-0.1-0.3-0.3-0.4
				c-0.3-0.2-0.5-0.3-0.8-0.4c-0.2-0.1-0.3,0-0.3,0.2c0,0.2,0,0.4,0.1,0.6c0.3,0.9,0.2,1.9,0.3,2.9c0.1,0.6-0.1,1.2,0.1,1.9
				c0.1,0.2,0.1,0.4-0.3,0.3c-0.1,0-0.2,0.1-0.2,0.1c-0.3,0.2-0.6,0.5-1,0.4c0,0-0.1,0-0.1,0.1c-0.2,0.3-0.5,0.2-0.8,0.1
				c-0.1,0-0.3-0.1-0.3,0c-0.2,0.2-0.5,0.3-0.8,0.1c-0.1,0-0.2,0-0.2,0.1c0,0,0,0.1,0.1,0.2c0.1,0.1,0.2,0.2,0.2,0.3
				c0.1,0.5,0.2,0.5,0.7,0.4c0.5-0.1,1.1-0.1,1.6-0.1C725.2,122.4,725.5,122.4,725.6,121.9z M719.6,102c0.1,0,0.3,0.1,0.4,0.1
				c0.1,0,0.2-0.1,0.4-0.2c-0.2-0.2-0.3-0.4-0.5-0.4c-0.2,0-0.3,0.1-0.5,0.2C719.4,101.7,719.5,102,719.6,102z M719,98.4
				c0,0,0.1,0,0.2-0.1c-0.1,0-0.1-0.1-0.2-0.1c-0.2,0-0.6,0.2-0.6,0.4c0,0,0,0,0,0.1c0,0,0.1,0,0.1,0
				C718.6,98.6,718.8,98.5,719,98.4z M719,101.1c-0.1,0.1-0.1,0.2-0.2,0.3c0,0,0.1,0.1,0.1,0.1c0.1-0.1,0.1-0.2,0.2-0.2
				C719,101.2,719,101.2,719,101.1z M717.7,96.5C717.7,96.5,717.7,96.5,717.7,96.5c-0.1-0.1-0.1-0.1-0.1,0
				C717.6,96.5,717.6,96.6,717.7,96.5C717.7,96.6,717.7,96.6,717.7,96.5z M720.2,100.6c0-0.2-0.2-0.4-0.3-0.4
				c-0.1,0-0.3,0.3-0.3,0.5c0,0.2,0.1,0.4,0.3,0.3C720.1,101,720.2,100.8,720.2,100.6z M723.6,107.2c0-0.1,0-0.1-0.1-0.2
				c-0.1,0.1-0.2,0.2-0.2,0.2c0.1,0,0.1,0.1,0.2,0.1C723.5,107.4,723.6,107.3,723.6,107.2z M728.2,114.2c0.1,0.1,0.1,0.2,0.2,0.2
				c0.2,0,0.2,0.1,0.1,0.2c-0.1,0.1-0.2,0.3-0.2,0.5c0,0.3-0.1,0.3-0.3,0.2c-0.1,0-0.3,0.1-0.4,0.1c0.1,0.1,0.1,0.2,0.2,0.4
				c0,0,0.1,0.1,0.1,0.1c0.1,0.2,0.3,0.2,0.5,0c0.2-0.1,0.4-0.3,0.7-0.1c0.1,0,0.2,0,0.3,0c0.1-0.1,0.2-0.2,0.3-0.3
				c0.1-0.1,0.2-0.1,0.4,0c0.3,0.2,0.6,0.2,0.9-0.1c0.2-0.2,0.4-0.4,0.6-0.5c0.1-0.1,0.2-0.1,0.3-0.1c0.3,0.1,0.4,0,0.6-0.2
				c0.3-0.3,0.4-0.7,0.9-0.9c0.1,0,0.1-0.2,0.1-0.3c0-0.3-0.1-0.6-0.1-0.9c0-0.5,0-1-0.1-1.4c0-0.1,0-0.2-0.1-0.3
				c0.1,0.1,0.2,0.1,0.3,0.2c0.1,0.1,0.2,0.3,0.2,0.4c0.1,0.2,0.2,0.4,0.2,0.6c0-0.2,0.1-0.4,0.1-0.6c0.1-0.3,0.1-0.7,0.3-0.9
				c0.1-0.2,0.2-0.3,0.2-0.6c-0.1-0.4-0.1-0.9-0.2-1.3c0-0.3,0.1-0.4,0.3-0.5c0,0,0.1,0,0.1,0c0,0,0-0.1-0.1-0.1
				c-0.3-0.2-0.2-0.4-0.2-0.7c0.1-0.3,0.2-0.6,0.2-1c0.1-0.3,0-0.5-0.3-0.7c-0.3-0.2-0.5-0.5-0.3-0.8c0.2-0.4,0-0.6-0.2-0.9
				c0,0-0.1-0.1-0.1-0.1c0,0,0,0.1,0,0.1c0,0.3-0.1,0.6-0.1,0.9c0,0.1-0.1,0.3-0.2,0.1c-0.1-0.2-0.3-0.5-0.3-0.7
				c0.1-0.2,0.1-0.5,0.3-0.7c0.1-0.2,0.1-0.4,0-0.6c-0.1-0.3-0.1-0.6-0.2-1c0-0.1,0-0.2,0.1-0.2c0.2-0.1,0.1-0.2,0.1-0.4
				c0-0.2,0.1-0.4,0.1-0.7c0-0.1,0-0.2,0-0.3c-0.3-0.5-0.6-0.9-1-1.3c-0.4-0.3-0.9-0.6-1.3-1c-0.3-0.2-0.3-0.3,0-0.5
				c0,0,0.1,0,0.1-0.1c1-0.8,1.2-1.8,1-3c-0.2-0.8-0.5-1.6-1-2.3c-0.2-0.3-0.3-0.6-0.1-1c0.2-0.6,0.5-1.1,0.7-1.7
				c0.1-0.3,0.2-0.6,0.1-0.9c-0.1-0.9-0.5-1.6-0.8-2.4c-0.4-0.9-1-1.7-1.7-2.3c-1-0.8-2.2-1.2-3.4-1.5c-1.2-0.3-2.4-0.1-3.6,0.4
				c-0.1,0-0.2,0.2-0.3,0.3c-0.4,0.8-0.8,1.7-1.2,2.5c-0.1,0.2-0.2,0.4-0.3,0.6c-0.2,0.3-0.5,0.4-0.8,0.4c-0.4,0-0.8,0-1.2,0
				c-0.7,0-1.3,0.1-2,0.4c-0.8,0.3-1.2,0.9-1.2,1.8c0,1.8,0.6,3.6,1.5,5.2c0.1,0.1,0.1,0.3,0.1,0.4c-0.1,0.4-0.1,0.8-0.2,1.2
				c-0.1,0.4,0.2,0.6,0.3,0.9c0,0,0.1,0,0.2,0c0.1,0,0.1-0.1,0.2-0.1c0.1,0,0.2,0.1,0.4,0.1c0,0.1,0,0.2-0.1,0.2
				c-0.1,0.2-0.1,0.3,0.2,0.4c0.4,0.1,0.7,0.2,1.1,0.4c0,0,0.1,0,0.1,0.1c0,0-0.1,0.1-0.1,0.1c-0.1,0-0.3,0-0.4,0
				c-0.1,0-0.1,0.1-0.2,0.1c0.1,0.1,0.1,0.2,0.2,0.3c0,0,0.1-0.1,0.2-0.1c0.1,0,0.2-0.2,0.3-0.1c0.3,0.2,0.6,0.4,0.9,0.6
				c0.1,0.1,0.2,0.1,0.3,0.2c0.1,0,0.1,0.1,0,0.2c-0.1,0-0.2,0-0.3,0c-0.3,0-0.6-0.1-0.8,0c-0.3,0.2-0.5,0.5-0.7,0.7
				c-0.3,0.4-0.4,0.4-0.7,0c0,0,0,0-0.1-0.1c0,0,0,0.1,0,0.1c0,0,0,0.1,0,0.1c0,0.1-0.1,0.2-0.1,0.2c-0.1,0-0.2,0-0.2-0.1
				c-0.1-0.3-0.3-0.5-0.1-0.8c-0.3,0-0.3,0.3-0.3,0.5c0,0.4,0,0.7,0,1.1c0,0.1,0,0.2,0.2,0.2c0.2-0.1,0.2,0,0.2,0.2
				c0,0.1,0,0.2,0,0.2c0,0,0.1,0.1,0.1,0.1c0,0,0-0.1,0-0.1c0-0.1,0.1-0.3,0.1-0.4c0.2-0.3,0.6-0.3,0.9,0.1c0.2,0.3,0.2,0.1,0.3-0.1
				c0-0.1,0.2-0.3-0.1-0.3c0,0-0.1-0.1-0.1-0.1c0-0.2,0-0.3,0.1-0.5c0-0.2,0.1-0.2,0.3-0.1c0.2,0.1,0.4,0.1,0.6,0
				c0.4-0.2,0.8-0.4,1.2-0.5c0.2-0.1,0.2-0.2,0.1-0.3c-0.1-0.1-0.2-0.2-0.4-0.3c-0.2-0.2-0.1-0.6,0.1-0.7c0.1,0,0.4,0,0.4,0.1
				c0.1,0.4,0.4,0.4,0.6,0.4c0.1,0,0.2,0.1,0.2,0.1c0,0.1-0.1,0.2-0.1,0.3c0,0.1-0.1,0.2-0.1,0.3c0,0.3-0.1,0.8-0.4,0.9
				c-0.2,0.1-0.4,0.2-0.4,0.5c-0.2,0-0.4-0.1-0.6-0.1c0,0,0,0,0,0c-0.2,0-0.2,0.1-0.2,0.3c0,0.2,0.2,0.2,0.3,0.1
				c0.3,0,0.5-0.1,0.8,0c0.2,0,0.5,0.1,0.6-0.2c0.1-0.2,0.2-0.4,0.3-0.5c0.1-0.1,0.1-0.2,0-0.3c-0.2-0.4,0-0.9,0.4-1
				c0.2-0.1,0.4-0.1,0.6-0.2c0.2-0.1,0.3-0.1,0.3,0.1c0.1,0.2,0.2,0.2,0.3,0.1c0.1,0,0.1-0.1,0.2-0.1c0.1,0,0.1,0.1,0.2,0.1
				c0,0.1-0.1,0.2-0.1,0.2c-0.1,0-0.3,0.1-0.5,0.1c-0.3-0.1-0.6,0-0.8,0.2c0,0-0.1,0.1-0.1,0.1c0,0,0.1,0,0.1,0c0.2,0,0.4-0.1,0.4,0
				c0.1,0.1,0.1,0.3,0.1,0.4c0,0,0,0,0,0.1c0.1,0.2,0,0.4-0.2,0.5c-0.1,0.1-0.2,0.1-0.3,0.1c-0.2,0-0.2,0.1-0.2,0.3
				c0.1,0.4,0.6,0.7,1,0.6c0.1,0,0.2,0,0.2,0c0,0.1,0,0.2,0,0.3c0,0.1-0.1,0.1-0.2,0.2c-0.1,0.1-0.3,0.3-0.3,0.5
				c-0.1,0.2,0,0.3,0.2,0.3c0.1,0,0.2,0,0.3,0c-0.1,0.1-0.1,0.1-0.2,0.2c0,0,0,0,0,0c0,0-0.1,0.1-0.1,0.1c0,0,0.1,0.1,0.1,0.1
				c0.3,0,0.5-0.1,0.8-0.3c0.1-0.1,0.2-0.1,0.3-0.2c0.1-0.1,0.3-0.2,0.4-0.3c0.1,0,0.2-0.1,0.3-0.1c0.1,0.1,0.1,0.2,0.1,0.3
				c-0.1,0.2-0.3,0.3-0.5,0.4c-0.3,0.2-0.5,0.3-0.8,0.4c-0.3,0.2-0.6,0.3-1,0.2c-0.2,0-0.3-0.2-0.2-0.4c0,0,0.1-0.1,0.1-0.1
				c0-0.1,0-0.3,0-0.4c0-0.1-0.2-0.1-0.3-0.1c-0.2,0-0.4,0.1-0.6,0.1c-0.2,0-0.3,0-0.3,0.3c0,0.3,0.1,0.4,0.3,0.4c0.1,0,0.2,0,0.3,0
				c-0.1,0.1-0.1,0.2-0.2,0.2c-0.1,0.1-0.2,0.1-0.3,0.1c-0.4,0-0.7,0-0.9,0.4c-0.1,0.1-0.3,0.2-0.3,0c-0.1-0.2,0-0.4,0-0.6
				c0-0.2,0.1-0.3,0.2-0.5c0.1-0.1,0.2-0.2,0.2-0.2c0,0,0.1-0.1,0.1-0.1c-0.1,0-0.1-0.1-0.2-0.1c-0.2,0-0.4,0-0.6,0.1
				c-0.1,0-0.2,0-0.3-0.1c0-0.1-0.2-0.2-0.2-0.2c-0.1,0.1-0.3,0.3-0.4,0.4c0.1,0.1,0.2,0.1,0.3,0.2c0.1,0.1,0.2,0.1,0.3,0.2
				c-0.1,0-0.2,0.1-0.3,0.1c-0.1,0-0.2-0.1-0.2-0.1c-0.1-0.1-0.3-0.2-0.4-0.3c-0.1-0.1-0.2-0.1-0.3-0.3c0-0.3-0.2-0.3-0.5-0.3
				c-0.2,0-0.4,0-0.6,0c-0.1,0-0.2,0-0.2,0.1c0,0,0,0.1,0,0.2c0.1,0.2,0.3,0.5,0.6,0.4c0.1,0,0.2,0,0.3,0.1c0.1,0.1,0.1,0.3,0,0.4
				c-0.2,0.1-0.7,0-0.7-0.1c-0.1-0.2-0.1-0.4-0.4-0.4c0,0-0.1-0.1-0.1-0.2c-0.1-0.1-0.1-0.1-0.2-0.2c-0.1,0.1-0.2,0.2-0.2,0.3
				c0,0.1,0,0.3-0.2,0.1c-0.1-0.1-0.2,0-0.2,0.1c0,0.2,0,0.4,0,0.6c0,0.4,0.3,0.2,0.4,0.3c0.1,0.1,0.1-0.1,0.2-0.2
				c0-0.1,0.2-0.1,0.2-0.1c0.5,0.1,0.8,0.4,0.9,0.9c0,0.2,0.1,0.3,0.3,0.4c0.2,0.1,0.4,0.2,0.5,0.4c0.1,0.1,0.1,0.2,0.2,0.4
				c-0.2,0-0.3,0.1-0.5,0.1c0,0,0,0-0.1,0c-0.4-0.2-0.8-0.4-1-0.9c-0.1-0.2-0.3-0.3-0.5-0.3c-0.1,0-0.2,0.1-0.2,0.2
				c0,0.1,0,0.2,0.1,0.3c0.2,0.2,0.4,0.4,0.6,0.7c0.1,0.1,0.2,0.2,0,0.2c-0.1,0-0.1,0.1-0.2,0.1c0.1,0,0.1,0.1,0.2,0.1
				c0.1,0,0.3,0,0.4,0c0.1,0,0.2-0.1,0.2-0.1c0.4,0.3,0.9,0.4,1.4,0.5c0,0,0,0,0,0c0.1,0.2,0.2,0.1,0.3-0.1c0-0.1,0.1-0.2,0.2-0.3
				c0.1-0.2,0.1-0.3,0-0.5c0,0-0.1-0.2,0-0.2c0.1-0.2,0.3-0.4,0.5-0.5c0.2-0.1,0.3-0.2,0.3-0.4c0-0.1,0-0.2,0.2-0.3
				c0.1,0,0.2-0.1,0.2-0.2c0.1-0.2,0.3-0.2,0.6-0.1c0.2,0.1,0,0.2,0,0.3c0,0.2-0.2,0.3,0.1,0.4c0.1,0,0.1,0.1,0.1,0.1
				c0,0-0.1,0.1-0.1,0.1c-0.2,0.1-0.5,0.2-0.7,0.4c-0.1,0.1-0.2,0.1,0,0.3c0.2,0.1,0.4,0.3,0.7,0.2c0.1,0,0.2,0,0.3,0.1
				c0.2,0.2,0.3,0.1,0.3-0.1c0-0.1,0.1-0.2,0.2-0.2c0.1,0,0.2,0.1,0.2,0.1c0,0.1,0,0.2-0.1,0.3c-0.1,0.1-0.3,0.2-0.5,0.1
				c-0.2,0-0.3,0.1-0.3,0.2c0,0.2,0.1,0.3,0.2,0.3c0.3,0.1,0.5,0.2,0.8,0.1c0.2,0,0.4,0,0.5,0.1c0.1,0,0.2,0.1,0.2,0.2
				c0,0.3,0.2,0.4,0.4,0.4c0.1,0,0.2,0,0.3,0.1c0.1,0.1,0.1,0.2,0,0.3c-0.3,0.1-0.5,0.1-0.8,0.1c-0.3,0-0.6,0-0.6,0.4
				c0,0.3-0.1,0.6,0.1,0.9c0.2,0.2,0.1,0.4-0.2,0.5c-0.3,0.1-0.3,0.1-0.1,0.3c0.1,0.1,0.1,0.1,0.2,0.2c0.3,0.3,0.3,0.6-0.1,0.7
				c-0.2,0.1-0.3,0.2-0.1,0.4c0.4,0.4,0.8,0.8,1.3,0.9c0.4,0.1,0.8,0.2,1.1,0.6c0.1,0.2,0.3,0.3,0.4,0.4c0.2,0.1,0.5,0.2,0.7,0.3
				c0.1,0.1,0.3,0.2,0.4,0.3c0.1,0.1,0.2,0.2,0.3,0.2C728,114,728.1,114.1,728.2,114.2z M734,107.7
				C733.9,107.7,733.9,107.7,734,107.7c-0.1-0.1-0.1-0.2,0-0.2c0.1,0.1,0.1,0.1,0.1,0.1C734,107.6,734,107.7,734,107.7z M734,106.7
				c0.1,0.1,0.1,0.2,0.2,0.2c-0.1,0.1-0.1,0.2-0.2,0.3c-0.1-0.1-0.2-0.2-0.2-0.3C733.8,106.9,733.9,106.8,734,106.7z M733.8,105.6
				C733.8,105.6,733.9,105.6,733.8,105.6c0.1,0.1,0.1,0.3,0.2,0.4c0,0,0,0.1,0,0.1c0,0.1-0.1,0.1-0.1,0.2c0-0.1-0.1-0.1-0.1-0.2
				c0,0,0-0.1,0-0.1c0,0,0,0,0,0C733.7,105.8,733.7,105.7,733.8,105.6z M719.3,103.4c0.2,0.1,0.3,0.2,0.4,0.3c0,0.1-0.1,0.3-0.3,0.3
				c-0.2,0-0.4,0-0.3-0.3C719.1,103.6,719.2,103.5,719.3,103.4z M719.7,104.7c-0.1,0-0.2,0.1-0.3,0.1c-0.1-0.1-0.3-0.2-0.4-0.3
				c0,0,0-0.1,0-0.1c0,0,0.1,0,0.1,0c0.2,0.1,0.5,0.2,0.7,0.2c0,0,0.1,0.1,0.1,0.1C719.8,104.6,719.7,104.7,719.7,104.7z
				 M720.9,103.6c0,0.1-0.1,0.1-0.2,0.1c0-0.1-0.1-0.1-0.1-0.2c0-0.1,0-0.1,0.1-0.2c0-0.1,0.1-0.2,0.1-0.2c0,0.1,0.1,0.2,0.1,0.3
				C720.9,103.5,720.9,103.6,720.9,103.6z M724.1,108.8c-0.1,0-0.1-0.1-0.2-0.1c0,0,0.1-0.1,0.2-0.2c0.1,0.1,0.1,0.1,0.2,0.2
				C724.2,108.8,724.2,108.8,724.1,108.8z M724.6,108.7C724.6,108.7,724.5,108.6,724.6,108.7c0-0.1,0.1-0.1,0.1-0.1c0,0,0,0,0.1,0.1
				C724.7,108.6,724.6,108.7,724.6,108.7z M723.1,104.7C723.1,104.7,723.1,104.6,723.1,104.7c0-0.2,0.1-0.3,0.2-0.3
				c0.2,0,0.4,0,0.6-0.1c0,0,0,0,0.1,0.1c0,0.1-0.1,0.2-0.1,0.2C723.7,104.6,723.4,104.6,723.1,104.7z M725.5,105.8
				c0,0.1-0.1,0.2-0.2,0.2c-0.4,0.1-0.7,0.3-1.1,0.4c-0.1-0.1-0.3-0.2-0.3-0.3c0-0.2,0.1-0.2,0.3-0.3c0.4-0.1,0.8,0,1.1-0.2
				c0,0,0.1,0,0.2,0C725.6,105.6,725.6,105.7,725.5,105.8z M725.5,103.9c-0.2,0.2-0.4,0.3-0.7,0.5c0,0-0.2-0.1-0.2-0.1
				c0-0.1,0-0.2,0.1-0.3c0.2-0.1,0.3-0.2,0.5-0.3c0.1,0,0.2,0,0.3,0.1C725.6,103.9,725.6,103.9,725.5,103.9z M725.6,111.7
				C725.6,111.7,725.6,111.6,725.6,111.7C725.6,111.6,725.6,111.6,725.6,111.7C725.7,111.6,725.7,111.7,725.6,111.7L725.6,111.7z
				 M730.1,114.3c0,0-0.1,0-0.2,0c0.1-0.1,0.1-0.1,0.1-0.1C730.1,114.2,730.2,114.2,730.1,114.3
				C730.2,114.3,730.1,114.3,730.1,114.3z M730.1,112.8c0,0-0.1-0.1,0-0.1c0.2-0.1,0.4-0.3,0.6-0.4c0,0,0.1,0,0.1,0
				C730.8,112.6,730.3,112.9,730.1,112.8z M731.3,113.5c-0.1,0-0.2,0-0.2,0c0-0.1,0-0.2,0.1-0.2c0.1-0.1,0.3-0.2,0.4-0.3
				c0.3-0.1,0.5-0.1,0.8-0.2C732,113.1,731.6,113.3,731.3,113.5z M732,112.2c-0.1,0.1-0.3,0.2-0.5,0.3c-0.2-0.1-0.3-0.1-0.4-0.2
				c-0.1-0.2,0.1-0.3,0.3-0.4c0.4-0.1,0.8-0.3,0.9-0.8c0-0.1,0.2-0.2,0.3-0.2c0.1,0,0.2-0.1,0.3,0c0.1,0.1,0.1,0.2,0.1,0.3
				c0,0.1-0.1,0.1-0.1,0.2C732.5,111.7,732.2,111.8,732,112.2z M732.9,112.3c-0.1,0.2-0.3,0.3-0.5,0.5c0.1-0.2,0.2-0.4,0.3-0.6
				c0,0,0.1,0,0.2,0C732.9,112.3,732.9,112.3,732.9,112.3z M733,101.6C733,101.6,733,101.6,733,101.6c0,0.1,0,0.1,0,0.2
				C733,101.7,732.9,101.7,733,101.6C732.9,101.6,733,101.6,733,101.6z M733,102c0.1,0,0.2,0.1,0.2,0.1c0.1,0.1,0.1,0.3,0.2,0.4
				c-0.1,0.1-0.1,0.2-0.1,0.2c-0.1,0-0.2,0-0.2-0.1c-0.1-0.2-0.1-0.3-0.2-0.5C732.8,102.1,732.9,102,733,102z M732.9,105.9
				c0.2,0,0.2,0.1,0.2,0.3c0,0.3-0.3,0.7-0.5,0.6c-0.1,0-0.4-0.5-0.4-0.6C732.3,106,732.5,105.9,732.9,105.9z M732.6,103.2
				c0,0-0.1,0.1-0.1,0.1c0-0.1-0.1-0.1-0.1-0.2c0,0,0-0.1,0-0.1c0,0,0,0,0,0c0-0.1,0.1-0.2,0.1-0.3c0,0.1,0.1,0.2,0.1,0.4
				C732.7,103.1,732.6,103.2,732.6,103.2z M732.2,99.2c0.1,0.1,0.3,0.3,0.4,0.4c0,0-0.1,0.2-0.1,0.2c-0.2-0.1-0.4-0.1-0.5-0.3
				C731.9,99.4,732,99.3,732.2,99.2z M732.3,104.7c0.2,0,0.3,0.1,0.2,0.2c0,0.2-0.2,0.5-0.4,0.5c-0.2,0-0.3-0.2-0.4-0.4
				C731.8,104.9,732,104.7,732.3,104.7z M731.7,104c0,0,0.1,0,0.2,0.1c-0.1,0.1-0.2,0.1-0.2,0.1c-0.1,0-0.1-0.1-0.2-0.1
				C731.5,104.1,731.6,104.1,731.7,104z M730.9,99.5C730.9,99.6,731,99.6,730.9,99.5c0.1,0.1,0.1,0.1,0,0.2c0,0-0.1,0-0.1-0.1
				C730.9,99.6,730.9,99.6,730.9,99.5z M731.2,107.6c0.1,0.1,0.2,0.3,0.3,0.3c0,0.4-0.4,0.7-0.6,0.6c-0.1,0-0.1-0.1-0.1-0.2
				c0-0.2,0.1-0.5,0.2-0.7C730.9,107.6,731.1,107.5,731.2,107.6z M730.7,107.2c-0.1,0.1-0.2,0.2-0.3,0.3c-0.2,0.2-0.4,0.3-0.6,0.5
				c-0.1,0.1-0.2,0.1-0.3,0.2c0,0-0.1,0-0.1,0c0,0,0-0.1,0.1-0.1c0.2-0.2,0.3-0.4,0.5-0.7c0.2-0.4,0.1-0.6-0.4-0.6
				c-0.1,0-0.3,0-0.4,0c0,0-0.1,0-0.1,0c0,0,0.1,0,0.1-0.1c0.2,0,0.2-0.1,0.3-0.3c0.1-0.3,0.4-0.4,0.8-0.3c0.3,0,0.3,0.2,0.3,0.4
				C730.6,106.7,730.9,106.9,730.7,107.2z M730.4,104.7c-0.1,0.1-0.2,0.1-0.3,0.1c-0.1,0-0.2-0.1-0.2-0.2c0.1,0,0.1-0.1,0.2-0.1
				C730.1,104.5,730.2,104.6,730.4,104.7z M730.2,100.8c0,0,0.1-0.1,0.1-0.1c0.1,0,0.2,0.1,0.2,0.2c-0.1,0-0.1,0.1-0.2,0.1
				C730.3,100.9,730.2,100.9,730.2,100.8z M730,98.5c0,0,0.1,0,0.1,0c0.2,0.2,0.3,0.4,0.5,0.6c0,0,0,0,0,0.1c0,0-0.1,0-0.1,0
				c-0.2-0.2-0.4-0.4-0.6-0.6C730,98.6,730,98.5,730,98.5z M729.9,99.1c0,0,0.1,0.1,0.1,0.1c-0.1,0-0.1,0.1-0.1,0.1
				C729.9,99.3,729.9,99.3,729.9,99.1C729.9,99.2,729.9,99.2,729.9,99.1z M729.3,97.8c0.1,0.1,0.2,0.2,0.3,0.3c0,0-0.1,0.1-0.2,0.2
				c-0.1-0.2-0.2-0.3-0.3-0.4C729.2,97.8,729.3,97.8,729.3,97.8z M729.4,103c0,0.1-0.1,0.2-0.2,0.4c0-0.1-0.1-0.2-0.1-0.4
				c0-0.1,0.1-0.2,0.1-0.2c0,0,0.1,0,0.1,0C729.3,102.9,729.4,102.9,729.4,103z M729.1,95c0,0.2,0.1,0.2,0.1,0.3
				c0,0-0.1,0.1-0.1,0.1c0-0.1-0.1-0.2-0.1-0.3C729,95.1,729,95.1,729.1,95z M729,103.6C729,103.6,729.1,103.6,729,103.6
				c0.2,0.2,0.3,0.4,0.3,0.6c0,0-0.1,0.1-0.1,0.1C729.1,104.1,729,103.9,729,103.6C728.9,103.7,729,103.6,729,103.6z M729.2,104.9
				c0.2,0.1,0.4,0.2,0.5,0.3c-0.2,0.1-0.3,0.2-0.5,0.4c-0.2,0.1-0.3,0.2-0.5,0.3c-0.1,0.1-0.2,0.1-0.4,0.2c-0.1,0-0.1,0-0.2-0.1
				c0,0,0-0.1,0.1-0.1c0.2-0.2,0.4-0.4,0.5-0.8C728.9,104.8,729,104.7,729.2,104.9z M728.1,104.8c-0.2,0.1-0.3,0.1-0.4,0
				c-0.1-0.1-0.1-0.2,0-0.4c0.2-0.3,0.3-0.6,0.7-0.7c0.2,0,0.3,0,0.4,0.2c0.1,0.1,0.1,0.6-0.1,0.7c-0.1,0.1-0.2,0.1-0.3,0.1
				c0,0,0,0,0-0.1C728.3,104.7,728.2,104.8,728.1,104.8z M728.1,107.8c0,0.1-0.1,0.2-0.1,0.2c0,0,0,0-0.1,0
				C728,107.9,728.1,107.9,728.1,107.8z M728.2,101.4c0,0,0,0.2,0,0.2c-0.1,0-0.1-0.1-0.2-0.1c-0.1-0.2-0.3-0.3-0.4-0.5
				c0,0,0-0.1,0.1-0.3c0.1,0.2,0.2,0.2,0.2,0.3C728,101.2,728.1,101.3,728.2,101.4z M728.1,98.9C728.1,98.9,728.1,98.8,728.1,98.9
				c0.1-0.1,0.1,0,0.1,0C728.2,98.9,728.1,99,728.1,98.9C728.1,98.9,728,98.9,728.1,98.9z M728.3,102.1c0,0,0.1,0,0.1,0
				c0.1,0.2,0.2,0.3,0.4,0.5c-0.1,0.1-0.2,0.2-0.2,0.3c-0.1-0.1-0.1-0.1-0.2-0.2c-0.1-0.2-0.1-0.3-0.2-0.5
				C728.2,102.2,728.3,102.2,728.3,102.1z M728.2,107.7c0,0,0.1-0.1,0.1-0.1c0,0,0,0,0,0.1C728.3,107.7,728.3,107.7,728.2,107.7
				C728.2,107.8,728.2,107.8,728.2,107.7C728.2,107.7,728.2,107.7,728.2,107.7z M728.6,97.8c-0.1-0.1-0.2-0.1-0.4-0.2c0,0,0,0,0-0.1
				c0.1,0,0.3,0,0.4,0c0.1,0,0.1,0.1,0.2,0.1C728.8,97.7,728.7,97.8,728.6,97.8z M728.6,95.1c0.1,0,0.2,0,0.2,0c0,0.1,0,0.1,0,0.2
				c0,0.1-0.1,0.1-0.2,0.1c-0.1,0-0.1,0-0.1,0c-0.1-0.1-0.2-0.1-0.3-0.2c0.1,0,0.2,0,0.3,0C728.5,95.1,728.5,95.1,728.6,95.1z
				 M728.1,94.7C728.1,94.7,728.1,94.8,728.1,94.7c0,0.1,0,0.1,0,0.1C728.1,94.8,728.1,94.8,728.1,94.7
				C728.1,94.8,728.1,94.7,728.1,94.7z M728.1,96.8C728,96.9,728,96.9,728.1,96.8c-0.1,0.1-0.1,0-0.2,0
				C727.9,96.8,728,96.8,728.1,96.8C728,96.8,728.1,96.8,728.1,96.8z M727.7,95.4c0-0.1,0.2-0.1,0.2-0.1c0,0.1,0,0.2,0,0.2
				c-0.1,0.1-0.1,0.3-0.2,0.4c-0.4,0.2-0.7,0.4-1.2,0.6c-0.3,0.1-0.6,0-0.9,0c0,0-0.1,0-0.1-0.1c0,0,0.1,0,0.1-0.1
				c0.2,0,0.4-0.1,0.6-0.1c0.1,0,0.1,0,0.2-0.1c0.1-0.1,0.1-0.1,0.2-0.2c-0.1,0-0.2-0.1-0.3,0c-0.3,0.1-0.5,0.2-0.8,0
				c-0.1,0-0.2,0-0.3,0c-0.2,0-0.3,0.1-0.5,0.2c-0.1-0.2-0.1-0.4,0.2-0.3c0.1,0,0.1,0,0.2,0c0.5-0.2,1-0.2,1.5-0.2
				c0.2,0,0.4,0,0.6,0C727.3,95.7,727.6,95.7,727.7,95.4z M726.9,102.4c-0.1,0-0.1,0.1-0.2,0.1c0,0-0.1,0-0.1,0.1c0,0,0-0.1,0-0.1
				c0-0.1,0-0.2,0.1-0.2c0.2-0.1,0.3-0.2,0.5-0.3c0.1,0,0.2,0,0.3,0.1c-0.1,0.1-0.1,0.1-0.2,0.2C727.1,102.3,727,102.3,726.9,102.4z
				 M726.9,104.7c0,0.1,0,0.1-0.1,0.1c-0.2,0.1-0.3,0.2-0.5,0.2c0,0-0.1-0.1-0.2-0.1c0,0,0.1-0.1,0.1-0.1c0.1-0.1,0.3-0.1,0.4-0.1
				C726.8,104.6,726.9,104.7,726.9,104.7z M726.8,99.7c0,0,0-0.1,0.1-0.1c0,0.1,0.1,0.2,0.1,0.2c0,0-0.1,0.1-0.1,0.1
				C726.8,99.8,726.8,99.8,726.8,99.7z M727.3,101.4c0,0.1-0.1,0.1-0.1,0.3c-0.1-0.1-0.1-0.1-0.1-0.2c0-0.1,0.1-0.1,0.1-0.2
				C727.2,101.3,727.3,101.4,727.3,101.4z M727,98.2C727,98.2,727,98.2,727,98.2c0-0.1,0-0.1,0.1-0.1c0,0,0,0,0.1,0.1
				C727.1,98.2,727.1,98.2,727,98.2z M727.4,103.5C727.4,103.5,727.4,103.5,727.4,103.5C727.5,103.6,727.4,103.6,727.4,103.5
				C727.4,103.6,727.4,103.6,727.4,103.5C727.4,103.6,727.4,103.5,727.4,103.5z M726.8,97.9c-0.1,0-0.2,0.1-0.2,0.1
				c0,0-0.1-0.1-0.1-0.1c0.1-0.1,0.1-0.1,0.2-0.1C726.7,97.7,726.7,97.8,726.8,97.9z M726,97.9c-0.1,0.4-0.2,0.4-0.5,0.2
				c0,0-0.1,0-0.2,0c0,0-0.1,0-0.1,0.1c0,0,0-0.1,0-0.1c0.1-0.3,0.4-0.4,0.6-0.4C726,97.6,726.1,97.7,726,97.9z M725.1,94.6
				c0,0,0.1,0,0.1,0c0.3,0.2,0.6,0.3,0.6,0.1c0-0.1,0-0.5,0.1-0.6c0.1,0.1,0.1,0.1,0.2,0.2c0.1,0,0.1,0,0.2,0c0,0,0,0,0,0
				c0.1,0,0.2,0,0.2,0.1c0,0.1,0,0.4,0,0.4c-0.3,0.2-0.4,0.3-0.8,0.4c-0.2,0-0.5-0.1-0.7-0.3C725.1,94.7,725.1,94.7,725.1,94.6z
				 M722.7,91.1c0,0,0.1,0.1,0.1,0.1c-0.1,0-0.1,0.1-0.2,0.1c-0.1,0-0.1-0.1-0.1-0.1C722.5,91.2,722.6,91.1,722.7,91.1z M722.8,93.6
				c0.1,0.1,0.2,0.1,0.3,0.2c-0.1,0-0.1,0.1-0.2,0.1c-0.1,0-0.2-0.1-0.3-0.1C722.7,93.6,722.8,93.6,722.8,93.6z M722,91
				c0.1,0,0.1,0.1,0.3,0.1c-0.1,0.1-0.2,0.2-0.2,0.2c-0.1-0.1-0.1-0.2-0.2-0.3C721.8,91.1,721.9,91,722,91z M721.5,92.2
				c0,0,0.1,0.1,0.1,0.1c0,0.1-0.1,0.1-0.1,0.2c-0.1-0.1-0.1-0.2-0.1-0.2C721.4,92.2,721.5,92.2,721.5,92.2z M721.1,91.5
				C721.1,91.6,721.2,91.6,721.1,91.5c0.1,0.1,0.2,0.2,0.2,0.3c0,0-0.1,0.1-0.1,0.1c0-0.1-0.1-0.1-0.1-0.2
				C721,91.6,721.1,91.6,721.1,91.5z M720.9,91.1c0,0,0.1,0,0.1,0c-0.1,0.1-0.1,0.1-0.1,0.1c0,0-0.1,0-0.1-0.1
				C720.9,91.2,720.9,91.1,720.9,91.1z M720.5,96.6C720.5,96.6,720.4,96.6,720.5,96.6c-0.1-0.1-0.1-0.1,0-0.1
				C720.5,96.5,720.5,96.5,720.5,96.6C720.5,96.5,720.5,96.6,720.5,96.6z M721.7,96.7c-0.5-0.2-1-0.4-1.5-0.6c-0.1,0-0.2,0-0.3,0
				c-0.3,0-0.5,0.2-0.8,0c0,0-0.2,0.1-0.2,0.1c0.1,0.1,0.1,0.2,0.2,0.2c0.2,0,0.4,0,0.5,0c0.1,0,0.2,0.1,0.2,0.1
				c0,0.1,0,0.2-0.1,0.2c-0.2,0.2-0.8,0.2-1.1,0.1c-0.1-0.1-0.2-0.2-0.2-0.4c-0.1-0.3-0.3-0.6-0.5-0.9c-0.1-0.2-0.2-0.1-0.3,0.1
				c-0.1,0.1-0.1,0.2-0.2,0.3c0-0.1,0-0.3,0.1-0.4c0.1-0.2,0.1-0.3-0.1-0.4c-0.2,0-0.1-0.2,0-0.2c0.2-0.2,0.2-0.4,0.2-0.7
				c0-0.2,0-0.4,0.3-0.4c0.1,0,0.2-0.1,0.2-0.2c0.1-0.1,0.5-0.2,0.6-0.1c0.2,0.1,0.1,0.3,0,0.5c-0.1,0.2-0.2,0.3-0.3,0.4
				c-0.2,0.2-0.2,0.3,0.1,0.4c0.1,0,0.2,0.1,0.2,0.1c0.3,0.6,0.9,0.5,1.4,0.7c0.7,0.2,1.4,0.4,1.9,1c0,0,0,0.1,0.1,0.2
				C721.9,96.7,721.8,96.7,721.7,96.7z M719.7,94.7c-0.4,0-0.5-0.4-0.8-0.5c0,0,0-0.2,0-0.3c0,0,0.1,0,0.2-0.1c0,0,0,0,0,0
				c0.1,0,0.2,0,0.2,0c0.1,0,0.1-0.1,0.2-0.2c0.1,0.1,0.2,0.2,0.2,0.3c0.1,0.3,0.2,0.4,0.5,0.3c0,0,0.1,0,0.1,0c0,0,0,0.1,0,0.2
				C720.3,94.7,720,94.8,719.7,94.7z M720.1,95c0,0-0.1,0.1-0.1,0.1c0-0.1-0.1-0.1-0.1-0.1C719.9,95,720,95,720.1,95
				C720.1,95,720.1,95,720.1,95z M719,94.8C718.9,94.8,718.9,94.8,719,94.8C718.9,94.8,718.9,94.8,719,94.8
				C718.9,94.8,718.9,94.7,719,94.8C718.9,94.8,718.9,94.8,719,94.8z M720.6,95.1C720.6,95.1,720.7,95.1,720.6,95.1
				c0.1-0.1,0.1-0.1,0.2-0.1C720.7,95.1,720.7,95.1,720.6,95.1C720.7,95.2,720.6,95.1,720.6,95.1z M721.7,93.8
				C721.7,93.8,721.7,93.8,721.7,93.8C721.7,93.7,721.8,93.7,721.7,93.8C721.8,93.8,721.8,93.8,721.7,93.8
				C721.8,93.8,721.7,93.8,721.7,93.8z M721.1,93.3c-0.3-0.2-0.7-0.3-1.1-0.2c-0.3,0.1-0.6-0.1-0.8-0.2c0,0-0.1-0.1-0.1-0.2
				c0-0.4-0.1-0.2-0.2-0.1c-0.1,0.1-0.2,0.1-0.4,0c-0.1-0.1-0.3-0.1-0.4-0.2c-0.1-0.1-0.1-0.2-0.1-0.3c0.1-0.2,0.3-0.3,0.5-0.5
				c0.2-0.1,0.4-0.1,0.5,0c0.1,0,0.1,0.1,0.2,0.1c0.3,0.3,0.5,0.2,0.8,0c0.1,0,0.2,0,0.2-0.1c0,0.1-0.1,0.1-0.1,0.2
				c-0.1,0.1,0,0.2,0.1,0.2c0.5,0.1,0.8,0.4,1.2,0.6c0.1,0.1,0.2,0.3,0.4,0.1c0,0,0.1,0,0.1,0c-0.2,0.3,0.1,0.4,0.2,0.6
				C721.8,93.5,721.4,93.4,721.1,93.3z M722.2,93.5C722.2,93.5,722.2,93.5,722.2,93.5c0.1,0,0.2,0.1,0.3,0.1c0,0,0,0,0,0.1
				C722.3,93.6,722.2,93.5,722.2,93.5z M723,96.4c0,0.2-0.1,0.5-0.2,0.7c0,0.1-0.1,0.1-0.1,0.1c0,0-0.1-0.1-0.1-0.1
				c0-0.3-0.1-0.6-0.3-0.9c0,0,0-0.1,0-0.2c0-0.2,0.1-0.3,0-0.5c-0.1-0.4,0.1-0.7,0.4-1c0.1-0.1,0.2-0.1,0.3,0
				c0.1,0.2,0.2,0.4,0.2,0.5C723.2,95.5,723.1,96,723,96.4z M723.2,91.8c0,0-0.1,0.1-0.1,0.2c-0.1,0-0.1,0-0.2,0.1
				c0-0.1-0.1-0.1,0-0.2c0.1-0.3,0.7-0.7,1.1-0.6c0,0,0.1,0.1,0.1,0.1c0.1,0.1,0.3,0.3,0.4,0.4c0,0.1-0.1,0.1-0.1,0.1
				c-0.3,0-0.4,0.2-0.6,0.3c0,0-0.1,0-0.1,0c0,0,0-0.1,0-0.1c0-0.1,0.1-0.2,0.1-0.3c0-0.1,0-0.1,0.1-0.2c-0.1,0-0.2-0.1-0.2,0
				C723.5,91.6,723.4,91.7,723.2,91.8z M723.8,93.4c0.1-0.1,0-0.2,0-0.3c0-0.2,0.2-0.3,0.3-0.2c0.2,0.2,0.3,0.1,0.4,0
				c0.3-0.3,0.5-0.4,0.9-0.4c0.3,0,0.7-0.2,1-0.3c0.1,0,0.2,0,0.3,0c0.1,0.1,0.2,0.3,0.3,0.4c0,0-0.1,0.1-0.2,0.2
				c-0.5,0.1-1,0.2-1.5,0.4c-0.2,0.1-0.4,0.2-0.7,0.3c-0.2,0.1-0.4,0.1-0.5,0.2c0,0,0,0,0,0c-0.1,0-0.2,0-0.3,0
				C723.8,93.7,723.5,93.7,723.8,93.4z M723.9,96.7c-0.1,0-0.2,0-0.2,0.1c0-0.1,0-0.2,0.1-0.2c0.3-0.1,0.5-0.5,0.9-0.3
				C724.4,96.3,724.2,96.5,723.9,96.7z M724.7,100.2c0,0-0.1,0-0.1,0c-0.1,0-0.2,0.3-0.2,0c0-0.1,0.1-0.2,0.2-0.2c0,0,0.1,0,0.1,0
				c0,0,0.1,0.1,0.1,0.1C724.8,100.1,724.7,100.2,724.7,100.2z M726,100.2c0,0.1-0.1,0.2-0.2,0.3c-0.2,0.1-0.3,0.3-0.5,0.4
				c-0.1,0.1-0.2,0.1-0.3,0.1c-0.1-0.1-0.2-0.2,0-0.3c0.2-0.2,0.3-0.4,0.5-0.6c0.1-0.1,0.2-0.1,0.2-0.2
				C725.9,99.8,726,100,726,100.2z M726,98.8c0-0.1,0.2-0.1,0.3-0.1c0,0,0,0.1,0,0.1c0.1-0.1,0.3-0.1,0.3-0.2c0.2-0.2,0.3-0.1,0.5,0
				c0.1,0.1,0,0.3-0.1,0.3c-0.2,0.1-0.4,0.2-0.6,0.2c-0.1,0-0.2,0-0.3-0.1C726,99.1,725.9,98.9,726,98.8z M726.1,106.4
				c0-0.4,0.4-0.8,0.7-0.7c0,0,0.1,0.1,0.1,0.1c0,0,0,0.1,0,0.2c0,0.1,0.3,0.2,0,0.4c-0.2,0.1-0.5,0.2-0.7,0.2
				C726.2,106.5,726.1,106.4,726.1,106.4z M727,110c0,0-0.1,0-0.1,0c0,0-0.1,0-0.1,0c-0.1-0.1-0.4-0.1-0.4-0.3
				c-0.1-0.2,0.2-0.3,0.3-0.3c0.3-0.1,0.6-0.2,0.9-0.3c0.1,0,0.3-0.1,0.4,0c0.3,0.1,0.5,0,0.6-0.2c0.1-0.1,0.3-0.2,0.4-0.3
				c-0.1,0.1-0.2,0.3-0.3,0.4C728.2,109.5,727.7,109.9,727,110z M727.9,110.7c0.3-0.2,0.6-0.3,0.9-0.5c0.2-0.1,0.3-0.3,0.5-0.5
				c0.2-0.2,0.3-0.5,0.4-0.7c0.1-0.1,0.3-0.1,0.4-0.1c0.1,0,0.3,0,0.4-0.2c0,0,0.1,0,0.2-0.1c0,0.1,0,0.1,0,0.2
				c-0.1,0.1-0.3,0.2-0.4,0.2c-0.2,0.2-0.5,0.4-0.7,0.6c-0.1,0.1-0.1,0.3,0,0.4c0.1,0.1,0.2,0.1,0.3,0.1c0.2-0.1,0.5-0.1,0.8-0.3
				c0.2-0.2,0.4-0.4,0.6-0.7c0,0,0-0.1,0.1-0.1c0.1-0.1,0.2-0.3,0.3-0.3c0.2,0,0.3,0.2,0.3,0.4c0,0.2,0.1,0.2,0.2,0.2
				c0.3,0.1,0.4,0.3,0.3,0.6c-0.1,0.2-0.2,0.5-0.4,0.7c-0.1,0.2-0.3,0.4-0.5,0.6c-0.1,0.1-0.3,0.3-0.4,0.4c-0.4,0.2-0.8,0.4-1.2,0.6
				c-0.4,0.2-0.9,0.2-1.3,0.3c-0.2,0-0.3,0-0.5,0.1c-0.2,0.1-0.3,0.1-0.3-0.1c0,0,0-0.1,0-0.1c0.2,0,0.4-0.1,0.5-0.1
				c0.3,0.1,0.5,0,0.5-0.3c0.1-0.2,0.4-0.3,0.6-0.5c0.1-0.1,0.2-0.1,0.4-0.1c0.1,0,0.2,0,0.2,0c0.1,0.2,0.3,0.2,0.4,0.1
				c0.1,0,0.2,0,0.3,0c0.3,0,0.4,0,0.5-0.4c0.1-0.2,0.1-0.5,0.2-0.7c0-0.1,0-0.2-0.1-0.2c-0.1,0-0.2,0-0.2,0.1
				c-0.1,0.2-0.3,0.4-0.6,0.3c-0.1,0-0.2,0-0.2,0.1c-0.2,0.3-0.4,0.4-0.7,0.3c-0.5-0.1-1-0.1-1.4,0.2c-0.1,0-0.1,0.1-0.2,0.1
				c-0.1,0.1-0.2,0.2-0.4,0C727.7,111,727.7,110.8,727.9,110.7z M718.1,104.4c0,0,0.1-0.1,0.2-0.1c-0.1-0.1-0.1-0.1-0.3-0.3
				c0,0.1-0.1,0.2-0.1,0.2C717.9,104.3,718,104.3,718.1,104.4z M731,123.3c0,0-0.1,0.1-0.1,0.1c0,0,0.1,0.1,0.1,0.1
				c0-0.1,0.1-0.1,0.1-0.1C731.1,123.4,731,123.3,731,123.3z M717.6,102c0,0.1,0.2,0.1,0.3,0c0.2-0.1,0.2-0.3,0-0.4
				c-0.3-0.1-0.4-0.3-0.5-0.6c0,0-0.1-0.1-0.1-0.1c-0.1,0-0.1-0.1-0.2-0.1c0,0-0.1,0.1-0.1,0.2c0,0.1,0,0.2,0.1,0.2
				C717.3,101.5,717.4,101.8,717.6,102z M721.3,106.2c0.2,0.1,0.5-0.2,0.4-0.3c-0.1-0.2-0.2-0.3-0.4-0.4c-0.1,0.1-0.2,0.2-0.4,0.4
				C721.1,106,721.1,106.1,721.3,106.2z M723.7,114.7c0.2,0.2,0.3,0.2,0.4-0.1c0-0.2,0.1-0.3,0.3-0.3c0.1,0,0.3-0.1,0.3-0.2
				c0.3-0.3,0.4-0.3,0.7,0c0.2,0.2,0.4,0.2,0.7,0.2c0.2-0.1,0.3-0.1,0.2-0.3c0-0.1,0-0.1,0-0.2c0-0.3-0.1-0.4-0.4-0.5
				c-0.1,0-0.3-0.1-0.3-0.1c-0.1-0.2-0.3-0.3-0.4-0.5c-0.2-0.2-0.3-0.2-0.5-0.1c-0.4,0.1-0.5,0.1-0.6-0.3c-0.1-0.2-0.2-0.3-0.4-0.2
				c-0.5,0.1-0.7,0-0.6-0.5c0-0.2,0-0.4-0.1-0.6c-0.2-0.3-0.4-0.7-0.5-1.1c0,0,0.1,0,0.1,0c-0.1-0.7-0.2-1.3-0.3-2
				c0-0.1-0.1-0.1-0.1-0.2c0,0.1-0.1,0.1-0.1,0.2c0,0-0.1,0.1-0.1,0.1c0,0-0.1-0.1-0.1-0.1c0-0.1,0-0.2,0.1-0.3
				c0.1-0.1,0.2-0.3,0.2-0.4c0-0.1,0-0.3-0.1-0.3c-0.2,0-0.1,0.1-0.2,0.2c-0.1,0.2-0.1,0.5-0.3,0.7c-0.1,0.2-0.3,0.3-0.3,0.5
				c0,0.1-0.1,0.2-0.1,0.3c-0.1-0.1-0.1-0.2-0.2-0.2c-0.1-0.1-0.3-0.2-0.3-0.2c-0.2,0.1-0.1,0.2,0,0.3c0,0,0,0.1,0,0.2
				c0,0-0.1,0-0.1,0c-0.2-0.1-0.4-0.2-0.6-0.2c-0.1,0-0.2-0.1-0.3-0.1c-0.1,0-0.1,0.1-0.2,0.1c0,0.1,0.1,0.2,0.1,0.2
				c0.3,0.2,0.5,0.4,0.9,0.3c0.1,0,0.2,0.1,0.2,0.1c0,0.2-0.3,0.4-0.5,0.4c-0.4-0.1-0.9-0.3-1.3-0.4c0,0-0.1,0-0.2,0
				c0,0,0,0.2,0,0.2c0.2,0.1,0.4,0.3,0.6,0.3c0.4,0.1,0.9,0.1,1.3,0.2c0.3,0,0.7,0,0.9-0.2c0.2-0.2,0.3-0.2,0.4,0.1
				c0,0.1,0.2,0.1,0.3,0.1c0.2,0.1,0.3,0.2,0.3,0.4c0,0.3,0.1,0.6,0.3,0.8c0.1,0.1,0.1,0.2-0.1,0.3c-0.3,0.1-0.4,0.2-0.5,0.5
				c0,0.1-0.1,0.1-0.1,0.2c-0.1,0.1-0.2,0.2-0.4,0.3c0.1,0.1,0.2,0.2,0.4,0.3c0.4,0.4,0.9,0.7,1.3,1.1c0.2,0.2,0.4,0.4,0.6,0.7
				c0,0,0,0.1,0,0.1c-0.3-0.1-0.6-0.2-0.8-0.4c-0.4-0.3-0.8-0.7-1.2-1.1c-0.4-0.3-0.6-0.8-0.9-1.2c0-0.1,0-0.1,0-0.2
				c0-0.3-0.1-0.5-0.4-0.6c-0.1,0-0.3-0.1-0.2-0.3c0.1-0.2-0.1-0.3-0.2-0.4c-0.3-0.1-0.6-0.1-0.9-0.2c-0.1,0-0.1,0-0.2,0.1
				c0,0,0,0.1,0,0.2c0.1,0.1,0.3,0.2,0.4,0.3c0.1,0.1,0.3,0.1,0.2,0.3c0,0.1,0.1,0.3,0.2,0.3c0.1,0.1,0.3,0.1,0.4,0.2
				c0.1,0,0.2,0.1,0.3,0.2c-0.1,0-0.2,0-0.2,0.1c-0.1,0-0.2,0.1-0.3,0.2c-0.2,0.2-0.2,0.4,0,0.4c0.3,0,0.3,0.3,0.4,0.5
				c0.1,0.1,0.1,0.3,0.2,0.3c0.4,0.3,0.8,0.7,1.3,1c0.1,0.1,0.3,0.2,0.5,0.1c0.3,0,0.6,0,0.8,0.2
				C723.1,114.3,723.4,114.5,723.7,114.7z M724.6,113.1c0,0,0.1,0.1,0.1,0.1c0,0.1-0.1,0.1-0.1,0.2c0,0-0.1-0.1-0.1-0.1
				C724.5,113.2,724.6,113.2,724.6,113.1z M720.9,108.8c0,0-0.1-0.1-0.1-0.1c0-0.1,0-0.1,0.1-0.3c0.1,0.1,0.1,0.2,0.1,0.2
				C721,108.7,720.9,108.8,720.9,108.8z M721.6,108.9c0,0,0.1,0,0.1,0.1c0,0,0,0.1,0,0.1c0,0-0.1,0-0.1,0
				C721.6,109,721.6,108.9,721.6,108.9z M721.8,109.3c0,0,0-0.1,0-0.1c0,0,0-0.1,0-0.1c0,0,0,0.1,0,0.1
				C721.8,109.2,721.8,109.3,721.8,109.3z M728.4,118.5C728.5,118.5,728.5,118.4,728.4,118.5C728.5,118.4,728.4,118.4,728.4,118.5
				C728.4,118.4,728.4,118.4,728.4,118.5C728.4,118.5,728.4,118.5,728.4,118.5z M723.3,108.8c-0.1-0.1-0.1-0.2-0.2-0.2
				c-0.1,0-0.2,0.1-0.3,0.1c0.1,0,0.2,0.1,0.2,0.1C723.2,108.9,723.2,108.8,723.3,108.8z M724.2,123.3c-0.1,0-0.1,0.1-0.2,0.1
				c0.1,0,0.1,0.1,0.2,0.1c0.1,0,0.2,0.1,0.2,0.1c0.1,0,0.1,0,0.2,0C724.6,123.3,724.4,123.2,724.2,123.3z M717.7,99
				C717.7,99,717.7,99,717.7,99C717.6,99,717.6,99,717.7,99C717.7,99,717.7,99,717.7,99C717.7,99,717.7,99,717.7,99z M718,98.6
				C718,98.6,717.9,98.6,718,98.6c-0.1-0.1-0.2,0-0.2,0c0,0.1,0,0.2-0.1,0.3c0.1-0.1,0.2-0.1,0.2-0.2
				C717.9,98.7,717.9,98.7,718,98.6z M727,122.5c-0.1-0.2-0.2-0.2-0.3,0c-0.1,0.1-0.1,0.2-0.1,0.3c0,0.2-0.2,0.4-0.4,0.4
				c-0.3,0.1-0.6,0.2-0.9,0.4c-0.1,0.1-0.3,0.1-0.4,0.1c-0.1,0-0.2,0.1-0.3,0.1c0.1,0,0.2,0.1,0.4,0.1c0,0,0.1,0,0.1,0
				c0.6-0.1,1.3-0.2,1.9-0.3c0.2,0,0.3-0.2,0.3-0.4C727.1,123.1,727.1,122.8,727,122.5z M728.7,117.6c0.1-0.1,0.1-0.3,0.2-0.4
				c0-0.1,0-0.1,0-0.1c0,0-0.1,0.1-0.1,0.1C728.7,117.3,728.7,117.4,728.7,117.6z"/>
		</g>
	</g>
	<g>
		<path class="st0" d="M86,39.7h3.1l9.8-36.4h-3.1l0.2-0.9h15.3L111,3.3H108l-9.8,36.4h7c1.4,0,2.6-0.3,3.7-0.8
			c1.1-0.5,2.1-1.3,3-2.1s1.6-1.9,2.3-3c0.6-1.1,1.2-2.3,1.6-3.5c0.3-0.8,0.6-1.1,1-1.1c0.3,0,0.4,0.2,0.4,0.6c0,0.1-0.1,0.4-0.2,1
			l-2.1,8c-0.2,0.5-0.4,1-0.7,1.3c-0.3,0.3-0.8,0.5-1.3,0.5h-27L86,39.7z"/>
		<path class="st0" d="M142.1,25.7c-0.5,0.9-1.3,1.7-2.3,2.4c-1,0.6-2.1,1.1-3.5,1.5c-1.4,0.3-2.8,0.5-4.4,0.5
			c-1.1,0-2.2-0.1-3.2-0.3c-1-0.2-1.9-0.4-2.6-0.6l-0.9,3.9c-0.2,0.8-0.3,1.4-0.4,1.9c-0.1,0.5-0.1,1-0.1,1.7c0,1.1,0.4,1.9,1.3,2.5
			c0.8,0.6,1.8,0.9,2.8,0.9c2.4,0,4.6-0.6,6.7-1.8c2-1.2,3.8-2.8,5.2-4.9c0.2-0.3,0.5-0.5,0.7-0.5c0.3,0,0.4,0.2,0.4,0.5
			c0,0.1,0,0.2-0.1,0.4c0,0.2-0.1,0.3-0.3,0.5c-0.6,0.9-1.4,1.8-2.2,2.6c-0.9,0.8-1.8,1.5-2.9,2.2c-1.1,0.6-2.3,1.2-3.6,1.5
			c-1.3,0.4-2.7,0.6-4.1,0.6c-1.9,0-3.5-0.3-4.8-0.9c-1.4-0.6-2.5-1.3-3.4-2.2c-0.9-0.9-1.6-2-2-3.2c-0.4-1.2-0.7-2.5-0.7-3.9
			c0-1.8,0.4-3.6,1.1-5.4c0.7-1.8,1.8-3.5,3.2-4.9c1.4-1.5,3.1-2.7,5.1-3.6c2-0.9,4.4-1.4,7-1.4c1.6,0,2.9,0.2,4,0.6
			c1.1,0.4,2,0.9,2.8,1.5c0.7,0.6,1.3,1.4,1.6,2.2c0.4,0.8,0.5,1.7,0.5,2.5C142.9,23.7,142.6,24.8,142.1,25.7z M126.3,28.3
			c0.4,0.1,0.8,0.2,1.3,0.2c0.4,0.1,0.9,0.1,1.3,0.1c2.1,0,3.8-0.7,5.1-2.2c1.3-1.5,2-3.6,2-6.5c0-1-0.2-1.8-0.6-2.4
			c-0.4-0.6-1.1-0.9-2.1-0.9c-0.8,0-1.4,0.2-2,0.5c-0.6,0.3-1.1,0.8-1.5,1.4c-0.4,0.6-0.8,1.2-1.1,2c-0.3,0.7-0.6,1.5-0.8,2.3
			L126.3,28.3z"/>
		<path class="st0" d="M159.3,6.6l-3.2,11.7h4.9l-0.2,0.9h-4.9l-4,15.3c-0.5,1.7-0.4,2.9,0,3.7c0.5,0.7,1.2,1.1,2.3,1.1
			c0.8,0,1.5-0.3,2.4-0.9c0.8-0.6,1.6-1.6,2.2-2.9c0.1-0.2,0.2-0.3,0.3-0.3c0.1-0.1,0.3-0.1,0.4,0c0.1,0.1,0.2,0.2,0.3,0.3
			c0.1,0.1,0,0.3,0,0.5c-0.6,1.5-1.7,2.7-3.1,3.7c-1.4,1-3.1,1.5-5,1.5c-1.5,0-2.8-0.3-3.9-0.8c-1.1-0.5-2-1.3-2.6-2.2
			c-0.6-0.9-1-2.1-1.2-3.4c-0.2-1.3,0-2.7,0.4-4.3l3.1-11.4h-4.1l0.2-0.9h4.1l0.6-2.2c1.1-0.4,2.2-0.9,3.1-1.4
			c0.9-0.5,1.8-1.1,2.7-1.8c0.8-0.7,1.6-1.6,2.4-2.6c0.8-1,1.5-2.3,2.2-3.7H159.3z"/>
		<path class="st0" d="M176,9.1c-0.5,0.9-1.2,1.8-2,2.7c-0.8,0.9-1.9,1.6-3.1,2.3c-1.2,0.7-2.6,1.2-4.2,1.5
			c-0.2,0.1-0.3,0.1-0.5,0.1c-0.2,0-0.3-0.1-0.3-0.3c0-0.2,0.2-0.3,0.5-0.4c1.3-0.3,2.4-0.8,3.5-1.4c1-0.6,1.9-1.3,2.6-2
			c0.7-0.7,1.3-1.5,1.7-2.2c0.4-0.8,0.7-1.5,0.8-2.1c0.1-0.2,0.1-0.5,0.1-1.1c0-0.5-0.1-0.8-0.4-0.8c-0.1,0-0.2,0.1-0.2,0.2
			c0,0.2-0.1,0.3-0.1,0.3c-0.5,1.4-1.7,2.2-3.5,2.2c-0.9,0-1.8-0.4-2.6-1.1c-0.8-0.7-1.2-1.6-1.2-2.8c0-0.5,0.1-1,0.2-1.5
			c0.2-0.5,0.4-1,0.7-1.4c0.3-0.4,0.8-0.8,1.4-1c0.6-0.3,1.3-0.4,2.1-0.4c1.7,0,3.1,0.5,4.1,1.6c1,1,1.5,2.3,1.5,3.7
			c0,0.2,0,0.3,0,0.5s0,0.4-0.1,0.6C176.9,7.2,176.5,8.1,176,9.1z"/>
		<path class="st0" d="M193.3,22.4c-0.5,0.6-1.1,0.8-2,0.8c-0.8,0-1.4-0.2-2-0.7c-0.6-0.4-0.8-1.1-0.8-1.9c0-0.5,0.1-0.9,0.4-1.3
			c0.2-0.4,0.7-0.7,1.2-0.9c0.3-0.1,0.4-0.2,0.4-0.4c0-0.3-0.5-0.6-1.4-1c-0.9-0.4-2.2-0.6-3.8-0.6c-0.9,0-1.9,0.2-2.7,0.7
			c-0.9,0.5-1.3,1.2-1.3,2.3c0,0.8,0.3,1.6,1,2.3c0.6,0.7,1.8,1.5,3.5,2.4c3.6,1.9,5.5,4.6,5.5,8.2c0,1.3-0.2,2.4-0.7,3.5
			c-0.5,1.1-1.2,2-2.2,2.8c-1,0.8-2.2,1.5-3.7,1.9c-1.5,0.5-3.2,0.7-5.2,0.7c-1.6,0-2.9-0.2-4.1-0.6c-1.2-0.4-2.2-0.9-3-1.5
			c-0.8-0.6-1.4-1.3-1.8-2c-0.4-0.8-0.6-1.5-0.6-2.2c0-0.9,0.3-1.7,0.9-2.4c0.6-0.7,1.3-1,2.3-1c0.8,0,1.6,0.3,2.2,0.8
			c0.7,0.5,1,1.3,1,2.3c0,0.8-0.3,1.4-0.9,2c-0.6,0.5-1.3,0.8-2.1,0.9c-0.2,0.1-0.3,0.2-0.3,0.3c0,0.2,0.2,0.4,0.5,0.7
			c0.3,0.3,0.8,0.6,1.4,0.8c0.6,0.3,1.2,0.5,2,0.7c0.8,0.2,1.6,0.3,2.5,0.3c1.4,0,2.6-0.3,3.5-1c0.9-0.7,1.3-1.8,1.3-3.3
			c0-1-0.3-2-1-3c-0.7-1-1.9-2-3.6-2.9c-1.7-0.9-2.9-2-3.7-3.1c-0.8-1.1-1.1-2.2-1.1-3.4c0-1.3,0.3-2.4,0.8-3.4
			c0.5-1,1.3-1.8,2.2-2.5c0.9-0.7,2-1.2,3.3-1.6c1.3-0.4,2.6-0.5,4.1-0.5c1.5,0,2.8,0.1,3.9,0.4c1.1,0.3,2,0.7,2.8,1.1
			c0.7,0.5,1.3,1,1.6,1.6c0.4,0.6,0.5,1.2,0.5,1.8C193.9,21.2,193.7,21.9,193.3,22.4z"/>
	</g>
</g>
</svg>
