<?xml version="1.0" encoding="utf-8"?>
<!-- Generator: Adobe Illustrator 19.1.0, SVG Export Plug-In . SVG Version: 6.00 Build 0)  -->
<!DOCTYPE svg PUBLIC "-//W3C//DTD SVG 1.1//EN" "http://www.w3.org/Graphics/SVG/1.1/DTD/svg11.dtd">
<svg version="1.1" id="Layer_1" xmlns="http://www.w3.org/2000/svg" xmlns:xlink="http://www.w3.org/1999/xlink" x="0px" y="0px"
	 viewBox="0 0 610.5 264.4" style="enable-background:new 0 0 610.5 264.4;" xml:space="preserve">
<style type="text/css">
	.st0{fill:#222222;}
</style>
<g>
	<g>
		<path class="st0" d="M56.9,2.5c0.3-0.2,0.6-0.3,0.9-0.3c0.3,0,0.5,0.3,0.5,0.8c0,0.1,0,0.3,0,0.5c0,0.1-0.1,0.4-0.2,0.8l-3.4,12.1
			c-0.1,0.5-0.3,0.9-0.4,1.1c-0.1,0.2-0.4,0.3-0.7,0.3c-0.4,0-0.7-0.2-0.8-0.6c-0.1-0.4-0.3-1-0.4-1.9c-0.2-1.5-0.6-3-1.2-4.5
			c-0.6-1.5-1.5-2.7-2.7-3.9c-1.2-1.1-2.6-2-4.2-2.7c-1.7-0.7-3.6-1-5.8-1c-2.6,0-4.8,0.3-6.6,0.9c-1.8,0.6-3.3,1.4-4.5,2.3
			c-1.2,1-2,2.1-2.5,3.3c-0.5,1.2-0.8,2.5-0.8,3.7c0,1.7,0.4,3.2,1.2,4.7c0.8,1.5,2,2.7,3.5,3.5c2.5,1.5,4.8,2.8,7,4.1
			c2.1,1.3,4.2,2.5,6.3,3.6c3.8,2.1,6.7,4.7,8.7,7.6c2,2.9,2.9,6.6,2.9,11.1c0,2.8-0.5,5.5-1.6,8.1c-1.1,2.6-2.8,5-5.2,7
			c-2.4,2.1-5.4,3.7-9.1,5c-3.7,1.3-8.2,1.9-13.4,1.9c-2.4,0-4.4-0.2-6.2-0.6c-1.7-0.4-3.2-1-4.5-1.6c-1.3-0.7-2.4-1.4-3.3-2.2
			C9.4,64.8,8.6,64,8,63.2L3,68c-0.5,0.5-0.8,0.8-1.1,1.1c-0.3,0.3-0.6,0.4-0.9,0.4c-0.6,0-0.9-0.3-0.9-0.8c0-0.4,0.2-1.2,0.5-2.4
			L4.6,51c0.4-1.5,0.8-2.2,1.3-2.2c0.3,0,0.6,0.1,0.8,0.4c0.2,0.3,0.4,0.9,0.5,1.8c0.7,5.4,2.4,9.7,5.2,12.7c2.8,3,6.8,4.6,11.9,4.6
			c2.5,0,4.8-0.4,6.7-1.1c2-0.7,3.6-1.7,4.9-2.9c1.3-1.2,2.3-2.5,3-4c0.7-1.5,1-2.9,1-4.5c0-1.5-0.3-3-1-4.3
			c-0.7-1.4-1.7-2.5-3.1-3.4c-1.5-1-2.9-1.8-4-2.5c-1.2-0.7-2.3-1.4-3.5-2.1c-1.2-0.7-2.5-1.5-4-2.3c-1.5-0.9-3.2-2-5.3-3.3
			c-2.7-1.7-4.7-3.9-6.1-6.7c-1.4-2.7-2.1-5.6-2.1-8.5c0-2.7,0.5-5.3,1.6-7.9c1.1-2.5,2.8-4.8,5.1-6.8c2.3-2,5.2-3.6,8.7-4.8
			c3.5-1.2,7.8-1.8,12.7-1.8c1.9,0,3.5,0.2,4.9,0.5c1.4,0.3,2.6,0.7,3.7,1.2c1.1,0.5,2,1.1,2.8,1.7c0.8,0.6,1.5,1.2,2.1,1.8l3.6-3.5
			C56.3,3,56.6,2.8,56.9,2.5z"/>
		<path class="st0" d="M83,9.9l-5.6,20.5H86L85.6,32H77l-7,26.8c-0.8,3-0.8,5.1,0,6.4c0.8,1.3,2.2,1.9,4,1.9c1.3,0,2.7-0.5,4.1-1.6
			c1.4-1.1,2.7-2.7,3.9-5.1c0.1-0.3,0.3-0.4,0.5-0.5c0.2-0.1,0.4-0.1,0.6,0c0.2,0.1,0.3,0.3,0.4,0.5c0.1,0.2,0.1,0.5,0,0.8
			c-1.1,2.6-2.9,4.8-5.4,6.6c-2.5,1.8-5.4,2.7-8.8,2.7c-2.6,0-4.9-0.5-6.8-1.4c-2-0.9-3.5-2.2-4.6-3.9c-1.1-1.7-1.8-3.6-2.1-5.9
			c-0.3-2.3,0-4.7,0.7-7.5l5.4-20H55l0.4-1.6h7.2l1-3.8c2-0.7,3.8-1.5,5.5-2.4c1.7-0.9,3.2-2,4.7-3.2c1.5-1.3,2.8-2.8,4.2-4.6
			c1.3-1.8,2.6-3.9,3.9-6.5H83z"/>
		<path class="st0" d="M99.5,35.5c-0.2-1-0.5-1.9-0.8-2.5c-0.3-0.6-0.7-1.1-1.1-1.3c-0.5-0.3-1.1-0.4-1.8-0.4
			c-0.7,0-1.5,0.3-2.4,0.9c-0.9,0.6-1.9,1.3-2.8,2.2c-0.9,0.9-1.9,1.9-2.8,2.9c-0.9,1.1-1.7,2.1-2.4,3.1c-0.2,0.4-0.5,0.6-0.8,0.6
			c-0.5,0-0.8-0.3-0.8-0.9c0-0.3,0.1-0.5,0.3-0.7c1-1.3,2.1-2.8,3.4-4.4c1.3-1.6,2.7-3.1,4.3-4.5c1.6-1.4,3.3-2.6,5.3-3.5
			c1.9-1,4-1.4,6.3-1.4c3,0,5.4,0.5,7.2,1.6c1.8,1.1,3,2.9,3.6,5.6l5,22.2c1.1-2.6,2.2-5.3,3.4-8.2c1.2-2.9,2.5-5.6,3.7-8.2
			c1.2-2.6,2.4-4.8,3.6-6.8c1.2-1.9,2.3-3.2,3.3-4c1.2-0.9,2.7-1.3,4.5-1.3c1.9,0,3.4,0.6,4.5,1.7c1.1,1.2,1.6,2.8,1.6,4.9
			c0,1.9-0.7,3.5-2,4.6c-1.4,1.2-2.9,1.7-4.5,1.7c-1.2,0-2.3-0.3-3.4-1c-1.1-0.7-1.9-1.7-2.4-3.2c-0.1-0.2-0.3-0.3-0.4-0.3
			c-0.5,0-1.2,1-2.2,2.9c-1,1.9-2.1,4.3-3.4,7.3c-1.3,2.9-2.7,6.1-4.1,9.4c-1.4,3.4-2.8,6.5-4.2,9.3c-2.1,4.5-4.3,8.7-6.7,12.6
			c-2.3,3.9-4.7,7.3-7.1,10.1c-2.4,2.9-4.9,5.1-7.4,6.8c-2.5,1.6-5.1,2.4-7.7,2.4c-2.3,0-4.3-0.7-5.8-2.1c-1.6-1.4-2.3-3.2-2.3-5.3
			c0-0.8,0.1-1.6,0.4-2.5c0.3-0.9,0.7-1.6,1.2-2.3c0.6-0.7,1.3-1.2,2.1-1.6c0.9-0.4,1.9-0.6,3.1-0.6c2,0,3.6,0.6,4.7,1.8
			c1.2,1.2,1.7,2.7,1.7,4.5c0,1.5-0.4,2.8-1.3,3.8c-0.9,1-1.8,1.7-2.7,2.1c1.6,0,3.4-0.7,5.3-2.1c2-1.4,3.8-3.1,5.6-5.1
			c1.8-2,3.4-3.9,4.8-6c1.4-2,2.4-3.6,2.9-4.8l-7.7-36.3C100,37.8,99.7,36.6,99.5,35.5z"/>
		<path class="st0" d="M149.4,3.5L170.7,0L154,61c-0.2,0.8-0.3,1.4-0.4,1.8c-0.1,0.4-0.1,0.8-0.1,1.1c0,1.9,0.7,2.8,2.2,2.8
			c1.3,0,2.9-0.8,4.8-2.5c1.9-1.7,3.8-4.5,5.9-8.5c0.1-0.3,0.4-0.5,0.7-0.5c0.5,0,0.8,0.3,0.8,0.8c0,0.1,0,0.2,0,0.3
			c0,0.1-0.1,0.4-0.3,0.8c-1.1,2.1-2.3,4-3.4,5.7c-1.1,1.7-2.4,3.1-3.8,4.2c-1.4,1.2-3,2.1-4.8,2.7c-1.8,0.6-3.8,0.9-6.2,0.9
			c-1.3,0-2.5-0.2-3.7-0.5c-1.2-0.4-2.2-0.9-3.1-1.6c-0.9-0.7-1.6-1.7-2.2-2.8c-0.6-1.1-0.8-2.5-0.8-4c0-0.9,0.1-1.8,0.2-2.7
			c0.2-0.9,0.4-1.9,0.7-3l14.3-51.7L149,5.2L149.4,3.5z"/>
		<path class="st0" d="M208,43.4c-1,1.6-2.3,3-4,4.1c-1.7,1.1-3.7,2-6.1,2.6c-2.4,0.6-5,0.9-7.8,0.9c-2,0-3.9-0.1-5.7-0.4
			c-1.8-0.3-3.3-0.6-4.6-1l-1.6,6.8c-0.3,1.4-0.6,2.5-0.7,3.3c-0.1,0.8-0.2,1.8-0.2,2.9c0,1.9,0.7,3.4,2.2,4.4
			c1.5,1,3.1,1.5,4.9,1.5c4.2,0,8.1-1,11.7-3.1c3.5-2.1,6.6-4.9,9.1-8.5c0.4-0.5,0.8-0.8,1.2-0.8c0.5,0,0.7,0.3,0.7,0.9
			c0,0.2,0,0.4-0.1,0.7c-0.1,0.3-0.2,0.6-0.5,0.9c-1.1,1.6-2.4,3.1-3.9,4.5c-1.5,1.4-3.2,2.7-5.1,3.8c-1.9,1.1-4,2-6.2,2.7
			c-2.3,0.7-4.7,1-7.3,1c-3.2,0-6.1-0.5-8.4-1.5c-2.4-1-4.4-2.3-5.9-3.9c-1.6-1.6-2.7-3.5-3.5-5.7c-0.8-2.2-1.1-4.4-1.1-6.8
			c0-3.1,0.6-6.3,1.9-9.4c1.3-3.2,3.1-6.1,5.5-8.6c2.4-2.6,5.4-4.7,9-6.3c3.6-1.6,7.7-2.4,12.2-2.4c2.7,0,5.1,0.3,7,1
			c2,0.7,3.6,1.6,4.9,2.7s2.3,2.4,2.9,3.8c0.6,1.5,0.9,2.9,0.9,4.4C209.4,39.9,208.9,41.8,208,43.4z M180.3,47.9
			c0.7,0.1,1.5,0.3,2.2,0.4c0.7,0.1,1.5,0.2,2.3,0.2c3.6,0,6.6-1.3,9-3.8c2.4-2.6,3.5-6.3,3.5-11.4c0-1.7-0.4-3.1-1.1-4.2
			c-0.7-1.1-2-1.6-3.7-1.6c-1.3,0-2.5,0.3-3.5,0.9c-1,0.6-1.9,1.4-2.7,2.4c-0.8,1-1.4,2.1-1.9,3.4c-0.5,1.3-1,2.6-1.4,4L180.3,47.9z
			"/>
	</g>
	<g>
		<path class="st0" d="M81.2,162.5c-1.5-1-2.2-2.6-2.2-4.8c0-1.8,0.5-3.1,1.6-4.1c1.1-0.9,2.3-1.4,3.6-1.4c1.6,0,2.8,0.5,3.7,1.6
			c0.9,1.1,1.3,2.3,1.3,3.5c0,1.3-0.4,2.3-1.1,2.9c-0.8,0.6-1.4,1-2,1.1c-0.6,0.1-0.9,0.3-0.9,0.6c0,0.3,0.6,0.4,1.7,0.4
			c2.5,0,4.6-1.4,6.5-4.3c1.9-2.9,3.6-7,5-12.5l12-44.2h-7.8l0.4-1.7h7.8l1-3.3c0.8-2.7,1.9-5.4,3.4-8c1.5-2.6,3.2-4.9,5.2-7
			c2-2,4.3-3.7,6.9-4.9c2.6-1.3,5.5-1.9,8.6-1.9c1.5,0,2.7,0.2,3.7,0.5c1,0.4,1.8,0.8,2.4,1.4c0.6,0.6,1,1.2,1.3,1.8
			c0.3,0.7,0.4,1.3,0.4,2c0,1.5-0.4,2.9-1.3,4.1c-0.9,1.2-2.2,1.8-3.9,1.8c-1.5,0-2.8-0.4-3.8-1.1c-1-0.8-1.5-1.8-1.5-3.2
			c0-2.6,1.2-4.2,3.6-4.8c0.3-0.1,0.5-0.2,0.5-0.4s-0.2-0.4-0.6-0.5c-0.4-0.1-0.9-0.2-1.5-0.2c-0.8,0-1.6,0.1-2.3,0.4
			c-1,0.3-1.7,1-2.1,1.9c-0.4,0.9-0.8,2.1-1,3.5c-0.3,1.4-0.5,3.1-0.8,5c-0.3,1.9-0.7,3.9-1.3,6.1l-1.8,6.7h8.1l-0.5,1.7h-8
			l-10.3,37.8c-0.8,2.9-2,5.8-3.7,8.8c-1.7,2.9-3.7,5.6-6.1,8c-2.4,2.4-5.1,4.3-8.2,5.8c-3.1,1.5-6.5,2.2-10.2,2.2
			C84.6,164,82.7,163.5,81.2,162.5z"/>
		<path class="st0" d="M128.2,114.5c1.4-3.2,3.3-5.9,5.7-8.2c2.4-2.3,5.1-4.2,8.2-5.5c3.1-1.4,6.4-2,9.7-2c6.3,0,11.2,1.7,14.7,5.1
			s5.2,8,5.2,13.9c0,3.7-0.7,7.1-2,10.2c-1.4,3.1-3.2,5.8-5.6,8.1s-5.2,4.1-8.4,5.4c-3.2,1.3-6.8,1.9-10.5,1.9
			c-3.2,0-6.1-0.5-8.4-1.4c-2.4-1-4.4-2.3-6-3.9s-2.8-3.6-3.5-5.9c-0.8-2.3-1.1-4.7-1.1-7.4C126,121.1,126.7,117.7,128.2,114.5z
			 M157.7,102.1c-0.7-1.1-2-1.6-3.9-1.6c-1.6,0-2.9,0.4-4,1.1c-1.1,0.8-2,1.8-2.8,3c-0.8,1.3-1.5,2.7-2,4.3c-0.5,1.6-1,3.3-1.5,5.1
			c-1.1,4-1.9,7.3-2.5,9.7c-0.6,2.5-1.1,4.4-1.4,5.8c-0.3,1.4-0.5,2.5-0.6,3.2c-0.1,0.7-0.1,1.4-0.1,2c0,1.8,0.4,3.4,1.2,4.7
			c0.8,1.4,2.3,2,4.4,2c1.4,0,2.5-0.4,3.5-1.1c0.9-0.8,1.7-1.7,2.4-2.9c0.7-1.2,1.3-2.5,1.7-4c0.5-1.5,0.9-3,1.3-4.4
			c1.2-4.3,2.1-7.8,2.8-10.5c0.7-2.7,1.2-4.8,1.6-6.5c0.4-1.6,0.6-2.8,0.7-3.7c0.1-0.8,0.2-1.6,0.2-2.2
			C158.7,104.6,158.4,103.2,157.7,102.1z"/>
		<path class="st0" d="M183.5,76.2l21.4-3.5l-16.7,61c-0.2,0.8-0.3,1.4-0.4,1.8c-0.1,0.4-0.1,0.8-0.1,1.1c0,1.9,0.7,2.8,2.2,2.8
			c1.3,0,2.9-0.8,4.8-2.5c1.9-1.7,3.8-4.5,5.9-8.5c0.1-0.3,0.4-0.5,0.7-0.5c0.5,0,0.8,0.3,0.8,0.8c0,0.1,0,0.2,0,0.3
			c0,0.1-0.1,0.4-0.3,0.8c-1.1,2.1-2.3,4-3.4,5.7c-1.1,1.7-2.4,3.1-3.8,4.2c-1.4,1.2-3,2.1-4.8,2.7c-1.8,0.6-3.8,0.9-6.2,0.9
			c-1.3,0-2.5-0.2-3.7-0.5c-1.2-0.4-2.2-0.9-3.1-1.6c-0.9-0.7-1.6-1.7-2.2-2.8c-0.6-1.1-0.8-2.5-0.8-4c0-0.9,0.1-1.8,0.2-2.7
			c0.2-0.9,0.4-1.9,0.7-3L188.8,77l-5.8,0.9L183.5,76.2z"/>
		<path class="st0" d="M210.1,76.2l21.4-3.5l-16.7,61c-0.2,0.8-0.3,1.4-0.4,1.8c-0.1,0.4-0.1,0.8-0.1,1.1c0,1.9,0.7,2.8,2.2,2.8
			c1.3,0,2.9-0.8,4.8-2.5c1.9-1.7,3.8-4.5,5.9-8.5c0.1-0.3,0.4-0.5,0.7-0.5c0.5,0,0.8,0.3,0.8,0.8c0,0.1,0,0.2,0,0.3
			c0,0.1-0.1,0.4-0.3,0.8c-1.1,2.1-2.3,4-3.4,5.7c-1.1,1.7-2.4,3.1-3.8,4.2c-1.4,1.2-3,2.1-4.8,2.7c-1.8,0.6-3.8,0.9-6.2,0.9
			c-1.3,0-2.5-0.2-3.7-0.5c-1.2-0.4-2.2-0.9-3.1-1.6c-0.9-0.7-1.6-1.7-2.2-2.8c-0.6-1.1-0.8-2.5-0.8-4c0-0.9,0.1-1.8,0.2-2.7
			c0.2-0.9,0.4-1.9,0.7-3L215.5,77l-5.8,0.9L210.1,76.2z"/>
		<path class="st0" d="M228.3,114.5c1.4-3.2,3.3-5.9,5.7-8.2c2.4-2.3,5.1-4.2,8.2-5.5c3.1-1.4,6.4-2,9.7-2c6.3,0,11.2,1.7,14.7,5.1
			s5.2,8,5.2,13.9c0,3.7-0.7,7.1-2,10.2c-1.4,3.1-3.2,5.8-5.6,8.1s-5.2,4.1-8.4,5.4c-3.2,1.3-6.8,1.9-10.5,1.9
			c-3.2,0-6.1-0.5-8.4-1.4c-2.4-1-4.4-2.3-6-3.9s-2.8-3.6-3.5-5.9c-0.8-2.3-1.1-4.7-1.1-7.4C226.2,121.1,226.9,117.7,228.3,114.5z
			 M257.9,102.1c-0.7-1.1-2-1.6-3.9-1.6c-1.6,0-2.9,0.4-4,1.1c-1.1,0.8-2,1.8-2.8,3c-0.8,1.3-1.5,2.7-2,4.3c-0.5,1.6-1,3.3-1.5,5.1
			c-1.1,4-1.9,7.3-2.5,9.7c-0.6,2.5-1.1,4.4-1.4,5.8c-0.3,1.4-0.5,2.5-0.6,3.2c-0.1,0.7-0.1,1.4-0.1,2c0,1.8,0.4,3.4,1.2,4.7
			c0.8,1.4,2.3,2,4.4,2c1.4,0,2.5-0.4,3.5-1.1c0.9-0.8,1.7-1.7,2.4-2.9c0.7-1.2,1.3-2.5,1.7-4c0.5-1.5,0.9-3,1.3-4.4
			c1.2-4.3,2.1-7.8,2.8-10.5c0.7-2.7,1.2-4.8,1.6-6.5c0.4-1.6,0.6-2.8,0.7-3.7c0.1-0.8,0.2-1.6,0.2-2.2
			C258.9,104.6,258.6,103.2,257.9,102.1z"/>
		<path class="st0" d="M347.7,113.3c-0.1,0-0.3,0-0.4,0.1c-1.4,0.7-2.9,1.1-4.6,1.1c-2.3,0-4.3-0.8-6-2.3c-1.7-1.5-2.5-3.5-2.5-6
			c0-2.5,0.9-4.6,2.6-6.2c1.7-1.6,3.9-2.4,6.5-2.4c2.8,0,5,0.8,6.6,2.5c1.6,1.7,2.4,3.9,2.4,6.9c0,1.6-0.4,3.6-1.1,6.1
			c-0.8,2.5-1.9,5-3.3,7.8c-1.5,2.7-3.2,5.4-5.2,8.1c-2,2.7-4.3,5.2-6.8,7.4c-2.5,2.2-5.2,4-8.1,5.3c-2.9,1.4-6,2-9.2,2
			c-4.1,0-7.2-0.9-9.3-2.7c-2.1-1.8-3.2-4.5-3.2-8.2c-1.2,2.1-2.4,3.9-3.6,5.2c-1.2,1.4-2.4,2.4-3.5,3.2c-1.1,0.8-2.3,1.3-3.4,1.6
			c-1.1,0.3-2.2,0.4-3.2,0.4c-1.9,0-3.7-0.2-5.5-0.7c-1.7-0.5-3.2-1.2-4.6-2.2c-1.3-1-2.4-2.2-3.2-3.7c-0.8-1.5-1.2-3.3-1.2-5.3
			c0-3,0.4-5.7,1.1-8.1c0.7-2.4,1.6-5.1,2.7-7.9c0.9-2.3,1.5-4.2,1.9-5.8c0.4-1.6,0.6-3.2,0.6-5c0-1.9-0.8-2.8-2.5-2.8
			c-0.9,0-1.8,0.3-2.7,1c-0.9,0.7-1.8,1.6-2.7,2.6c-0.9,1.1-1.7,2.2-2.5,3.5c-0.8,1.3-1.4,2.5-2,3.7c-0.3,0.7-0.7,1.1-1.2,1.1
			c-0.5,0-0.8-0.3-0.8-0.8c0-0.3,0.1-0.6,0.2-0.9c0.7-1.3,1.4-2.7,2.3-4.2c0.9-1.6,1.9-3,3.2-4.3c1.3-1.3,2.7-2.4,4.4-3.3
			c1.7-0.9,3.6-1.3,5.9-1.3c4.2,0,7.2,0.8,9.1,2.5c1.9,1.7,2.8,4.3,2.8,7.9c0,1.6-0.4,3.6-1.2,5.9c-0.8,2.4-1.6,4.6-2.3,6.8
			c-0.9,2.7-1.6,5.2-2.2,7.7c-0.6,2.5-0.9,4.6-0.9,6.4c0,1.4,0.3,2.5,0.8,3.3c0.6,0.8,1.6,1.2,3,1.2c0.9,0,2-0.5,3.2-1.4
			c1.2-1,2.4-2.2,3.5-3.8c1.2-1.6,2.3-3.3,3.3-5.2c1-1.9,1.8-3.8,2.4-5.6l8.1-25.4h13l-8.7,29.3c-0.7,2.3-1,4.3-1,6.1
			c0,2,0.4,3.4,1.2,4.4c0.8,0.9,1.8,1.4,3.1,1.4c1.6,0,3.3-0.5,5.2-1.5s3.8-2.3,5.6-3.8c1.9-1.6,3.7-3.3,5.4-5.3c1.8-2,3.3-4,4.6-6
			c1.3-2,2.4-3.9,3.2-5.7c0.8-1.8,1.2-3.3,1.2-4.6C348,113.4,347.9,113.3,347.7,113.3z"/>
		<path class="st0" d="M388.3,110.4c-0.8,1-2,1.4-3.5,1.4c-1.3,0-2.5-0.4-3.4-1.1c-1-0.8-1.4-1.9-1.4-3.3c0-0.8,0.2-1.5,0.6-2.2
			c0.4-0.7,1.1-1.2,2.1-1.6c0.5-0.2,0.7-0.4,0.7-0.7c0-0.5-0.8-1.1-2.4-1.8c-1.6-0.7-3.9-1-6.7-1c-1.7,0-3.2,0.4-4.8,1.2
			c-1.5,0.8-2.3,2.1-2.3,4c0,1.4,0.6,2.7,1.7,4c1.1,1.3,3.2,2.7,6.2,4.2c6.4,3.3,9.5,8.1,9.5,14.3c0,2.2-0.4,4.2-1.3,6.1
			c-0.9,1.9-2.2,3.5-3.9,5c-1.7,1.4-3.9,2.6-6.5,3.4c-2.6,0.8-5.6,1.2-9,1.2c-2.7,0-5.1-0.3-7.3-1c-2.1-0.7-3.9-1.6-5.3-2.6
			c-1.4-1.1-2.5-2.3-3.2-3.6c-0.7-1.3-1.1-2.6-1.1-3.9c0-1.6,0.5-3,1.5-4.1c1-1.2,2.4-1.7,4.1-1.7c1.5,0,2.8,0.5,3.9,1.4
			c1.2,0.9,1.7,2.3,1.7,4c0,1.4-0.5,2.5-1.5,3.4c-1,0.9-2.2,1.4-3.6,1.6c-0.4,0.1-0.6,0.3-0.6,0.5c0,0.3,0.3,0.7,0.9,1.2
			s1.4,1,2.4,1.4c1,0.5,2.2,0.9,3.5,1.2c1.4,0.4,2.8,0.5,4.4,0.5c2.5,0,4.6-0.6,6.1-1.8c1.6-1.2,2.3-3.1,2.3-5.8
			c0-1.7-0.6-3.5-1.8-5.3s-3.3-3.5-6.2-5.1c-3-1.7-5.1-3.4-6.5-5.4c-1.3-1.9-2-3.9-2-6c0-2.2,0.5-4.2,1.4-5.9c1-1.8,2.3-3.2,3.9-4.4
			c1.6-1.2,3.5-2.1,5.8-2.7c2.2-0.6,4.6-0.9,7.1-0.9c2.6,0,5,0.2,6.9,0.7c2,0.5,3.6,1.2,4.9,2c1.3,0.8,2.3,1.8,2.9,2.8
			c0.6,1,0.9,2.1,0.9,3.1C389.5,108.3,389.1,109.4,388.3,110.4z"/>
	</g>
	<g>
		<path class="st0" d="M315.9,178.7c-0.1,0-0.3,0-0.4,0.1c-1.4,0.7-2.9,1.1-4.6,1.1c-2.3,0-4.3-0.8-6-2.3c-1.7-1.5-2.5-3.5-2.5-6
			c0-2.5,0.9-4.6,2.6-6.2c1.7-1.6,3.9-2.4,6.5-2.4c2.8,0,5,0.8,6.6,2.5c1.6,1.7,2.4,3.9,2.4,6.9c0,1.6-0.4,3.6-1.1,6.1
			c-0.8,2.5-1.9,5-3.3,7.8c-1.5,2.7-3.2,5.4-5.2,8.1c-2,2.7-4.3,5.2-6.8,7.4c-2.5,2.2-5.2,4-8.1,5.3c-2.9,1.4-6,2-9.2,2
			c-4.1,0-7.2-0.9-9.3-2.7c-2.1-1.8-3.2-4.5-3.2-8.2c-1.2,2.1-2.4,3.9-3.6,5.2c-1.2,1.4-2.4,2.4-3.5,3.2c-1.1,0.8-2.3,1.3-3.4,1.6
			c-1.1,0.3-2.2,0.4-3.2,0.4c-1.9,0-3.7-0.2-5.5-0.7c-1.7-0.5-3.2-1.2-4.6-2.2c-1.3-1-2.4-2.2-3.2-3.7c-0.8-1.5-1.2-3.3-1.2-5.3
			c0-3,0.4-5.7,1.1-8.1c0.7-2.4,1.6-5.1,2.7-7.9c0.9-2.3,1.5-4.2,1.9-5.8c0.4-1.6,0.6-3.2,0.6-5c0-1.9-0.8-2.8-2.5-2.8
			c-0.9,0-1.8,0.3-2.7,1c-0.9,0.7-1.8,1.6-2.7,2.6c-0.9,1.1-1.7,2.2-2.5,3.5c-0.8,1.3-1.4,2.5-2,3.7c-0.3,0.7-0.7,1.1-1.2,1.1
			c-0.5,0-0.8-0.3-0.8-0.8c0-0.3,0.1-0.6,0.2-0.9c0.7-1.3,1.4-2.7,2.3-4.2c0.9-1.6,1.9-3,3.2-4.3c1.3-1.3,2.7-2.4,4.4-3.3
			c1.7-0.9,3.6-1.3,5.9-1.3c4.2,0,7.2,0.8,9.1,2.5c1.9,1.7,2.8,4.3,2.8,7.9c0,1.6-0.4,3.6-1.2,5.9c-0.8,2.4-1.6,4.6-2.3,6.8
			c-0.9,2.7-1.6,5.2-2.2,7.7c-0.6,2.5-0.9,4.6-0.9,6.4c0,1.4,0.3,2.5,0.8,3.3c0.6,0.8,1.6,1.2,3,1.2c0.9,0,2-0.5,3.2-1.4
			c1.2-1,2.4-2.2,3.5-3.8c1.2-1.6,2.3-3.3,3.3-5.2c1-1.9,1.8-3.8,2.4-5.6l8.1-25.4h13l-8.7,29.3c-0.7,2.3-1,4.3-1,6.1
			c0,2,0.4,3.4,1.2,4.4c0.8,0.9,1.8,1.4,3.1,1.4c1.6,0,3.3-0.5,5.2-1.5s3.8-2.3,5.6-3.8c1.9-1.6,3.7-3.3,5.4-5.3c1.8-2,3.3-4,4.6-6
			c1.3-2,2.4-3.9,3.2-5.7c0.8-1.8,1.2-3.3,1.2-4.6C316.2,178.8,316.1,178.7,315.9,178.7z"/>
		<path class="st0" d="M336.7,203.6c0.9,0,2.1-0.7,3.5-2.2c1.4-1.5,3-3.9,4.6-7.2c0.3-0.6,0.6-0.9,1.1-0.9c0.5,0,0.7,0.3,0.7,0.9
			c0,0.4-0.1,0.8-0.3,1.2c-1.9,4-4.1,7.3-6.7,9.7c-2.6,2.4-6.1,3.6-10.4,3.6c-2.6,0-4.6-0.7-6.2-2c-1.5-1.3-2.3-3.3-2.3-5.9
			c0-1.2,0.2-2.6,0.6-4.2l8.4-30.9l-5.7,0.7l0.5-1.7l21.2-3.2l-9.8,36.3c-0.3,1.1-0.5,1.9-0.6,2.4c-0.1,0.5-0.1,0.9-0.1,1.2
			C335.3,203,335.7,203.6,336.7,203.6z M348.1,152.4c-0.4,1-1,1.9-1.7,2.7c-0.7,0.8-1.7,1.4-2.8,1.9c-1.1,0.5-2.4,0.7-3.9,0.7
			c-2.5,0-4.3-0.7-5.4-2.1c-1.2-1.4-1.7-3-1.7-4.8c0-1.1,0.2-2.1,0.5-3.1c0.4-1,0.9-1.9,1.7-2.7c0.8-0.8,1.7-1.4,2.8-1.9
			c1.1-0.5,2.3-0.7,3.7-0.7c2.5,0,4.4,0.7,5.6,2.1c1.2,1.4,1.8,3,1.8,4.8C348.7,150.4,348.5,151.4,348.1,152.4z"/>
		<path class="st0" d="M384.8,175.8c-0.8,1-2,1.4-3.5,1.4c-1.3,0-2.5-0.4-3.4-1.1c-1-0.8-1.4-1.9-1.4-3.3c0-0.8,0.2-1.5,0.6-2.2
			c0.4-0.7,1.1-1.2,2.1-1.6c0.5-0.2,0.7-0.4,0.7-0.7c0-0.5-0.8-1.1-2.4-1.8c-1.6-0.7-3.9-1-6.7-1c-1.7,0-3.2,0.4-4.8,1.2
			c-1.5,0.8-2.3,2.1-2.3,4c0,1.4,0.6,2.7,1.7,4c1.1,1.3,3.2,2.7,6.2,4.2c6.4,3.3,9.5,8.1,9.5,14.3c0,2.2-0.4,4.2-1.3,6.1
			c-0.9,1.9-2.2,3.5-3.9,5c-1.7,1.4-3.9,2.6-6.5,3.4c-2.6,0.8-5.6,1.2-9,1.2c-2.7,0-5.1-0.3-7.3-1c-2.1-0.7-3.9-1.6-5.3-2.6
			c-1.4-1.1-2.5-2.3-3.2-3.6c-0.7-1.3-1.1-2.6-1.1-3.9c0-1.6,0.5-3,1.5-4.1c1-1.2,2.4-1.7,4.1-1.7c1.5,0,2.8,0.5,3.9,1.4
			c1.2,0.9,1.7,2.3,1.7,4c0,1.4-0.5,2.5-1.5,3.4c-1,0.9-2.2,1.4-3.6,1.6c-0.4,0.1-0.6,0.3-0.6,0.5c0,0.3,0.3,0.7,0.9,1.2
			s1.4,1,2.4,1.4c1,0.5,2.2,0.9,3.5,1.2c1.4,0.4,2.8,0.5,4.4,0.5c2.5,0,4.6-0.6,6.1-1.8c1.6-1.2,2.3-3.1,2.3-5.8
			c0-1.7-0.6-3.5-1.8-5.3c-1.2-1.8-3.3-3.5-6.2-5.1c-3-1.7-5.1-3.4-6.5-5.4c-1.3-1.9-2-3.9-2-6c0-2.2,0.5-4.2,1.4-5.9
			c1-1.8,2.3-3.2,3.9-4.4c1.6-1.2,3.5-2.1,5.8-2.7c2.2-0.6,4.6-0.9,7.1-0.9c2.6,0,5,0.2,6.9,0.7c2,0.5,3.6,1.2,4.9,2
			c1.3,0.8,2.3,1.8,2.9,2.8c0.6,1,0.9,2.1,0.9,3.1C385.9,173.7,385.5,174.8,384.8,175.8z"/>
		<path class="st0" d="M444.1,138.4l-15.8,58.8c-0.2,0.8-0.4,1.4-0.5,1.9c-0.1,0.5-0.2,1.1-0.2,1.8c0,1.9,0.7,2.8,2.1,2.8
			c1.1,0,2.5-0.7,4.3-2.2c1.8-1.5,3.9-3.9,6.3-7.4c0.3-0.5,0.6-0.7,1.1-0.7c0.6,0,0.9,0.3,0.9,1c0,0.3-0.1,0.5-0.2,0.7
			c-1,1.5-2.1,3-3.4,4.6c-1.3,1.6-2.7,3-4.2,4.4c-1.6,1.3-3.3,2.4-5.1,3.3c-1.9,0.9-3.8,1.3-5.9,1.3c-1.7,0-3.2-0.2-4.3-0.6
			c-1.2-0.4-2.1-0.9-2.8-1.5c-0.7-0.6-1.3-1.3-1.6-2c-0.4-0.7-0.6-1.5-0.6-2.2c-1.6,2.1-3.4,3.6-5.4,4.7c-2,1.1-4.5,1.6-7.7,1.6
			c-2.8,0-5.3-0.4-7.4-1.3c-2.1-0.9-3.8-2.1-5.1-3.7c-1.4-1.6-2.4-3.5-3-5.6c-0.6-2.2-0.9-4.5-0.9-7.1c0-2.8,0.6-5.7,1.8-8.8
			c1.2-3.1,3-6,5.3-8.5c2.3-2.6,5.1-4.7,8.4-6.4c3.3-1.7,7-2.5,11.1-2.5c2.8,0,5.1,0.5,6.6,1.6c1.6,1.1,2.7,2.3,3.4,3.7l7.4-27.4
			l-5.6,1.1l0.4-1.6L444.1,138.4z M404.5,182.7c-0.7,2.6-1.4,5.2-2.1,7.7c-0.7,2.5-1.2,4.7-1.6,6.7c-0.4,2-0.6,3.3-0.6,3.9
			c0,1.4,0.3,2.5,1,3.4c0.7,0.9,1.7,1.3,3.1,1.3c1.9,0,3.7-0.7,5.4-2.1c1.8-1.4,3-3.3,3.7-5.9l6.9-24.4c-0.2-0.6-0.5-1.3-0.8-2
			c-0.4-0.7-0.8-1.4-1.4-2c-0.6-0.6-1.2-1.1-1.9-1.5c-0.7-0.4-1.6-0.6-2.6-0.6c-2,0-3.5,0.8-4.4,2.3c-1,1.5-1.9,3.7-2.7,6.6
			C405.9,177.9,405.3,180.1,404.5,182.7z"/>
		<path class="st0" d="M442.3,179.9c1.4-3.2,3.3-5.9,5.7-8.2c2.4-2.3,5.1-4.2,8.2-5.5c3.1-1.4,6.4-2,9.7-2c6.3,0,11.2,1.7,14.7,5.1
			s5.2,8,5.2,13.9c0,3.7-0.7,7.1-2,10.2c-1.4,3.1-3.2,5.8-5.6,8.1c-2.4,2.3-5.2,4.1-8.4,5.4c-3.2,1.3-6.8,1.9-10.5,1.9
			c-3.2,0-6.1-0.5-8.4-1.4c-2.4-1-4.4-2.3-6-3.9c-1.6-1.7-2.8-3.6-3.5-5.9c-0.8-2.3-1.1-4.7-1.1-7.4
			C440.1,186.5,440.8,183.1,442.3,179.9z M471.8,167.5c-0.7-1.1-2-1.6-3.9-1.6c-1.6,0-2.9,0.4-4,1.1c-1.1,0.8-2,1.8-2.8,3
			c-0.8,1.3-1.5,2.7-2,4.3c-0.5,1.6-1,3.3-1.5,5.1c-1.1,4-1.9,7.3-2.5,9.7c-0.6,2.5-1.1,4.4-1.4,5.8c-0.3,1.4-0.5,2.5-0.6,3.2
			c-0.1,0.7-0.1,1.4-0.1,2c0,1.8,0.4,3.4,1.2,4.7c0.8,1.4,2.3,2,4.4,2c1.4,0,2.5-0.4,3.5-1.1c0.9-0.8,1.7-1.7,2.4-2.9
			c0.7-1.2,1.3-2.5,1.7-4c0.5-1.5,0.9-3,1.3-4.4c1.2-4.3,2.1-7.8,2.8-10.5c0.7-2.7,1.2-4.8,1.6-6.5c0.4-1.6,0.6-2.8,0.7-3.7
			c0.1-0.8,0.2-1.6,0.2-2.2C472.8,170,472.5,168.6,471.8,167.5z"/>
		<path class="st0" d="M547.9,166.5c-1.3,0-2.6,0.4-3.9,1.3c-1.3,0.9-2.6,1.9-3.7,3.1c-1.2,1.2-2.2,2.5-3,3.9
			c-0.8,1.4-1.4,2.5-1.6,3.5l-7.9,29.2h-14.7l8.2-30.4c0.7-2.3,1-4.7,1-7.4c0-0.9-0.2-1.7-0.6-2.4c-0.4-0.7-1.1-1-2-1
			c-0.8,0-1.8,0.3-2.9,0.9c-1.2,0.6-2.3,1.5-3.5,2.5c-1.2,1-2.2,2.2-3.2,3.6c-1,1.4-1.7,2.8-2.1,4.3l-8.2,29.8h-15l10.9-40.7
			l-5.5,0.9l0.4-1.7l21.2-3.5l-1.7,8c1.6-2.2,3.6-3.9,6.1-5c2.5-1.2,5.2-1.7,8.2-1.7c3.4,0,6.3,0.6,8.5,1.9c2.2,1.3,3.5,3.3,3.8,6.1
			c1.5-2.1,3.5-4,5.8-5.5c2.4-1.6,5.3-2.3,8.8-2.3c4.4,0,7.6,1,9.6,2.9c2,1.9,2.9,4.4,2.9,7.4c0,1.7-0.2,3.4-0.7,5l-5,18.1
			c-0.3,1-0.4,1.9-0.4,2.8c0,1.5,0.5,2.3,1.5,2.3c0.9,0,2-0.7,3.4-2.1c1.4-1.4,2.9-3.8,4.7-7c0.3-0.5,0.6-0.7,0.9-0.7
			c0.5,0,0.7,0.2,0.7,0.7c0,0.2-0.1,0.4-0.2,0.7c-1.8,4.3-4.2,7.8-7.2,10.4c-3,2.6-6.6,3.9-10.7,3.9c-2.5,0-4.4-0.8-5.7-2.4
			c-1.3-1.6-1.9-3.5-1.9-5.9c0-1,0.2-2.2,0.5-3.5l5-18.8c0.3-1.3,0.6-2.6,0.9-4c0.3-1.3,0.4-2.5,0.4-3.6
			C550,167.6,549.3,166.5,547.9,166.5z"/>
		<path class="st0" d="M583.7,203.3c-0.4,1-0.9,1.9-1.6,2.6c-0.7,0.8-1.6,1.4-2.7,1.9c-1.1,0.5-2.4,0.7-3.8,0.7
			c-2.6,0-4.5-0.7-5.8-2.2c-1.3-1.5-1.9-3.1-1.9-5c0-1,0.2-2,0.5-3s0.9-1.9,1.6-2.6c0.7-0.8,1.6-1.4,2.7-1.9
			c1.1-0.5,2.4-0.7,3.8-0.7c2.6,0,4.5,0.7,5.8,2.2c1.3,1.5,1.9,3.1,1.9,5C584.2,201.4,584,202.4,583.7,203.3z"/>
	</g>
	<g>
		<path class="st0" d="M542.5,250.1c-0.2,0.6-0.4,1.2-0.5,1.9c-0.2,0.7-0.4,1.5-0.6,2.3c-0.2,0.8-0.4,1.6-0.6,2.3
			c-0.2,0.8-0.3,1.4-0.4,2.1c-0.1,0.6-0.2,1.1-0.2,1.5c0,0.6,0.1,1.1,0.2,1.5c0.1,0.4,0.3,0.8,0.5,1c0.2,0.3,0.4,0.5,0.6,0.6
			c0.2,0.1,0.5,0.2,0.7,0.2c0.8,0,1.4,0,1.8,0c0.4,0,0.6,0.2,0.6,0.4c0,0.3-0.2,0.4-0.6,0.4c-0.4,0-1.1,0-1.9,0
			c-1.2,0-2.2-0.2-3-0.6c-0.9-0.4-1.6-0.9-2.1-1.6c-0.6-0.7-1-1.5-1.2-2.5c-0.3-1-0.4-2-0.4-3.1c0-1,0.1-2.1,0.4-3.2
			c0.3-1.1,0.7-2.2,1.2-3.3c0.5-1.1,1.2-2.1,1.9-3.1s1.6-1.8,2.6-2.6c0.9-0.7,2-1.3,3.1-1.8c1.1-0.4,2.3-0.7,3.6-0.7
			c0.6,0,1.1,0,1.4,0c0.3,0,0.5,0.1,0.5,0.3c0,0.2-0.2,0.3-0.5,0.3c-0.4,0-0.9,0-1.5,0c-0.9,0-1.8,0.5-2.7,1.5
			c-0.9,1-1.6,2.5-2.3,4.7C542.8,249.1,542.6,249.5,542.5,250.1z"/>
		<path class="st0" d="M562.8,242.1l-4.4,16.3c-0.1,0.2-0.1,0.4-0.1,0.5c0,0.1-0.1,0.3-0.1,0.5c0,0.5,0.2,0.8,0.6,0.8
			c0.3,0,0.7-0.2,1.2-0.6c0.5-0.4,1.1-1.1,1.8-2c0.1-0.1,0.2-0.2,0.3-0.2c0.2,0,0.2,0.1,0.2,0.3c0,0.1,0,0.1-0.1,0.2
			c-0.3,0.4-0.6,0.8-0.9,1.3c-0.3,0.4-0.7,0.8-1.2,1.2c-0.4,0.4-0.9,0.7-1.4,0.9c-0.5,0.2-1.1,0.4-1.6,0.4c-0.5,0-0.9-0.1-1.2-0.2
			c-0.3-0.1-0.6-0.3-0.8-0.4c-0.2-0.2-0.4-0.4-0.5-0.6c-0.1-0.2-0.2-0.4-0.2-0.6c-0.4,0.6-0.9,1-1.5,1.3c-0.5,0.3-1.3,0.4-2.1,0.4
			c-0.8,0-1.5-0.1-2-0.4c-0.6-0.2-1-0.6-1.4-1c-0.4-0.4-0.7-1-0.8-1.6c-0.2-0.6-0.3-1.3-0.3-2c0-0.8,0.2-1.6,0.5-2.5
			c0.3-0.9,0.8-1.7,1.5-2.4c0.6-0.7,1.4-1.3,2.3-1.8c0.9-0.5,1.9-0.7,3.1-0.7c0.8,0,1.4,0.1,1.8,0.4c0.4,0.3,0.7,0.6,1,1l2-7.6
			l-1.5,0.3l0.1-0.4L562.8,242.1z M551.8,254.4c-0.2,0.7-0.4,1.4-0.6,2.1c-0.2,0.7-0.3,1.3-0.5,1.9c-0.1,0.6-0.2,0.9-0.2,1.1
			c0,0.4,0.1,0.7,0.3,1c0.2,0.2,0.5,0.4,0.9,0.4c0.5,0,1-0.2,1.5-0.6s0.8-0.9,1-1.6l1.9-6.8c-0.1-0.2-0.1-0.4-0.2-0.6
			c-0.1-0.2-0.2-0.4-0.4-0.6c-0.2-0.2-0.3-0.3-0.5-0.4c-0.2-0.1-0.4-0.2-0.7-0.2c-0.5,0-1,0.2-1.2,0.6c-0.3,0.4-0.5,1-0.8,1.8
			C552.2,253.1,552,253.7,551.8,254.4z"/>
		<path class="st0" d="M564.5,250l-1.5,0.2l0.1-0.4l5.8-0.7l-2.1,8c-0.1,0.5-0.2,1-0.3,1.4c-0.1,0.4-0.1,0.7-0.1,1
			c0,0.5,0.1,0.8,0.2,1c0.1,0.2,0.3,0.3,0.6,0.3c0.2,0,0.4-0.1,0.7-0.2s0.6-0.3,0.9-0.6s0.6-0.6,0.9-1.1c0.3-0.5,0.5-1,0.7-1.7
			l2.1-7.7h4.1l-2.6,9.8c0,0.1,0,0.1,0,0.2c0,0.1,0,0.1,0,0.2c0,0.2,0.1,0.4,0.2,0.5c0.1,0.1,0.3,0.2,0.4,0.2c0.3,0,0.7-0.2,1.1-0.6
			c0.5-0.4,0.9-1.1,1.5-2.1c0.1-0.2,0.2-0.3,0.3-0.3c0.1,0,0.2,0.1,0.2,0.3c0,0.1,0,0.1,0,0.2c-0.3,0.6-0.6,1.1-1,1.6
			c-0.3,0.5-0.7,0.9-1.1,1.2c-0.4,0.3-0.8,0.6-1.3,0.7c-0.5,0.2-1.1,0.3-1.7,0.3c-0.5,0-0.8-0.1-1.1-0.2c-0.3-0.1-0.5-0.3-0.7-0.6
			c-0.2-0.2-0.3-0.5-0.4-0.8c-0.1-0.3-0.1-0.6-0.1-1c-0.2,0.3-0.4,0.6-0.6,0.9c-0.2,0.3-0.5,0.6-0.9,0.9c-0.4,0.3-0.8,0.5-1.3,0.6
			s-1.1,0.2-1.8,0.2c-0.3,0-0.6,0-1-0.1c-0.3-0.1-0.7-0.2-1-0.5c-0.3-0.2-0.5-0.6-0.7-1.1c-0.2-0.5-0.3-1.1-0.3-1.8
			c0-0.7,0.1-1.6,0.4-2.5L564.5,250z"/>
		<path class="st0" d="M590.1,250c0.6,0.5,0.9,1.2,0.9,2.2c0,0.2,0,0.5-0.1,0.7c0,0.2-0.1,0.5-0.2,0.8l-1.4,5
			c-0.1,0.2-0.1,0.4-0.1,0.6c0,0.4,0.1,0.6,0.4,0.6c0.2,0,0.5-0.2,0.9-0.6c0.4-0.4,0.8-1,1.3-2c0.1-0.1,0.1-0.1,0.2-0.1
			c0.1,0,0.2,0.1,0.2,0.2c0,0.1,0,0.1-0.1,0.2c-0.3,0.5-0.5,1-0.8,1.4c-0.3,0.5-0.6,0.9-1,1.2c-0.4,0.3-0.8,0.6-1.3,0.8
			c-0.5,0.2-1.1,0.3-1.8,0.3c-0.6,0-1.1-0.2-1.5-0.6s-0.6-0.9-0.6-1.6c0-0.4,0.1-0.8,0.2-1.2l1.5-5.8c0.1-0.3,0.1-0.6,0.1-0.9
			c0-0.4-0.1-0.7-0.2-1c-0.1-0.3-0.4-0.4-0.7-0.4s-0.6,0.1-1,0.3c-0.4,0.2-0.7,0.4-1,0.6c-0.3,0.2-0.6,0.5-0.8,0.8
			c-0.2,0.3-0.4,0.6-0.4,0.8l-2.3,9h-4.2l4.9-18.1l-1.5,0.2l0.1-0.4l5.8-0.8l-2.3,8.5c0.3-0.2,0.5-0.4,0.8-0.6
			c0.2-0.2,0.5-0.4,0.8-0.5c0.3-0.1,0.7-0.2,1-0.3c0.4-0.1,0.9-0.1,1.4-0.1C588.7,249.2,589.5,249.5,590.1,250z"/>
		<path class="st0" d="M596.4,260.2c-0.1,0.3-0.3,0.5-0.5,0.7c-0.2,0.2-0.5,0.4-0.8,0.5c-0.3,0.1-0.7,0.2-1.1,0.2
			c-0.7,0-1.2-0.2-1.6-0.6c-0.4-0.4-0.5-0.9-0.5-1.4c0-0.3,0-0.5,0.2-0.8c0.1-0.3,0.3-0.5,0.5-0.7s0.5-0.4,0.8-0.5
			c0.3-0.1,0.7-0.2,1.1-0.2c0.7,0,1.2,0.2,1.6,0.6c0.3,0.4,0.5,0.9,0.5,1.4C596.6,259.6,596.5,259.9,596.4,260.2z"/>
		<path class="st0" d="M603.3,256.3c0.2-0.6,0.3-1.2,0.5-1.9c0.2-0.7,0.4-1.5,0.6-2.3c0.2-0.8,0.4-1.6,0.6-2.3
			c0.2-0.8,0.3-1.4,0.4-2.1c0.1-0.6,0.2-1.1,0.2-1.5c0-0.6-0.1-1.1-0.2-1.5c-0.1-0.4-0.3-0.8-0.5-1c-0.2-0.3-0.4-0.5-0.6-0.6
			c-0.2-0.1-0.5-0.2-0.7-0.2c-0.8,0-1.4,0-1.8,0c-0.4,0-0.6-0.2-0.6-0.4c0-0.3,0.2-0.4,0.6-0.4c0.4,0,1.1,0,1.9,0
			c1.2,0,2.2,0.2,3,0.6c0.9,0.4,1.6,0.9,2.1,1.6c0.6,0.7,1,1.5,1.2,2.5c0.3,1,0.4,2,0.4,3.1c0,1-0.1,2.1-0.4,3.2
			c-0.3,1.1-0.7,2.2-1.2,3.3c-0.5,1.1-1.2,2.1-1.9,3.1s-1.6,1.8-2.6,2.6c-0.9,0.7-2,1.3-3.1,1.8c-1.1,0.4-2.3,0.7-3.6,0.7
			c-0.6,0-1.1,0-1.4,0c-0.3,0-0.5-0.1-0.5-0.3c0-0.2,0.2-0.3,0.5-0.3c0.4,0,0.9,0,1.5,0c0.9,0,1.8-0.5,2.7-1.5
			c0.9-1,1.6-2.5,2.3-4.7C603,257.3,603.1,256.8,603.3,256.3z"/>
	</g>
</g>
</svg>
