<?xml version="1.0" encoding="utf-8"?>
<!-- Generator: Adobe Illustrator 19.1.0, SVG Export Plug-In . SVG Version: 6.00 Build 0)  -->
<!DOCTYPE svg PUBLIC "-//W3C//DTD SVG 1.1//EN" "http://www.w3.org/Graphics/SVG/1.1/DTD/svg11.dtd">
<svg version="1.1" id="Layer_1" xmlns="http://www.w3.org/2000/svg" xmlns:xlink="http://www.w3.org/1999/xlink" x="0px" y="0px"
	 viewBox="0 0 228.1 480.6" style="enable-background:new 0 0 228.1 480.6;" xml:space="preserve">
<style type="text/css">
	.st0{fill:#E4E2DE;}
	.st1{fill:#292928;}
</style>
<g>
	<path class="st1" d="M21.7,189.6c-2.6,3.1-0.1,6,0.6,8.9c0.1,0.5,1.5,1,2.2,0.9c0.5-0.1,0.9-1.2,1.1-2c0.1-0.5-0.4-1.1-0.4-1.7
		c0-0.4,0.3-0.7,0.5-1.1c0.3,0.2,0.6,0.4,0.8,0.7c2.8,4.9,4.4,4.8,7.7,0.1c2.2-3,4.6-6.4,7.7-8.2c2.2-1.3,5.9-0.2,8.8-0.3
		c1.1,0,2.3,0.1,3.1-0.5c0.9-0.6,1.2-1.6-0.5-2.1c-1.1-0.3-1.9-1.2-2.9-1.9c-3.5-2.3-6.8-4.7-10.5-6.8c-0.7-0.4-2.3,1-3.4,1.5
		c-0.8,0.4-2,1.2-2.3,1c-1.1-0.9-1.8-2.1-2.7-3.2c0.8-0.6,1.5-1.4,2.4-1.6c1.7-0.3,3.4-0.2,5.1-0.4c0.6-0.1,1.1-0.7,1.7-1.1
		c-0.4-0.3-0.8-0.6-1.3-0.8c-4.1-1.4-8.2-2.7-12.2-4.1c-2.4-0.8-2.7-2.2-1.7-4.4c0.4-0.8,0.5-1.8,0.7-2.7c-1.3-0.3-2.7-0.8-4-0.9
		c-0.8,0-1.5,0.9-2.3,1.1c-0.6,0.1-1.8-0.1-1.9-0.4c-1-3.6-4.6-6.2-3.2-10.7c1.3-4.2,2-8.7,2.6-13.1c0.2-1.6,0.1-3.5-0.6-4.9
		C6.4,113,0.5,93.5,0,72.6c-0.2-9.2,4.5-16.4,13.2-19.9c7.2-3,14.8-3.9,22.5-4c4.5-0.1,9-0.2,13.5-0.1c4.2,0.1,7.3-1.6,9.5-4.9
		c1.4-2,2.5-4.2,3.6-6.4c4.7-9.4,9.3-18.8,14.1-28.2c0.7-1.3,2-2.6,3.3-3.1C93.1,1,106.7-2,120.7,1.6C134.4,5.2,148,9.9,159.2,19
		c8.4,6.9,15.1,15.5,19.3,25.8c3.6,8.9,7.8,17.5,8.8,27.2c0.4,3.7,0.1,7.2-1.4,10.6c-2.7,6.3-5.4,12.7-8,19.1
		c-1.6,3.9-1.2,7.6,1.3,11.1c5.6,7.9,9.8,16.4,11.6,26c2.5,13.7,0.1,26-11.2,34.6c-0.3,0.3-0.7,0.5-1,0.8c-3.2,2.6-3.2,3.8,0.2,6.2
		c5.1,3.7,10.3,7.3,15.3,11.1c5.1,3.8,8.5,9,11.4,14.5c0.4,0.8,0.1,2.1,0,3.2c-0.3,2.5-1,5-1.1,7.4c-0.1,1.7,0.6,3.4-1.6,4.4
		c-0.6,0.3-1.2,1.7-1.1,2.5c0.5,3.7,1,7.4,1.9,11c0.6,2.4,1.4,4.2,0,6.9c-1.3,2.4-2,5.4-2.9,8.1c-0.7,2.1,1.4,5.5,3,7.7
		c1.1,1.5,1.9-0.5,2.1-1.4c0.5-3.3,0.7-6.6,1.1-9.9c0.1-0.5,0.1-1,0.2-1.6c0.4,0.4,0.9,0.7,1.1,1.1c1.9,3.2,4.1,5.9,2.3,10.3
		c-1.4,3.4,1.1,7,3.9,9c3,2.1,3.8,4.6,3.1,7.8c-0.8,3.7-1.8,7.3-2.7,10.9c-0.7,2.9-1.1,5.7,2,7.6c0.4,0.2,0.6,0.9,0.9,1.3
		c-0.5,0.2-0.9,0.5-1.4,0.6c-3.3,0.2-4.5,1.7-3.9,5.3c0.8,5,1.7,10,2.4,15c0.4,2.4-0.6,4.1-1.8,6.3c-1.8,3.1-2.1,7-3,10.6
		c-0.6,2.3-1,4.7-1.5,7c-0.9-2.1-1.7-4.2-2.7-6.3c-0.7-1.5-1.5-3.1-2.6-4.4c-0.9-1.1-2.3-1.7-3.5-2.5c0.3,1.1,0.7,2.2,0.8,3.3
		c0.3,5.5,0.4,11,0.7,16.4c0.2,3.3,0.8,6.5,0.8,9.7c0,1.2-0.8,3.3-1.6,3.5c-5.3,1.4-7,6.2-9.9,9.9c-1.9,2.4-3.3,4.3-6.7,2.8
		c-0.8-0.3-2.4,0.6-3.3,1.3c-2.4,1.8-4.6,3.9-6.9,5.9c-3.2,2.7-6.2,3-9.9,0.7c-1.8-1.1-2.9-0.7-4.2,0.4c-1.3,1.2-2.4,2.6-3.9,3.4
		c-0.9,0.6-2.8,0.9-3.5,0.4c-3.2-2.8-6.2-0.6-8.2,1c-2.6,2.1-3.9,1.7-5.6-0.6c-0.3-0.5-0.9-0.8-1.2-1.3c-0.7-1.4-1.2-2.8-1.8-4.2
		c1.6-0.5,3.2-1.5,4.7-1.4c2.4,0.2,3.4,0.3,3.1-2.8c-0.2-1.6,1.2-3.7,2.3-5.2c1.2-1.5,1.3-1.9-0.7-2.5c-1-0.3-1.9-1.2-2.7-2
		c-1.4-1.5-2.8-2.7-5.2-2.3c-1,0.2-2.3-1.2-3.3-2c-1.5-1.2-2.8-2.7-4.5-3.6c-2.4-1.3-5.3-1.7-7.6-3.1c-2-1.2-3.8-2.9-5.1-4.8
		c-3.1-4.4-8.1-5.7-12.5-6.8c-6.6-1.5-10.7-6-15.3-10.1c-1.7-1.5-1.1-3.2,1.3-4.3c4.2-1.9,4.7-5.6,1.2-8.5c-0.8-0.6-1.5-1.3-2.2-2.1
		c-2.3-2.5-2.3-2.5,0.8-3.3c3.3-0.9,4.4-3.3,2.1-5.7c-3.1-3.1-1.9-6.7-1.6-10c0.4-3.8,2.8-4.5,6.7-4.2c2.9,0.3,6-0.5,8.9-1.3
		c1.8-0.5,1.3-2.1,0.1-3c-0.9-0.6-2.2-0.7-3.3-0.9c-2.9-0.4-4.8-1.7-5-5c-0.1-0.9-1.3-2.2-2.2-2.5c-1.9-0.6-4.1-1.2-5.9-0.7
		c-3.2,0.8-5.9-0.5-8.8-1.3c-2-0.5-3.1-1.6-2.8-3.7c0.4-2,2-3.2,3.8-2.7c2.4,0.7,4-0.3,5.5-1.5c0.7-0.5,1.1-2.2,0.8-3
		c-0.3-0.8-1.7-1.6-2.7-1.7c-0.6-0.1-1.9,1.1-2,1.7c-0.4,3.2-1.5,3.3-3.8,1.5c-0.8-0.6-2.3-1.1-3.2-0.9c-3.2,0.8-5.4-0.9-7.9-2.5
		c-2.1-1.4-1.3-2.2,0.2-3.1c2.8-1.5,5.6-2.9,8.4-4.3c0.6-0.3,1.1-0.8,1.6-1.3c-0.5-0.4-1-0.8-1.6-1c-3.1-1.1-1.4-3.2-1.1-5.1
		c0.2-1.3,2.6-2.6-0.2-3.8c-3.2-1.4-5.2-1.2-6.8,1c-0.7,1-1.6,2.1-2.7,2.4c-1.8,0.6-2.2,1.7-2.2,3.2c-0.1,2.2-1,3.3-3.3,4.3
		c-2.2,1-3.7,3.8-5.3,6c-0.4,0.5-0.1,2.1,0.4,2.5c2.1,1.7,1.4,3.6,0.5,5.5c-0.6,1.2-1.4,2.2-1.9,3.4c-1,2.3-2.1,2.5-3.7,0.6
		c-0.1-0.1-0.2-0.2-0.4-0.3c-5.4-1.8-11.3-2.2-15.9-6c-0.4-0.4-1.8,0.6-2.8,0.7c-1.5,0.1-3.1,0.2-4.6-0.1c-0.7-0.1-1.2-1-1.9-1.5
		c0.6-0.4,1.2-1.1,1.9-1.3c2.4-0.7,0.8-1.7,0.2-2.4c-2.1-2.6-4.3-5-6.3-7.6c-0.7-0.9-1.3-2.1-1.2-3.2c0-0.7,1.2-2,1.8-2
		c2.3-0.1,4.1,0.8,5.3,3.1c2.5,4.9,6.9,7.6,11.7,9.8c0.3,0.1,0.6,0.3,0.8,0.3c1.8-0.3,3.6-0.7,5.4-1.1c-0.7-1.4-1.2-3.1-2.3-4
		c-1.8-1.6-3.8-3.1-6-4c-2.2-0.9-3.3-2.3-3.7-4.3c-1-5.6-4.7-8.7-9.9-10.2c-0.6-0.2-1.8,0.7-2.3,1.4c-0.6,0.8-0.3,3-1.9,1.7
		c-1.5-1.2-5.4,0.9-4.8-3.3c0.3-2.4,0.4-4.9,0.5-7.4c0.1-1.5,0.6-2.5,2.1-1.2c2.2,1.9,2,0.3,2.4-1.3c0.3-1.2,1.5-2.1,2.3-3.1
		c0.8,0.8,1.7,1.6,2.5,2.4c0.6,0.6,1.1,1.9,1.6,1.8c3.2-0.4,4,1.4,4.8,4c0.7,2.1,6.7,3.1,8.4,1.7c1.4-1.1,1.4-3.8-0.2-5
		c-0.9-0.6-2.2-1.3-3.2-1.1c-4.3,1-5.7-2.2-7.3-5c-0.3-0.6-0.5-1.8-0.1-2.3c0.3-0.5,1.4-0.7,2.2-0.7c2.1,0,4.3,0.3,6.4,0.4
		c2.7,0,4.9,0.9,5.4,3.8c0.3,2,1.5,2.4,3.1,3c1.7,0.7,3.1,2.2,4.7,3.3c0.9,0.6,1.8,1.6,2.7,1.6c1.2,0,2.5-0.7,3.8-1.1
		c-1-0.8-2-1.7-3-2.5c-1-0.8-2.1-1.6-3.2-2.4c1.4-1.6,2.7-3.2,4.3-4.6c0.2-0.1,2.4,1.4,2.8,2.5c0.6,1.7,1.4,1.8,2.9,1.5
		c2.1-0.5,4.2-0.7,6.4-0.8c0.6,0,1.3,0.7,2,1.1c-0.5,0.4-1,0.8-1.5,1.3c-1,0.9-2.2,1.6-2.8,2.7c-1,1.6-1.8,3.4-2.1,5.1
		c-0.4,2.2-0.6,4.6,0,6.7c0.7,2.2,3,1.4,3.8,0.1c2.6-4,6.4-4.3,10.5-4.4c1,0,2.1-0.7,3-1.4c0.9-0.6,1.5-1.6,2.2-2.4
		c-1-0.2-1.9-0.3-2.9-0.5c-2.8-0.4-3.6-1.5-3.4-4.4c0.2-2.6,1.3-3.3,3.9-3.1c2.2,0.2,4.5-0.9,6.8-1c1.1-0.1,3,0.3,3.3,1
		c0.5,1.2,0.2,2.9,0,4.4c-0.1,0.4-0.8,0.8-1.2,1.2c-1.5,2.2-0.8,4,1.8,4.4c4.2,0.6,8-0.8,11.6-2.8c3-1.7,6.1-3.1,9-5
		c1.9-1.3,3.7-3,5.1-4.8c0.4-0.5-0.4-2.4-1.2-3.1c-0.4-0.4-2,0.3-2.9,0.8c-1.7,0.9-3.2,2.1-4.9,3.1c-1.2,0.7-2.6,1.3-3.6,2.2
		c-2.5,2.2-5.5,3-8.8,3.1c-0.5,0-0.9-0.4-1.4-0.6c0.3-0.4,0.6-0.9,0.9-1.3c0.1-0.1,0.3-0.1,0.4-0.2c0.9-0.8,1.7-1.7,2.5-2.5
		c-1.2,0-2.4-0.1-3.6,0c-2.9,0.2-4-1-2.8-3.5c0.9-1.9,2.5-3.5,3.9-5.2c0.6-0.8,1.7-1.4,2-2.2c0.4-1,0.1-2.1,0.2-3.2
		c-0.9,0-1.9-0.1-2.7,0.1c-4.3,1.4-10.4-2.2-11.1-6.7c-0.3-1.8,0-3.1,2.2-3.4c1.3-0.2,2.6-0.6,3.7-1.2c2.3-1.2,3.5-3,2.6-5.7
		c-0.1-0.3-0.3-0.5-0.3-0.8c-0.4-1.8-0.2-4.2-1.3-5.1c-1-0.8-3.3,0.3-5.1,0.5c-0.5,0.1-1.1-0.2-1.6-0.3c0.3-0.5,0.5-1,0.9-1.3
		c2.7-2.1,5.5-3.5,9.2-2.6c1.6,0.4,3.5-0.4,5.2-0.9c0.6-0.2,0.9-1.3,1.3-2c-0.8-0.5-1.6-1.2-2.5-1.3c-0.8-0.1-1.8,0.2-2.4,0.7
		c-1.5,1.1-2.4,1.2-3.2-0.8c-0.8-1.8-2.2-1.9-3.9-0.9c-2,1.1-4.2,1.9-6.3,2.6c-4.8,1.6-7.2,7.3-4.5,11.4c1,1.6,0.9,2.2-0.4,3.6
		c-1.6,1.6-2.8,3.6-3.7,5.7c-1.5,3.3-4.5,3-6.8,2.4c-3.1-0.7-5.9,0-8.8,0.5c-1.3,0.2-3.2,0.8-3.2-1.5c-0.1-1.7,0.5-3.2,2.6-3.3
		c0.1,0,0.3,0,0.4,0c2.3,0.3,4.5,0.6,6.8,1c-0.7-3.3,2.2-3.9,4.1-5.2c2.8-1.9,4.7-7.3,4.2-10.5c-0.2-1.1,0.7-2.5,1.1-3.7
		c0.4-1,1.3-2.1,1.1-3c-0.2-0.6-1.7-1.1-2.8-1.3c-3-0.6-6.5-0.3-7.3-4.6c-0.1-0.5-2.9-1.1-4.1-0.6c-2.6,1.1-3,6-0.9,8.1
		c1.4,1.3,2.9,2.5,4.1,3.8c1.4,1.5,1,2.9-0.8,3.8c-4.5,2.1-9.1,4.1-13.6,6.2c-2.3,1.1-4.4,0.9-6.3-0.5c-1.9-1.5-2.6-0.6-3,1.2
		c-0.4,1.9-0.6,3.9-0.8,5.9c0,0.5,0.5,1.5,0.7,1.5c3.6-0.1,1.8,2,1.4,3.3c-0.6,1.8-0.8,3.8-3.2,0.8c-3.2-4-7.5-4-10.3-0.7
		c-0.9,1.1-1,2.8-1.5,4.3c-0.2,0.5-0.2,1-0.4,1.5c-0.4-0.5-1.1-0.9-1.2-1.4c-0.2-0.8,0-1.7-0.1-2.6c-0.2-1.5-0.8-2.6-2.5-1.8
		c-2.1,1-2.1-0.3-2.1-1.7c-0.1-4-0.3-8-0.6-12c-0.2-2.9,0.2-5.3,3.7-5.7L21.7,189.6z M141.5,289.4c-0.9,0.9-1.8,1.9-2.7,2.8
		c0.2,0.1,0.7,0.4,0.7,0.4c0.6-1.1,1.3-2.2,1.9-3.3c0.3,0,0.6,0.1,0.8,0c0.4-0.3,0.8-0.6,1.2-1c0,0-0.2-0.4-0.3-0.6
		c-0.4,0.3-0.9,0.6-1.2,1C141.7,288.8,141.6,289.1,141.5,289.4z M189.4,347.7c-3.3,0.6-6.6,0.9-9.7,1.8c-1.8,0.5-3.5,1.8-5,2.9
		c-0.6,0.4-0.6,1.5-0.9,2.2c0.9,0.1,2.1,0.7,2.7,0.4c4.3-2.4,8.6-4.9,12.9-7.4c1.9-2,3.8-4,5.6-6.1c0.3-0.3,0.1-1,0.1-1.6
		c-0.6,0.1-1.6,0-1.8,0.4C191.9,342.7,190.7,345.2,189.4,347.7z M102.1,157.6c1.8-0.6,3.7-1.3,5.5-1.9c1.1-0.3,2.5-1,3.3-0.5
		c3.1,1.9,6.1,0.8,9.2,0.1c1.1-0.2,2.3,0.3,3.5,0.5c-0.8,0.7-1.5,1.6-2.4,2.2c-0.6,0.4-1.3,0.5-2,0.7c-2.2,0.4-4.5,0.7-6.7,1.1
		c-0.4,0.1-0.7,0.4-1,0.6c0.3,0.3,0.6,0.8,0.9,0.8c3.4,0.3,7.1,1.4,10.2,0.5c4.6-1.3,8.9-3.9,13.1-6.4c1.4-0.8,2.1-2.9,2.8-4.6
		c0.3-0.7-0.1-1.8-0.2-2.7c-1,0.4-2.6,0.6-2.8,1.3c-1,2.9-3.5,2.8-5.7,3.1c-2.3,0.3-4.6,0-6.9,0.1c-5.6,0.2-11.2,0.3-16.6,2.3
		c-0.6,0.2-1.5,0.1-2.1-0.1C100.4,153.6,101.6,155.8,102.1,157.6c-4.6-2.3-7.2,2.1-10.7,3.6c-0.6,0.2-0.8,1.6-1.1,2.5
		c0.9-0.2,1.9-0.1,2.7-0.6C96.1,161.3,99.1,159.5,102.1,157.6z M72.8,126.8c1.1,0.6,2.2,1.2,3.3,1.9c0.1-0.2,0.2-0.5,0.4-0.7
		c-1.1-0.4-2.2-0.7-3.3-1.1c-0.1,0-0.3,0-0.4,0c-1.1-2.2-4.5-3.6-2.8-7c0,0-0.6-0.5-0.7-0.4c-2.2,1.9-3.3-0.3-4.9-1.1
		c-4.5-2.4-8.5-5.9-13.7-6.8c-1.3-0.2-2.1-1-1.1-2.5c0.5-0.7,0.8-1.5,1.2-2.3c-0.9,0.2-2.1,0.1-2.7,0.6c-3.1,2.3-6.1,2.7-9-0.3
		c-0.5-0.5-1.1-0.9-1.7-1.3c-2-1.4-4.2-1.4-6.1,0c-2,1.6-3.7,3.4-5.3,5.4c-0.3,0.5,0.5,2.3,1.3,3c1.4,1.1,3.3,1.6,4.9,2.7
		c1.6,1.1,2.9,1.1,4.3,0c1.4-1.1,3.1-3.1,2.5,1c-0.1,0.5,0.5,1.5,1,1.7c2.9,1.4,5.5,3.5,9.3,2.7c4.2-0.9,8.4-0.2,12.1,2
		C64.8,126.4,68.6,127.6,72.8,126.8z M143.7,338.7c-1.6,0.3-3.8,0.7-5.9,1.1c-0.1,0-0.2,0.7-0.1,1.1c0.3,2.4,1.6,2.4,3.5,1.6
		c1.8-0.7,3.8-0.8,5.7-1.3c4.9-1.2,10.1-0.5,14.7-3.2c4.2-2.4,8.8-4.2,13.1-6.6c1.8-1,3.4-2.6,5-4c2-2,4.1-4,5.8-6.3
		c1.7-2.3,3.1-4.9,4.2-7.5c1.4-3.4-0.2-5.9-3.8-6.5c-1.8-0.3-2.3-1.1-2.5-2.8c-0.2-2.1-1.3-4.3-3.6-4c-1.4,0.2-2.7,2.1-3.9,3.4
		c-0.4,0.4-0.3,1.1-0.7,1.6c-2.2,2.6-4.1,5.7-6.8,7.7c-2.4,1.7-5.8,1.9-8.6,3.1c-1.7,0.8-2.7,0.9-4-0.7c-1.4-1.7-1.4-3.3,0.1-4.6
		c2.5-2.3,5.3-4.3,8-6.3c1.4-1,3-1.7,4.3-2.7c0.4-0.3,0.2-1.3,0.3-1.9c-0.6,0.2-1.5,0.2-1.7,0.6c-0.9,1.7-2.4,1.7-4,1.8
		c-1.6,0.1-3.7,0.5-4.6,1.6c-2,2.4-3.1,5.4-4.9,7.9c-1.5,2-3.3,3.9-5.4,5.3c-3.2,2.1-6.8,3.6-10.1,5.6c-2.1,1.3-2,3.6-0.9,5.4
		c1.2,2,2.7,0.6,4-0.3c0.7-0.5,1.5-0.9,2.1-1.5c4.7-4.1,10.4-4.3,15.6-2.7c4.4,1.4,6.4,0.2,8.5-3c0.4-0.7,1.8-1.4,2.5-1.2
		c3.4,1.2,5.1-0.4,6.7-3c0.3-0.6,1.7-0.8,2.5-0.7c0.4,0.1,0.9,1.5,0.7,2.2c-0.5,2.7-1.2,5.3-2,7.9c-1.2,3.8-2.2,4.4-6.1,4.3
		c-1.1,0-2.3,0.4-3.4,0.4c-1.9,0.1-3.7,0.3-5-1.7c-0.3-0.5-1.6-0.6-2.4-0.5c-1.4,0.3-2.8,0.6-4,1.4c-2.4,1.6-6.1,3.1-6.7,5.3
		C148.9,338.5,147.4,339.3,143.7,338.7z M48.4,155.5c0.9,0.2,2,0.1,2.9,0.5c5.6,2.4,11.2,4.9,16.9,7.3c0.6,0.3,1.5,0,2.3-0.1
		c-0.2-0.7-0.2-1.6-0.6-2.2c-5.5-6.7-13.4-8.7-21.2-10.9c-5.8-1.7-12.5-1.5-16-7.9c-0.3-0.6-1.4-0.9-2.2-1.3c-3-1.5-3.1-2.1-0.7-4.6
		c1.4-1.5,2.9-2.9,3.9-4.6c1-1.8,1.4-3.9-0.4-5.6c-1.2-1.1-4.8-0.4-6.3,1.1c-0.8,0.8-1.6,2-2.5,2c-3.2,0.2-3.5,2.5-3.2,4.6
		c0.4,2.9,0.1,5.4-2.2,7.5c-0.9,0.8-1.3,2.1,0.5,2.7c2.8,0.8,2.1,2.4,1.2,4.3c-0.6,1.3-0.5,3-0.8,4.4c0.8-1.2,1.7-2.4,2.4-3.7
		c1.1-2.4,2.2-2.8,3.6-0.7c2.2,3.3,4.4,6.7,5.7,10.3c0.6,1.8,1.1,3.1,2.6,4.1c2.4,1.7,9.9,1.4,12-0.6c0.6-0.6,1.2-1.9,1-2.6
		c-0.2-0.6-1.5-1.2-2.3-1.2c-2,0-4,0.5-6,0.3c-0.8-0.1-1.5-1.4-2.3-2.1c0.9-0.5,2.3-1.6,2.7-1.3C42.2,157.4,45.2,156,48.4,155.5z
		 M96.5,129.7c0.1,0.2,0.2,0.3,0.3,0.5c2-0.8,4.1-1.6,6.1-2.4c2.5-1.1,4.9-2.5,7.5-3.3c5.5-1.6,11.1-2.9,16.6-4.5
		c0.8-0.2,2-1.6,1.9-1.8c-1-1.7-2.1-3.5-3.6-4.8c-0.7-0.6-2.4-0.6-3.5-0.3c-3.9,1-7.7,2.9-11.6,3.1c-4.5,0.2-7.6,1.9-10.6,4.8
		c-1.2,1.1-2.6,2.1-4.3,0c-1.3-1.6-3.2-0.5-3.3,1.8c-0.1,1.3,0.3,3.1-0.4,3.7c-3.5,3.1-0.1,2.9,1.5,3.3
		C94.1,130,95.3,129.7,96.5,129.7z M85.8,144.1c-0.6-1.2-1.6-3.3-2.7-5.2c-1-1.8-2.2-1.5-3.4-0.1c-2.7,3.1-4.9,6.3-4.2,10.8
		c0.3,1.8-0.3,3.7-0.5,5.5c-0.1,0.8-0.4,1.9,0,2.4c2.2,3.2,3.3,6.7,3.2,10.6c0,0.5,0.7,1.1,1.1,1.6c0.4-0.5,1.1-1,1.2-1.5
		c0.8-2.6,1.5-5.2,2-7.9C83.7,155.3,84.6,150.2,85.8,144.1z M157.3,277.9c4.9-0.2,6.5,2,4.1,6.3c-1.5,2.7-3.6,5.1-5.4,7.7
		c-0.2,0.3-0.4,0.7-0.6,1c0.5,0.1,1.1,0.5,1.5,0.3c1.1-0.6,2.2-1.4,3.2-2.1c2.3-1.8,4.6-3.5,6.8-5.4c1.1-1,2.1-2.1,3.1-3.3
		c2.1-2.7-0.4-4.9-0.9-7.3c-0.4-2-0.8-4.4-3.7-4.7c-4.6-0.6-7.4,0.3-8.9,3.5c-0.8,1.7-1.6,3-3.6,3.2c-0.4,0-0.7,0.4-1.1,0.6
		c0.4,0.2,0.8,0.4,1.1,0.4C154.4,278.2,155.9,278,157.3,277.9z M126.6,315.4c0.4-0.1,0.9-0.1,1.5-0.2c7.7-1.5,14-5.7,20.1-10.1
		c1.4-1,2.1-2.8,3.2-4.2c-1.5,0.9-3.1,1.7-4.5,2.8c-2.2,1.8-4.2,3.2-7.3,1.7c-1.4-0.7-3.4-0.4-5,0c-3.3,0.8-6.6,2-9.8,3.1
		c-1.9,0.7-4.6,1.2-3.9,3.6c0.4,1.3,3,2.1,4.7,3C125.8,315.4,126.1,315.4,126.6,315.4z M179.2,343.1c2.2-1.2,5.1-1.8,5.9-3.4
		c2.1-4,5.9-6.1,8.4-9.5c0.4-0.6,1.2-1.2,1.2-1.7c0-1.2-0.1-2.6-0.8-3.5c-0.4-0.5-2.1-0.2-3,0.2c-1.1,0.6-2.7,1.5-2.9,2.5
		c-1.2,5.7-5.4,7.3-10.2,8.6c-1.9,0.5-3.7,2-2.9,4.1C175.4,341.5,177.4,342,179.2,343.1z M144.1,254.3c0.1,0.3,0.2,0.6,0.3,0.8
		c1-0.3,2.3-0.3,3.1-0.9c1.5-1.3,1.7-6.8,0.6-8.5c-1.2-1.9-2.4-2.3-4.9-1.9c-4.6,0.8-5.6,4.4-7.5,7.5c-0.9,1.5-1.5,3,0.1,4.2
		c1.4,1.1,2.9,1.7,4.7,0.3C141.5,255.1,142.8,254.8,144.1,254.3z M39,131.7c0-0.2-0.1-0.3-0.1-0.5c-0.7,0.2-2,0.4-2.1,0.8
		c-0.3,1-0.4,2.9,0.1,3.2c3,1.8,4.3,5.8,8.5,6c2.6,0.1,6.1-1,7.4-3.3c0.3-0.5,0.3-1.3,0.1-1.9c-0.1-0.3-1.1-0.5-1.5-0.3
		c-3.5,1.9-4.5-0.2-5.4-3.1c-0.4-1.2-1.7-2.1-2.7-3.2c-0.6,0.6-1.2,1.4-1.9,1.7C40.8,131.6,39.9,131.6,39,131.7z M118.3,135
		c-0.7-0.4-1.3-1.1-1.9-1.7c-0.9,1-0.4,5.7-0.8,7c-0.9,2.9-3.8,1.2-7.3-0.7c-0.4-0.2-1.4,0.1-1.5,0.3c-0.2,0.6-0.2,1.4,0.1,1.9
		c1.3,2.2,4.8,3.4,7.4,3.3c4.2-0.2,5.6-2.3,8.5-4.1c0.5-0.3,0.3-4.1,0.1-5.1c-0.1-0.4-1.4-0.5-2.1-0.8c0,0.2-0.1,0.3-0.1,0.5
		C119.9,135.4,119,135.4,118.3,135z M144.3,269.4c1.3-0.6,2.8-1.1,4.1-1.9c2-1.1,3.9-2.4,5.8-3.7c1.9-1.3,3.6-2.7,5.4-4.1
		c-2-1.2-4-2.5-6.1-3.5c-2.7-1.3-4.2-0.9-4.6,2.1c-0.6,4-2.9,6.4-5.6,8.8c-0.4,0.4-0.6,1.1-0.8,1.7
		C142.9,269,143.4,269.2,144.3,269.4z M96.7,273.6c4.8-1.7,8.9-3,12.9-4.5c0.8-0.3,1.4-1.4,1.8-2.3c0.3-0.6,0.3-1.7,0-2
		c-0.6-0.4-1.8-0.8-2.3-0.5c-3.9,2.4-8.3,2-12.5,2.8c-1.7,0.3-3.9,1-3.3,3.1C93.7,271.6,95.6,272.6,96.7,273.6z M99.6,106.7
		c-1.7-1.7-3.3-3.3-5-5c-0.4-0.4-0.7-0.9-1.2-1c-4-0.9-10.9,3.1-12.1,7c-0.2,0.6,0.4,1.5,0.6,2.3c0.7-0.2,1.6-0.3,2.2-0.8
		c0.5-0.4,0.6-1.4,1.2-1.8c1.5-1.2,3.1-2.4,4.8-3.3c0.6-0.3,1.6,0.3,2.5,0.5c-0.2,0.7-0.3,1.4-0.6,2.1c-0.5,1.3-1.1,2.6-1.6,3.9
		c-0.2,0.5-0.1,1-0.2,1.5c0.5-0.1,1.2,0,1.6-0.3c2-1.8,3.8-4,6.9-3.8C98.8,108.1,99.1,107.4,99.6,106.7z M112.8,199.1
		c-0.6,0.4-1.8,0.9-2.6,1.8c-2,2.3-3.7,4.8-5.7,7c-1.3,1.5-1,2.8,0.5,3.5c0.8,0.4,2.3-0.1,3.1-0.7c2-1.4,3.8-3,5.6-4.6
		c0.9-0.8,1.9-1.8,2.5-2.9C117.2,201.4,115.7,199.2,112.8,199.1z M117.8,273.6c0.2,0.2,1,1.8,1.4,1.7c2.8-0.6,5.6-1.3,8.1-2.6
		c2.4-1.2-0.6-2.6-0.5-4c0-0.6,0.2-1.2,0.1-1.7c-0.1-0.5-0.4-1.2-0.7-1.3C122.6,264.7,117.9,268.6,117.8,273.6z M197.4,271.5
		c0-1.5-0.3-3-2.7-3.1c-3.8,0-6.9,1.2-6.9,3c0,2,3,7.2,4.3,7.3C194.3,279,197.2,275.3,197.4,271.5z M178.4,290.9
		c-0.6-0.8-1.5-2.7-3-3.8c-0.7-0.5-3.2,0.3-3.6,1.2c-1.1,2.3-1.6,4.9-2,7.4c-0.1,0.5,0.7,1.6,1.3,1.8
		C174.4,298.5,178.5,295.3,178.4,290.9z M120.4,187.2c-0.2-0.4-0.3-0.7-0.5-1.1c-1.2,0.5-2.9,0.8-3.4,1.7c-0.4,0.8,0.2,2.7,0.9,3.4
		c0.8,0.8,2.5,1.2,3.6,0.9c2.4-0.7,4.8-1.7,7-2.8c1.6-0.7,2.8-2.3,1.3-3.7c-1.3-1.2-3-2.9-5.1-0.5
		C123.3,186.2,121.7,186.6,120.4,187.2z M191,257.7c0.2-1.8-0.7-2.8-2.7-2.8c-3.1,0.1-5.6,1.8-5.4,3.7c0.1,2,2.4,4.4,4.1,4.5
		C189,263.2,191,260.5,191,257.7z M114.8,174.1c-3.1,0.6-6,1.3-7.1,4.8c-0.2,0.5-0.3,1-0.5,1.5c0.4-0.2,0.9-0.5,1.3-0.6
		c0.7-0.2,1.7-0.6,2.1-0.3c3.7,2.3,5.2,1.7,6.2-2.6C117.3,174.9,116.7,174.2,114.8,174.1z M112.1,244.1c-1.2-0.3-2.4-1-3.2-0.6
		c-2.1,0.9-4.1,2.2-5.8,3.6c-0.8,0.6-1.2,1.9-1.3,3c0,0.4,1.6,1.6,1.8,1.4c2.6-1.7,5.2-3.6,7.7-5.5
		C111.6,245.7,111.7,245.2,112.1,244.1z M200.5,230.1c-0.7-1.8-1.2-3.5-2-5c-0.4-0.7-1.7-1.4-2.4-1.3c-0.8,0.1-2,1.4-1.9,2
		c0.4,2,1.1,4,2.1,5.8c0.3,0.6,1.9,1,2.6,0.8C199.6,232.2,200,231,200.5,230.1z M93.9,250.1c-3,0.2-5.2,0.1-7.3,0.6
		c-1.1,0.3-2,1.5-3,2.4c-0.1,0.1,0.3,1.1,0.4,1.1c3.3-0.4,6.5-0.8,9.7-1.4c0.5-0.1,0.9-1.2,1.3-1.9
		C94.5,250.5,93.8,250.1,93.9,250.1z M148.7,231.5c-1.5-2.3-2.8-4.3-4.3-6.2c-0.2-0.3-1.3-0.4-1.5-0.1c-0.4,0.4-0.9,1.3-0.8,1.8
		c0.6,1.9,1.3,3.7,2.2,5.5c0.4,0.8,1.2,1.4,1.8,2C146.9,233.6,147.7,232.7,148.7,231.5z M40.7,239.9c-1.1,1.5-2.3,2.3-2.5,3.4
		c-0.4,2.7,2,2.8,3.7,3c2.3,0.3,3.3-1.7,2.9-3.2C44.6,242,42.6,241.3,40.7,239.9z M40.7,255.5c1.9-0.6,2.9-1,4-1.3
		c0.5-0.2,1-0.4,1.4-0.5c-0.3-0.4-0.6-1.1-1-1.3c-2.5-1-5.1-1.9-7.6-2.7c-0.4-0.1-1.2,0.1-1.5,0.4c-0.3,0.3-0.3,1.2,0,1.5
		C37.6,253,39.3,254.3,40.7,255.5z M187.1,192.1c-2.4,1-3.4,2.2-2,3.5c1.5,1.5,3.7,2.2,5.7,3.2c0.1,0.1,1.4-1.7,1.3-1.9
		C190.5,195.2,188.8,193.6,187.1,192.1z M169.7,192.2c-0.1-0.4-0.1-0.7-0.3-0.9c-1.7-2.5-3.5-4.9-5.3-7.3c-0.3-0.3-1.3-0.6-1.5-0.4
		c-0.4,0.5-0.8,1.5-0.6,1.8c2.1,2.5,4.4,4.8,6.6,7.2C168.8,192.6,169.3,192.3,169.7,192.2z M124,230c0.3-0.2,0.6-0.4,0.9-0.6
		c0.6-0.4,1.1-0.9,1.7-1.2c1.5-0.8,3-1.5,4.4-2.3c0.7-0.5,1.3-1.2,2-1.8c-1-0.3-2.2-1.1-3-0.8c-2,0.7-3.8,1.8-5.6,3
		c-0.5,0.4-0.7,1.4-0.9,2.1C123.5,228.9,123.8,229.5,124,230z M127.3,254.3c-0.8-0.2-1.5-0.5-2-0.4c-1.7,0.4-3.3,0.9-4.9,1.5
		c-0.6,0.3-1,1.1-1.5,1.6c0.8,0.5,1.8,1.5,2.3,1.3c1.9-0.6,3.6-1.7,5.4-2.6C126.8,255.5,126.9,255,127.3,254.3z M170.8,341.9
		c-0.3-0.1-0.9-0.7-1.1-0.6c-2.3,1.4-4.5,2.9-6.7,4.5c-0.1,0.1,0.2,1.2,0.5,1.3C165.2,347.9,170.9,344,170.8,341.9z M203.2,268.8
		c0.2,0.1,0.3,0.1,0.5,0.2c0,0.4-0.1,0.9,0,1.3c0.3,0.7,0.7,1.4,1.1,2.1c0.6-0.6,1.2-1.1,1.7-1.8c0.2-0.3,0.3-0.8,0.3-1.2
		c-0.2-1.5-0.4-3.1-0.7-4.6c0-0.1-1.1-0.2-1.1-0.1C204.3,266,203.8,267.4,203.2,268.8z M137.2,209.5c-0.4,1.7-0.9,2.6-0.7,3
		c1.4,2,2.9,3.8,4.4,5.7c0.4,0.5,1.2,0.8,1.8,1.1c-0.2-1-0.2-2.7-0.6-2.8c-2-0.4-2.3-1.8-2.7-3.4
		C139.1,212.1,138.3,211.3,137.2,209.5z M146,148.3c0.4-0.3,1.2-0.6,1.8-1.3c0.4-0.5,0.4-1.3,0.5-2c-0.9,0.1-1.7,0.2-2.6,0.2
		c-0.4,0-0.9-0.1-1.3,0c-1.2,0.2-2.5,0.4-3.7,0.6c1.3,0.7,2.6,1.4,3.8,2.1C144.8,148,145.1,148.1,146,148.3z M209.3,280.4
		c-0.8-1-1.4-1.9-2.1-2.7c-0.6,1-1.8,2-1.7,2.9c0.1,1.1,1.2,2.2,1.9,3.3C207.9,282.8,208.5,281.8,209.3,280.4z M189.3,235.1
		c0.2,0.1,0.3,0.1,0.5,0.2c0,0.6-0.2,1.2-0.1,1.7c0.1,0.6,0.5,1.2,0.8,1.7c0.5-0.4,1.1-0.8,1.5-1.3c0.3-0.4,0.5-1.1,0.4-1.6
		c-0.4-1.4-1-2.8-1.5-4.2C190.4,232.8,189.9,233.9,189.3,235.1z M154,232.7c-0.4,0-0.8,0-1.2,0c-0.4,0.9-1.2,1.8-1.1,2.6
		c0.2,1.4,1,2.7,1.5,4.1c0.7-1.3,1.6-2.6,1.9-4C155.3,234.6,154.4,233.6,154,232.7z M59.4,240c-0.3-1-0.7-2-1-3
		c-0.6,0.9-1.2,1.7-1.6,2.7c-0.3,0.6-0.7,1.3-0.7,2c0,0.7,0.4,1.4,0.7,2.1c0.7-0.4,1.6-0.7,2-1.3C59.1,241.8,59.1,240.9,59.4,240z
		 M73.9,100.7c-1.4-0.8-2.2-1.7-3-1.7c-0.7,0-2,1.3-1.9,1.4c0.6,1.1,1.4,2,2.2,3C71.8,102.8,72.5,102.1,73.9,100.7z M150.5,242.1
		c-0.1,0.2-0.6,0.7-0.5,0.9c0.8,2.2,1.8,4.3,2.7,6.5c0.5-0.4,1.5-1,1.4-1.1c-0.7-2-1.6-3.9-2.4-5.8
		C151.6,242.4,151.2,242.3,150.5,242.1z M156.2,181.3c0.9-1,1.8-1.8,1.7-1.9c-1.1-1.4-2.4-2.7-3.7-3.9c0,0-1.3,1-1.2,1.1
		C153.9,178.1,155,179.5,156.2,181.3z M101.9,200.6c-0.8,0.2-1.3,0.2-1.6,0.4c-0.9,0.9-2.6,2.2-2.4,2.7c0.9,2.8,1.7-0.5,2.6-0.3
		c0.4,0.1,0.9,0.1,1.2,0c0.6-0.3,1-0.8,1.6-1.3C102.8,201.6,102.3,201,101.9,200.6z M166.6,254.6c-2-1.5-2.7-2.5-3.5-2.6
		c-0.6-0.1-1.4,0.9-2.1,1.4c0.9,0.8,1.6,1.9,2.7,2.4C164.1,256,165.1,255.2,166.6,254.6z M80.8,127.9c-1,0.5-1.8,0.8-2.6,1.2
		c1.1,0.6,2.2,1.4,3.3,1.6c0.7,0.1,1.6-0.6,2.4-0.9C82.9,129.2,81.9,128.6,80.8,127.9z M146.6,176.1c1-0.5,1.7-0.8,2.3-1.2
		c-0.6-0.5-1.2-1.2-1.9-1.3c-1.5-0.3-3-0.2-4.5-0.3c0,0.3-0.1,0.7,0,0.8C143.9,174.8,145.3,175.4,146.6,176.1z M165.8,212
		c1-0.7,1.6-1.1,2.3-1.5c-0.8-0.7-1.6-1.6-2.6-2.1c-0.2-0.1-1.6,1.2-1.5,1.6C164.2,210.8,165.1,211.3,165.8,212z M129.7,220
		c0.6-1.3,1.2-2,1.3-2.9c0.1-0.4-0.8-0.8-1.2-1.3c-0.5,0.7-1.2,1.4-1.5,2.2C128.1,218.3,128.9,219,129.7,220z M95,298.8
		c-0.8,0.7-1.4,1.2-2,1.7c0.8,0.3,1.6,0.9,2.5,0.9c0.5,0,1.1-0.6,1.6-1C96.5,300,95.8,299.5,95,298.8z M183.5,248
		c-1-0.5-1.4-0.9-1.8-0.9c-0.9,0.1-1.8,0.3-2.8,0.5c0.6,0.5,1.1,1.4,1.8,1.5C181.4,249.2,182.1,248.6,183.5,248z M125.7,177
		c-0.8-1-1.4-1.9-1.6-1.8c-0.8,0.4-1.6,0.9-2.2,1.6c-0.1,0.1,0.7,1.4,1,1.4C123.8,178,124.5,177.5,125.7,177z M61.9,105.3
		c-0.3-0.2-0.7-0.4-1-0.6c-0.2,0.5-0.6,1.2-0.5,1.6c0.4,0.9,1,1.7,1.6,2.5c0.4-0.4,1.1-0.8,1-1.1C62.8,106.9,62.3,106.1,61.9,105.3z
		 M65.4,115.6c0.7-1,1.4-1.6,1.5-2.2c0.1-0.4-0.8-1.5-0.9-1.4c-0.7,0.2-1.7,0.7-1.8,1.2C64.1,113.7,64.8,114.5,65.4,115.6z
		 M80.1,101.6c-0.6-0.7-1.1-1.6-1.4-1.6c-0.7,0.1-1.3,0.8-1.9,1.2c0.5,0.5,1,1.3,1.6,1.5C78.7,102.9,79.3,102.1,80.1,101.6z
		 M126.7,196.4c-0.6,0.7-1.3,1.3-1.2,1.5c0.3,0.7,0.8,1.3,1.3,2c0.3-0.3,1-0.7,1-1C127.6,198.2,127.2,197.5,126.7,196.4z M48.5,146
		c0.6-0.6,1.1-1,1.2-1.4c0-0.3-0.6-1-0.9-0.9c-0.4,0-1,0.5-1.1,0.9C47.5,144.9,48,145.4,48.5,146z M151.8,143.9
		c-0.5,1.1-0.8,1.4-0.8,1.7c0.2,1.1,0.6,2.2,0.9,3.3c0.3-0.4,0.9-0.8,0.9-1.2C152.7,146.6,152.3,145.6,151.8,143.9z M206.9,285.9
		c-0.2,1-0.5,1.5-0.4,2c0.1,0.3,0.5,0.6,0.8,0.8c0.3-0.4,0.8-0.8,0.8-1.2C208.1,287.2,207.6,286.8,206.9,285.9z M60.4,100.4
		c-0.8-0.2-1.4-0.5-1.6-0.4c-0.4,0.2-0.6,0.8-0.9,1.2c0.4,0.2,0.9,0.7,1.2,0.6C59.5,101.7,59.8,101.1,60.4,100.4z M161.8,363.5
		c0.7,0.2,1.2,0.5,1.7,0.4c0.2,0,0.7-0.6,0.6-0.8c-0.1-0.4-0.5-0.8-0.7-1.1C163.2,362.2,162.9,362.5,161.8,363.5z M102.6,299.1
		c-0.6-0.5-0.9-0.9-1.2-0.9c-0.5,0-1,0.3-1.5,0.5c0.1,0.3,0.3,0.9,0.4,0.9C101,299.6,101.6,299.4,102.6,299.1z M162.8,192.8
		c-0.5-0.6-0.8-1-1.1-1.4c-0.3,0.3-0.9,0.6-0.9,1c0,0.4,0.4,0.9,0.7,1.3C161.8,193.4,162.2,193.1,162.8,192.8z M130.6,180.4
		c-0.5-0.5-0.7-1-0.9-1c-0.6,0-1.3,0.3-1.9,0.5c0.2,0.4,0.5,1,0.7,1C129.1,180.9,129.7,180.6,130.6,180.4z M133.4,241.1
		c-0.4,0-0.8-0.2-1.1-0.1c-0.1,0-0.2,0.5-0.3,0.7c0.3,0.1,0.7,0.2,1,0.3C133.1,242,133.2,241.5,133.4,241.1z M196.9,220.3
		c-0.3-0.5-0.6-0.8-0.8-1.1c-0.2,0.2-0.6,0.5-0.6,0.7c0,0.3,0.4,0.7,0.6,1C196.3,220.7,196.6,220.5,196.9,220.3z M140.4,189.5
		c0.5-0.3,0.9-0.5,1.1-0.8c0.1-0.2-0.3-0.8-0.5-0.8c-0.3,0-0.8,0.3-1,0.6C139.9,188.6,140.3,189,140.4,189.5z M140.5,165.1
		c-0.5-0.3-0.8-0.7-1.1-0.7c-0.3,0-0.6,0.5-0.9,0.7c0.3,0.3,0.6,0.7,0.8,0.7C139.7,165.8,140,165.4,140.5,165.1z M53.5,160.7
		c-0.2,0.4-0.4,0.7-0.5,1c0.4,0.2,0.7,0.5,1.1,0.5c0.2,0,0.4-0.5,0.6-0.8C54.3,161.2,54,161,53.5,160.7z M57.2,145.1
		c-0.4-0.1-0.7-0.3-0.8-0.2c-0.4,0.3-0.7,0.6-1,0.9c0.3,0,0.6,0.1,0.8,0C56.5,145.7,56.8,145.4,57.2,145.1z M68.7,130.4
		c-0.1-0.2-0.1-0.5-0.3-0.7c0-0.1-0.4-0.1-0.4,0c-0.1,0.2-0.1,0.4-0.1,0.7C68.2,130.4,68.4,130.4,68.7,130.4z M141.3,141.7
		c-0.2-0.3-0.5-0.5-0.7-0.8c-0.1,0.2-0.3,0.5-0.3,0.7c0,0.2,0.3,0.4,0.4,0.7C140.9,142,141.1,141.9,141.3,141.7z M36.2,141.2
		c-0.2,0.1-0.5,0.2-0.6,0.4c-0.1,0.2,0.1,0.4,0.2,0.7c0.3-0.2,0.6-0.3,0.9-0.5C36.5,141.5,36.3,141.4,36.2,141.2z M113,333.9
		c-0.1-0.2-0.1-0.5-0.3-0.7c0-0.1-0.4-0.1-0.4,0c-0.1,0.2-0.1,0.4-0.1,0.7C112.5,333.9,112.7,333.9,113,333.9z M172.6,195.8
		c-0.2,0.5-0.5,0.9-0.4,1.2c0.1,0.3,0.6,0.5,0.9,0.7c0.2-0.3,0.5-0.7,0.4-0.9C173.4,196.4,173,196.2,172.6,195.8z"/>
	<path class="st1" d="M74.9,311c1.1,4.5,2.6,9.1,5.3,12.9c1.6,2.2,2.1,4.1,1.6,6.8c-1.1,6,0.9,7.8,6.9,6.2c2.8-0.7,4,0.2,4.8,2.8
		c1.3,4.5,2.6,5.1,6.8,3.5c2.2-0.9,3.7-0.9,5.5,1.4c1.5,1.9,4.1,2.8,5,5.5c0.3,0.8,2.2,1.2,3.4,1.4c3.2,0.5,4.5,2.2,4.4,5.3
		c0,0.8,0,1.9,0.4,2.5c1.9,2.5,0.3,3.2-1.8,3.8c-3.1,0.9-5.6,0.1-8-1.9c-3.8-3.2-4.2-3-7.8,0.5c-1,0.9-2.5,1.6-3.9,1.7
		c-2.2,0.2-2.8,1.3-3,3.3c-0.4,3.4-1.3,3.6-4.1,1.6c-3.4-2.5-6.9-4.8-10.3-7.2c-2.7-1.8-5.6-2.7-9-2.3c-1.7,0.2-3.7-0.7-5.2-1.7
		c-5-3.5-9.8-7.1-14.5-10.9c-1.2-0.9-1.8-2.6-2.7-3.8c-1.3-1.8-0.9-4.8-4.4-5.3c-1.7-0.2-1.6-3.3,0.1-5.1c0.8-0.8,1.9-1.3,2.9-1.7
		c0.9-0.4,1.8-0.6,2.8-0.9c-1-0.7-1.9-1.6-3-2.2c-1.4-0.7-3.2-0.8-4.4-1.7c-1.2-1-2.9-3.2-2.5-3.9c1.5-2.7-0.6-2.6-1.9-3.4
		c-1.6-0.9-3.2-2-4.6-3.2c-0.4-0.4-0.8-1.6-0.5-1.9c0.4-0.5,1.4-1,2-0.9c3.4,0.5,6.9,1,10.3,1.8c1.9,0.5,3.7,1.8,2.5,4.2
		c-1.2,2.4,0.3,3.4,1.9,3.9c3.6,1.2,4.6,3.6,4.4,7c-0.1,0.8,0,1.8,0.5,2.5c3.2,4.9,5.8,10.2,10.6,14c4.9,3.8,9.1,8.5,14,12.3
		c2.5,2,5.9,2.9,8.9,4.2c0.2-0.5,0.7-1.3,0.5-1.6c-2.2-2.6-4.2-5.4-6.7-7.7c-4.8-4.3-9.9-8.3-14.8-12.4c-1.5-1.2-2.9-2.5-4.3-3.8
		c1.4-1.2,2.8-2.4,4.1-3.6c0.5-0.5,1-1.1,1.2-1.8c0.6-3.1,2.7-4.7,5.6-5.3c2.6-0.5,2.3-1.8,1-3.3c-2.4-2.6-3.4-5.6-3-9.1
		c0.3-2.2-1-3.4-3.1-4.1c-1.2-0.4-2.9-0.7-3.3-1.6c-1.4-2.8-2.5-2.7-4.9-0.9c-3.1,2.3-6.8,3-10.7,2.4c-5-0.7-10-1-14.9-2
		c-2.3-0.5-4.3-2.2-6.3-3.5c-0.4-0.3-0.5-1.4-0.3-2c0.2-0.4,1.2-0.6,1.8-0.4c5.1,1.4,10.2,2.8,15.3,4.3c2.2,0.7,5.9-1.6,6-4
		c0-0.3-1.3-1.1-1.9-1c-4.1,0.8-6.9-1.5-9.8-3.7c-0.6-0.4-0.8-1.4-1.2-2.2c0.8-0.4,1.6-1.2,2.5-1.2c1.2-0.1,2.6,0.2,3.8,0.6
		c2.4,0.8,4.7,1.7,7.1,2.5c0.3,0.1,1-0.1,1.1-0.3c0.2-0.6,0.4-1.6,0.1-2c-1.4-1.5-2.3-3.2,0.2-4c1-0.3,2.7,1.4,3.9,2.3
		c0.8,0.6,1.3,1.6,1.9,2.4c0.5-1,1.2-1.9,1.6-2.9c0.8-2.2,2.1-3.8,3.8-5.5c1.8-1.8,2.2-5.1,2.9-7.8c0.3-1.4-0.3-3.3,2-2.8
		c0.6,0.2,1.3,2.4,1.1,3.5c-0.3,1.6-1.5,3.1-2.2,4.7c-0.4,1-0.6,2.1-0.7,3.2c0,0.4,0.6,0.9,0.9,1.4c0.3-0.4,0.6-0.7,1-1.1
		c0.5-0.6,1-1.2,1.5-1.9c0.6,0.7,1.5,1.4,1.6,2.2c1.2,7.4,2.2,14.8,3.2,22.2C75.5,310.8,75.2,310.9,74.9,311z M68.9,303.8
		c-0.2,0.5-0.5,1-0.6,1.6c-0.1,0.5,0.1,1,0.2,1.4c0.2-0.4,0.6-0.8,0.7-1.3C69.3,305,69,304.4,68.9,303.8c-0.2-0.3-0.2-0.9-0.5-1.1
		c-0.4-0.3-0.9-0.5-1.4-0.7c0.1,0.5,0,1.1,0.3,1.4C67.7,303.6,68.4,303.6,68.9,303.8z M58.3,297.4c-0.5,1.5-0.8,2.2-0.9,2.9
		c0,0.4,0.5,0.9,0.8,1.3c0.4-0.6,1.1-1.2,1.2-1.8C59.5,299.3,58.9,298.7,58.3,297.4z M100.7,353.4c0.5-1,1-1.8,1.2-2.7
		c0-0.1-0.7-0.5-1.1-0.8c-0.4,0.8-0.8,1.6-1.1,2.5C99.6,352.6,100.2,352.9,100.7,353.4z"/>
	<path class="st1" d="M215.1,408.7c-0.9-0.3-2.4-0.6-3.5-1.4c-2.8-2.4-5.8-2.6-8.9-1c-2.2,1.1-4,1-6-0.6c-3.6-2.8-7.9-2.6-12.1-2.5
		c-6.5,0.1-11.9-2.2-16-7.2c-0.7-0.8-1.3-2.9-0.9-3.2c0.9-0.8,2.8-1.7,3.7-1.3c2.9,1.5,4.8,1,6.6-1.6c0.6-0.8,2.3-1.1,3.5-1.1
		c6.5,0.4,10.4-3,13.6-8.3c2.7-4.4,5.8-8.6,9-12.7c1.8-2.3,4-2.2,5.8,0.2c1.7,2.3,3.4,4.8,4.2,7.5c0.8,2.7,2.3,4.5,4.1,6.4
		c2.3,2.3,3.7,4.9,4,8.4c0.2,2,1.9,4.1,3.2,5.9c1.2,1.7,3.4,2.8,2.2,5.6c-1.1,2.8-2.5,5.3-5.7,6C220,408.3,217.8,408.4,215.1,408.7z
		"/>
	<path class="st1" d="M127,380c-1.3,6.4-2.3,12.1-3.7,17.7c-2.2,8.8-2.5,17.7-1.7,26.7c0.5,5,0.5,4.9,5.4,6.7
		c0.8,0.3,1.7,2.1,1.5,2.9c-1.1,5-2.9,9.7-6.3,13.6c-1.3,1.4-2.5,2-4.5,1c-2.9-1.5-4.5-1.1-5.4,1.7c-1.6,5-5.1,6-9.7,6.2
		c-6.2,0.3-12.4,0.9-18.5,1.6c-5.8,0.7-6.3,0.5-7.6-5c-0.3-1.3-1.4-2.4-2-3.7c-0.4-0.7-0.9-1.9-0.6-2.3c0.5-0.6,1.8-1.3,2.5-1.1
		c3.4,1.2,6.1,0.5,8.8-1.7c0.7-0.6,2.6-0.4,3.6,0.1c3.3,1.9,6.2,2.3,9-0.7c0.4-0.4,1-0.8,1.5-0.8c4.7,0.4,8.3-2,11.7-4.7
		c0.8-0.6,1.9-1.3,2.7-1.2c3.7,0.6,3.6-1.8,3-4c-1.9-7-0.5-14.1-1.2-21.1c-1.1-10.9,0.4-22-2.9-32.6c-0.6-2.1-1-4.2-1.2-6.4
		c-0.2-2.4,0.9-3.3,3.2-2.3c3.2,1.5,6.5,3,9.4,4.9C125.3,376.7,126.1,378.7,127,380z"/>
	<path class="st1" d="M196.6,446c-2-0.2-4.7-1.4-5.8-0.5c-2.9,2.3-6.1,1.1-9,2c-1.8,0.6-3.5,0.5-4.1-1.8c-0.1-0.3-0.2-0.6-0.5-0.7
		c-1.5-0.9-2.9-3.4-4.7-1.6c-1.5,1.5-0.1,3,1.4,4.3c0.6,0.4,1,2,0.6,2.5c-0.9,1.2-2.2,2.8-3.3,2.9c-1.6,0.1-3.9-0.7-4.9-1.9
		c-1.5-1.9-2.8-1.8-4.5-1c-4.8,2.1-9.6,3.9-15,3.5c-0.5,0-1.1,0.6-1.4,1.2c-0.1,0.2,0.5,1.1,0.9,1.2c1.1,0.4,2.3,0.4,3.4,0.8
		c1.5,0.6,5.1-0.2,2.9,3.5c0.6,0.3,1.4,1,1.9,0.8c0.9-0.3,1.7-1.1,2.4-1.8c1.3-1.3,2.3-1.6,3.2,0.4c0.9,2.2,1.5,1.3,2.4-0.1
		c3.5-5.4,8.3-5,11.2,0.9c0.3,0.6,0.1,1.3,0.2,2c-0.7,0-1.4,0.2-2-0.1c-1.1-0.4-2-1.4-3.1-1.4c-0.9,0-1.9,0.9-2.9,1.4
		c0.5,0.9,0.8,1.9,1.4,2.7c0.5,0.7,1.3,1.2,2,1.8c-1,0.5-1.9,1.4-2.9,1.5c-5.1,0.7-10.3,1.1-15.5,1.7c-4.1,0.5-4.8,1.2-5.8,5.2
		c-1.1,4.8-5.7,6.8-10.2,4.3c-0.5-0.3-1-1.3-0.9-1.6c1.4-2.5,2.5-5.3,4.6-7.2c2.6-2.4,3.7-4.2,1.5-6.8c-1.9-2.2-2-3.9-0.7-6.5
		c0.8-1.7,0.1-4.2,0.2-6.3c0-0.6,0.4-1.3,0.6-1.9c0.4,0.3,0.9,0.6,1.3,0.8c0.7,0.3,1.4,0.6,2.1,1c0.2-0.9,0.7-1.9,0.5-2.7
		c-0.3-1.2-1.2-2.3-1.5-3.6c-0.2-1,0.1-2.2,0.2-3.3c1,0.1,2.1,0.1,3.1,0.4c0.8,0.2,1.5,0.8,2.3,1.2c3.9,2,4.8,1.8,6.8-2
		c1.8-3.3,5.2-4.3,8.1-3.8c7.2,1.1,13.9-1.9,20.8-2.2c4-0.2,8-0.9,11.9-0.7c3.8,0.3,7.6,1.4,11.3,2.3c2,0.5,3,1.9,0.6,3.2
		C204.4,442.1,202,446.9,196.6,446z M169.4,446.5c-0.3,0.6-0.5,0.9-0.5,1.2c0,0.2,0.2,0.4,0.3,0.7c0.3-0.2,0.7-0.4,0.7-0.7
		C170,447.4,169.7,447.1,169.4,446.5z M147.7,462.1c0.3,0.3,0.5,0.6,0.6,0.6c0.3-0.1,0.6-0.3,0.9-0.4c-0.2-0.2-0.3-0.5-0.5-0.5
		C148.5,461.9,148.1,462,147.7,462.1z"/>
	<path class="st1" d="M105.2,473.9c-0.8,0-1.1,0.1-1.4,0c-1.4-0.5-2.7-0.9-4.1-1.4c1.2-0.6,2.4-1.2,3.7-1.7c1.5-0.6,3.4-0.6,4.3-1.6
		c2.7-3,6.3-3.9,9.8-4.9c2.5-0.8,4.3-2.2,4.7-5c0.2-1.1,0.8-2.2,1.5-3.1c1.5-1.8,3.2-1.6,4,0.5c1.1,3.3,1.9,6.6,2.5,10
		c0.4,2.4-0.9,3.9-3.3,4.3C119.6,472,112.2,473,105.2,473.9z"/>
	<path class="st1" d="M34.3,282c-0.4,0.8-0.9,1.5-1.3,2.3c-0.6-0.5-1.5-0.9-1.9-1.5c-1.1-2.2-2.1-4.4-2.9-6.7
		c-0.1-0.3,0.5-1.1,0.9-1.2c0.5-0.2,1.1,0,1.7,0.1c6.6,1.1,13.2,2.3,19.8,3.5c0.7,0.1,1.8,0.8,1.9,1.3c0.1,1-0.1,2.5-0.8,3
		c-2.4,1.8-5.3,2.5-8.1,1.3c-2.5-1.1-4.8-2.6-7.2-3.9c-0.7-0.4-1.5-0.7-2.2-1.1c-0.2,0.9-0.4,1.7-0.7,2.6
		C33.7,281.8,34,281.9,34.3,282z"/>
	<path class="st1" d="M14.6,213.3c0.4-0.8,0.6-1.8,1.2-2.2c0.3-0.2,1.3,0.3,1.9,0.6c0.5,0.3,1.1,0.6,1.3,1.1c1,3,2.9,5,5.9,6.4
		c2,0.9,1.6,4-0.4,4.8c-0.8,0.3-2.4,0.1-3-0.5c-2.1-2.3-4-4.9-5.8-7.4C15.1,215.4,15,214.3,14.6,213.3z"/>
	<path class="st1" d="M50.4,207.8c-0.1,2.4-0.8,4.4-3.5,4.6c-2.1,0.2-3.7-1.6-3.7-3.9c0-2.4,2-5.5,3.5-5.3
		C48.6,203.4,50.4,205.6,50.4,207.8z"/>
	<path class="st1" d="M53.4,222.2c-2,1-3.1,1.9-4.1,2c-1.6,0.1-3.3-0.4-5-0.7c-1.6-0.2-3-2.5-2-3.4c1.6-1.2,3.8-2.7,5.5-2.5
		C49.5,217.8,50.9,220.1,53.4,222.2z"/>
	<path class="st1" d="M58.7,267.2c1.9-1.8,3.3-3.1,4.6-4.3c1.4,1.6,3.2,3.1,4,5c0.6,1.4-2.6,3.9-4.6,3.3
		C61.4,270.8,60.4,269,58.7,267.2z"/>
	<path class="st1" d="M27.5,290.7c-1-0.5-2.1-0.8-2.6-1.5c-0.7-1-0.9-2.3-1.3-3.4c1.2,0.1,2.4,0.1,3.5,0.4c0.6,0.2,1.1,0.9,1.6,1.4
		c0.5,0.6,1,1.2,1.5,1.8C29.3,289.8,28.5,290.2,27.5,290.7z"/>
	<path class="st1" d="M38.7,181.6c-1,0.4-1.5,0.6-2,0.8c-2,1.1-3.9,2.2-5.9,3.2c-0.4,0.2-1,0.2-1.5,0.3c0-0.3,0-0.6,0-0.8
		c0.8-2.2,4.9-4.7,7.3-4.4C37.2,180.8,37.6,181.1,38.7,181.6z"/>
	<path class="st1" d="M100.5,468.7c-0.5,0.1-1.3,0.6-2.1,0.5c-0.9-0.1-1.8-0.7-2.7-1.1c-0.6-0.3-1.2-0.7-1.8-1.1
		c0.7-0.5,1.3-1.2,2-1.3C98.7,465.1,100.7,466.2,100.5,468.7z"/>
	<path class="st1" d="M16.6,258.3c1.4,1.9,2.5,2.9,2.8,4c0.2,0.6-1.1,1.6-1.8,2.4c-0.7-1-1.6-1.9-2-3
		C15.4,261.1,16,260.2,16.6,258.3z"/>
	<path class="st1" d="M19.7,272.6c1.1,2.7,1.8,4.5,2.6,6.4c-0.4,0.1-1,0.5-1.1,0.4c-1.1-1.4-2.2-2.8-3.2-4.3
		C17.9,274.8,18.7,274.1,19.7,272.6z"/>
	<path class="st1" d="M25.1,246.3c1.7,1.6,2.6,2.4,3.4,3.2c-0.7,0.4-1.5,1.2-2.1,1.1c-1-0.3-1.9-1-2.5-1.8
		C23.8,248.5,24.6,247.4,25.1,246.3z"/>
	<path class="st1" d="M83.6,302.1c-1.1-0.6-2-1.2-2.8-1.7c1-0.4,2-1.2,2.9-1.1c0.7,0,1.3,1.2,1.9,1.8
		C84.9,301.4,84.3,301.8,83.6,302.1z"/>
	<path class="st1" d="M149.1,396.4c-0.7,1.5-1.3,3-2,4.5c0.2-1.6,0.2-3.1,0.5-4.7c0.1-0.5,0.7-1,1-1.5
		C148.8,395.2,149,395.7,149.1,396.4z"/>
	<path class="st1" d="M37.7,215.2c-0.7,1-1.3,1.9-1.9,2.8c-0.4-0.5-1.1-1.2-1-1.4c0.5-1,1.2-1.9,1.9-2.9
		C37,214.2,37.3,214.6,37.7,215.2z"/>
	<path class="st1" d="M89.1,280.9c0.4,1,0.9,1.8,0.8,2.5c-0.1,0.6-1.1,1.3-1.7,1.3c-0.6,0-1.2-0.9-1.8-1.4
		C86.9,282.8,87.4,282.3,89.1,280.9z"/>
	<path class="st1" d="M21.8,189.7c0.3-1.4,0.4-2.8,0.8-4.1c0.1-0.4,1.1-0.7,1.7-0.8c0.3,0,0.9,0.5,0.8,0.7c-0.1,0.5-0.4,1-0.8,1.4
		c-0.9,0.9-1.8,1.8-2.7,2.7L21.8,189.7z"/>
	<path class="st1" d="M173.7,468.8c-0.7-0.6-1.2-1-1.7-1.4c0.5-0.4,0.9-1.2,1.4-1.2c0.5,0,1.1,0.7,1.4,1.2
		C174.9,467.6,174.2,468.2,173.7,468.8z"/>
	<path class="st1" d="M144.8,410.6c-0.1,0.2-0.2,0.5-0.3,0.7c-0.2-0.1-0.5-0.2-0.6-0.4c0-0.2,0.2-0.5,0.3-0.7
		C144.4,410.3,144.6,410.5,144.8,410.6z"/>
	<path class="st1" d="M21,161.3c0.5-0.2,0.9-0.5,1.2-0.5c0.2,0,0.4,0.5,0.4,0.8c0,0.1-0.4,0.5-0.6,0.4C21.6,162,21.4,161.7,21,161.3
		z"/>
</g>
</svg>
