<?xml version="1.0" encoding="utf-8"?>
<!-- Generator: Adobe Illustrator 19.1.0, SVG Export Plug-In . SVG Version: 6.00 Build 0)  -->
<!DOCTYPE svg PUBLIC "-//W3C//DTD SVG 1.1//EN" "http://www.w3.org/Graphics/SVG/1.1/DTD/svg11.dtd">
<svg version="1.1" id="Layer_1" xmlns="http://www.w3.org/2000/svg" xmlns:xlink="http://www.w3.org/1999/xlink" x="0px" y="0px"
	 viewBox="0 0 667.8 220.5" style="enable-background:new 0 0 667.8 220.5;" xml:space="preserve">
<style type="text/css">
	.st0{fill:#E4E2DE;}
	.st1{fill:#292928;}
</style>
<g>
	<g>
		<circle class="st0" cx="254.3" cy="116.3" r="76.5"/>
		<g>
			<path class="st1" d="M211,87c-1.2,1.4,0,2.7,0.3,4.1c0,0.2,0.7,0.5,1,0.4c0.2,0,0.4-0.6,0.5-0.9c0.1-0.2-0.2-0.5-0.2-0.8
				c0-0.2,0.2-0.3,0.2-0.5c0.1,0.1,0.3,0.2,0.4,0.3c1.3,2.3,2,2.2,3.6,0.1c1-1.4,2.1-2.9,3.5-3.8c1-0.6,2.7-0.1,4.1-0.1
				c0.5,0,1.1,0,1.4-0.2c0.4-0.3,0.5-0.7-0.2-1c-0.5-0.2-0.9-0.6-1.3-0.9c-1.6-1.1-3.1-2.2-4.8-3.1c-0.3-0.2-1,0.4-1.6,0.7
				c-0.4,0.2-0.9,0.6-1.1,0.4c-0.5-0.4-0.8-1-1.2-1.5c0.4-0.3,0.7-0.7,1.1-0.7c0.8-0.1,1.6-0.1,2.3-0.2c0.3,0,0.5-0.3,0.8-0.5
				c-0.2-0.1-0.4-0.3-0.6-0.4c-1.9-0.6-3.7-1.3-5.6-1.9c-1.1-0.4-1.2-1-0.8-2c0.2-0.4,0.2-0.8,0.3-1.2c-0.6-0.1-1.2-0.4-1.8-0.4
				c-0.3,0-0.7,0.4-1.1,0.5c-0.3,0.1-0.8-0.1-0.9-0.2c-0.4-1.6-2.1-2.8-1.5-4.9c0.6-1.9,0.9-4,1.2-6c0.1-0.7,0.1-1.6-0.3-2.2
				c-4.7-8.4-7.4-17.3-7.6-26.9c-0.1-4.2,2.1-7.5,6-9.1c3.3-1.4,6.8-1.8,10.3-1.9c2.1,0,4.1-0.1,6.2-0.1c1.9,0,3.3-0.7,4.4-2.3
				c0.6-0.9,1.2-1.9,1.7-2.9c2.2-4.3,4.3-8.6,6.5-12.9c0.3-0.6,0.9-1.2,1.5-1.4c6.1-2.2,12.3-3.6,18.8-1.9c6.3,1.7,12.5,3.8,17.6,8
				c3.9,3.2,6.9,7.1,8.9,11.8c1.6,4.1,3.6,8,4,12.5c0.2,1.7,0,3.3-0.6,4.9c-1.3,2.9-2.5,5.8-3.7,8.8c-0.8,1.8-0.5,3.5,0.6,5.1
				c2.6,3.6,4.5,7.5,5.3,11.9c1.2,6.3,0.1,11.9-5.1,15.9c-0.2,0.1-0.3,0.2-0.5,0.4c-1.5,1.2-1.5,1.8,0.1,2.9c2.3,1.7,4.7,3.3,7,5.1
				c2.3,1.8,3.9,4.1,5.2,6.7c0.2,0.4,0.1,1,0,1.5c-0.2,1.1-0.5,2.3-0.5,3.4c0,0.8,0.3,1.5-0.7,2c-0.3,0.1-0.5,0.8-0.5,1.2
				c0.2,1.7,0.5,3.4,0.9,5.1c0.3,1.1,0.6,1.9,0,3.1c-0.6,1.1-0.9,2.5-1.3,3.7c-0.3,1,0.6,2.5,1.4,3.6c0.5,0.7,0.9-0.2,1-0.7
				c0.2-1.5,0.3-3,0.5-4.5c0-0.2,0-0.5,0.1-0.7c0.2,0.2,0.4,0.3,0.5,0.5c0.9,1.5,1.9,2.7,1.1,4.7c-0.6,1.6,0.5,3.2,1.8,4.1
				c1.4,1,1.7,2.1,1.4,3.6c-0.4,1.7-0.8,3.3-1.2,5c-0.3,1.3-0.5,2.6,0.9,3.5c0.2,0.1,0.3,0.4,0.4,0.6c-0.2,0.1-0.4,0.2-0.6,0.3
				c-1.5,0.1-2,0.8-1.8,2.4c0.4,2.3,0.8,4.6,1.1,6.9c0.2,1.1-0.3,1.9-0.8,2.9c-0.8,1.4-1,3.2-1.4,4.9c-0.3,1.1-0.5,2.1-0.7,3.2
				c-0.4-1-0.8-1.9-1.2-2.9c-0.3-0.7-0.7-1.4-1.2-2c-0.4-0.5-1-0.8-1.6-1.2c0.1,0.5,0.3,1,0.3,1.5c0.1,2.5,0.2,5,0.3,7.5
				c0.1,1.5,0.4,3,0.4,4.5c0,0.5-0.3,1.5-0.7,1.6c-2.4,0.6-3.2,2.9-4.5,4.5c-0.9,1.1-1.5,2-3.1,1.3c-0.4-0.2-1.1,0.3-1.5,0.6
				c-1.1,0.8-2.1,1.8-3.1,2.7c-1.5,1.2-2.8,1.4-4.5,0.3c-0.8-0.5-1.3-0.3-1.9,0.2c-0.6,0.5-1.1,1.2-1.8,1.6
				c-0.4,0.3-1.3,0.4-1.6,0.2c-1.5-1.3-2.8-0.3-3.7,0.5c-1.2,1-1.8,0.8-2.6-0.3c-0.2-0.2-0.4-0.4-0.5-0.6c-0.3-0.6-0.6-1.3-0.8-1.9
				c0.7-0.2,1.5-0.7,2.1-0.6c1.1,0.1,1.6,0.1,1.4-1.3c-0.1-0.8,0.5-1.7,1.1-2.4c0.6-0.7,0.6-0.9-0.3-1.1c-0.5-0.1-0.9-0.6-1.2-0.9
				c-0.7-0.7-1.3-1.3-2.4-1.1c-0.4,0.1-1-0.5-1.5-0.9c-0.7-0.5-1.3-1.2-2.1-1.6c-1.1-0.6-2.4-0.8-3.5-1.4c-0.9-0.5-1.7-1.3-2.3-2.2
				c-1.4-2-3.7-2.6-5.8-3.1c-3-0.7-4.9-2.8-7-4.6c-0.8-0.7-0.5-1.4,0.6-2c1.9-0.9,2.2-2.6,0.6-3.9c-0.4-0.3-0.7-0.6-1-0.9
				c-1.1-1.1-1-1.1,0.4-1.5c1.5-0.4,2-1.5,1-2.6c-1.4-1.4-0.9-3.1-0.7-4.6c0.2-1.7,1.3-2.1,3.1-1.9c1.3,0.1,2.7-0.2,4.1-0.6
				c0.8-0.2,0.6-1,0.1-1.4c-0.4-0.3-1-0.3-1.5-0.4c-1.3-0.2-2.2-0.8-2.3-2.3c0-0.4-0.6-1-1-1.1c-0.9-0.3-1.9-0.5-2.7-0.3
				c-1.5,0.4-2.7-0.2-4-0.6c-0.9-0.2-1.4-0.7-1.3-1.7c0.2-0.9,0.9-1.5,1.7-1.2c1.1,0.3,1.8-0.1,2.5-0.7c0.3-0.3,0.5-1,0.4-1.4
				c-0.2-0.4-0.8-0.7-1.2-0.8c-0.3,0-0.9,0.5-0.9,0.8c-0.2,1.5-0.7,1.5-1.8,0.7c-0.4-0.3-1-0.5-1.5-0.4c-1.5,0.4-2.5-0.4-3.6-1.1
				c-1-0.6-0.6-1,0.1-1.4c1.3-0.7,2.6-1.3,3.9-2c0.3-0.1,0.5-0.4,0.7-0.6c-0.3-0.2-0.5-0.4-0.8-0.5c-1.4-0.5-0.6-1.5-0.5-2.3
				c0.1-0.6,1.2-1.2-0.1-1.8c-1.5-0.7-2.4-0.5-3.1,0.4c-0.3,0.4-0.7,1-1.2,1.1c-0.8,0.3-1,0.8-1,1.5c0,1-0.4,1.5-1.5,2
				c-1,0.5-1.7,1.7-2.4,2.7c-0.2,0.2-0.1,1,0.2,1.2c1,0.8,0.6,1.6,0.2,2.5c-0.3,0.5-0.6,1-0.9,1.6c-0.4,1-1,1.2-1.7,0.3
				c0,0-0.1-0.1-0.2-0.1c-2.5-0.8-5.2-1-7.3-2.8c-0.2-0.2-0.8,0.3-1.3,0.3c-0.7,0.1-1.4,0.1-2.1,0c-0.3-0.1-0.6-0.5-0.9-0.7
				c0.3-0.2,0.6-0.5,0.9-0.6c1.1-0.3,0.4-0.8,0.1-1.1c-0.9-1.2-2-2.3-2.9-3.5c-0.3-0.4-0.6-1-0.6-1.4c0-0.3,0.5-0.9,0.8-0.9
				c1,0,1.9,0.4,2.4,1.4c1.2,2.2,3.2,3.5,5.4,4.5c0.1,0.1,0.3,0.1,0.4,0.1c0.8-0.2,1.6-0.3,2.5-0.5c-0.3-0.6-0.5-1.4-1-1.9
				c-0.8-0.7-1.7-1.4-2.8-1.8c-1-0.4-1.5-1-1.7-2c-0.5-2.6-2.2-4-4.5-4.7c-0.3-0.1-0.8,0.3-1.1,0.7c-0.3,0.4-0.2,1.4-0.9,0.8
				c-0.7-0.5-2.5,0.4-2.2-1.5c0.1-1.1,0.2-2.2,0.2-3.4c0-0.7,0.3-1.1,0.9-0.6c1,0.9,0.9,0.1,1.1-0.6c0.2-0.5,0.7-1,1.1-1.4
				c0.4,0.4,0.8,0.7,1.1,1.1c0.3,0.3,0.5,0.9,0.7,0.8c1.5-0.2,1.9,0.7,2.2,1.8c0.3,1,3.1,1.4,3.8,0.8c0.6-0.5,0.6-1.7-0.1-2.3
				c-0.4-0.3-1-0.6-1.4-0.5c-2,0.4-2.6-1-3.3-2.3c-0.2-0.3-0.2-0.8-0.1-1c0.2-0.2,0.7-0.3,1-0.3c1,0,2,0.2,2.9,0.2
				c1.3,0,2.3,0.4,2.5,1.8c0.1,0.9,0.7,1.1,1.4,1.4c0.8,0.3,1.4,1,2.2,1.5c0.4,0.3,0.8,0.7,1.3,0.7c0.6,0,1.2-0.3,1.7-0.5
				c-0.5-0.4-0.9-0.8-1.4-1.1c-0.5-0.4-1-0.7-1.4-1.1c0.6-0.7,1.2-1.5,2-2.1c0.1-0.1,1.1,0.6,1.3,1.1c0.3,0.8,0.6,0.8,1.3,0.7
				c1-0.2,1.9-0.3,2.9-0.4c0.3,0,0.6,0.3,0.9,0.5c-0.2,0.2-0.5,0.4-0.7,0.6c-0.4,0.4-1,0.8-1.3,1.3c-0.4,0.7-0.8,1.5-1,2.4
				c-0.2,1-0.3,2.1,0,3.1c0.3,1,1.4,0.6,1.8,0.1c1.2-1.8,2.9-2,4.8-2c0.5,0,1-0.3,1.4-0.6c0.4-0.3,0.7-0.7,1-1.1
				c-0.4-0.1-0.9-0.2-1.3-0.2c-1.3-0.2-1.7-0.7-1.6-2c0.1-1.2,0.6-1.5,1.8-1.4c1,0.1,2.1-0.4,3.1-0.5c0.5,0,1.4,0.2,1.5,0.5
				c0.2,0.6,0.1,1.3,0,2c0,0.2-0.4,0.4-0.5,0.6c-0.7,1-0.4,1.8,0.8,2c1.9,0.3,3.7-0.4,5.3-1.3c1.4-0.8,2.8-1.4,4.1-2.3
				c0.9-0.6,1.7-1.4,2.4-2.2c0.2-0.2-0.2-1.1-0.5-1.4c-0.2-0.2-0.9,0.1-1.3,0.4c-0.8,0.4-1.5,1-2.2,1.4c-0.5,0.3-1.2,0.6-1.7,1
				c-1.2,1-2.5,1.4-4,1.4c-0.2,0-0.4-0.2-0.7-0.3c0.1-0.2,0.3-0.4,0.4-0.6c0,0,0.1,0,0.2-0.1c0.4-0.4,0.8-0.8,1.2-1.2
				c-0.6,0-1.1-0.1-1.7,0c-1.3,0.1-1.8-0.4-1.3-1.6c0.4-0.9,1.2-1.6,1.8-2.4c0.3-0.4,0.8-0.6,0.9-1c0.2-0.4,0.1-1,0.1-1.5
				c-0.4,0-0.9-0.1-1.2,0.1c-2,0.6-4.8-1-5.1-3.1c-0.1-0.8,0-1.4,1-1.6c0.6-0.1,1.2-0.3,1.7-0.6c1-0.5,1.6-1.4,1.2-2.6
				c0-0.1-0.1-0.2-0.2-0.4c-0.2-0.8-0.1-1.9-0.6-2.3c-0.4-0.3-1.5,0.2-2.3,0.2c-0.2,0-0.5-0.1-0.8-0.2c0.1-0.2,0.2-0.5,0.4-0.6
				c1.2-1,2.5-1.6,4.2-1.2c0.7,0.2,1.6-0.2,2.4-0.4c0.3-0.1,0.4-0.6,0.6-0.9c-0.4-0.2-0.7-0.6-1.1-0.6c-0.3-0.1-0.8,0.1-1.1,0.3
				c-0.7,0.5-1.1,0.6-1.5-0.4c-0.4-0.8-1-0.9-1.8-0.4c-0.9,0.5-1.9,0.9-2.9,1.2c-2.2,0.7-3.3,3.4-2.1,5.2c0.5,0.7,0.4,1-0.2,1.6
				c-0.7,0.7-1.3,1.7-1.7,2.6c-0.7,1.5-2.1,1.4-3.1,1.1c-1.4-0.3-2.7,0-4.1,0.2c-0.6,0.1-1.5,0.4-1.5-0.7c0-0.8,0.2-1.5,1.2-1.5
				c0.1,0,0.1,0,0.2,0c1,0.1,2.1,0.3,3.1,0.4c-0.3-1.5,1-1.8,1.9-2.4c1.3-0.9,2.2-3.3,1.9-4.8c-0.1-0.5,0.3-1.1,0.5-1.7
				c0.2-0.5,0.6-1,0.5-1.4c-0.1-0.3-0.8-0.5-1.3-0.6c-1.4-0.3-3-0.1-3.4-2.1c0-0.2-1.4-0.5-1.9-0.3c-1.2,0.5-1.4,2.8-0.4,3.7
				c0.6,0.6,1.3,1.1,1.9,1.8c0.7,0.7,0.5,1.4-0.4,1.7c-2.1,1-4.2,1.9-6.2,2.8c-1.1,0.5-2,0.4-2.9-0.3c-0.9-0.7-1.2-0.3-1.4,0.5
				c-0.2,0.9-0.3,1.8-0.4,2.7c0,0.2,0.2,0.7,0.3,0.7c1.6-0.1,0.8,0.9,0.6,1.5c-0.3,0.8-0.3,1.8-1.5,0.3c-1.5-1.8-3.5-1.8-4.7-0.3
				c-0.4,0.5-0.5,1.3-0.7,2c-0.1,0.2-0.1,0.4-0.2,0.7c-0.2-0.2-0.5-0.4-0.6-0.7c-0.1-0.4,0-0.8,0-1.2c-0.1-0.7-0.4-1.2-1.2-0.8
				c-1,0.5-1-0.1-1-0.8c-0.1-1.8-0.1-3.7-0.3-5.5C209.2,88.4,209.4,87.2,211,87L211,87z M265.9,132.8c-0.4,0.4-0.8,0.9-1.2,1.3
				c0.1,0.1,0.3,0.2,0.3,0.2C265.3,133.7,265.6,133.2,265.9,132.8c0.1-0.1,0.2,0,0.3-0.1c0.2-0.1,0.4-0.3,0.6-0.5
				c0,0-0.1-0.2-0.2-0.3c-0.2,0.2-0.4,0.3-0.6,0.5C266,132.5,266,132.6,265.9,132.8z M287.9,159.5c-1.5,0.3-3,0.4-4.5,0.8
				c-0.8,0.2-1.6,0.8-2.3,1.3c-0.3,0.2-0.3,0.7-0.4,1c0.4,0.1,1,0.3,1.3,0.2C284,161.8,285.9,160.6,287.9,159.5
				c0.8-1,1.7-1.9,2.5-2.8c0.1-0.1,0-0.5,0-0.7c-0.3,0.1-0.7,0-0.8,0.2C289,157.2,288.5,158.4,287.9,159.5z M247.8,72.3
				c0.8-0.3,1.7-0.6,2.5-0.9c0.5-0.1,1.2-0.4,1.5-0.2c1.4,0.9,2.8,0.4,4.2,0.1c0.5-0.1,1.1,0.1,1.6,0.2c-0.4,0.3-0.7,0.7-1.1,1
				c-0.3,0.2-0.6,0.2-0.9,0.3c-1,0.2-2,0.3-3.1,0.5c-0.2,0-0.3,0.2-0.5,0.3c0.1,0.1,0.3,0.4,0.4,0.4c1.6,0.1,3.3,0.6,4.7,0.2
				c2.1-0.6,4.1-1.8,6-2.9c0.6-0.4,1-1.3,1.3-2.1c0.1-0.3,0-0.8-0.1-1.2c-0.4,0.2-1.2,0.3-1.3,0.6c-0.4,1.4-1.6,1.3-2.6,1.4
				c-1,0.1-2.1,0-3.2,0c-2.6,0.1-5.2,0.1-7.6,1c-0.3,0.1-0.7,0-1,0C247.1,70.5,247.6,71.5,247.8,72.3c-2.1-1.1-3.3,1-4.9,1.6
				c-0.3,0.1-0.3,0.8-0.5,1.1c0.4-0.1,0.9-0.1,1.2-0.3C245.1,74,246.5,73.2,247.8,72.3z M234.4,58.2c0.5,0.3,1,0.6,1.5,0.9
				c0.1-0.1,0.1-0.2,0.2-0.3c-0.5-0.2-1-0.3-1.5-0.5C234.5,58.2,234.4,58.2,234.4,58.2c-0.6-1-2.1-1.6-1.3-3.1c0,0-0.3-0.2-0.3-0.2
				c-1,0.9-1.5-0.1-2.2-0.5c-2.1-1.1-3.9-2.7-6.3-3.1c-0.6-0.1-1-0.5-0.5-1.1c0.2-0.3,0.4-0.7,0.5-1.1c-0.4,0.1-0.9,0-1.3,0.3
				c-1.4,1.1-2.8,1.3-4.1-0.1c-0.2-0.2-0.5-0.4-0.8-0.6c-0.9-0.6-1.9-0.6-2.8,0c-0.9,0.7-1.7,1.6-2.4,2.5c-0.2,0.2,0.2,1.1,0.6,1.4
				c0.7,0.5,1.5,0.8,2.2,1.2c0.7,0.5,1.3,0.5,2,0c0.6-0.5,1.4-1.4,1.2,0.4c0,0.2,0.2,0.7,0.5,0.8c1.3,0.6,2.5,1.6,4.3,1.2
				c1.9-0.4,3.8-0.1,5.6,0.9C230.8,58,232.5,58.5,234.4,58.2z M266.9,155.4c-0.7,0.1-1.7,0.3-2.7,0.5c-0.1,0-0.1,0.3-0.1,0.5
				c0.2,1.1,0.7,1.1,1.6,0.7c0.8-0.3,1.7-0.4,2.6-0.6c2.2-0.5,4.6-0.2,6.8-1.4c1.9-1.1,4.1-1.9,6-3c0.8-0.5,1.6-1.2,2.3-1.9
				c0.9-0.9,1.9-1.8,2.7-2.9c0.8-1.1,1.4-2.2,1.9-3.5c0.6-1.5-0.1-2.7-1.7-3c-0.8-0.1-1.1-0.5-1.1-1.3c-0.1-1-0.6-2-1.7-1.8
				c-0.7,0.1-1.2,1-1.8,1.5c-0.2,0.2-0.2,0.5-0.3,0.7c-1,1.2-1.9,2.6-3.1,3.5c-1.1,0.8-2.7,0.9-3.9,1.4c-0.8,0.3-1.2,0.4-1.8-0.3
				c-0.6-0.8-0.6-1.5,0-2.1c1.2-1,2.4-2,3.7-2.9c0.6-0.5,1.4-0.8,2-1.2c0.2-0.1,0.1-0.6,0.2-0.9c-0.3,0.1-0.7,0.1-0.8,0.3
				c-0.4,0.8-1.1,0.8-1.8,0.8c-0.7,0.1-1.7,0.2-2.1,0.7c-0.9,1.1-1.4,2.5-2.3,3.6c-0.7,0.9-1.5,1.8-2.5,2.4c-1.5,1-3.1,1.7-4.6,2.6
				c-1,0.6-0.9,1.7-0.4,2.5c0.5,0.9,1.2,0.3,1.8-0.1c0.3-0.2,0.7-0.4,1-0.7c2.1-1.9,4.8-2,7.1-1.2c2,0.6,2.9,0.1,3.9-1.4
				c0.2-0.3,0.8-0.6,1.1-0.5c1.5,0.6,2.4-0.2,3.1-1.4c0.2-0.3,0.8-0.4,1.2-0.3c0.2,0,0.4,0.7,0.3,1c-0.2,1.2-0.5,2.4-0.9,3.6
				c-0.5,1.7-1,2-2.8,2c-0.5,0-1,0.2-1.6,0.2c-0.9,0.1-1.7,0.1-2.3-0.8c-0.1-0.2-0.7-0.3-1.1-0.2c-0.6,0.1-1.3,0.3-1.8,0.6
				c-1.1,0.7-2.8,1.4-3.1,2.5C269.3,155.3,268.7,155.7,266.9,155.4z M223.2,71.3c0.4,0.1,0.9,0.1,1.3,0.2c2.6,1.1,5.1,2.3,7.7,3.4
				c0.3,0.1,0.7,0,1.1,0c-0.1-0.3-0.1-0.7-0.3-1c-2.5-3.1-6.2-4-9.7-5c-2.7-0.8-5.7-0.7-7.3-3.6c-0.2-0.3-0.7-0.4-1-0.6
				c-1.4-0.7-1.4-1-0.3-2.1c0.6-0.7,1.3-1.3,1.8-2.1c0.5-0.8,0.6-1.8-0.2-2.6c-0.5-0.5-2.2-0.2-2.9,0.5c-0.4,0.4-0.7,0.9-1.2,0.9
				c-1.5,0.1-1.6,1.1-1.5,2.1c0.2,1.4,0.1,2.5-1,3.4c-0.4,0.4-0.6,1,0.2,1.2c1.3,0.4,1,1.1,0.6,2c-0.3,0.6-0.2,1.4-0.3,2
				c0.4-0.6,0.8-1.1,1.1-1.7c0.5-1.1,1-1.3,1.7-0.3c1,1.5,2,3.1,2.6,4.7c0.3,0.8,0.5,1.4,1.2,1.9c1.1,0.8,4.6,0.6,5.5-0.3
				c0.3-0.3,0.5-0.9,0.4-1.2c-0.1-0.3-0.7-0.6-1.1-0.6c-0.9,0-1.8,0.2-2.7,0.2c-0.4,0-0.7-0.6-1-1c0.4-0.2,1-0.7,1.2-0.6
				C220.4,72.2,221.8,71.6,223.2,71.3z M245.3,59.5c0,0.1,0.1,0.2,0.1,0.2c0.9-0.4,1.9-0.7,2.8-1.1c1.2-0.5,2.3-1.1,3.4-1.5
				c2.5-0.8,5.1-1.3,7.6-2.1c0.4-0.1,0.9-0.7,0.9-0.8c-0.5-0.8-1-1.6-1.6-2.2c-0.3-0.3-1.1-0.3-1.6-0.1c-1.8,0.4-3.5,1.4-5.3,1.4
				c-2,0.1-3.5,0.9-4.9,2.2c-0.5,0.5-1.2,1-2,0c-0.6-0.7-1.4-0.2-1.5,0.8c-0.1,0.6,0.1,1.4-0.2,1.7c-1.6,1.4-0.1,1.3,0.7,1.5
				C244.2,59.7,244.7,59.5,245.3,59.5z M240.4,66.1c-0.3-0.5-0.7-1.5-1.2-2.4c-0.5-0.8-1-0.7-1.6,0c-1.2,1.4-2.3,2.9-1.9,5
				c0.1,0.8-0.1,1.7-0.2,2.5c0,0.4-0.2,0.9,0,1.1c1,1.5,1.5,3.1,1.5,4.8c0,0.2,0.3,0.5,0.5,0.7c0.2-0.2,0.5-0.4,0.6-0.7
				c0.3-1.2,0.7-2.4,0.9-3.6C239.4,71.2,239.8,68.9,240.4,66.1z M273.2,127.5c2.3-0.1,3,0.9,1.9,2.9c-0.7,1.2-1.6,2.3-2.5,3.5
				c-0.1,0.1-0.2,0.3-0.3,0.5c0.2,0.1,0.5,0.2,0.7,0.1c0.5-0.3,1-0.6,1.5-1c1-0.8,2.1-1.6,3.1-2.5c0.5-0.4,1-1,1.4-1.5
				c0.9-1.2-0.2-2.3-0.4-3.4c-0.2-0.9-0.4-2-1.7-2.2c-2.1-0.3-3.4,0.1-4.1,1.6c-0.4,0.8-0.7,1.4-1.6,1.5c-0.2,0-0.3,0.2-0.5,0.3
				c0.2,0.1,0.4,0.2,0.5,0.2C271.9,127.6,272.5,127.6,273.2,127.5z M259.1,144.7c0.2,0,0.4-0.1,0.7-0.1c3.5-0.7,6.4-2.6,9.2-4.6
				c0.6-0.4,1-1.3,1.5-1.9c-0.7,0.4-1.4,0.8-2,1.3c-1,0.8-1.9,1.5-3.4,0.8c-0.6-0.3-1.6-0.2-2.3,0c-1.5,0.4-3,0.9-4.5,1.4
				c-0.9,0.3-2.1,0.6-1.8,1.7c0.2,0.6,1.4,1,2.2,1.4C258.7,144.7,258.9,144.7,259.1,144.7z M283.2,157.4c1-0.6,2.3-0.8,2.7-1.6
				c0.9-1.8,2.7-2.8,3.9-4.3c0.2-0.3,0.5-0.5,0.5-0.8c0-0.5,0-1.2-0.4-1.6c-0.2-0.2-1-0.1-1.4,0.1c-0.5,0.3-1.2,0.7-1.3,1.1
				c-0.5,2.6-2.5,3.4-4.7,3.9c-0.9,0.2-1.7,0.9-1.3,1.9C281.5,156.7,282.4,156.9,283.2,157.4z M267.1,116.7c0,0.1,0.1,0.3,0.1,0.4
				c0.5-0.1,1.1-0.1,1.4-0.4c0.7-0.6,0.8-3.1,0.3-3.9c-0.5-0.9-1.1-1.1-2.3-0.9c-2.1,0.4-2.6,2-3.4,3.4c-0.4,0.7-0.7,1.4,0,1.9
				c0.6,0.5,1.3,0.8,2.2,0.1C265.9,117.1,266.5,116.9,267.1,116.7z M218.9,60.4c0-0.1,0-0.1-0.1-0.2c-0.3,0.1-0.9,0.2-1,0.3
				c-0.1,0.5-0.2,1.3,0,1.5c1.4,0.8,2,2.7,3.9,2.8c1.2,0.1,2.8-0.5,3.4-1.5c0.1-0.2,0.1-0.6,0-0.9c0-0.1-0.5-0.2-0.7-0.1
				c-1.6,0.9-2.1-0.1-2.5-1.4c-0.2-0.6-0.8-1-1.2-1.5c-0.3,0.3-0.5,0.6-0.9,0.8C219.7,60.4,219.3,60.4,218.9,60.4z M255.3,62
				c-0.3-0.2-0.6-0.5-0.9-0.8c-0.4,0.5-0.2,2.6-0.4,3.2c-0.4,1.3-1.7,0.5-3.4-0.3c-0.2-0.1-0.6,0-0.7,0.1c-0.1,0.3-0.1,0.6,0,0.9
				c0.6,1,2.2,1.6,3.4,1.5c1.9-0.1,2.6-1.1,3.9-1.9c0.2-0.1,0.2-1.9,0-2.3c0-0.2-0.6-0.2-1-0.3c0,0.1,0,0.1-0.1,0.2
				C256,62.1,255.6,62.1,255.3,62z M267.2,123.6c0.6-0.3,1.3-0.5,1.9-0.8c0.9-0.5,1.8-1.1,2.7-1.7c0.9-0.6,1.7-1.2,2.5-1.9
				c-0.9-0.5-1.8-1.1-2.8-1.6c-1.3-0.6-1.9-0.4-2.1,1c-0.3,1.8-1.3,2.9-2.6,4c-0.2,0.2-0.3,0.5-0.4,0.8
				C266.6,123.4,266.8,123.5,267.2,123.6z M245.4,125.5c2.2-0.8,4.1-1.4,5.9-2.1c0.4-0.1,0.6-0.7,0.8-1.1c0.1-0.3,0.2-0.8,0-0.9
				c-0.3-0.2-0.8-0.4-1-0.2c-1.8,1.1-3.8,0.9-5.7,1.3c-0.8,0.1-1.8,0.4-1.5,1.4C244,124.6,244.9,125,245.4,125.5z M246.7,49
				c-0.8-0.8-1.5-1.5-2.3-2.3c-0.2-0.2-0.3-0.4-0.5-0.5c-1.8-0.4-5,1.4-5.6,3.2c-0.1,0.3,0.2,0.7,0.3,1c0.3-0.1,0.7-0.1,1-0.3
				c0.2-0.2,0.3-0.6,0.5-0.8c0.7-0.6,1.4-1.1,2.2-1.5c0.3-0.1,0.8,0.1,1.1,0.2c-0.1,0.3-0.1,0.6-0.3,1c-0.2,0.6-0.5,1.2-0.7,1.8
				c-0.1,0.2-0.1,0.5-0.1,0.7c0.2,0,0.6,0,0.7-0.1c0.9-0.8,1.7-1.8,3.2-1.7C246.3,49.6,246.5,49.3,246.7,49z M252.8,91.3
				c-0.3,0.2-0.8,0.4-1.2,0.8c-0.9,1-1.7,2.2-2.6,3.2c-0.6,0.7-0.4,1.3,0.2,1.6c0.4,0.2,1.1,0,1.4-0.3c0.9-0.6,1.7-1.4,2.6-2.1
				c0.4-0.4,0.9-0.8,1.1-1.3C254.8,92.4,254.1,91.4,252.8,91.3z M255.1,125.5c0.1,0.1,0.5,0.8,0.6,0.8c1.3-0.3,2.6-0.6,3.7-1.2
				c1.1-0.6-0.3-1.2-0.2-1.8c0-0.3,0.1-0.5,0.1-0.8c0-0.2-0.2-0.5-0.3-0.6C257.3,121.5,255.1,123.2,255.1,125.5z M291.6,124.6
				c0-0.7-0.1-1.4-1.2-1.4c-1.7,0-3.1,0.6-3.2,1.4c0,0.9,1.4,3.3,2,3.4C290.2,128,291.5,126.3,291.6,124.6z M282.9,133.5
				c-0.3-0.4-0.7-1.2-1.4-1.7c-0.3-0.2-1.5,0.1-1.7,0.5c-0.5,1.1-0.7,2.3-0.9,3.4c0,0.2,0.3,0.7,0.6,0.8
				C281,137,282.9,135.5,282.9,133.5z M256.3,85.9c-0.1-0.2-0.2-0.3-0.2-0.5c-0.5,0.2-1.3,0.3-1.6,0.8c-0.2,0.4,0.1,1.2,0.4,1.6
				c0.4,0.3,1.2,0.5,1.6,0.4c1.1-0.3,2.2-0.8,3.2-1.3c0.7-0.3,1.3-1,0.6-1.7c-0.6-0.6-1.4-1.3-2.4-0.2
				C257.6,85.4,256.9,85.6,256.3,85.9z M288.6,118.2c0.1-0.8-0.3-1.3-1.3-1.3c-1.4,0-2.6,0.8-2.5,1.7c0.1,0.9,1.1,2,1.9,2
				C287.7,120.7,288.7,119.5,288.6,118.2z M253.7,79.9c-1.4,0.3-2.8,0.6-3.3,2.2c-0.1,0.2-0.1,0.5-0.2,0.7c0.2-0.1,0.4-0.2,0.6-0.3
				c0.3-0.1,0.8-0.3,1-0.1c1.7,1.1,2.4,0.8,2.8-1.2C254.8,80.3,254.5,79.9,253.7,79.9z M252.5,112c-0.6-0.1-1.1-0.4-1.5-0.3
				c-0.9,0.4-1.9,1-2.7,1.6c-0.3,0.3-0.5,0.9-0.6,1.4c0,0.2,0.7,0.7,0.8,0.6c1.2-0.8,2.4-1.6,3.5-2.5
				C252.2,112.7,252.2,112.5,252.5,112z M293,105.6c-0.3-0.8-0.5-1.6-0.9-2.3c-0.2-0.3-0.8-0.7-1.1-0.6c-0.3,0.1-0.9,0.7-0.9,0.9
				c0.2,0.9,0.5,1.8,1,2.6c0.1,0.3,0.9,0.5,1.2,0.3C292.6,106.5,292.7,106,293,105.6z M244.1,114.8c-1.4,0.1-2.4,0.1-3.3,0.3
				c-0.5,0.1-0.9,0.7-1.4,1.1c-0.1,0,0.1,0.5,0.2,0.5c1.5-0.2,3-0.4,4.5-0.6c0.2,0,0.4-0.6,0.6-0.9
				C244.4,114.9,244.1,114.7,244.1,114.8z M269.2,106.2c-0.7-1-1.3-2-1.9-2.8c-0.1-0.1-0.6-0.2-0.7-0.1c-0.2,0.2-0.4,0.6-0.3,0.8
				c0.3,0.9,0.6,1.7,1,2.5c0.2,0.4,0.5,0.6,0.8,0.9C268.4,107.2,268.8,106.8,269.2,106.2z M219.7,110.1c-0.5,0.7-1.1,1.1-1.1,1.6
				c-0.2,1.2,0.9,1.3,1.7,1.4c1.1,0.2,1.5-0.8,1.3-1.5C221.5,111,220.5,110.7,219.7,110.1z M219.7,117.2c0.9-0.3,1.3-0.4,1.8-0.6
				c0.2-0.1,0.4-0.2,0.7-0.2c-0.2-0.2-0.3-0.5-0.5-0.6c-1.2-0.4-2.3-0.9-3.5-1.2c-0.2-0.1-0.6,0-0.7,0.2c-0.1,0.1-0.1,0.6,0,0.7
				C218.3,116.1,219,116.7,219.7,117.2z M286.9,88.1c-1.1,0.4-1.6,1-0.9,1.6c0.7,0.7,1.7,1,2.6,1.5c0.1,0,0.6-0.8,0.6-0.9
				C288.4,89.5,287.6,88.8,286.9,88.1z M278.9,88.2c-0.1-0.2-0.1-0.3-0.1-0.4c-0.8-1.1-1.6-2.3-2.4-3.4c-0.1-0.2-0.6-0.3-0.7-0.2
				c-0.2,0.2-0.4,0.7-0.3,0.8c1,1.1,2,2.2,3,3.3C278.4,88.4,278.7,88.2,278.9,88.2z M257.9,105.5c0.1-0.1,0.3-0.2,0.4-0.3
				c0.3-0.2,0.5-0.4,0.8-0.5c0.7-0.4,1.4-0.7,2-1.1c0.3-0.2,0.6-0.5,0.9-0.8c-0.5-0.1-1-0.5-1.4-0.4c-0.9,0.3-1.7,0.8-2.5,1.4
				c-0.2,0.2-0.3,0.6-0.4,1C257.7,105,257.8,105.3,257.9,105.5z M259.4,116.7c-0.4-0.1-0.7-0.2-0.9-0.2c-0.8,0.2-1.5,0.4-2.3,0.7
				c-0.3,0.1-0.5,0.5-0.7,0.7c0.4,0.2,0.8,0.7,1.1,0.6c0.9-0.3,1.7-0.8,2.5-1.2C259.2,117.2,259.2,117,259.4,116.7z M279.4,156.8
				c-0.1-0.1-0.4-0.3-0.5-0.3c-1,0.7-2.1,1.3-3.1,2.1c-0.1,0,0.1,0.5,0.2,0.6C276.8,159.6,279.4,157.8,279.4,156.8z M294.2,123.3
				c0.1,0,0.1,0.1,0.2,0.1c0,0.2-0.1,0.4,0,0.6c0.1,0.3,0.3,0.6,0.5,0.9c0.3-0.3,0.5-0.5,0.8-0.8c0.1-0.1,0.2-0.4,0.1-0.6
				c-0.1-0.7-0.2-1.4-0.3-2.1c0-0.1-0.5-0.1-0.5-0.1C294.8,122,294.5,122.7,294.2,123.3z M263.9,96.1c-0.2,0.8-0.4,1.2-0.3,1.4
				c0.6,0.9,1.3,1.8,2,2.6c0.2,0.2,0.5,0.4,0.8,0.5c-0.1-0.4-0.1-1.2-0.3-1.3c-0.9-0.2-1-0.8-1.3-1.6
				C264.8,97.3,264.5,96.9,263.9,96.1z M268,68c0.2-0.1,0.6-0.3,0.8-0.6c0.2-0.2,0.2-0.6,0.2-0.9c-0.4,0-0.8,0.1-1.2,0.1
				c-0.2,0-0.4,0-0.6,0c-0.6,0.1-1.1,0.2-1.7,0.3c0.6,0.3,1.2,0.6,1.8,1C267.5,67.9,267.6,67.9,268,68z M297,128.6
				c-0.4-0.5-0.7-0.9-1-1.3c-0.3,0.4-0.8,0.9-0.8,1.3c0,0.5,0.6,1,0.9,1.5C296.4,129.7,296.7,129.3,297,128.6z M287.9,107.8
				c0.1,0,0.1,0.1,0.2,0.1c0,0.3-0.1,0.5,0,0.8c0.1,0.3,0.2,0.5,0.4,0.8c0.2-0.2,0.5-0.4,0.7-0.6c0.1-0.2,0.2-0.5,0.2-0.8
				c-0.2-0.6-0.4-1.3-0.7-1.9C288.4,106.8,288.1,107.3,287.9,107.8z M271.6,106.7c-0.2,0-0.4,0-0.5,0c-0.2,0.4-0.6,0.8-0.5,1.2
				c0.1,0.6,0.5,1.2,0.7,1.9c0.3-0.6,0.7-1.2,0.9-1.8C272.3,107.6,271.8,107.2,271.6,106.7z M228.3,110.1c-0.2-0.5-0.3-0.9-0.5-1.4
				c-0.3,0.4-0.5,0.8-0.8,1.2c-0.2,0.3-0.3,0.6-0.3,0.9c0,0.3,0.2,0.7,0.3,1c0.3-0.2,0.7-0.3,0.9-0.6
				C228.1,111,228.1,110.5,228.3,110.1z M234.9,46.2c-0.6-0.4-1-0.8-1.4-0.8c-0.3,0-0.9,0.6-0.9,0.7c0.3,0.5,0.7,0.9,1,1.4
				C234,47.1,234.3,46.8,234.9,46.2z M270.1,111c-0.1,0.1-0.3,0.3-0.2,0.4c0.4,1,0.8,2,1.2,3c0.2-0.2,0.7-0.4,0.6-0.5
				c-0.3-0.9-0.7-1.8-1.1-2.6C270.5,111.2,270.4,111.2,270.1,111z M272.7,83.2c0.4-0.5,0.8-0.8,0.8-0.9c-0.5-0.6-1.1-1.2-1.7-1.8
				c0,0-0.6,0.5-0.6,0.5C271.6,81.7,272.1,82.4,272.7,83.2z M247.8,92c-0.4,0.1-0.6,0.1-0.7,0.2c-0.4,0.4-1.2,1-1.1,1.3
				c0.4,1.3,0.8-0.2,1.2-0.1c0.2,0,0.4,0.1,0.6,0c0.3-0.1,0.5-0.4,0.7-0.6C248.2,92.5,247.9,92.2,247.8,92z M277.4,116.8
				c-0.9-0.7-1.2-1.1-1.6-1.2c-0.3,0-0.6,0.4-1,0.7c0.4,0.4,0.7,0.9,1.2,1.1C276.3,117.5,276.7,117.1,277.4,116.8z M238.1,58.7
				c-0.5,0.2-0.8,0.4-1.2,0.6c0.5,0.3,1,0.6,1.5,0.7c0.3,0.1,0.7-0.3,1.1-0.4C239,59.3,238.6,59,238.1,58.7z M268.3,80.8
				c0.5-0.2,0.8-0.4,1.1-0.5c-0.3-0.2-0.5-0.5-0.9-0.6c-0.7-0.1-1.4-0.1-2.1-0.1c0,0.1,0,0.3,0,0.3C267,80.2,267.7,80.5,268.3,80.8z
				 M277.1,97.3c0.5-0.3,0.8-0.5,1-0.7c-0.4-0.3-0.7-0.7-1.2-1c-0.1,0-0.7,0.5-0.7,0.7C276.3,96.7,276.7,96.9,277.1,97.3z
				 M260.5,100.9c0.3-0.6,0.5-0.9,0.6-1.3c0-0.2-0.4-0.4-0.6-0.6c-0.2,0.3-0.6,0.6-0.7,1C259.8,100.2,260.1,100.5,260.5,100.9z
				 M244.6,137.1c-0.4,0.3-0.6,0.6-0.9,0.8c0.4,0.2,0.8,0.4,1.2,0.4c0.2,0,0.5-0.3,0.8-0.4C245.3,137.7,245,137.4,244.6,137.1z
				 M285.2,113.8c-0.5-0.2-0.7-0.4-0.8-0.4c-0.4,0-0.8,0.2-1.3,0.2c0.3,0.2,0.5,0.6,0.8,0.7C284.2,114.3,284.6,114,285.2,113.8z
				 M258.7,81.2c-0.4-0.4-0.6-0.9-0.7-0.8c-0.4,0.2-0.7,0.4-1,0.7c0,0,0.3,0.7,0.4,0.6C257.8,81.7,258.1,81.4,258.7,81.2z
				 M229.4,48.3c-0.2-0.1-0.3-0.2-0.5-0.3c-0.1,0.2-0.3,0.5-0.2,0.7c0.2,0.4,0.5,0.8,0.7,1.2c0.2-0.2,0.5-0.4,0.5-0.5
				C229.8,49,229.6,48.7,229.4,48.3z M231,53c0.3-0.5,0.6-0.7,0.7-1c0-0.2-0.3-0.7-0.4-0.7c-0.3,0.1-0.8,0.3-0.8,0.5
				C230.4,52.2,230.7,52.5,231,53z M237.8,46.6c-0.3-0.3-0.5-0.7-0.7-0.7c-0.3,0.1-0.6,0.4-0.9,0.6c0.2,0.2,0.4,0.6,0.7,0.7
				C237.1,47.2,237.4,46.9,237.8,46.6z M259.1,90.1c-0.3,0.3-0.6,0.6-0.5,0.7c0.1,0.3,0.4,0.6,0.6,0.9c0.2-0.1,0.5-0.3,0.4-0.4
				C259.5,90.9,259.3,90.6,259.1,90.1z M223.2,67c0.3-0.3,0.5-0.4,0.5-0.6c0-0.1-0.3-0.4-0.4-0.4c-0.2,0-0.4,0.2-0.5,0.4
				C222.8,66.5,223,66.7,223.2,67z M270.7,66c-0.2,0.5-0.4,0.7-0.4,0.8c0.1,0.5,0.3,1,0.4,1.5c0.1-0.2,0.4-0.4,0.4-0.6
				C271.1,67.2,270.9,66.8,270.7,66z M295.9,131.2c-0.1,0.5-0.2,0.7-0.2,0.9c0,0.1,0.3,0.3,0.4,0.4c0.1-0.2,0.4-0.4,0.4-0.5
				C296.5,131.8,296.3,131.6,295.9,131.2z M228.7,46.1c-0.4-0.1-0.6-0.2-0.8-0.2c-0.2,0.1-0.3,0.4-0.4,0.5c0.2,0.1,0.4,0.3,0.6,0.3
				C228.3,46.7,228.5,46.4,228.7,46.1z M275.3,166.8c0.3,0.1,0.5,0.2,0.8,0.2c0.1,0,0.3-0.3,0.3-0.4c0-0.2-0.2-0.4-0.3-0.5
				C275.9,166.2,275.8,166.3,275.3,166.8z M248.1,137.2c-0.3-0.2-0.4-0.4-0.5-0.4c-0.2,0-0.4,0.1-0.7,0.2c0.1,0.1,0.1,0.4,0.2,0.4
				C247.3,137.4,247.6,137.3,248.1,137.2z M275.7,88.4c-0.2-0.3-0.4-0.5-0.5-0.6c-0.1,0.1-0.4,0.3-0.4,0.4c0,0.2,0.2,0.4,0.3,0.6
				C275.2,88.7,275.4,88.6,275.7,88.4z M260.9,82.8c-0.2-0.2-0.3-0.5-0.4-0.4c-0.3,0-0.6,0.1-0.9,0.2c0.1,0.2,0.2,0.5,0.3,0.5
				C260.2,83,260.5,82.9,260.9,82.8z M262.2,110.6c-0.2,0-0.4-0.1-0.5,0c-0.1,0-0.1,0.2-0.1,0.3c0.2,0,0.3,0.1,0.5,0.1
				C262.1,111,262.1,110.8,262.2,110.6z M291.3,101c-0.2-0.2-0.3-0.4-0.4-0.5c-0.1,0.1-0.3,0.2-0.3,0.3c0,0.2,0.2,0.3,0.3,0.5
				C291.1,101.2,291.2,101.2,291.3,101z M265.4,86.9c0.2-0.2,0.4-0.2,0.5-0.4c0-0.1-0.2-0.4-0.2-0.4c-0.2,0-0.3,0.1-0.4,0.3
				C265.2,86.5,265.4,86.7,265.4,86.9z M265.5,75.7c-0.2-0.2-0.4-0.3-0.5-0.3c-0.1,0-0.3,0.2-0.4,0.3c0.1,0.1,0.3,0.3,0.4,0.3
				C265.1,76.1,265.2,75.9,265.5,75.7z M225.5,73.7c-0.1,0.2-0.2,0.3-0.2,0.5c0.2,0.1,0.3,0.2,0.5,0.2c0.1,0,0.2-0.2,0.3-0.3
				C225.9,73.9,225.8,73.9,225.5,73.7z M227.3,66.6c-0.2,0-0.3-0.1-0.4-0.1c-0.2,0.1-0.3,0.3-0.5,0.4c0.1,0,0.3,0,0.4,0
				C226.9,66.8,227.1,66.7,227.3,66.6z M232.5,59.8c0-0.1-0.1-0.2-0.1-0.3c0,0-0.2,0-0.2,0c0,0.1,0,0.2,0,0.3
				C232.3,59.8,232.4,59.8,232.5,59.8z M265.9,65c-0.1-0.1-0.2-0.2-0.3-0.4c0,0.1-0.1,0.2-0.1,0.3c0,0.1,0.1,0.2,0.2,0.3
				C265.7,65.2,265.7,65.1,265.9,65z M217.6,64.8c-0.1,0.1-0.3,0.1-0.3,0.2c0,0.1,0,0.2,0.1,0.3c0.1-0.1,0.3-0.1,0.4-0.2
				C217.7,64.9,217.7,64.9,217.6,64.8z M252.8,153.2c0-0.1-0.1-0.2-0.1-0.3c0,0-0.2,0-0.2,0c0,0.1,0,0.2,0,0.3
				C252.6,153.2,252.7,153.2,252.8,153.2z M280.2,89.8c-0.1,0.2-0.2,0.4-0.2,0.5c0.1,0.1,0.3,0.2,0.4,0.3c0.1-0.1,0.2-0.3,0.2-0.4
				C280.6,90.1,280.4,90,280.2,89.8z"/>
			<path class="st1" d="M235.4,142.7c0.5,2.1,1.2,4.2,2.4,5.9c0.7,1,1,1.9,0.8,3.1c-0.5,2.7,0.4,3.6,3.2,2.8
				c1.3-0.3,1.8,0.1,2.2,1.3c0.6,2.1,1.2,2.3,3.1,1.6c1-0.4,1.7-0.4,2.5,0.7c0.7,0.9,1.9,1.3,2.3,2.5c0.1,0.4,1,0.6,1.6,0.6
				c1.5,0.2,2.1,1,2,2.4c0,0.4,0,0.9,0.2,1.1c0.9,1.2,0.1,1.5-0.8,1.7c-1.4,0.4-2.6,0.1-3.7-0.9c-1.7-1.5-1.9-1.4-3.6,0.2
				c-0.4,0.4-1.2,0.7-1.8,0.8c-1,0.1-1.3,0.6-1.4,1.5c-0.2,1.6-0.6,1.7-1.9,0.8c-1.5-1.1-3.1-2.2-4.7-3.3c-1.2-0.8-2.6-1.2-4.1-1.1
				c-0.8,0.1-1.7-0.3-2.4-0.8c-2.3-1.6-4.5-3.3-6.7-5c-0.5-0.4-0.8-1.2-1.2-1.8c-0.6-0.8-0.4-2.2-2-2.4c-0.8-0.1-0.8-1.5,0.1-2.3
				c0.4-0.4,0.9-0.6,1.3-0.8c0.4-0.2,0.8-0.3,1.3-0.4c-0.5-0.3-0.9-0.7-1.4-1c-0.7-0.3-1.5-0.4-2-0.8c-0.5-0.4-1.3-1.5-1.1-1.8
				c0.7-1.2-0.3-1.2-0.9-1.6c-0.7-0.4-1.5-0.9-2.1-1.5c-0.2-0.2-0.4-0.7-0.2-0.9c0.2-0.2,0.6-0.5,0.9-0.4c1.6,0.2,3.2,0.4,4.7,0.8
				c0.9,0.2,1.7,0.8,1.2,1.9c-0.6,1.1,0.2,1.6,0.9,1.8c1.6,0.5,2.1,1.7,2,3.2c0,0.4,0,0.8,0.2,1.1c1.5,2.2,2.7,4.7,4.9,6.4
				c2.2,1.8,4.2,3.9,6.4,5.7c1.2,0.9,2.7,1.3,4.1,1.9c0.1-0.2,0.3-0.6,0.2-0.7c-1-1.2-1.9-2.5-3.1-3.5c-2.2-2-4.5-3.8-6.8-5.7
				c-0.7-0.6-1.3-1.2-2-1.7c0.6-0.5,1.3-1.1,1.9-1.7c0.2-0.2,0.5-0.5,0.5-0.8c0.3-1.4,1.2-2.2,2.6-2.4c1.2-0.2,1.1-0.8,0.4-1.5
				c-1.1-1.2-1.6-2.6-1.4-4.2c0.1-1-0.5-1.6-1.4-1.9c-0.5-0.2-1.3-0.3-1.5-0.7c-0.6-1.3-1.2-1.2-2.2-0.4c-1.4,1.1-3.1,1.4-4.9,1.1
				c-2.3-0.3-4.6-0.4-6.8-0.9c-1-0.2-2-1-2.9-1.6c-0.2-0.1-0.2-0.7-0.1-0.9c0.1-0.2,0.6-0.3,0.8-0.2c2.3,0.6,4.7,1.3,7,2
				c1,0.3,2.7-0.7,2.8-1.9c0-0.2-0.6-0.5-0.9-0.5c-1.9,0.4-3.2-0.7-4.5-1.7c-0.3-0.2-0.4-0.7-0.6-1c0.4-0.2,0.8-0.5,1.1-0.6
				c0.6,0,1.2,0.1,1.7,0.3c1.1,0.3,2.2,0.8,3.3,1.1c0.1,0,0.5,0,0.5-0.1c0.1-0.3,0.2-0.7,0-0.9c-0.6-0.7-1.1-1.5,0.1-1.8
				c0.5-0.1,1.2,0.6,1.8,1.1c0.4,0.3,0.6,0.7,0.9,1.1c0.2-0.4,0.6-0.9,0.7-1.3c0.4-1,1-1.7,1.7-2.5c0.8-0.8,1-2.3,1.3-3.6
				c0.2-0.6-0.1-1.5,0.9-1.3c0.3,0.1,0.6,1.1,0.5,1.6c-0.1,0.7-0.7,1.4-1,2.1c-0.2,0.5-0.3,1-0.3,1.5c0,0.2,0.3,0.4,0.4,0.6
				c0.1-0.2,0.3-0.3,0.4-0.5c0.2-0.3,0.5-0.6,0.7-0.9c0.3,0.3,0.7,0.7,0.8,1c0.5,3.4,1,6.8,1.5,10.2
				C235.7,142.6,235.5,142.7,235.4,142.7z M232.6,139.4c-0.1,0.2-0.2,0.5-0.3,0.7c0,0.2,0.1,0.4,0.1,0.7c0.1-0.2,0.3-0.4,0.3-0.6
				C232.8,139.9,232.7,139.7,232.6,139.4c-0.1-0.2-0.1-0.4-0.2-0.5c-0.2-0.2-0.4-0.2-0.6-0.3c0,0.2,0,0.5,0.1,0.6
				C232.1,139.3,232.4,139.3,232.6,139.4z M227.7,136.5c-0.2,0.7-0.4,1-0.4,1.4c0,0.2,0.2,0.4,0.4,0.6c0.2-0.3,0.5-0.5,0.5-0.8
				C228.3,137.3,228,137,227.7,136.5z M247.2,162.1c0.2-0.5,0.4-0.8,0.6-1.2c0,0-0.3-0.2-0.5-0.3c-0.2,0.4-0.4,0.7-0.5,1.1
				C246.7,161.8,247,161.9,247.2,162.1z"/>
			<path class="st1" d="M299.7,187.5c-0.4-0.2-1.1-0.3-1.6-0.7c-1.3-1.1-2.6-1.2-4.1-0.5c-1,0.5-1.8,0.4-2.8-0.3
				c-1.6-1.3-3.6-1.2-5.5-1.2c-3,0-5.5-1-7.3-3.3c-0.3-0.4-0.6-1.3-0.4-1.5c0.4-0.4,1.3-0.8,1.7-0.6c1.3,0.7,2.2,0.5,3-0.7
				c0.3-0.4,1.1-0.5,1.6-0.5c3,0.2,4.8-1.4,6.2-3.8c1.2-2,2.7-4,4.1-5.8c0.8-1.1,1.8-1,2.7,0.1c0.8,1.1,1.6,2.2,1.9,3.5
				c0.4,1.2,1.1,2.1,1.9,2.9c1,1.1,1.7,2.3,1.9,3.8c0.1,0.9,0.9,1.9,1.5,2.7c0.6,0.8,1.5,1.3,1,2.5c-0.5,1.3-1.2,2.4-2.6,2.8
				C301.9,187.3,300.9,187.4,299.7,187.5z"/>
			<path class="st1" d="M259.3,174.3c-0.6,3-1.1,5.6-1.7,8.1c-1,4-1.2,8.1-0.8,12.2c0.2,2.3,0.2,2.3,2.5,3.1
				c0.4,0.1,0.8,0.9,0.7,1.3c-0.5,2.3-1.3,4.4-2.9,6.3c-0.6,0.7-1.2,0.9-2.1,0.5c-1.3-0.7-2.1-0.5-2.5,0.8c-0.7,2.3-2.3,2.8-4.4,2.8
				c-2.8,0.1-5.7,0.4-8.5,0.8c-2.7,0.3-2.9,0.2-3.5-2.3c-0.1-0.6-0.6-1.1-0.9-1.7c-0.2-0.3-0.4-0.9-0.3-1c0.2-0.3,0.8-0.6,1.1-0.5
				c1.5,0.6,2.8,0.3,4-0.8c0.3-0.3,1.2-0.2,1.7,0c1.5,0.9,2.8,1.1,4.1-0.3c0.2-0.2,0.5-0.4,0.7-0.4c2.2,0.2,3.8-0.9,5.4-2.2
				c0.4-0.3,0.9-0.6,1.2-0.6c1.7,0.3,1.6-0.8,1.4-1.8c-0.9-3.2-0.2-6.5-0.5-9.7c-0.5-5,0.2-10.1-1.3-15c-0.3-0.9-0.4-1.9-0.5-2.9
				c-0.1-1.1,0.4-1.5,1.4-1c1.5,0.7,3,1.4,4.3,2.3C258.5,172.8,258.9,173.8,259.3,174.3z"/>
			<path class="st1" d="M291.2,204.6c-0.9-0.1-2.1-0.6-2.6-0.2c-1.3,1-2.8,0.5-4.1,0.9c-0.8,0.3-1.6,0.2-1.9-0.8
				c0-0.1-0.1-0.3-0.2-0.3c-0.7-0.4-1.3-1.5-2.1-0.8c-0.7,0.7-0.1,1.4,0.6,2c0.3,0.2,0.4,0.9,0.3,1.1c-0.4,0.5-1,1.3-1.5,1.3
				c-0.8,0-1.8-0.3-2.2-0.9c-0.7-0.9-1.3-0.8-2.1-0.5c-2.2,1-4.4,1.8-6.9,1.6c-0.2,0-0.5,0.3-0.6,0.5c0,0.1,0.2,0.5,0.4,0.6
				c0.5,0.2,1.1,0.2,1.5,0.4c0.7,0.3,2.3-0.1,1.3,1.6c0.3,0.1,0.7,0.5,0.9,0.4c0.4-0.1,0.8-0.5,1.1-0.8c0.6-0.6,1.1-0.7,1.5,0.2
				c0.4,1,0.7,0.6,1.1-0.1c1.6-2.5,3.8-2.3,5.1,0.4c0.1,0.3,0.1,0.6,0.1,0.9c-0.3,0-0.6,0.1-0.9,0c-0.5-0.2-0.9-0.6-1.4-0.7
				c-0.4,0-0.9,0.4-1.3,0.6c0.2,0.4,0.4,0.9,0.6,1.2c0.2,0.3,0.6,0.5,0.9,0.8c-0.4,0.2-0.9,0.6-1.3,0.7c-2.4,0.3-4.7,0.5-7.1,0.8
				c-1.9,0.2-2.2,0.6-2.6,2.4c-0.5,2.2-2.6,3.1-4.7,2c-0.2-0.1-0.5-0.6-0.4-0.7c0.6-1.1,1.2-2.4,2.1-3.3c1.2-1.1,1.7-1.9,0.7-3.1
				c-0.9-1-0.9-1.8-0.3-3c0.4-0.8,0.1-1.9,0.1-2.9c0-0.3,0.2-0.6,0.3-0.9c0.2,0.1,0.4,0.3,0.6,0.4c0.3,0.2,0.6,0.3,1,0.4
				c0.1-0.4,0.3-0.9,0.2-1.2c-0.1-0.6-0.6-1.1-0.7-1.6c-0.1-0.5,0.1-1,0.1-1.5c0.5,0.1,1,0,1.4,0.2c0.4,0.1,0.7,0.4,1,0.6
				c1.8,0.9,2.2,0.8,3.1-0.9c0.8-1.5,2.4-2,3.7-1.7c3.3,0.5,6.4-0.9,9.6-1c1.8-0.1,3.7-0.4,5.5-0.3c1.8,0.1,3.5,0.6,5.2,1.1
				c0.9,0.2,1.4,0.9,0.3,1.4C294.8,202.8,293.7,205,291.2,204.6z M278.7,204.8c-0.1,0.3-0.2,0.4-0.3,0.6c0,0.1,0.1,0.2,0.2,0.3
				c0.1-0.1,0.3-0.2,0.3-0.3C279,205.3,278.9,205.1,278.7,204.8z M268.8,212c0.1,0.1,0.2,0.3,0.3,0.3c0.2,0,0.3-0.1,0.4-0.2
				c-0.1-0.1-0.1-0.2-0.2-0.2C269.1,211.9,269,212,268.8,212z"/>
			<path class="st1" d="M249.3,217.4c-0.4,0-0.5,0-0.6,0c-0.6-0.2-1.3-0.4-1.9-0.7c0.6-0.3,1.1-0.5,1.7-0.8c0.7-0.3,1.6-0.3,2-0.8
				c1.2-1.4,2.9-1.8,4.5-2.3c1.2-0.3,2-1,2.2-2.3c0.1-0.5,0.4-1,0.7-1.4c0.7-0.8,1.5-0.7,1.8,0.2c0.5,1.5,0.9,3,1.2,4.6
				c0.2,1.1-0.4,1.8-1.5,2C255.9,216.6,252.5,217,249.3,217.4z"/>
			<path class="st1" d="M216.7,129.4c-0.2,0.4-0.4,0.7-0.6,1.1c-0.3-0.2-0.7-0.4-0.9-0.7c-0.5-1-0.9-2-1.3-3.1
				c0-0.1,0.2-0.5,0.4-0.6c0.2-0.1,0.5,0,0.8,0.1c3,0.5,6.1,1,9.1,1.6c0.3,0.1,0.8,0.4,0.8,0.6c0,0.5,0,1.2-0.4,1.4
				c-1.1,0.8-2.4,1.2-3.7,0.6c-1.1-0.5-2.2-1.2-3.3-1.8c-0.3-0.2-0.7-0.3-1-0.5c-0.1,0.4-0.2,0.8-0.3,1.2
				C216.5,129.3,216.6,129.3,216.7,129.4z"/>
			<path class="st1" d="M207.7,97.9c0.2-0.4,0.3-0.8,0.5-1c0.1-0.1,0.6,0.1,0.9,0.3c0.2,0.1,0.5,0.3,0.6,0.5
				c0.5,1.4,1.3,2.3,2.7,2.9c0.9,0.4,0.7,1.9-0.2,2.2c-0.4,0.1-1.1,0.1-1.4-0.2c-1-1.1-1.8-2.2-2.7-3.4
				C207.9,98.8,207.9,98.3,207.7,97.9z"/>
			<path class="st1" d="M224.1,95.3c0,1.1-0.4,2-1.6,2.1c-1,0.1-1.7-0.7-1.7-1.8c0-1.1,0.9-2.5,1.6-2.4
				C223.3,93.3,224.2,94.3,224.1,95.3z"/>
			<path class="st1" d="M225.5,101.9c-0.9,0.5-1.4,0.9-1.9,0.9c-0.8,0-1.5-0.2-2.3-0.3c-0.7-0.1-1.4-1.2-0.9-1.5
				c0.7-0.6,1.7-1.3,2.5-1.2C223.7,99.9,224.4,101,225.5,101.9z"/>
			<path class="st1" d="M228,122.6c0.9-0.8,1.5-1.4,2.1-2c0.6,0.8,1.5,1.4,1.8,2.3c0.3,0.6-1.2,1.8-2.1,1.5
				C229.2,124.2,228.7,123.4,228,122.6z"/>
			<path class="st1" d="M213.6,133.4c-0.4-0.3-0.9-0.4-1.2-0.7c-0.3-0.4-0.4-1-0.6-1.6c0.5,0,1.1,0,1.6,0.2c0.3,0.1,0.5,0.4,0.7,0.6
				c0.2,0.3,0.4,0.6,0.7,0.8C214.5,132.9,214.1,133.1,213.6,133.4z"/>
			<path class="st1" d="M218.8,83.3c-0.5,0.2-0.7,0.3-0.9,0.4c-0.9,0.5-1.8,1-2.7,1.5c-0.2,0.1-0.4,0.1-0.7,0.1c0-0.1,0-0.3,0-0.4
				c0.4-1,2.3-2.2,3.3-2C218.1,83,218.3,83.1,218.8,83.3z"/>
			<path class="st1" d="M247.1,215.1c-0.2,0.1-0.6,0.3-0.9,0.2c-0.4-0.1-0.8-0.3-1.2-0.5c-0.3-0.1-0.6-0.3-0.8-0.5
				c0.3-0.2,0.6-0.5,0.9-0.6C246.3,213.4,247.2,213.9,247.1,215.1z"/>
			<path class="st1" d="M208.6,118.5c0.6,0.9,1.1,1.3,1.3,1.9c0.1,0.3-0.5,0.7-0.8,1.1c-0.3-0.5-0.8-0.9-0.9-1.4
				C208.1,119.8,208.4,119.4,208.6,118.5z"/>
			<path class="st1" d="M210.1,125.1c0.5,1.2,0.8,2.1,1.2,2.9c-0.2,0.1-0.5,0.2-0.5,0.2c-0.5-0.6-1-1.3-1.5-2
				C209.2,126.1,209.6,125.7,210.1,125.1z"/>
			<path class="st1" d="M212.5,113c0.8,0.8,1.2,1.1,1.6,1.5c-0.3,0.2-0.7,0.6-0.9,0.5c-0.4-0.1-0.9-0.5-1.1-0.8
				C211.9,114,212.3,113.5,212.5,113z"/>
			<path class="st1" d="M239.4,138.6c-0.5-0.3-0.9-0.5-1.3-0.8c0.5-0.2,0.9-0.5,1.3-0.5c0.3,0,0.6,0.5,0.9,0.8
				C240,138.3,239.7,138.4,239.4,138.6z"/>
			<path class="st1" d="M269.4,181.8c-0.3,0.7-0.6,1.4-0.9,2c0.1-0.7,0.1-1.4,0.2-2.1c0-0.2,0.3-0.4,0.5-0.7
				C269.3,181.3,269.4,181.5,269.4,181.8z"/>
			<path class="st1" d="M218.3,98.7c-0.3,0.5-0.6,0.9-0.9,1.3c-0.2-0.2-0.5-0.5-0.5-0.7c0.2-0.5,0.6-0.9,0.9-1.3
				C218,98.3,218.1,98.5,218.3,98.7z"/>
			<path class="st1" d="M241.9,128.9c0.2,0.5,0.4,0.8,0.4,1.1c-0.1,0.3-0.5,0.6-0.8,0.6c-0.3,0-0.5-0.4-0.8-0.6
				C240.9,129.7,241.1,129.5,241.9,128.9z"/>
			<path class="st1" d="M211,87c0.1-0.6,0.2-1.3,0.4-1.9c0.1-0.2,0.5-0.3,0.8-0.3c0.1,0,0.4,0.2,0.4,0.3c-0.1,0.2-0.2,0.5-0.4,0.6
				C211.8,86.2,211.4,86.6,211,87L211,87z"/>
			<path class="st1" d="M280.7,215.1c-0.3-0.3-0.5-0.4-0.8-0.6c0.2-0.2,0.4-0.6,0.6-0.5c0.2,0,0.5,0.3,0.7,0.5
				C281.2,214.5,280.9,214.8,280.7,215.1z"/>
			<path class="st1" d="M267.4,188.4c0,0.1-0.1,0.2-0.1,0.3c-0.1-0.1-0.2-0.1-0.3-0.2c0-0.1,0.1-0.2,0.1-0.3
				C267.3,188.3,267.3,188.3,267.4,188.4z"/>
			<path class="st1" d="M210.6,74c0.2-0.1,0.4-0.2,0.5-0.2c0.1,0,0.2,0.2,0.2,0.4c0,0.1-0.2,0.2-0.3,0.2
				C210.9,74.3,210.8,74.2,210.6,74z"/>
		</g>
	</g>
	<g>
		<path class="st1" d="M87.4,81h33.1v9.7h-11.2v58.5H98.6V90.7H87.4V81z"/>
		<path class="st1" d="M134.9,149.2h-10.7V81h10.7v29.2h12.2V81H158v68.2h-10.9V120h-12.2V149.2z"/>
		<path class="st1" d="M172.4,109.7h14.7v9.7h-14.7v20h18.5v9.7h-29.2V81h29.2v9.7h-18.5V109.7z"/>
		<path class="st1" d="M343.2,149.2c-0.6-1.8-1-2.8-1-8.4v-10.7c0-6.3-2.1-8.7-7-8.7h-3.7v27.8h-10.7V81H337
			c11.1,0,15.9,5.2,15.9,15.7v5.4c0,7-2.2,11.6-7,13.8c5.4,2.2,7.1,7.4,7.1,14.5v10.5c0,3.3,0.1,5.7,1.2,8.3H343.2z M331.5,90.7
			v20.9h4.2c4,0,6.4-1.8,6.4-7.2v-6.7c0-4.9-1.7-7-5.5-7H331.5z"/>
		<path class="st1" d="M368.6,109.7h14.7v9.7h-14.7v20h18.5v9.7h-29.2V81h29.2v9.7h-18.5V109.7z"/>
		<path class="st1" d="M401.4,111.3h13.8v9.7h-13.8v28.2h-10.7V81h28.3v9.7h-17.6V111.3z"/>
		<path class="st1" d="M423.2,81h10.7v68.2h-10.7V81z"/>
		<path class="st1" d="M448.2,99.8v49.4h-9.6V81H452l11,40.8V81h9.5v68.2h-11L448.2,99.8z"/>
		<path class="st1" d="M487.9,109.7h14.7v9.7h-14.7v20h18.5v9.7h-29.2V81h29.2v9.7h-18.5V109.7z"/>
		<path class="st1" d="M533.4,149.2c-0.6-1.8-1-2.8-1-8.4v-10.7c0-6.3-2.1-8.7-7-8.7h-3.7v27.8H511V81h16.2
			c11.1,0,15.9,5.2,15.9,15.7v5.4c0,7-2.2,11.6-7,13.8c5.4,2.2,7.1,7.4,7.1,14.5v10.5c0,3.3,0.1,5.7,1.2,8.3H533.4z M521.7,90.7
			v20.9h4.2c4,0,6.4-1.8,6.4-7.2v-6.7c0-4.9-1.7-7-5.5-7H521.7z"/>
		<path class="st1" d="M556.2,126.6L542.6,81h11.2l8.2,31.1l8.2-31.1h10.2l-13.5,45.6v22.6h-10.7V126.6z"/>
		<polygon class="st1" points="63.9,120.5 0,115.1 63.9,109.6 		"/>
		<polygon class="st1" points="603.9,109.6 667.8,115.1 603.9,120.5 		"/>
	</g>
</g>
<g>
	<path d="M507.9,155.3l-1.1,4h1.7l-0.1,0.3h-1.7l-1.3,5.2c-0.2,0.6-0.2,1,0,1.2s0.4,0.4,0.8,0.4c0.3,0,0.5-0.1,0.8-0.3
		c0.3-0.2,0.5-0.5,0.8-1c0-0.1,0.1-0.1,0.1-0.1c0,0,0.1,0,0.1,0c0,0,0.1,0.1,0.1,0.1c0,0,0,0.1,0,0.2c-0.2,0.5-0.6,0.9-1,1.3
		s-1,0.5-1.7,0.5c-0.5,0-0.9-0.1-1.3-0.3c-0.4-0.2-0.7-0.4-0.9-0.8c-0.2-0.3-0.4-0.7-0.4-1.1c-0.1-0.4,0-0.9,0.1-1.4l1-3.9h-1.4
		l0.1-0.3h1.4l0.2-0.7c0.4-0.1,0.7-0.3,1.1-0.5c0.3-0.2,0.6-0.4,0.9-0.6c0.3-0.2,0.6-0.5,0.8-0.9c0.3-0.3,0.5-0.8,0.8-1.3H507.9z"/>
	<path d="M517.8,158.8c0.4,0.3,0.6,0.8,0.6,1.5c0,0.2,0,0.3,0,0.5c0,0.2-0.1,0.3-0.1,0.5l-1,3.5c0,0.2-0.1,0.3-0.1,0.4
		c0,0.3,0.1,0.4,0.3,0.4c0.2,0,0.4-0.1,0.6-0.4s0.6-0.7,0.9-1.4c0-0.1,0.1-0.1,0.1-0.1c0.1,0,0.2,0.1,0.2,0.2c0,0,0,0.1,0,0.1
		c-0.2,0.3-0.4,0.7-0.6,1c-0.2,0.3-0.4,0.6-0.7,0.8s-0.6,0.4-0.9,0.6c-0.4,0.1-0.8,0.2-1.3,0.2c-0.4,0-0.8-0.1-1.1-0.4
		c-0.3-0.3-0.4-0.6-0.4-1.1c0-0.3,0-0.6,0.1-0.9l1.1-4c0.1-0.2,0.1-0.4,0.1-0.7c0-0.3-0.1-0.5-0.2-0.7s-0.3-0.3-0.5-0.3
		c-0.2,0-0.4,0.1-0.7,0.2c-0.2,0.1-0.5,0.3-0.7,0.4c-0.2,0.2-0.4,0.4-0.5,0.6c-0.2,0.2-0.2,0.4-0.3,0.5l-1.6,6.3h-2.9l3.4-12.6
		l-1.1,0.2l0.1-0.3l4.1-0.6l-1.6,5.9c0.2-0.2,0.4-0.3,0.5-0.4c0.2-0.1,0.4-0.2,0.6-0.3c0.2-0.1,0.5-0.2,0.7-0.2s0.6-0.1,1-0.1
		C516.8,158.3,517.3,158.5,517.8,158.8z"/>
	<path d="M527.8,161.7c-0.2,0.3-0.4,0.6-0.8,0.8c-0.3,0.2-0.7,0.4-1.2,0.5c-0.5,0.1-1,0.2-1.5,0.2c-0.4,0-0.8,0-1.1-0.1
		c-0.3-0.1-0.6-0.1-0.9-0.2l-0.3,1.3c-0.1,0.3-0.1,0.5-0.1,0.6c0,0.2,0,0.3,0,0.6c0,0.4,0.1,0.7,0.4,0.9c0.3,0.2,0.6,0.3,0.9,0.3
		c0.8,0,1.6-0.2,2.3-0.6c0.7-0.4,1.3-1,1.8-1.6c0.1-0.1,0.2-0.2,0.2-0.2c0.1,0,0.1,0.1,0.1,0.2c0,0,0,0.1,0,0.1s0,0.1-0.1,0.2
		c-0.2,0.3-0.5,0.6-0.8,0.9c-0.3,0.3-0.6,0.5-1,0.7c-0.4,0.2-0.8,0.4-1.2,0.5c-0.4,0.1-0.9,0.2-1.4,0.2c-0.6,0-1.2-0.1-1.6-0.3
		c-0.5-0.2-0.8-0.4-1.1-0.8c-0.3-0.3-0.5-0.7-0.7-1.1c-0.1-0.4-0.2-0.9-0.2-1.3c0-0.6,0.1-1.2,0.4-1.8c0.2-0.6,0.6-1.2,1.1-1.7
		c0.5-0.5,1-0.9,1.7-1.2c0.7-0.3,1.5-0.5,2.4-0.5c0.5,0,1,0.1,1.4,0.2c0.4,0.1,0.7,0.3,0.9,0.5c0.2,0.2,0.4,0.5,0.6,0.7
		c0.1,0.3,0.2,0.6,0.2,0.8C528.1,161.1,528,161.4,527.8,161.7z M522.5,162.6c0.1,0,0.3,0.1,0.4,0.1c0.1,0,0.3,0,0.4,0
		c0.7,0,1.3-0.2,1.7-0.7s0.7-1.2,0.7-2.2c0-0.3-0.1-0.6-0.2-0.8c-0.1-0.2-0.4-0.3-0.7-0.3c-0.3,0-0.5,0.1-0.7,0.2
		c-0.2,0.1-0.4,0.3-0.5,0.5c-0.1,0.2-0.3,0.4-0.4,0.7c-0.1,0.2-0.2,0.5-0.3,0.8L522.5,162.6z"/>
	<path d="M534.8,154l4.1-0.7l-1.5,6c0.1-0.1,0.2-0.3,0.4-0.4c0.1-0.1,0.3-0.2,0.5-0.3c0.2-0.1,0.4-0.2,0.6-0.2
		c0.2-0.1,0.5-0.1,0.9-0.1c0.5,0,0.9,0.1,1.2,0.2s0.6,0.4,0.8,0.6c0.2,0.3,0.4,0.6,0.5,0.9c0.1,0.4,0.2,0.7,0.2,1.1
		c0,0.6-0.1,1.3-0.4,1.9c-0.2,0.7-0.6,1.3-1,1.8c-0.4,0.6-1,1-1.6,1.4s-1.3,0.5-2.1,0.5c-1.2,0-2.2-0.3-2.9-0.8
		c-0.7-0.5-1.1-1.3-1.1-2.4c0-0.5,0.1-1.1,0.2-1.6l2.2-7.9l-1.1,0.2L534.8,154z M535.8,165.5c0,0.3,0.1,0.6,0.3,0.8
		c0.2,0.2,0.4,0.3,0.8,0.3c0.4,0,0.7-0.1,0.9-0.3c0.2-0.2,0.4-0.5,0.5-1l1.3-4.8c0.1-0.3,0.1-0.6,0.1-0.9c0-0.5-0.2-0.8-0.7-0.8
		c-0.2,0-0.5,0.1-0.7,0.2c-0.2,0.1-0.4,0.3-0.6,0.5c-0.2,0.2-0.3,0.4-0.5,0.6c-0.1,0.2-0.2,0.4-0.3,0.7l-1.1,4.1
		C535.8,165,535.8,165.3,535.8,165.5z"/>
	<path d="M544.9,154l4.1-0.7l-3.2,11.8c0,0.2-0.1,0.3-0.1,0.3c0,0.1,0,0.1,0,0.2c0,0.4,0.1,0.5,0.4,0.5c0.3,0,0.6-0.2,0.9-0.5
		c0.4-0.3,0.7-0.9,1.1-1.6c0-0.1,0.1-0.1,0.1-0.1c0.1,0,0.2,0.1,0.2,0.2c0,0,0,0,0,0.1c0,0,0,0.1-0.1,0.2c-0.2,0.4-0.4,0.8-0.7,1.1
		c-0.2,0.3-0.5,0.6-0.7,0.8c-0.3,0.2-0.6,0.4-0.9,0.5c-0.3,0.1-0.7,0.2-1.2,0.2c-0.2,0-0.5,0-0.7-0.1c-0.2-0.1-0.4-0.2-0.6-0.3
		c-0.2-0.1-0.3-0.3-0.4-0.5c-0.1-0.2-0.2-0.5-0.2-0.8c0-0.2,0-0.4,0-0.5c0-0.2,0.1-0.4,0.1-0.6l2.8-10l-1.1,0.2L544.9,154z"/>
	<path d="M549,161.4c0.3-0.6,0.6-1.1,1.1-1.6c0.5-0.4,1-0.8,1.6-1.1c0.6-0.3,1.2-0.4,1.9-0.4c1.2,0,2.2,0.3,2.8,1
		c0.7,0.7,1,1.6,1,2.7c0,0.7-0.1,1.4-0.4,2c-0.3,0.6-0.6,1.1-1.1,1.6s-1,0.8-1.6,1c-0.6,0.2-1.3,0.4-2,0.4c-0.6,0-1.2-0.1-1.6-0.3
		c-0.5-0.2-0.8-0.4-1.2-0.8c-0.3-0.3-0.5-0.7-0.7-1.1s-0.2-0.9-0.2-1.4C548.5,162.7,548.7,162,549,161.4z M554.7,159
		c-0.1-0.2-0.4-0.3-0.8-0.3c-0.3,0-0.6,0.1-0.8,0.2s-0.4,0.3-0.5,0.6c-0.2,0.2-0.3,0.5-0.4,0.8c-0.1,0.3-0.2,0.6-0.3,1
		c-0.2,0.8-0.4,1.4-0.5,1.9c-0.1,0.5-0.2,0.8-0.3,1.1s-0.1,0.5-0.1,0.6s0,0.3,0,0.4c0,0.3,0.1,0.7,0.2,0.9c0.2,0.3,0.4,0.4,0.8,0.4
		c0.3,0,0.5-0.1,0.7-0.2c0.2-0.1,0.3-0.3,0.5-0.6s0.2-0.5,0.3-0.8s0.2-0.6,0.2-0.9c0.2-0.8,0.4-1.5,0.5-2c0.1-0.5,0.2-0.9,0.3-1.2
		c0.1-0.3,0.1-0.6,0.1-0.7s0-0.3,0-0.4C554.9,159.5,554.8,159.2,554.7,159z"/>
	<path d="M559.7,163.9c-0.4,0.1-0.5,0.3-0.5,0.6c0,0.2,0.1,0.3,0.3,0.3c0.2,0,0.5,0.1,0.7,0.1h1.2c1.3,0,2.1,0.2,2.7,0.5
		c0.5,0.3,0.8,0.9,0.8,1.6c0,0.2,0,0.5,0,0.8c0,0.3-0.1,0.7-0.2,1c-0.1,0.4-0.3,0.7-0.5,1.1c-0.2,0.4-0.6,0.7-1,0.9
		c-0.5,0.3-1,0.6-1.6,0.7c-0.6,0.2-1.2,0.2-1.8,0.2c-0.4,0-0.8,0-1.2-0.1c-0.4-0.1-0.7-0.2-1-0.3s-0.6-0.3-0.7-0.6
		c-0.2-0.2-0.3-0.5-0.3-0.8c0-0.2,0-0.4,0.1-0.7c0.1-0.2,0.2-0.5,0.4-0.7c0.2-0.2,0.4-0.4,0.7-0.6s0.6-0.3,1.1-0.4
		c-0.3-0.1-0.6-0.2-0.9-0.4c-0.3-0.2-0.4-0.6-0.4-1c0-0.5,0.1-0.9,0.2-1.2c0.1-0.3,0.4-0.6,0.6-0.8c0.3-0.2,0.6-0.4,1-0.5
		c0.4-0.1,0.8-0.2,1.2-0.3c-0.2-0.1-0.3-0.2-0.5-0.3c-0.2-0.1-0.3-0.3-0.5-0.4c-0.1-0.2-0.2-0.4-0.3-0.6c-0.1-0.2-0.1-0.5-0.1-0.7
		c0-0.4,0.1-0.7,0.3-1.1c0.2-0.4,0.4-0.7,0.8-1c0.3-0.3,0.7-0.5,1.2-0.7c0.5-0.2,1.1-0.3,1.7-0.3c0.4,0,0.8,0,1,0.1s0.5,0.1,0.7,0.1
		c0.2,0.1,0.3,0.1,0.4,0.2s0.2,0.1,0.2,0.2c-0.1-0.2-0.1-0.3-0.2-0.6c-0.1-0.2-0.1-0.4-0.1-0.6c0-0.2,0-0.4,0.1-0.6
		c0.1-0.2,0.1-0.4,0.2-0.5s0.2-0.3,0.4-0.4s0.3-0.1,0.5-0.1c0.2,0,0.4,0.1,0.6,0.2s0.2,0.3,0.2,0.6c0,0.2-0.1,0.4-0.2,0.6
		c-0.2,0.1-0.3,0.2-0.6,0.2c-0.3,0-0.6-0.1-0.8-0.4c-0.1,0-0.1,0.1-0.1,0.2c0,0.1-0.1,0.2-0.1,0.4c0,0.1,0,0.3,0.1,0.5
		c0,0.2,0.1,0.5,0.3,0.8c0,0.1,0.1,0.1,0.1,0.2c0,0.1,0.1,0.2,0.1,0.3c0,0.1,0.1,0.3,0.1,0.4s0,0.4,0,0.6c0,0.3-0.1,0.6-0.2,0.9
		c-0.1,0.3-0.3,0.7-0.7,1c-0.3,0.3-0.7,0.6-1.2,0.8c-0.5,0.2-1.1,0.3-1.9,0.3c-0.3,0-0.5,0-0.6,0c-0.2,0-0.3,0-0.5-0.1
		C560.5,163.7,560.1,163.8,559.7,163.9z M563.7,168.6c-0.1-0.2-0.2-0.3-0.4-0.5c-0.2-0.1-0.5-0.2-0.8-0.3c-0.4-0.1-0.8-0.1-1.4-0.1
		h-1.5c-0.2,0-0.5,0.1-0.7,0.2c-0.2,0.1-0.5,0.3-0.7,0.5c-0.2,0.2-0.4,0.5-0.5,0.7c-0.1,0.3-0.2,0.5-0.2,0.8c0,0.2,0,0.4,0.1,0.6
		c0.1,0.2,0.2,0.3,0.4,0.5c0.2,0.1,0.5,0.2,0.8,0.3c0.3,0.1,0.7,0.1,1.2,0.1c0.3,0,0.7,0,1.2-0.1c0.4-0.1,0.8-0.2,1.2-0.4
		s0.7-0.4,1-0.8c0.3-0.3,0.4-0.7,0.4-1C563.8,168.9,563.8,168.7,563.7,168.6z M561.6,163.1c0.1,0.1,0.3,0.2,0.5,0.2
		c0.2,0,0.4,0,0.5-0.1s0.2-0.2,0.3-0.3c0.1-0.1,0.1-0.2,0.2-0.4c0-0.2,0.1-0.3,0.1-0.5c0.1-0.3,0.1-0.5,0.2-0.8
		c0.1-0.3,0.1-0.6,0.2-0.8c0.1-0.3,0.1-0.5,0.2-0.7c0-0.2,0.1-0.3,0.1-0.4c0-0.2,0-0.3-0.1-0.5c-0.1-0.1-0.3-0.2-0.5-0.2
		c-0.3,0-0.6,0.1-0.8,0.4c-0.2,0.3-0.3,0.7-0.4,1.2c0,0.2-0.1,0.4-0.2,0.6c-0.1,0.2-0.1,0.5-0.2,0.8c-0.1,0.2-0.1,0.5-0.2,0.7
		s-0.1,0.4-0.1,0.4C561.5,162.9,561.5,163,561.6,163.1z"/>
</g>
</svg>
