<?xml version="1.0" encoding="utf-8"?>
<!-- Generator: Adobe Illustrator 19.1.0, SVG Export Plug-In . SVG Version: 6.00 Build 0)  -->
<!DOCTYPE svg PUBLIC "-//W3C//DTD SVG 1.1//EN" "http://www.w3.org/Graphics/SVG/1.1/DTD/svg11.dtd">
<svg version="1.1" id="Layer_1" xmlns="http://www.w3.org/2000/svg" xmlns:xlink="http://www.w3.org/1999/xlink" x="0px" y="0px"
	 viewBox="0 0 514 514" style="enable-background:new 0 0 514 514;" xml:space="preserve">
<style type="text/css">
	.st0{fill:#E4E2DE;}
	.st1{fill:#292928;}
</style>
<g>
	<circle class="st0" cx="257" cy="270.2" r="166.8"/>
	<g>
		<path class="st1" d="M162.5,206.3c-2.6,3.1-0.1,6,0.6,8.9c0.1,0.5,1.5,1,2.2,0.9c0.5-0.1,0.9-1.2,1.1-2c0.1-0.5-0.4-1.1-0.4-1.7
			c0-0.4,0.3-0.7,0.5-1.1c0.3,0.2,0.6,0.4,0.8,0.7c2.8,4.9,4.4,4.8,7.7,0.1c2.2-3,4.6-6.4,7.7-8.2c2.2-1.3,5.9-0.2,8.8-0.3
			c1.1,0,2.3,0.1,3.1-0.5c0.9-0.6,1.2-1.6-0.5-2.1c-1.1-0.3-1.9-1.2-2.9-1.9c-3.5-2.3-6.8-4.7-10.5-6.8c-0.7-0.4-2.3,1-3.4,1.5
			c-0.8,0.4-2,1.2-2.3,1c-1.1-0.9-1.8-2.1-2.7-3.2c0.8-0.6,1.5-1.4,2.4-1.6c1.7-0.3,3.4-0.2,5.1-0.4c0.6-0.1,1.1-0.7,1.7-1.1
			c-0.4-0.3-0.8-0.6-1.3-0.8c-4.1-1.4-8.2-2.7-12.2-4.1c-2.4-0.8-2.7-2.2-1.7-4.4c0.4-0.8,0.5-1.8,0.7-2.7c-1.3-0.3-2.7-0.8-4-0.9
			c-0.8,0-1.5,0.9-2.3,1.1c-0.6,0.1-1.8-0.1-1.9-0.4c-1-3.6-4.6-6.2-3.2-10.7c1.3-4.2,2-8.7,2.6-13.1c0.2-1.6,0.1-3.5-0.6-4.9
			c-10.2-18.2-16.1-37.7-16.7-58.6c-0.2-9.2,4.5-16.4,13.2-19.9c7.2-3,14.8-3.9,22.5-4c4.5-0.1,9-0.2,13.5-0.1
			c4.2,0.1,7.3-1.6,9.5-4.9c1.4-2,2.5-4.2,3.6-6.4c4.7-9.4,9.3-18.8,14.1-28.2c0.7-1.3,2-2.6,3.3-3.1c13.3-4.8,26.9-7.8,40.9-4.1
			c13.7,3.6,27.3,8.3,38.5,17.4c8.4,6.9,15.1,15.5,19.3,25.8c3.6,8.9,7.8,17.5,8.8,27.2c0.4,3.7,0.1,7.2-1.4,10.6
			c-2.7,6.3-5.4,12.7-8,19.1c-1.6,3.9-1.2,7.6,1.3,11.1c5.6,7.9,9.8,16.4,11.6,26c2.5,13.7,0.1,26-11.2,34.6c-0.3,0.3-0.7,0.5-1,0.8
			c-3.2,2.6-3.2,3.8,0.2,6.2c5.1,3.7,10.3,7.3,15.3,11.1c5.1,3.8,8.5,9,11.4,14.5c0.4,0.8,0.1,2.1,0,3.2c-0.3,2.5-1,5-1.1,7.4
			c-0.1,1.7,0.6,3.4-1.6,4.4c-0.6,0.3-1.2,1.7-1.1,2.5c0.5,3.7,1,7.4,1.9,11c0.6,2.4,1.4,4.2,0,6.9c-1.3,2.4-2,5.4-2.9,8.1
			c-0.7,2.1,1.4,5.5,3,7.7c1.1,1.5,1.9-0.5,2.1-1.4c0.5-3.3,0.7-6.6,1.1-9.9c0.1-0.5,0.1-1,0.2-1.6c0.4,0.4,0.9,0.7,1.1,1.1
			c1.9,3.2,4.1,5.9,2.3,10.3c-1.4,3.4,1.1,7,3.9,9c3,2.1,3.8,4.6,3.1,7.8c-0.8,3.7-1.8,7.3-2.7,10.9c-0.7,2.9-1.1,5.7,2,7.6
			c0.4,0.2,0.6,0.9,0.9,1.3c-0.5,0.2-0.9,0.5-1.4,0.6c-3.3,0.2-4.5,1.7-3.9,5.3c0.8,5,1.7,10,2.4,15c0.4,2.4-0.6,4.1-1.8,6.3
			c-1.8,3.1-2.1,7-3,10.6c-0.6,2.3-1,4.7-1.5,7c-0.9-2.1-1.7-4.2-2.7-6.3c-0.7-1.5-1.5-3.1-2.6-4.4c-0.9-1.1-2.3-1.7-3.5-2.5
			c0.3,1.1,0.7,2.2,0.8,3.3c0.3,5.5,0.4,11,0.7,16.4c0.2,3.3,0.8,6.5,0.8,9.7c0,1.2-0.8,3.3-1.6,3.5c-5.3,1.4-7,6.2-9.9,9.9
			c-1.9,2.4-3.3,4.3-6.7,2.8c-0.8-0.3-2.4,0.6-3.3,1.3c-2.4,1.8-4.6,3.9-6.9,5.9c-3.2,2.7-6.2,3-9.9,0.7c-1.8-1.1-2.9-0.7-4.2,0.4
			c-1.3,1.2-2.4,2.6-3.9,3.4c-0.9,0.6-2.8,0.9-3.5,0.4c-3.2-2.8-6.2-0.6-8.2,1c-2.6,2.1-3.9,1.7-5.6-0.6c-0.3-0.5-0.9-0.8-1.2-1.3
			c-0.7-1.4-1.2-2.8-1.8-4.2c1.6-0.5,3.2-1.5,4.7-1.4c2.4,0.2,3.4,0.3,3.1-2.8c-0.2-1.6,1.2-3.7,2.3-5.2c1.2-1.5,1.3-1.9-0.7-2.5
			c-1-0.3-1.9-1.2-2.7-2c-1.4-1.5-2.8-2.7-5.2-2.3c-1,0.2-2.3-1.2-3.3-2c-1.5-1.2-2.8-2.7-4.5-3.6c-2.4-1.3-5.3-1.7-7.6-3.1
			c-2-1.2-3.8-2.9-5.1-4.8c-3.1-4.4-8.1-5.7-12.5-6.8c-6.6-1.5-10.7-6-15.3-10.1c-1.7-1.5-1.1-3.2,1.3-4.3c4.2-1.9,4.7-5.6,1.2-8.5
			c-0.8-0.6-1.5-1.3-2.2-2.1c-2.3-2.5-2.3-2.5,0.8-3.3c3.3-0.9,4.4-3.3,2.1-5.7c-3.1-3.1-1.9-6.7-1.6-10c0.4-3.8,2.8-4.5,6.7-4.2
			c2.9,0.3,6-0.5,8.9-1.3c1.8-0.5,1.3-2.1,0.1-3c-0.9-0.6-2.2-0.7-3.3-0.9c-2.9-0.4-4.8-1.7-5-5c-0.1-0.9-1.3-2.2-2.2-2.5
			c-1.9-0.6-4.1-1.2-5.9-0.7c-3.2,0.8-5.9-0.5-8.8-1.3c-2-0.5-3.1-1.6-2.8-3.7c0.4-2,2-3.2,3.8-2.7c2.4,0.7,4-0.3,5.5-1.5
			c0.7-0.5,1.1-2.2,0.8-3c-0.3-0.8-1.7-1.6-2.7-1.7c-0.6-0.1-1.9,1.1-2,1.7c-0.4,3.2-1.5,3.3-3.8,1.5c-0.8-0.6-2.3-1.1-3.2-0.9
			c-3.2,0.8-5.4-0.9-7.9-2.5c-2.1-1.4-1.3-2.2,0.2-3.1c2.8-1.5,5.6-2.9,8.4-4.3c0.6-0.3,1.1-0.8,1.6-1.3c-0.5-0.4-1-0.8-1.6-1
			c-3.1-1.1-1.4-3.2-1.1-5.1c0.2-1.3,2.6-2.6-0.2-3.8c-3.2-1.4-5.2-1.2-6.8,1c-0.7,1-1.6,2.1-2.7,2.4c-1.8,0.6-2.2,1.7-2.2,3.2
			c-0.1,2.2-1,3.3-3.3,4.3c-2.2,1-3.7,3.8-5.3,6c-0.4,0.5-0.1,2.1,0.4,2.5c2.1,1.7,1.4,3.6,0.5,5.5c-0.6,1.2-1.4,2.2-1.9,3.4
			c-1,2.3-2.1,2.5-3.7,0.6c-0.1-0.1-0.2-0.2-0.4-0.3c-5.4-1.8-11.3-2.2-15.9-6c-0.4-0.4-1.8,0.6-2.8,0.7c-1.5,0.1-3.1,0.2-4.6-0.1
			c-0.7-0.1-1.2-1-1.9-1.5c0.6-0.4,1.2-1.1,1.9-1.3c2.4-0.7,0.8-1.7,0.2-2.4c-2.1-2.6-4.3-5-6.3-7.6c-0.7-0.9-1.3-2.1-1.2-3.2
			c0-0.7,1.2-2,1.8-2c2.3-0.1,4.1,0.8,5.3,3.1c2.5,4.9,6.9,7.6,11.7,9.8c0.3,0.1,0.6,0.3,0.8,0.3c1.8-0.3,3.6-0.7,5.4-1.1
			c-0.7-1.4-1.2-3.1-2.3-4c-1.8-1.6-3.8-3.1-6-4c-2.2-0.9-3.3-2.3-3.7-4.3c-1-5.6-4.7-8.7-9.9-10.2c-0.6-0.2-1.8,0.7-2.3,1.4
			c-0.6,0.8-0.3,3-1.9,1.7c-1.5-1.2-5.4,0.9-4.8-3.3c0.3-2.4,0.4-4.9,0.5-7.4c0.1-1.5,0.6-2.5,2.1-1.2c2.2,1.9,2,0.3,2.4-1.3
			c0.3-1.2,1.5-2.1,2.3-3.1c0.8,0.8,1.7,1.6,2.5,2.4c0.6,0.6,1.1,1.9,1.6,1.8c3.2-0.4,4,1.4,4.8,4c0.7,2.1,6.7,3.1,8.4,1.7
			c1.4-1.1,1.4-3.8-0.2-5c-0.9-0.6-2.2-1.3-3.2-1.1c-4.3,1-5.7-2.2-7.3-5c-0.3-0.6-0.5-1.8-0.1-2.3c0.3-0.5,1.4-0.7,2.2-0.7
			c2.1,0,4.3,0.3,6.4,0.4c2.7,0,4.9,0.9,5.4,3.8c0.3,2,1.5,2.4,3.1,3c1.7,0.7,3.1,2.2,4.7,3.3c0.9,0.6,1.8,1.6,2.7,1.6
			c1.2,0,2.5-0.7,3.8-1.1c-1-0.8-2-1.7-3-2.5c-1-0.8-2.1-1.6-3.2-2.4c1.4-1.6,2.7-3.2,4.3-4.6c0.2-0.1,2.4,1.4,2.8,2.5
			c0.6,1.7,1.4,1.8,2.9,1.5c2.1-0.5,4.2-0.7,6.4-0.8c0.6,0,1.3,0.7,2,1.1c-0.5,0.4-1,0.8-1.5,1.3c-1,0.9-2.2,1.6-2.8,2.7
			c-1,1.6-1.8,3.4-2.1,5.1c-0.4,2.2-0.6,4.6,0,6.7c0.7,2.2,3,1.4,3.8,0.1c2.6-4,6.4-4.3,10.5-4.4c1,0,2.1-0.7,3-1.4
			c0.9-0.6,1.5-1.6,2.2-2.4c-1-0.2-1.9-0.3-2.9-0.5c-2.8-0.4-3.6-1.5-3.4-4.4c0.2-2.6,1.3-3.3,3.9-3.1c2.2,0.2,4.5-0.9,6.8-1
			c1.1-0.1,3,0.3,3.3,1c0.5,1.2,0.2,2.9,0,4.4c-0.1,0.4-0.8,0.8-1.2,1.2c-1.5,2.2-0.8,4,1.8,4.4c4.2,0.6,8-0.8,11.6-2.8
			c3-1.7,6.1-3.1,9-5c1.9-1.3,3.7-3,5.1-4.8c0.4-0.5-0.4-2.4-1.2-3.1c-0.4-0.4-2,0.3-2.9,0.8c-1.7,0.9-3.2,2.1-4.9,3.1
			c-1.2,0.7-2.6,1.3-3.6,2.2c-2.5,2.2-5.5,3-8.8,3.1c-0.5,0-0.9-0.4-1.4-0.6c0.3-0.4,0.6-0.9,0.9-1.3c0.1-0.1,0.3-0.1,0.4-0.2
			c0.9-0.8,1.7-1.7,2.5-2.5c-1.2,0-2.4-0.1-3.6,0c-2.9,0.2-4-1-2.8-3.5c0.9-1.9,2.5-3.5,3.9-5.2c0.6-0.8,1.7-1.4,2-2.2
			c0.4-1,0.1-2.1,0.2-3.2c-0.9,0-1.9-0.1-2.7,0.1c-4.3,1.4-10.4-2.2-11.1-6.7c-0.3-1.8,0-3.1,2.2-3.4c1.3-0.2,2.6-0.6,3.7-1.2
			c2.3-1.2,3.5-3,2.6-5.7c-0.1-0.3-0.3-0.5-0.3-0.8c-0.4-1.8-0.2-4.2-1.3-5.1c-1-0.8-3.3,0.3-5.1,0.5c-0.5,0.1-1.1-0.2-1.6-0.3
			c0.3-0.5,0.5-1,0.9-1.3c2.7-2.1,5.5-3.5,9.2-2.6c1.6,0.4,3.5-0.4,5.2-0.9c0.6-0.2,0.9-1.3,1.3-2c-0.8-0.5-1.6-1.2-2.5-1.3
			c-0.8-0.1-1.8,0.2-2.4,0.7c-1.5,1.1-2.4,1.2-3.2-0.8c-0.8-1.8-2.2-1.9-3.9-0.9c-2,1.1-4.2,1.9-6.3,2.6c-4.8,1.6-7.2,7.3-4.5,11.4
			c1,1.6,0.9,2.2-0.4,3.6c-1.6,1.6-2.8,3.6-3.7,5.7c-1.5,3.3-4.5,3-6.8,2.4c-3.1-0.7-5.9,0-8.8,0.5c-1.3,0.2-3.2,0.8-3.2-1.5
			c-0.1-1.7,0.5-3.2,2.6-3.3c0.1,0,0.3,0,0.4,0c2.3,0.3,4.5,0.6,6.8,1c-0.7-3.3,2.2-3.9,4.1-5.2c2.8-1.9,4.7-7.3,4.2-10.5
			c-0.2-1.1,0.7-2.5,1.1-3.7c0.4-1,1.3-2.1,1.1-3c-0.2-0.6-1.7-1.1-2.8-1.3c-3-0.6-6.5-0.3-7.3-4.6c-0.1-0.5-2.9-1.1-4.1-0.6
			c-2.6,1.1-3,6-0.9,8.1c1.4,1.3,2.9,2.5,4.1,3.8c1.4,1.5,1,2.9-0.8,3.8c-4.5,2.1-9.1,4.1-13.6,6.2c-2.3,1.1-4.4,0.9-6.3-0.5
			c-1.9-1.5-2.6-0.6-3,1.2c-0.4,1.9-0.6,3.9-0.8,5.9c0,0.5,0.5,1.5,0.7,1.5c3.6-0.1,1.8,2,1.4,3.3c-0.6,1.8-0.8,3.8-3.2,0.8
			c-3.2-4-7.5-4-10.3-0.7c-0.9,1.1-1,2.8-1.5,4.3c-0.2,0.5-0.2,1-0.4,1.5c-0.4-0.5-1.1-0.9-1.2-1.4c-0.2-0.8,0-1.7-0.1-2.6
			c-0.2-1.5-0.8-2.6-2.5-1.8c-2.1,1-2.1-0.3-2.1-1.7c-0.1-4-0.3-8-0.6-12c-0.2-2.9,0.2-5.3,3.7-5.7L162.5,206.3z M282.3,306.1
			c-0.9,0.9-1.8,1.9-2.7,2.8c0.2,0.1,0.7,0.4,0.7,0.4c0.6-1.1,1.3-2.2,1.9-3.3c0.3,0,0.6,0.1,0.8,0c0.4-0.3,0.8-0.6,1.2-1
			c0,0-0.2-0.4-0.3-0.6c-0.4,0.3-0.9,0.6-1.2,1C282.5,305.5,282.4,305.8,282.3,306.1z M330.2,364.4c-3.3,0.6-6.6,0.9-9.7,1.8
			c-1.8,0.5-3.5,1.8-5,2.9c-0.6,0.4-0.6,1.5-0.9,2.2c0.9,0.1,2.1,0.7,2.7,0.4c4.3-2.4,8.6-4.9,12.9-7.4c1.9-2,3.8-4,5.6-6.1
			c0.3-0.3,0.1-1,0.1-1.6c-0.6,0.1-1.6,0-1.8,0.4C332.6,359.4,331.4,361.9,330.2,364.4z M242.8,174.3c1.8-0.6,3.7-1.3,5.5-1.9
			c1.1-0.3,2.5-1,3.3-0.5c3.1,1.9,6.1,0.8,9.2,0.1c1.1-0.2,2.3,0.3,3.5,0.5c-0.8,0.7-1.5,1.6-2.4,2.2c-0.6,0.4-1.3,0.5-2,0.7
			c-2.2,0.4-4.5,0.7-6.7,1.1c-0.4,0.1-0.7,0.4-1,0.6c0.3,0.3,0.6,0.8,0.9,0.8c3.4,0.3,7.1,1.4,10.2,0.5c4.6-1.3,8.9-3.9,13.1-6.4
			c1.4-0.8,2.1-2.9,2.8-4.6c0.3-0.7-0.1-1.8-0.2-2.7c-1,0.4-2.6,0.6-2.8,1.3c-1,2.9-3.5,2.8-5.7,3.1c-2.3,0.3-4.6,0-6.9,0.1
			c-5.6,0.2-11.2,0.3-16.6,2.3c-0.6,0.2-1.5,0.1-2.1-0.1C241.2,170.3,242.4,172.5,242.8,174.3c-4.6-2.3-7.2,2.1-10.7,3.6
			c-0.6,0.2-0.8,1.6-1.1,2.5c0.9-0.2,1.9-0.1,2.7-0.6C236.8,178,239.8,176.1,242.8,174.3z M213.5,143.5c1.1,0.6,2.2,1.2,3.3,1.9
			c0.1-0.2,0.2-0.5,0.4-0.7c-1.1-0.4-2.2-0.7-3.3-1.1c-0.1,0-0.3,0-0.4,0c-1.1-2.2-4.5-3.6-2.8-7c0,0-0.6-0.5-0.7-0.4
			c-2.2,1.9-3.3-0.3-4.9-1.1c-4.5-2.4-8.5-5.9-13.7-6.8c-1.3-0.2-2.1-1-1.1-2.5c0.5-0.7,0.8-1.5,1.2-2.3c-0.9,0.2-2.1,0.1-2.7,0.6
			c-3.1,2.3-6.1,2.7-9-0.3c-0.5-0.5-1.1-0.9-1.7-1.3c-2-1.4-4.2-1.4-6.1,0c-2,1.6-3.7,3.4-5.3,5.4c-0.3,0.5,0.5,2.3,1.3,3
			c1.4,1.1,3.3,1.6,4.9,2.7c1.6,1.1,2.9,1.1,4.3,0c1.4-1.1,3.1-3.1,2.5,1c-0.1,0.5,0.5,1.5,1,1.7c2.9,1.4,5.5,3.5,9.3,2.7
			c4.2-0.9,8.4-0.2,12.1,2C205.6,143.1,209.3,144.3,213.5,143.5z M284.5,355.4c-1.6,0.3-3.8,0.7-5.9,1.1c-0.1,0-0.2,0.7-0.1,1.1
			c0.3,2.4,1.6,2.4,3.5,1.6c1.8-0.7,3.8-0.8,5.7-1.3c4.9-1.2,10.1-0.5,14.7-3.2c4.2-2.4,8.8-4.2,13.1-6.6c1.8-1,3.4-2.6,5-4
			c2-2,4.1-4,5.8-6.3c1.7-2.3,3.1-4.9,4.2-7.5c1.4-3.4-0.2-5.9-3.8-6.5c-1.8-0.3-2.3-1.1-2.5-2.8c-0.2-2.1-1.3-4.3-3.6-4
			c-1.4,0.2-2.7,2.1-3.9,3.4c-0.4,0.4-0.3,1.1-0.7,1.6c-2.2,2.6-4.1,5.7-6.8,7.7c-2.4,1.7-5.8,1.9-8.6,3.1c-1.7,0.8-2.7,0.9-4-0.7
			c-1.4-1.7-1.4-3.3,0.1-4.6c2.5-2.3,5.3-4.3,8-6.3c1.4-1,3-1.7,4.3-2.7c0.4-0.3,0.2-1.3,0.3-1.9c-0.6,0.2-1.5,0.2-1.7,0.6
			c-0.9,1.7-2.4,1.7-4,1.8c-1.6,0.1-3.7,0.5-4.6,1.6c-2,2.4-3.1,5.4-4.9,7.9c-1.5,2-3.3,3.9-5.4,5.3c-3.2,2.1-6.8,3.6-10.1,5.6
			c-2.1,1.3-2,3.6-0.9,5.4c1.2,2,2.7,0.6,4-0.3c0.7-0.5,1.5-0.9,2.1-1.5c4.7-4.1,10.4-4.3,15.6-2.7c4.4,1.4,6.4,0.2,8.5-3
			c0.4-0.7,1.8-1.4,2.5-1.2c3.4,1.2,5.1-0.4,6.7-3c0.3-0.6,1.7-0.8,2.5-0.7c0.4,0.1,0.9,1.5,0.7,2.2c-0.5,2.7-1.2,5.3-2,7.9
			c-1.2,3.8-2.2,4.4-6.1,4.3c-1.1,0-2.3,0.4-3.4,0.4c-1.9,0.1-3.7,0.3-5-1.7c-0.3-0.5-1.6-0.6-2.4-0.5c-1.4,0.3-2.8,0.6-4,1.4
			c-2.4,1.6-6.1,3.1-6.7,5.3C289.7,355.2,288.2,356,284.5,355.4z M189.1,172.2c0.9,0.2,2,0.1,2.9,0.5c5.6,2.4,11.2,4.9,16.9,7.3
			c0.6,0.3,1.5,0,2.3-0.1c-0.2-0.7-0.2-1.6-0.6-2.2c-5.5-6.7-13.4-8.7-21.2-10.9c-5.8-1.7-12.5-1.5-16-7.9c-0.3-0.6-1.4-0.9-2.2-1.3
			c-3-1.5-3.1-2.1-0.7-4.6c1.4-1.5,2.9-2.9,3.9-4.6c1-1.8,1.4-3.9-0.4-5.6c-1.2-1.1-4.8-0.4-6.3,1.1c-0.8,0.8-1.6,2-2.5,2
			c-3.2,0.2-3.5,2.5-3.2,4.6c0.4,2.9,0.1,5.4-2.2,7.5c-0.9,0.8-1.3,2.1,0.5,2.7c2.8,0.8,2.1,2.4,1.2,4.3c-0.6,1.3-0.5,3-0.8,4.4
			c0.8-1.2,1.7-2.4,2.4-3.7c1.1-2.4,2.2-2.8,3.6-0.7c2.2,3.3,4.4,6.7,5.7,10.3c0.6,1.8,1.1,3.1,2.6,4.1c2.4,1.7,9.9,1.4,12-0.6
			c0.6-0.6,1.2-1.9,1-2.6c-0.2-0.6-1.5-1.2-2.3-1.2c-2,0-4,0.5-6,0.3c-0.8-0.1-1.5-1.4-2.3-2.1c0.9-0.5,2.3-1.6,2.7-1.3
			C183,174.1,186,172.7,189.1,172.2z M237.2,146.3c0.1,0.2,0.2,0.3,0.3,0.5c2-0.8,4.1-1.6,6.1-2.4c2.5-1.1,4.9-2.5,7.5-3.3
			c5.5-1.6,11.1-2.9,16.6-4.5c0.8-0.2,2-1.6,1.9-1.8c-1-1.7-2.1-3.5-3.6-4.8c-0.7-0.6-2.4-0.6-3.5-0.3c-3.9,1-7.7,2.9-11.6,3.1
			c-4.5,0.2-7.6,1.9-10.6,4.8c-1.2,1.1-2.6,2.1-4.3,0c-1.3-1.6-3.2-0.5-3.3,1.8c-0.1,1.3,0.3,3.1-0.4,3.7c-3.5,3.1-0.1,2.9,1.5,3.3
			C234.9,146.7,236.1,146.4,237.2,146.3z M226.6,160.8c-0.6-1.2-1.6-3.3-2.7-5.2c-1-1.8-2.2-1.5-3.4-0.1c-2.7,3.1-4.9,6.3-4.2,10.8
			c0.3,1.8-0.3,3.7-0.5,5.5c-0.1,0.8-0.4,1.9,0,2.4c2.2,3.2,3.3,6.7,3.2,10.6c0,0.5,0.7,1.1,1.1,1.6c0.4-0.5,1.1-1,1.2-1.5
			c0.8-2.6,1.5-5.2,2-7.9C224.5,172,225.4,166.9,226.6,160.8z M298.1,294.6c4.9-0.2,6.5,2,4.1,6.3c-1.5,2.7-3.6,5.1-5.4,7.7
			c-0.2,0.3-0.4,0.7-0.6,1c0.5,0.1,1.1,0.5,1.5,0.3c1.1-0.6,2.2-1.4,3.2-2.1c2.3-1.8,4.6-3.5,6.8-5.4c1.1-1,2.1-2.1,3.1-3.3
			c2.1-2.7-0.4-4.9-0.9-7.3c-0.4-2-0.8-4.4-3.7-4.7c-4.6-0.6-7.4,0.3-8.9,3.5c-0.8,1.7-1.6,3-3.6,3.2c-0.4,0-0.7,0.4-1.1,0.6
			c0.4,0.2,0.8,0.4,1.1,0.4C295.2,294.8,296.6,294.7,298.1,294.6z M267.4,332.1c0.4-0.1,0.9-0.1,1.5-0.2c7.7-1.5,14-5.7,20.1-10.1
			c1.4-1,2.1-2.8,3.2-4.2c-1.5,0.9-3.1,1.7-4.5,2.8c-2.2,1.8-4.2,3.2-7.3,1.7c-1.4-0.7-3.4-0.4-5,0c-3.3,0.8-6.6,2-9.8,3.1
			c-1.9,0.7-4.6,1.2-3.9,3.6c0.4,1.3,3,2.1,4.7,3C266.6,332.1,266.9,332.1,267.4,332.1z M320,359.8c2.2-1.2,5.1-1.8,5.9-3.4
			c2.1-4,5.9-6.1,8.4-9.5c0.4-0.6,1.2-1.2,1.2-1.7c0-1.2-0.1-2.6-0.8-3.5c-0.4-0.5-2.1-0.2-3,0.2c-1.1,0.6-2.7,1.5-2.9,2.5
			c-1.2,5.7-5.4,7.3-10.2,8.6c-1.9,0.5-3.7,2-2.9,4.1C316.1,358.2,318.2,358.7,320,359.8z M284.8,271c0.1,0.3,0.2,0.6,0.3,0.8
			c1-0.3,2.3-0.3,3.1-0.9c1.5-1.3,1.7-6.8,0.6-8.5c-1.2-1.9-2.4-2.3-4.9-1.9c-4.6,0.8-5.6,4.4-7.5,7.5c-0.9,1.5-1.5,3,0.1,4.2
			c1.4,1.1,2.9,1.7,4.7,0.3C282.2,271.8,283.6,271.5,284.8,271z M179.8,148.4c0-0.2-0.1-0.3-0.1-0.5c-0.7,0.2-2,0.4-2.1,0.8
			c-0.3,1-0.4,2.9,0.1,3.2c3,1.8,4.3,5.8,8.5,6c2.6,0.1,6.1-1,7.4-3.3c0.3-0.5,0.3-1.3,0.1-1.9c-0.1-0.3-1.1-0.5-1.5-0.3
			c-3.5,1.9-4.5-0.2-5.4-3.1c-0.4-1.2-1.7-2.1-2.7-3.2c-0.6,0.6-1.2,1.4-1.9,1.7C181.5,148.3,180.6,148.3,179.8,148.4z M259.1,151.7
			c-0.7-0.4-1.3-1.1-1.9-1.7c-0.9,1-0.4,5.7-0.8,7c-0.9,2.9-3.8,1.2-7.3-0.7c-0.4-0.2-1.4,0.1-1.5,0.3c-0.2,0.6-0.2,1.4,0.1,1.9
			c1.3,2.2,4.8,3.4,7.4,3.3c4.2-0.2,5.6-2.3,8.5-4.1c0.5-0.3,0.3-4.1,0.1-5.1c-0.1-0.4-1.4-0.5-2.1-0.8c0,0.2-0.1,0.3-0.1,0.5
			C260.7,152.1,259.8,152.1,259.1,151.7z M285,286.1c1.3-0.6,2.8-1.1,4.1-1.9c2-1.1,3.9-2.4,5.8-3.7c1.9-1.3,3.6-2.7,5.4-4.1
			c-2-1.2-4-2.5-6.1-3.5c-2.7-1.3-4.2-0.9-4.6,2.1c-0.6,4-2.9,6.4-5.6,8.8c-0.4,0.4-0.6,1.1-0.8,1.7
			C283.7,285.7,284.2,285.8,285,286.1z M237.4,290.3c4.8-1.7,8.9-3,12.9-4.5c0.8-0.3,1.4-1.4,1.8-2.3c0.3-0.6,0.3-1.7,0-2
			c-0.6-0.4-1.8-0.8-2.3-0.5c-3.9,2.4-8.3,2-12.5,2.8c-1.7,0.3-3.9,1-3.3,3.1C234.4,288.2,236.3,289.2,237.4,290.3z M240.4,123.4
			c-1.7-1.7-3.3-3.3-5-5c-0.4-0.4-0.7-0.9-1.2-1c-4-0.9-10.9,3.1-12.1,7c-0.2,0.6,0.4,1.5,0.6,2.3c0.7-0.2,1.6-0.3,2.2-0.8
			c0.5-0.4,0.6-1.4,1.2-1.8c1.5-1.2,3.1-2.4,4.8-3.3c0.6-0.3,1.6,0.3,2.5,0.5c-0.2,0.7-0.3,1.4-0.6,2.1c-0.5,1.3-1.1,2.6-1.6,3.9
			c-0.2,0.5-0.1,1-0.2,1.5c0.5-0.1,1.2,0,1.6-0.3c2-1.8,3.8-4,6.9-3.8C239.6,124.7,239.8,124.1,240.4,123.4z M253.6,215.8
			c-0.6,0.4-1.8,0.9-2.6,1.8c-2,2.3-3.7,4.8-5.7,7c-1.3,1.5-1,2.8,0.5,3.5c0.8,0.4,2.3-0.1,3.1-0.7c2-1.4,3.8-3,5.6-4.6
			c0.9-0.8,1.9-1.8,2.5-2.9C258,218.1,256.5,215.9,253.6,215.8z M258.6,290.3c0.2,0.2,1,1.8,1.4,1.7c2.8-0.6,5.6-1.3,8.1-2.6
			c2.4-1.2-0.6-2.6-0.5-4c0-0.6,0.2-1.2,0.1-1.7c-0.1-0.5-0.4-1.2-0.7-1.3C263.4,281.4,258.7,285.3,258.6,290.3z M338.2,288.2
			c0-1.5-0.3-3-2.7-3.1c-3.8,0-6.9,1.2-6.9,3c0,2,3,7.2,4.3,7.3C335.1,295.7,337.9,292,338.2,288.2z M319.2,307.6
			c-0.6-0.8-1.5-2.7-3-3.8c-0.7-0.5-3.2,0.3-3.6,1.2c-1.1,2.3-1.6,4.9-2,7.4c-0.1,0.5,0.7,1.6,1.3,1.8
			C315.2,315.2,319.3,312,319.2,307.6z M261.2,203.9c-0.2-0.4-0.3-0.7-0.5-1.1c-1.2,0.5-2.9,0.8-3.4,1.7c-0.4,0.8,0.2,2.7,0.9,3.4
			c0.8,0.8,2.5,1.2,3.6,0.9c2.4-0.7,4.8-1.7,7-2.8c1.6-0.7,2.8-2.3,1.3-3.7c-1.3-1.2-3-2.9-5.1-0.5
			C264.1,202.9,262.5,203.2,261.2,203.9z M331.8,274.4c0.2-1.8-0.7-2.8-2.7-2.8c-3.1,0.1-5.6,1.8-5.4,3.7c0.1,2,2.4,4.4,4.1,4.5
			C329.7,279.8,331.8,277.2,331.8,274.4z M255.6,190.8c-3.1,0.6-6,1.3-7.1,4.8c-0.2,0.5-0.3,1-0.5,1.5c0.4-0.2,0.9-0.5,1.3-0.6
			c0.7-0.2,1.7-0.6,2.1-0.3c3.7,2.3,5.2,1.7,6.2-2.6C258.1,191.6,257.4,190.8,255.6,190.8z M252.9,260.7c-1.2-0.3-2.4-1-3.2-0.6
			c-2.1,0.9-4.1,2.2-5.8,3.6c-0.8,0.6-1.2,1.9-1.3,3c0,0.4,1.6,1.6,1.8,1.4c2.6-1.7,5.2-3.6,7.7-5.5
			C252.4,262.4,252.4,261.8,252.9,260.7z M341.3,246.8c-0.7-1.8-1.2-3.5-2-5c-0.4-0.7-1.7-1.4-2.4-1.3c-0.8,0.1-2,1.4-1.9,2
			c0.4,2,1.1,4,2.1,5.8c0.3,0.6,1.9,1,2.6,0.8C340.4,248.9,340.7,247.7,341.3,246.8z M234.7,266.8c-3,0.2-5.2,0.1-7.3,0.6
			c-1.1,0.3-2,1.5-3,2.4c-0.1,0.1,0.3,1.1,0.4,1.1c3.3-0.4,6.5-0.8,9.7-1.4c0.5-0.1,0.9-1.2,1.3-1.9
			C235.2,267.2,234.6,266.8,234.7,266.8z M289.5,248.2c-1.5-2.3-2.8-4.3-4.3-6.2c-0.2-0.3-1.3-0.4-1.5-0.1c-0.4,0.4-0.9,1.3-0.8,1.8
			c0.6,1.9,1.3,3.7,2.2,5.5c0.4,0.8,1.2,1.4,1.8,2C287.7,250.3,288.5,249.4,289.5,248.2z M181.5,256.6c-1.1,1.5-2.3,2.3-2.5,3.4
			c-0.4,2.7,2,2.8,3.7,3c2.3,0.3,3.3-1.7,2.9-3.2C185.3,258.7,183.3,257.9,181.5,256.6z M181.5,272.2c1.9-0.6,2.9-1,4-1.3
			c0.5-0.2,1-0.4,1.4-0.5c-0.3-0.4-0.6-1.1-1-1.3c-2.5-1-5.1-1.9-7.6-2.7c-0.4-0.1-1.2,0.1-1.5,0.4c-0.3,0.3-0.3,1.2,0,1.5
			C178.4,269.7,180.1,271,181.5,272.2z M327.9,208.7c-2.4,1-3.4,2.2-2,3.5c1.5,1.5,3.7,2.2,5.7,3.2c0.1,0.1,1.4-1.7,1.3-1.9
			C331.3,211.9,329.6,210.3,327.9,208.7z M310.5,208.8c-0.1-0.4-0.1-0.7-0.3-0.9c-1.7-2.5-3.5-4.9-5.3-7.3c-0.3-0.3-1.3-0.6-1.5-0.4
			c-0.4,0.5-0.8,1.5-0.6,1.8c2.1,2.5,4.4,4.8,6.6,7.2C309.6,209.3,310.1,208.9,310.5,208.8z M264.8,246.7c0.3-0.2,0.6-0.4,0.9-0.6
			c0.6-0.4,1.1-0.9,1.7-1.2c1.5-0.8,3-1.5,4.4-2.3c0.7-0.5,1.3-1.2,2-1.8c-1-0.3-2.2-1.1-3-0.8c-2,0.7-3.8,1.8-5.6,3
			c-0.5,0.4-0.7,1.4-0.9,2.1C264.2,245.6,264.6,246.2,264.8,246.7z M268.1,271c-0.8-0.2-1.5-0.5-2-0.4c-1.7,0.4-3.3,0.9-4.9,1.5
			c-0.6,0.3-1,1.1-1.5,1.6c0.8,0.5,1.8,1.5,2.3,1.3c1.9-0.6,3.6-1.7,5.4-2.6C267.6,272.2,267.7,271.6,268.1,271z M311.6,358.6
			c-0.3-0.1-0.9-0.7-1.1-0.6c-2.3,1.4-4.5,2.9-6.7,4.5c-0.1,0.1,0.2,1.2,0.5,1.3C305.9,364.6,311.6,360.7,311.6,358.6z M344,285.5
			c0.2,0.1,0.3,0.1,0.5,0.2c0,0.4-0.1,0.9,0,1.3c0.3,0.7,0.7,1.4,1.1,2.1c0.6-0.6,1.2-1.1,1.7-1.8c0.2-0.3,0.3-0.8,0.3-1.2
			c-0.2-1.5-0.4-3.1-0.7-4.6c0-0.1-1.1-0.2-1.1-0.1C345.1,282.7,344.6,284.1,344,285.5z M277.9,226.2c-0.4,1.7-0.9,2.6-0.7,3
			c1.4,2,2.9,3.8,4.4,5.7c0.4,0.5,1.2,0.8,1.8,1.1c-0.2-1-0.2-2.7-0.6-2.8c-2-0.4-2.3-1.8-2.7-3.4
			C279.9,228.8,279.1,228,277.9,226.2z M286.8,165c0.4-0.3,1.2-0.6,1.8-1.3c0.4-0.5,0.4-1.3,0.5-2c-0.9,0.1-1.7,0.2-2.6,0.2
			c-0.4,0-0.9-0.1-1.3,0c-1.2,0.2-2.5,0.4-3.7,0.6c1.3,0.7,2.6,1.4,3.8,2.1C285.6,164.7,285.9,164.7,286.8,165z M350,297.1
			c-0.8-1-1.4-1.9-2.1-2.7c-0.6,1-1.8,2-1.7,2.9c0.1,1.1,1.2,2.2,1.9,3.3C348.7,299.5,349.3,298.5,350,297.1z M330.1,251.8
			c0.2,0.1,0.3,0.1,0.5,0.2c0,0.6-0.2,1.2-0.1,1.7c0.1,0.6,0.5,1.2,0.8,1.7c0.5-0.4,1.1-0.8,1.5-1.3c0.3-0.4,0.5-1.1,0.4-1.6
			c-0.4-1.4-1-2.8-1.5-4.2C331.2,249.5,330.6,250.6,330.1,251.8z M294.7,249.4c-0.4,0-0.8,0-1.2,0c-0.4,0.9-1.2,1.8-1.1,2.6
			c0.2,1.4,1,2.7,1.5,4.1c0.7-1.3,1.6-2.6,1.9-4C296.1,251.2,295.2,250.2,294.7,249.4z M200.2,256.6c-0.3-1-0.7-2-1-3
			c-0.6,0.9-1.2,1.7-1.6,2.7c-0.3,0.6-0.7,1.3-0.7,2c0,0.7,0.4,1.4,0.7,2.1c0.7-0.4,1.6-0.7,2-1.3
			C199.9,258.5,199.9,257.6,200.2,256.6z M214.6,117.4c-1.4-0.8-2.2-1.7-3-1.7c-0.7,0-2,1.3-1.9,1.4c0.6,1.1,1.4,2,2.2,3
			C212.6,119.5,213.3,118.7,214.6,117.4z M291.3,258.7c-0.1,0.2-0.6,0.7-0.5,0.9c0.8,2.2,1.8,4.3,2.7,6.5c0.5-0.4,1.5-1,1.4-1.1
			c-0.7-2-1.6-3.9-2.4-5.8C292.3,259.1,292,259,291.3,258.7z M297,198c0.9-1,1.8-1.8,1.7-1.9c-1.1-1.4-2.4-2.7-3.7-3.9
			c0,0-1.3,1-1.2,1.1C294.7,194.8,295.7,196.2,297,198z M242.7,217.3c-0.8,0.2-1.3,0.2-1.6,0.4c-0.9,0.9-2.6,2.2-2.4,2.7
			c0.9,2.8,1.7-0.5,2.6-0.3c0.4,0.1,0.9,0.1,1.2,0c0.6-0.3,1-0.8,1.6-1.3C243.6,218.3,243.1,217.7,242.7,217.3z M307.3,271.3
			c-2-1.5-2.7-2.5-3.5-2.6c-0.6-0.1-1.4,0.9-2.1,1.4c0.9,0.8,1.6,1.9,2.7,2.4C304.8,272.7,305.8,271.9,307.3,271.3z M221.5,144.5
			c-1,0.5-1.8,0.8-2.6,1.2c1.1,0.6,2.2,1.4,3.3,1.6c0.7,0.1,1.6-0.6,2.4-0.9C223.7,145.8,222.7,145.3,221.5,144.5z M287.4,192.8
			c1-0.5,1.7-0.8,2.3-1.2c-0.6-0.5-1.2-1.2-1.9-1.3c-1.5-0.3-3-0.2-4.5-0.3c0,0.3-0.1,0.7,0,0.8C284.7,191.5,286,192.1,287.4,192.8z
			 M306.5,228.7c1-0.7,1.6-1.1,2.3-1.5c-0.8-0.7-1.6-1.6-2.6-2.1c-0.2-0.1-1.6,1.2-1.5,1.6C304.9,227.4,305.8,228,306.5,228.7z
			 M270.4,236.7c0.6-1.3,1.2-2,1.3-2.9c0.1-0.4-0.8-0.8-1.2-1.3c-0.5,0.7-1.2,1.4-1.5,2.2C268.9,235,269.7,235.7,270.4,236.7z
			 M235.7,315.5c-0.8,0.7-1.4,1.2-2,1.7c0.8,0.3,1.6,0.9,2.5,0.9c0.5,0,1.1-0.6,1.6-1C237.2,316.7,236.6,316.2,235.7,315.5z
			 M324.2,264.7c-1-0.5-1.4-0.9-1.8-0.9c-0.9,0.1-1.8,0.3-2.8,0.5c0.6,0.5,1.1,1.4,1.8,1.5C322.1,265.9,322.9,265.3,324.2,264.7z
			 M266.5,193.6c-0.8-1-1.4-1.9-1.6-1.8c-0.8,0.4-1.6,0.9-2.2,1.6c-0.1,0.1,0.7,1.4,1,1.4C264.5,194.7,265.3,194.2,266.5,193.6z
			 M202.7,122c-0.3-0.2-0.7-0.4-1-0.6c-0.2,0.5-0.6,1.2-0.5,1.6c0.4,0.9,1,1.7,1.6,2.5c0.4-0.4,1.1-0.8,1-1.1
			C203.6,123.6,203.1,122.8,202.7,122z M206.1,132.3c0.7-1,1.4-1.6,1.5-2.2c0.1-0.4-0.8-1.5-0.9-1.4c-0.7,0.2-1.7,0.7-1.8,1.2
			C204.8,130.4,205.6,131.2,206.1,132.3z M220.9,118.3c-0.6-0.7-1.1-1.6-1.4-1.6c-0.7,0.1-1.3,0.8-1.9,1.2c0.5,0.5,1,1.3,1.6,1.5
			C219.4,119.6,220.1,118.8,220.9,118.3z M267.4,213.1c-0.6,0.7-1.3,1.3-1.2,1.5c0.3,0.7,0.8,1.3,1.3,2c0.3-0.3,1-0.7,1-1
			C268.4,214.9,267.9,214.2,267.4,213.1z M189.2,162.7c0.6-0.6,1.1-1,1.2-1.4c0-0.3-0.6-1-0.9-0.9c-0.4,0-1,0.5-1.1,0.9
			C188.3,161.6,188.8,162.1,189.2,162.7z M292.6,160.5c-0.5,1.1-0.8,1.4-0.8,1.7c0.2,1.1,0.6,2.2,0.9,3.3c0.3-0.4,0.9-0.8,0.9-1.2
			C293.5,163.3,293.1,162.3,292.6,160.5z M347.7,302.6c-0.2,1-0.5,1.5-0.4,2c0.1,0.3,0.5,0.6,0.8,0.8c0.3-0.4,0.8-0.8,0.8-1.2
			C348.9,303.9,348.4,303.5,347.7,302.6z M201.2,117.1c-0.8-0.2-1.4-0.5-1.6-0.4c-0.4,0.2-0.6,0.8-0.9,1.2c0.4,0.2,0.9,0.7,1.2,0.6
			C200.3,118.4,200.6,117.8,201.2,117.1z M302.6,380.2c0.7,0.2,1.2,0.5,1.7,0.4c0.2,0,0.7-0.6,0.6-0.8c-0.1-0.4-0.5-0.8-0.7-1.1
			C304,378.9,303.7,379.1,302.6,380.2z M243.4,315.8c-0.6-0.5-0.9-0.9-1.2-0.9c-0.5,0-1,0.3-1.5,0.5c0.1,0.3,0.3,0.9,0.4,0.9
			C241.8,316.2,242.4,316.1,243.4,315.8z M303.5,209.4c-0.5-0.6-0.8-1-1.1-1.4c-0.3,0.3-0.9,0.6-0.9,1c0,0.4,0.4,0.9,0.7,1.3
			C302.6,210,303,209.8,303.5,209.4z M271.3,197.1c-0.5-0.5-0.7-1-0.9-1c-0.6,0-1.3,0.3-1.9,0.5c0.2,0.4,0.5,1,0.7,1
			C269.8,197.6,270.4,197.3,271.3,197.1z M274.2,257.8c-0.4,0-0.8-0.2-1.1-0.1c-0.1,0-0.2,0.5-0.3,0.7c0.3,0.1,0.7,0.2,1,0.3
			C273.9,258.7,274,258.2,274.2,257.8z M337.7,236.9c-0.3-0.5-0.6-0.8-0.8-1.1c-0.2,0.2-0.6,0.5-0.6,0.7c0,0.3,0.4,0.7,0.6,1
			C337.1,237.4,337.3,237.2,337.7,236.9z M281.2,206.1c0.5-0.3,0.9-0.5,1.1-0.8c0.1-0.2-0.3-0.8-0.5-0.8c-0.3,0-0.8,0.3-1,0.6
			C280.7,205.3,281,205.7,281.2,206.1z M281.3,181.8c-0.5-0.3-0.8-0.7-1.1-0.7c-0.3,0-0.6,0.5-0.9,0.7c0.3,0.3,0.6,0.7,0.8,0.7
			C280.5,182.5,280.8,182.1,281.3,181.8z M194.2,177.4c-0.2,0.4-0.4,0.7-0.5,1c0.4,0.2,0.7,0.5,1.1,0.5c0.2,0,0.4-0.5,0.6-0.8
			C195.1,177.9,194.7,177.7,194.2,177.4z M198,161.8c-0.4-0.1-0.7-0.3-0.8-0.2c-0.4,0.3-0.7,0.6-1,0.9c0.3,0,0.6,0.1,0.8,0
			C197.3,162.3,197.6,162.1,198,161.8z M209.5,147.1c-0.1-0.2-0.1-0.5-0.3-0.7c0-0.1-0.4-0.1-0.4,0c-0.1,0.2-0.1,0.4-0.1,0.7
			C209,147.1,209.2,147.1,209.5,147.1z M282.1,158.3c-0.2-0.3-0.5-0.5-0.7-0.8c-0.1,0.2-0.3,0.5-0.3,0.7c0,0.2,0.3,0.4,0.4,0.7
			C281.7,158.7,281.9,158.6,282.1,158.3z M176.9,157.9c-0.2,0.1-0.5,0.2-0.6,0.4c-0.1,0.2,0.1,0.4,0.2,0.7c0.3-0.2,0.6-0.3,0.9-0.5
			C177.2,158.2,177.1,158,176.9,157.9z M253.8,350.6c-0.1-0.2-0.1-0.5-0.3-0.7c0-0.1-0.4-0.1-0.4,0c-0.1,0.2-0.1,0.4-0.1,0.7
			C253.3,350.6,253.5,350.6,253.8,350.6z M313.3,212.5c-0.2,0.5-0.5,0.9-0.4,1.2c0.1,0.3,0.6,0.5,0.9,0.7c0.2-0.3,0.5-0.7,0.4-0.9
			C314.2,213.1,313.8,212.9,313.3,212.5z"/>
		<path class="st1" d="M215.7,327.7c1.1,4.5,2.6,9.1,5.3,12.9c1.6,2.2,2.1,4.1,1.6,6.8c-1.1,6,0.9,7.8,6.9,6.2
			c2.8-0.7,4,0.2,4.8,2.8c1.3,4.5,2.6,5.1,6.8,3.5c2.2-0.9,3.7-0.9,5.5,1.4c1.5,1.9,4.1,2.8,5,5.5c0.3,0.8,2.2,1.2,3.4,1.4
			c3.2,0.5,4.5,2.2,4.4,5.3c0,0.8,0,1.9,0.4,2.5c1.9,2.5,0.3,3.2-1.8,3.8c-3.1,0.9-5.6,0.1-8-1.9c-3.8-3.2-4.2-3-7.8,0.5
			c-1,0.9-2.5,1.6-3.9,1.7c-2.2,0.2-2.8,1.3-3,3.3c-0.4,3.4-1.3,3.6-4.1,1.6c-3.4-2.5-6.9-4.8-10.3-7.2c-2.7-1.8-5.6-2.7-9-2.3
			c-1.7,0.2-3.7-0.7-5.2-1.7c-5-3.5-9.8-7.1-14.5-10.9c-1.2-0.9-1.8-2.6-2.7-3.8c-1.3-1.8-0.9-4.8-4.4-5.3c-1.7-0.2-1.6-3.3,0.1-5.1
			c0.8-0.8,1.9-1.3,2.9-1.7c0.9-0.4,1.8-0.6,2.8-0.9c-1-0.7-1.9-1.6-3-2.2c-1.4-0.7-3.2-0.8-4.4-1.7c-1.2-1-2.9-3.2-2.5-3.9
			c1.5-2.7-0.6-2.6-1.9-3.4c-1.6-0.9-3.2-2-4.6-3.2c-0.4-0.4-0.8-1.6-0.5-1.9c0.4-0.5,1.4-1,2-0.9c3.4,0.5,6.9,1,10.3,1.8
			c1.9,0.5,3.7,1.8,2.5,4.2c-1.2,2.4,0.3,3.4,1.9,3.9c3.6,1.2,4.6,3.6,4.4,7c-0.1,0.8,0,1.8,0.5,2.5c3.2,4.9,5.8,10.2,10.6,14
			c4.9,3.8,9.1,8.5,14,12.3c2.5,2,5.9,2.9,8.9,4.2c0.2-0.5,0.7-1.3,0.5-1.6c-2.2-2.6-4.2-5.4-6.7-7.7c-4.8-4.3-9.9-8.3-14.8-12.4
			c-1.5-1.2-2.9-2.5-4.3-3.8c1.4-1.2,2.8-2.4,4.1-3.6c0.5-0.5,1-1.1,1.2-1.8c0.6-3.1,2.7-4.7,5.6-5.3c2.6-0.5,2.3-1.8,1-3.3
			c-2.4-2.6-3.4-5.6-3-9.1c0.3-2.2-1-3.4-3.1-4.1c-1.2-0.4-2.9-0.7-3.3-1.6c-1.4-2.8-2.5-2.7-4.9-0.9c-3.1,2.3-6.8,3-10.7,2.4
			c-5-0.7-10-1-14.9-2c-2.3-0.5-4.3-2.2-6.3-3.5c-0.4-0.3-0.5-1.4-0.3-2c0.2-0.4,1.2-0.6,1.8-0.4c5.1,1.4,10.2,2.8,15.3,4.3
			c2.2,0.7,5.9-1.6,6-4c0-0.3-1.3-1.1-1.9-1c-4.1,0.8-6.9-1.5-9.8-3.7c-0.6-0.4-0.8-1.4-1.2-2.2c0.8-0.4,1.6-1.2,2.5-1.2
			c1.2-0.1,2.6,0.2,3.8,0.6c2.4,0.8,4.7,1.7,7.1,2.5c0.3,0.1,1-0.1,1.1-0.3c0.2-0.6,0.4-1.6,0.1-2c-1.4-1.5-2.3-3.2,0.2-4
			c1-0.3,2.7,1.4,3.9,2.3c0.8,0.6,1.3,1.6,1.9,2.4c0.5-1,1.2-1.9,1.6-2.9c0.8-2.2,2.1-3.8,3.8-5.5c1.8-1.8,2.2-5.1,2.9-7.8
			c0.3-1.4-0.3-3.3,2-2.8c0.6,0.2,1.3,2.4,1.1,3.5c-0.3,1.6-1.5,3.1-2.2,4.7c-0.4,1-0.6,2.1-0.7,3.2c0,0.4,0.6,0.9,0.9,1.4
			c0.3-0.4,0.6-0.7,1-1.1c0.5-0.6,1-1.2,1.5-1.9c0.6,0.7,1.5,1.4,1.6,2.2c1.2,7.4,2.2,14.8,3.2,22.2
			C216.3,327.5,216,327.6,215.7,327.7z M209.7,320.5c-0.2,0.5-0.5,1-0.6,1.6c-0.1,0.5,0.1,1,0.2,1.4c0.2-0.4,0.6-0.8,0.7-1.3
			C210,321.6,209.8,321.1,209.7,320.5c-0.2-0.3-0.2-0.9-0.5-1.1c-0.4-0.3-0.9-0.5-1.4-0.7c0.1,0.5,0,1.1,0.3,1.4
			C208.5,320.3,209.2,320.3,209.7,320.5z M199,314.1c-0.5,1.5-0.8,2.2-0.9,2.9c0,0.4,0.5,0.9,0.8,1.3c0.4-0.6,1.1-1.2,1.2-1.8
			C200.3,316,199.7,315.4,199,314.1z M241.5,370.1c0.5-1,1-1.8,1.2-2.7c0-0.1-0.7-0.5-1.1-0.8c-0.4,0.8-0.8,1.6-1.1,2.5
			C240.4,369.2,240.9,369.6,241.5,370.1z"/>
		<path class="st1" d="M355.9,425.4c-0.9-0.3-2.4-0.6-3.5-1.4c-2.8-2.4-5.8-2.6-8.9-1c-2.2,1.1-4,1-6-0.6c-3.6-2.8-7.9-2.6-12.1-2.5
			c-6.5,0.1-11.9-2.2-16-7.2c-0.7-0.8-1.3-2.9-0.9-3.2c0.9-0.8,2.8-1.7,3.7-1.3c2.9,1.5,4.8,1,6.6-1.6c0.6-0.8,2.3-1.1,3.5-1.1
			c6.5,0.4,10.4-3,13.6-8.3c2.7-4.4,5.8-8.6,9-12.7c1.8-2.3,4-2.2,5.8,0.2c1.7,2.3,3.4,4.8,4.2,7.5c0.8,2.7,2.3,4.5,4.1,6.4
			c2.3,2.3,3.7,4.9,4,8.4c0.2,2,1.9,4.1,3.2,5.9c1.2,1.7,3.4,2.8,2.2,5.6c-1.1,2.8-2.5,5.3-5.7,6
			C360.8,424.9,358.6,425.1,355.9,425.4z"/>
		<path class="st1" d="M267.8,396.6c-1.3,6.4-2.3,12.1-3.7,17.7c-2.2,8.8-2.5,17.7-1.7,26.7c0.5,5,0.5,4.9,5.4,6.7
			c0.8,0.3,1.7,2.1,1.5,2.9c-1.1,5-2.9,9.7-6.3,13.6c-1.3,1.4-2.5,2-4.5,1c-2.9-1.5-4.5-1.1-5.4,1.7c-1.6,5-5.1,6-9.7,6.2
			c-6.2,0.3-12.4,0.9-18.5,1.6c-5.8,0.7-6.3,0.5-7.6-5c-0.3-1.3-1.4-2.4-2-3.7c-0.4-0.7-0.9-1.9-0.6-2.3c0.5-0.6,1.8-1.3,2.5-1.1
			c3.4,1.2,6.1,0.5,8.8-1.7c0.7-0.6,2.6-0.4,3.6,0.1c3.3,1.9,6.2,2.3,9-0.7c0.4-0.4,1-0.8,1.5-0.8c4.7,0.4,8.3-2,11.7-4.7
			c0.8-0.6,1.9-1.3,2.7-1.2c3.7,0.6,3.6-1.8,3-4c-1.9-7-0.5-14.1-1.2-21.1c-1.1-10.9,0.4-22-2.9-32.6c-0.6-2.1-1-4.2-1.2-6.4
			c-0.2-2.4,0.9-3.3,3.2-2.3c3.2,1.5,6.5,3,9.4,4.9C266.1,393.4,266.9,395.4,267.8,396.6z"/>
		<path class="st1" d="M337.4,462.7c-2-0.2-4.7-1.4-5.8-0.5c-2.9,2.3-6.1,1.1-9,2c-1.8,0.6-3.5,0.5-4.1-1.8
			c-0.1-0.3-0.2-0.6-0.5-0.7c-1.5-0.9-2.9-3.4-4.7-1.6c-1.5,1.5-0.1,3,1.4,4.3c0.6,0.4,1,2,0.6,2.5c-0.9,1.2-2.2,2.8-3.3,2.9
			c-1.6,0.1-3.9-0.7-4.9-1.9c-1.5-1.9-2.8-1.8-4.5-1c-4.8,2.1-9.6,3.9-15,3.5c-0.5,0-1.1,0.6-1.4,1.2c-0.1,0.2,0.5,1.1,0.9,1.2
			c1.1,0.4,2.3,0.4,3.4,0.8c1.5,0.6,5.1-0.2,2.9,3.5c0.6,0.3,1.4,1,1.9,0.8c0.9-0.3,1.7-1.1,2.4-1.8c1.3-1.3,2.3-1.6,3.2,0.4
			c0.9,2.2,1.5,1.3,2.4-0.1c3.5-5.4,8.3-5,11.2,0.9c0.3,0.6,0.1,1.3,0.2,2c-0.7,0-1.4,0.2-2-0.1c-1.1-0.4-2-1.4-3.1-1.4
			c-0.9,0-1.9,0.9-2.9,1.4c0.5,0.9,0.8,1.9,1.4,2.7c0.5,0.7,1.3,1.2,2,1.8c-1,0.5-1.9,1.4-2.9,1.5c-5.1,0.7-10.3,1.1-15.5,1.7
			c-4.1,0.5-4.8,1.2-5.8,5.2c-1.1,4.8-5.7,6.8-10.2,4.3c-0.5-0.3-1-1.3-0.9-1.6c1.4-2.5,2.5-5.3,4.6-7.2c2.6-2.4,3.7-4.2,1.5-6.8
			c-1.9-2.2-2-3.9-0.7-6.5c0.8-1.7,0.1-4.2,0.2-6.3c0-0.6,0.4-1.3,0.6-1.9c0.4,0.3,0.9,0.6,1.3,0.8c0.7,0.3,1.4,0.6,2.1,1
			c0.2-0.9,0.7-1.9,0.5-2.7c-0.3-1.2-1.2-2.3-1.5-3.6c-0.2-1,0.1-2.2,0.2-3.3c1,0.1,2.1,0.1,3.1,0.4c0.8,0.2,1.5,0.8,2.3,1.2
			c3.9,2,4.8,1.8,6.8-2c1.8-3.3,5.2-4.3,8.1-3.8c7.2,1.1,13.9-1.9,20.8-2.2c4-0.2,8-0.9,11.9-0.7c3.8,0.3,7.6,1.4,11.3,2.3
			c2,0.5,3,1.9,0.6,3.2C345.1,458.8,342.7,463.6,337.4,462.7z M310.2,463.2c-0.3,0.6-0.5,0.9-0.5,1.2c0,0.2,0.2,0.4,0.3,0.7
			c0.3-0.2,0.7-0.4,0.7-0.7C310.7,464.1,310.4,463.8,310.2,463.2z M288.5,478.8c0.3,0.3,0.5,0.6,0.6,0.6c0.3-0.1,0.6-0.3,0.9-0.4
			c-0.2-0.2-0.3-0.5-0.5-0.5C289.2,478.6,288.9,478.7,288.5,478.8z"/>
		<path class="st1" d="M246,490.6c-0.8,0-1.1,0.1-1.4,0c-1.4-0.5-2.7-0.9-4.1-1.4c1.2-0.6,2.4-1.2,3.7-1.7c1.5-0.6,3.4-0.6,4.3-1.6
			c2.7-3,6.3-3.9,9.8-4.9c2.5-0.8,4.3-2.2,4.7-5c0.2-1.1,0.8-2.2,1.5-3.1c1.5-1.8,3.2-1.6,4,0.5c1.1,3.3,1.9,6.6,2.5,10
			c0.4,2.4-0.9,3.9-3.3,4.3C260.4,488.7,252.9,489.7,246,490.6z"/>
		<path class="st1" d="M175,298.7c-0.4,0.8-0.9,1.5-1.3,2.3c-0.6-0.5-1.5-0.9-1.9-1.5c-1.1-2.2-2.1-4.4-2.9-6.7
			c-0.1-0.3,0.5-1.1,0.9-1.2c0.5-0.2,1.1,0,1.7,0.1c6.6,1.1,13.2,2.3,19.8,3.5c0.7,0.1,1.8,0.8,1.9,1.3c0.1,1-0.1,2.5-0.8,3
			c-2.4,1.8-5.3,2.5-8.1,1.3c-2.5-1.1-4.8-2.6-7.2-3.9c-0.7-0.4-1.5-0.7-2.2-1.1c-0.2,0.9-0.4,1.7-0.7,2.6
			C174.5,298.5,174.8,298.6,175,298.7z"/>
		<path class="st1" d="M155.4,230c0.4-0.8,0.6-1.8,1.2-2.2c0.3-0.2,1.3,0.3,1.9,0.6c0.5,0.3,1.1,0.6,1.3,1.1c1,3,2.9,5,5.9,6.4
			c2,0.9,1.6,4-0.4,4.8c-0.8,0.3-2.4,0.1-3-0.5c-2.1-2.3-4-4.9-5.8-7.4C155.9,232,155.7,231,155.4,230z"/>
		<path class="st1" d="M191.2,224.5c-0.1,2.4-0.8,4.4-3.5,4.6c-2.1,0.2-3.7-1.6-3.7-3.9c0-2.4,2-5.5,3.5-5.3
			C189.4,220.1,191.2,222.3,191.2,224.5z"/>
		<path class="st1" d="M194.1,238.8c-2,1-3.1,1.9-4.1,2c-1.6,0.1-3.3-0.4-5-0.7c-1.6-0.2-3-2.5-2-3.4c1.6-1.2,3.8-2.7,5.5-2.5
			C190.3,234.5,191.7,236.7,194.1,238.8z"/>
		<path class="st1" d="M199.5,283.9c1.9-1.8,3.3-3.1,4.6-4.3c1.4,1.6,3.2,3.1,4,5c0.6,1.4-2.6,3.9-4.6,3.3
			C202.1,287.5,201.2,285.7,199.5,283.9z"/>
		<path class="st1" d="M168.2,307.4c-1-0.5-2.1-0.8-2.6-1.5c-0.7-1-0.9-2.3-1.3-3.4c1.2,0.1,2.4,0.1,3.5,0.4
			c0.6,0.2,1.1,0.9,1.6,1.4c0.5,0.6,1,1.2,1.5,1.8C170.1,306.5,169.2,306.9,168.2,307.4z"/>
		<path class="st1" d="M179.4,198.3c-1,0.4-1.5,0.6-2,0.8c-2,1.1-3.9,2.2-5.9,3.2c-0.4,0.2-1,0.2-1.5,0.3c0-0.3,0-0.6,0-0.8
			c0.8-2.2,4.9-4.7,7.3-4.4C177.9,197.5,178.4,197.8,179.4,198.3z"/>
		<path class="st1" d="M241.3,485.4c-0.5,0.1-1.3,0.6-2.1,0.5c-0.9-0.1-1.8-0.7-2.7-1.1c-0.6-0.3-1.2-0.7-1.8-1.1
			c0.7-0.5,1.3-1.2,2-1.3C239.5,481.8,241.5,482.9,241.3,485.4z"/>
		<path class="st1" d="M157.4,275c1.4,1.9,2.5,2.9,2.8,4c0.2,0.6-1.1,1.6-1.8,2.4c-0.7-1-1.6-1.9-2-3
			C156.2,277.8,156.8,276.8,157.4,275z"/>
		<path class="st1" d="M160.5,289.3c1.1,2.7,1.8,4.5,2.6,6.4c-0.4,0.1-1,0.5-1.1,0.4c-1.1-1.4-2.2-2.8-3.2-4.3
			C158.7,291.5,159.5,290.7,160.5,289.3z"/>
		<path class="st1" d="M165.9,263c1.7,1.6,2.6,2.4,3.4,3.2c-0.7,0.4-1.5,1.2-2.1,1.1c-1-0.3-1.9-1-2.5-1.8
			C164.5,265.2,165.4,264.1,165.9,263z"/>
		<path class="st1" d="M224.3,318.8c-1.1-0.6-2-1.2-2.8-1.7c1-0.4,2-1.2,2.9-1.1c0.7,0,1.3,1.2,1.9,1.8
			C225.7,318.1,225.1,318.5,224.3,318.8z"/>
		<path class="st1" d="M289.9,413c-0.7,1.5-1.3,3-2,4.5c0.2-1.6,0.2-3.1,0.5-4.7c0.1-0.5,0.7-1,1-1.5
			C289.6,411.9,289.7,412.4,289.9,413z"/>
		<path class="st1" d="M178.4,231.9c-0.7,1-1.3,1.9-1.9,2.8c-0.4-0.5-1.1-1.2-1-1.4c0.5-1,1.2-1.9,1.9-2.9
			C177.7,230.9,178,231.3,178.4,231.9z"/>
		<path class="st1" d="M229.9,297.5c0.4,1,0.9,1.8,0.8,2.5c-0.1,0.6-1.1,1.3-1.7,1.3c-0.6,0-1.2-0.9-1.8-1.4
			C227.7,299.5,228.2,299,229.9,297.5z"/>
		<path class="st1" d="M162.6,206.4c0.3-1.4,0.4-2.8,0.8-4.1c0.1-0.4,1.1-0.7,1.7-0.8c0.3,0,0.9,0.5,0.8,0.7c-0.1,0.5-0.4,1-0.8,1.4
			c-0.9,0.9-1.8,1.8-2.7,2.7L162.6,206.4z"/>
		<path class="st1" d="M314.5,485.5c-0.7-0.6-1.2-1-1.7-1.4c0.5-0.4,0.9-1.2,1.4-1.2c0.5,0,1.1,0.7,1.4,1.2
			C315.6,484.3,315,484.9,314.5,485.5z"/>
		<path class="st1" d="M285.6,427.3c-0.1,0.2-0.2,0.5-0.3,0.7c-0.2-0.1-0.5-0.2-0.6-0.4c0-0.2,0.2-0.5,0.3-0.7
			C285.2,427,285.4,427.1,285.6,427.3z"/>
		<path class="st1" d="M161.7,178c0.5-0.2,0.9-0.5,1.2-0.5c0.2,0,0.4,0.5,0.4,0.8c0,0.1-0.4,0.5-0.6,0.4
			C162.4,178.7,162.2,178.4,161.7,178z"/>
	</g>
</g>
</svg>
