<?xml version="1.0" encoding="utf-8"?>
<!-- Generator: Adobe Illustrator 19.1.0, SVG Export Plug-In . SVG Version: 6.00 Build 0)  -->
<!DOCTYPE svg PUBLIC "-//W3C//DTD SVG 1.1//EN" "http://www.w3.org/Graphics/SVG/1.1/DTD/svg11.dtd">
<svg version="1.1" id="Layer_1" xmlns="http://www.w3.org/2000/svg" xmlns:xlink="http://www.w3.org/1999/xlink" x="0px" y="0px"
	 viewBox="0 0 465.7 343.2" style="enable-background:new 0 0 465.7 343.2;" xml:space="preserve">
<style type="text/css">
	.st0{fill:#E4E2DE;}
	.st1{fill:#292928;}
</style>
<g>
	<g>
		<circle class="st0" cx="232.8" cy="133.8" r="88"/>
		<g>
			<path class="st1" d="M183,100.1c-1.4,1.6,0,3.1,0.3,4.7c0.1,0.3,0.8,0.5,1.1,0.5c0.3,0,0.5-0.7,0.6-1c0.1-0.3-0.2-0.6-0.2-0.9
				c0-0.2,0.2-0.4,0.3-0.6c0.1,0.1,0.3,0.2,0.4,0.4c1.5,2.6,2.3,2.5,4.1,0.1c1.2-1.6,2.4-3.4,4-4.3c1.2-0.7,3.1-0.1,4.7-0.2
				c0.6,0,1.2,0,1.6-0.2c0.5-0.3,0.6-0.8-0.3-1.1c-0.6-0.2-1-0.7-1.5-1c-1.8-1.2-3.6-2.5-5.5-3.6c-0.3-0.2-1.2,0.5-1.8,0.8
				c-0.4,0.2-1.1,0.6-1.2,0.5c-0.6-0.5-1-1.1-1.4-1.7c0.4-0.3,0.8-0.7,1.3-0.8c0.9-0.2,1.8-0.1,2.7-0.2c0.3,0,0.6-0.4,0.9-0.6
				c-0.2-0.1-0.4-0.3-0.7-0.4c-2.1-0.7-4.3-1.4-6.5-2.1c-1.3-0.4-1.4-1.2-0.9-2.3c0.2-0.4,0.2-0.9,0.4-1.4c-0.7-0.2-1.4-0.4-2.1-0.5
				c-0.4,0-0.8,0.5-1.2,0.6c-0.3,0.1-0.9-0.1-1-0.2c-0.5-1.9-2.5-3.3-1.7-5.6c0.7-2.2,1-4.6,1.4-6.9c0.1-0.8,0.1-1.9-0.3-2.6
				c-5.4-9.6-8.5-19.9-8.8-30.9c-0.1-4.9,2.4-8.7,6.9-10.5c3.8-1.6,7.8-2,11.9-2.1c2.4-0.1,4.7-0.1,7.1-0.1c2.2,0.1,3.8-0.9,5-2.6
				c0.7-1.1,1.3-2.2,1.9-3.4c2.5-5,4.9-9.9,7.5-14.9c0.4-0.7,1.1-1.4,1.8-1.7c7-2.5,14.2-4.1,21.6-2.2c7.2,1.9,14.4,4.4,20.3,9.2
				c4.4,3.6,8,8.2,10.2,13.6c1.9,4.7,4.1,9.2,4.6,14.3c0.2,2,0,3.8-0.7,5.6c-1.5,3.3-2.8,6.7-4.2,10.1c-0.9,2.1-0.6,4,0.7,5.9
				c2.9,4.2,5.2,8.7,6.1,13.7c1.3,7.2,0.1,13.7-5.9,18.3c-0.2,0.1-0.4,0.3-0.5,0.4c-1.7,1.4-1.7,2,0.1,3.3c2.7,1.9,5.4,3.8,8.1,5.8
				c2.7,2,4.5,4.7,6,7.7c0.2,0.4,0.1,1.1,0,1.7c-0.2,1.3-0.5,2.6-0.6,3.9c0,0.9,0.3,1.8-0.8,2.3c-0.3,0.2-0.6,0.9-0.6,1.3
				c0.2,2,0.5,3.9,1,5.8c0.3,1.2,0.7,2.2,0,3.6c-0.7,1.3-1.1,2.9-1.5,4.3c-0.3,1.1,0.7,2.9,1.6,4.1c0.6,0.8,1-0.2,1.1-0.8
				c0.3-1.7,0.4-3.5,0.6-5.2c0-0.3,0.1-0.6,0.1-0.8c0.2,0.2,0.5,0.4,0.6,0.6c1,1.7,2.1,3.1,1.2,5.5c-0.7,1.8,0.6,3.7,2.1,4.7
				c1.6,1.1,2,2.4,1.6,4.1c-0.4,1.9-1,3.8-1.4,5.8c-0.4,1.5-0.6,3,1.1,4c0.2,0.1,0.3,0.5,0.5,0.7c-0.2,0.1-0.5,0.3-0.7,0.3
				c-1.8,0.1-2.4,0.9-2.1,2.8c0.4,2.6,0.9,5.3,1.3,7.9c0.2,1.2-0.3,2.2-1,3.3c-0.9,1.6-1.1,3.7-1.6,5.6c-0.3,1.2-0.5,2.5-0.8,3.7
				c-0.5-1.1-0.9-2.2-1.4-3.3c-0.4-0.8-0.8-1.7-1.4-2.3c-0.5-0.6-1.2-0.9-1.8-1.3c0.1,0.6,0.4,1.2,0.4,1.8c0.1,2.9,0.2,5.8,0.4,8.7
				c0.1,1.7,0.4,3.4,0.4,5.1c0,0.6-0.4,1.7-0.8,1.8c-2.8,0.7-3.7,3.3-5.2,5.2c-1,1.2-1.7,2.3-3.5,1.5c-0.4-0.2-1.3,0.3-1.7,0.7
				c-1.3,1-2.4,2.1-3.6,3.1c-1.7,1.4-3.3,1.6-5.2,0.4c-0.9-0.6-1.6-0.4-2.2,0.2c-0.7,0.6-1.3,1.4-2.1,1.8c-0.5,0.3-1.5,0.5-1.8,0.2
				c-1.7-1.5-3.3-0.3-4.3,0.5c-1.4,1.1-2.1,0.9-2.9-0.3c-0.2-0.2-0.5-0.4-0.6-0.7c-0.4-0.7-0.7-1.5-1-2.2c0.8-0.3,1.7-0.8,2.5-0.7
				c1.3,0.1,1.8,0.1,1.6-1.5c-0.1-0.9,0.6-2,1.2-2.7c0.7-0.8,0.7-1-0.4-1.3c-0.5-0.1-1-0.6-1.4-1.1c-0.8-0.8-1.5-1.4-2.8-1.2
				c-0.5,0.1-1.2-0.6-1.7-1c-0.8-0.6-1.5-1.4-2.4-1.9c-1.3-0.7-2.8-0.9-4-1.7c-1-0.6-2-1.5-2.7-2.5c-1.6-2.3-4.3-3-6.6-3.6
				c-3.5-0.8-5.7-3.2-8.1-5.3c-0.9-0.8-0.6-1.7,0.7-2.2c2.2-1,2.5-2.9,0.6-4.5c-0.4-0.3-0.8-0.7-1.2-1.1c-1.2-1.3-1.2-1.3,0.4-1.8
				c1.7-0.5,2.3-1.8,1.1-3c-1.6-1.7-1-3.5-0.8-5.3c0.2-2,1.5-2.4,3.5-2.2c1.5,0.1,3.2-0.3,4.7-0.7c1-0.3,0.7-1.1,0.1-1.6
				c-0.5-0.3-1.1-0.4-1.7-0.5c-1.6-0.2-2.5-0.9-2.6-2.6c0-0.5-0.7-1.2-1.2-1.3c-1-0.3-2.2-0.6-3.1-0.4c-1.7,0.4-3.1-0.3-4.6-0.7
				c-1.1-0.3-1.7-0.8-1.5-1.9c0.2-1.1,1-1.7,2-1.4c1.2,0.4,2.1-0.2,2.9-0.8c0.4-0.3,0.6-1.2,0.4-1.6c-0.2-0.4-0.9-0.8-1.4-0.9
				c-0.3,0-1,0.6-1.1,0.9c-0.2,1.7-0.8,1.7-2,0.8c-0.4-0.3-1.2-0.6-1.7-0.5c-1.7,0.4-2.9-0.5-4.2-1.3c-1.1-0.7-0.7-1.2,0.1-1.6
				c1.5-0.8,3-1.5,4.5-2.3c0.3-0.2,0.6-0.4,0.9-0.7c-0.3-0.2-0.6-0.4-0.9-0.6c-1.6-0.6-0.7-1.7-0.6-2.7c0.1-0.7,1.4-1.4-0.1-2
				c-1.7-0.8-2.8-0.6-3.6,0.5c-0.4,0.5-0.9,1.1-1.4,1.3c-0.9,0.3-1.1,0.9-1.2,1.7c0,1.2-0.5,1.7-1.7,2.3c-1.2,0.5-2,2-2.8,3.1
				c-0.2,0.3-0.1,1.1,0.2,1.3c1.1,0.9,0.7,1.9,0.3,2.9c-0.3,0.6-0.7,1.2-1,1.8c-0.5,1.2-1.1,1.3-2,0.3c0-0.1-0.1-0.1-0.2-0.1
				c-2.8-0.9-5.9-1.2-8.4-3.2c-0.2-0.2-1,0.3-1.5,0.4c-0.8,0.1-1.6,0.1-2.4,0c-0.4-0.1-0.7-0.5-1-0.8c0.3-0.2,0.6-0.6,1-0.7
				c1.3-0.3,0.4-0.9,0.1-1.3c-1.1-1.4-2.3-2.7-3.3-4c-0.4-0.5-0.7-1.1-0.6-1.7c0-0.4,0.6-1,1-1.1c1.2,0,2.2,0.4,2.8,1.6
				c1.3,2.6,3.7,4,6.2,5.2c0.1,0.1,0.3,0.2,0.4,0.1c0.9-0.2,1.9-0.4,2.8-0.6c-0.4-0.7-0.6-1.6-1.2-2.1c-0.9-0.8-2-1.7-3.2-2.1
				c-1.2-0.5-1.8-1.2-2-2.3c-0.5-3-2.5-4.6-5.2-5.4c-0.3-0.1-1,0.4-1.2,0.8c-0.3,0.4-0.2,1.6-1,0.9c-0.8-0.6-2.8,0.5-2.5-1.7
				c0.2-1.3,0.2-2.6,0.3-3.9c0-0.8,0.3-1.3,1.1-0.6c1.2,1,1,0.2,1.3-0.7c0.2-0.6,0.8-1.1,1.2-1.6c0.4,0.4,0.9,0.8,1.3,1.3
				c0.3,0.3,0.6,1,0.8,1c1.7-0.2,2.1,0.8,2.6,2.1c0.3,1.1,3.5,1.6,4.4,0.9c0.7-0.6,0.7-2-0.1-2.6c-0.5-0.3-1.2-0.7-1.7-0.6
				c-2.3,0.5-3-1.1-3.8-2.6c-0.2-0.3-0.2-0.9-0.1-1.2c0.2-0.3,0.8-0.4,1.2-0.3c1.1,0,2.2,0.2,3.4,0.2c1.4,0,2.6,0.5,2.8,2
				c0.2,1,0.8,1.3,1.6,1.6c0.9,0.4,1.6,1.2,2.5,1.8c0.5,0.3,1,0.8,1.4,0.9c0.7,0,1.3-0.4,2-0.6c-0.5-0.4-1-0.9-1.6-1.3
				c-0.5-0.4-1.1-0.8-1.7-1.3c0.7-0.8,1.4-1.7,2.3-2.4c0.1-0.1,1.3,0.7,1.5,1.3c0.3,0.9,0.7,0.9,1.5,0.8c1.1-0.2,2.2-0.4,3.4-0.4
				c0.3,0,0.7,0.4,1.1,0.6c-0.3,0.2-0.5,0.4-0.8,0.7c-0.5,0.5-1.1,0.9-1.5,1.4c-0.5,0.8-1,1.8-1.1,2.7c-0.2,1.1-0.3,2.4,0,3.5
				c0.4,1.2,1.6,0.7,2,0.1c1.4-2.1,3.4-2.3,5.5-2.3c0.5,0,1.1-0.4,1.6-0.7c0.5-0.3,0.8-0.8,1.2-1.2c-0.5-0.1-1-0.2-1.5-0.2
				c-1.5-0.2-1.9-0.8-1.8-2.3c0.1-1.4,0.7-1.8,2.1-1.6c1.2,0.1,2.4-0.5,3.6-0.6c0.6,0,1.6,0.2,1.7,0.5c0.3,0.7,0.1,1.5,0,2.3
				c0,0.2-0.4,0.4-0.6,0.7c-0.8,1.2-0.4,2.1,1,2.3c2.2,0.3,4.2-0.4,6.1-1.5c1.6-0.9,3.2-1.7,4.7-2.7c1-0.7,2-1.6,2.7-2.5
				c0.2-0.3-0.2-1.3-0.6-1.7c-0.2-0.2-1,0.2-1.5,0.4c-0.9,0.5-1.7,1.1-2.6,1.6c-0.6,0.4-1.4,0.7-1.9,1.2c-1.3,1.2-2.9,1.6-4.6,1.6
				c-0.2,0-0.5-0.2-0.7-0.3c0.2-0.2,0.3-0.5,0.5-0.7c0-0.1,0.1-0.1,0.2-0.1c0.5-0.4,0.9-0.9,1.3-1.3c-0.6,0-1.3-0.1-1.9,0
				c-1.5,0.1-2.1-0.5-1.5-1.9c0.5-1,1.3-1.8,2-2.7c0.3-0.4,0.9-0.7,1.1-1.2c0.2-0.5,0.1-1.1,0.1-1.7c-0.5,0-1-0.1-1.4,0.1
				c-2.3,0.7-5.5-1.2-5.9-3.5c-0.2-0.9,0-1.6,1.1-1.8c0.7-0.1,1.4-0.3,2-0.6c1.2-0.6,1.9-1.6,1.3-3c-0.1-0.1-0.1-0.3-0.2-0.4
				c-0.2-0.9-0.1-2.2-0.7-2.7c-0.5-0.4-1.8,0.2-2.7,0.3c-0.3,0-0.6-0.1-0.9-0.2c0.2-0.2,0.3-0.5,0.5-0.7c1.4-1.1,2.9-1.8,4.9-1.4
				c0.8,0.2,1.9-0.2,2.8-0.5c0.3-0.1,0.5-0.7,0.7-1c-0.4-0.2-0.8-0.6-1.3-0.7c-0.4-0.1-0.9,0.1-1.3,0.4c-0.8,0.6-1.3,0.6-1.7-0.4
				c-0.4-1-1.1-1-2.1-0.5c-1.1,0.6-2.2,1-3.3,1.4c-2.5,0.8-3.8,3.9-2.4,6c0.5,0.8,0.5,1.2-0.2,1.9c-0.8,0.8-1.5,1.9-2,3
				c-0.8,1.7-2.4,1.6-3.6,1.3c-1.7-0.4-3.1,0-4.7,0.3c-0.7,0.1-1.7,0.4-1.7-0.8c0-0.9,0.3-1.7,1.4-1.7c0.1,0,0.2,0,0.2,0
				c1.2,0.2,2.4,0.3,3.6,0.5c-0.4-1.8,1.1-2,2.2-2.7c1.5-1,2.5-3.8,2.2-5.6c-0.1-0.6,0.3-1.3,0.6-1.9c0.2-0.5,0.7-1.1,0.6-1.6
				c-0.1-0.3-0.9-0.6-1.5-0.7c-1.6-0.3-3.4-0.2-3.9-2.4c-0.1-0.3-1.6-0.6-2.2-0.3c-1.4,0.6-1.6,3.2-0.5,4.3c0.7,0.7,1.5,1.3,2.2,2
				c0.8,0.8,0.6,1.6-0.4,2c-2.4,1.1-4.8,2.1-7.2,3.3c-1.2,0.6-2.3,0.5-3.3-0.3c-1-0.8-1.4-0.3-1.6,0.6c-0.2,1-0.3,2.1-0.4,3.1
				c0,0.3,0.2,0.8,0.4,0.8c1.9-0.1,0.9,1.1,0.7,1.7c-0.3,0.9-0.4,2-1.7,0.4c-1.7-2.1-4-2.1-5.4-0.4c-0.5,0.6-0.5,1.5-0.8,2.3
				c-0.1,0.3-0.1,0.5-0.2,0.8c-0.2-0.2-0.6-0.5-0.6-0.8c-0.1-0.4,0-0.9,0-1.4c-0.1-0.8-0.4-1.4-1.3-1c-1.1,0.5-1.1-0.1-1.1-0.9
				c-0.1-2.1-0.2-4.2-0.3-6.3C181,101.6,181.2,100.4,183,100.1L183,100.1z M246.2,152.7c-0.5,0.5-0.9,1-1.4,1.5
				c0.1,0.1,0.4,0.2,0.4,0.2C245.5,153.8,245.8,153.2,246.2,152.7c0.1-0.1,0.3,0,0.4-0.1c0.2-0.1,0.4-0.3,0.6-0.5
				c0,0-0.1-0.2-0.2-0.3c-0.2,0.2-0.5,0.3-0.7,0.5C246.3,152.4,246.3,152.6,246.2,152.7z M271.5,183.5c-1.7,0.3-3.5,0.5-5.1,0.9
				c-1,0.3-1.8,0.9-2.7,1.5c-0.3,0.2-0.3,0.8-0.5,1.2c0.5,0.1,1.1,0.4,1.4,0.2C266.9,186.1,269.2,184.8,271.5,183.5
				c0.9-1.1,1.9-2.2,2.9-3.3c0.1-0.2,0-0.6,0-0.8c-0.3,0.1-0.8,0-0.9,0.2C272.8,180.9,272.1,182.2,271.5,183.5z M225.4,83.2
				c1-0.3,1.9-0.7,2.9-1c0.6-0.2,1.3-0.5,1.7-0.3c1.7,1,3.2,0.4,4.9,0.1c0.6-0.1,1.2,0.2,1.8,0.3c-0.4,0.4-0.8,0.8-1.3,1.2
				c-0.3,0.2-0.7,0.3-1.1,0.3c-1.2,0.2-2.4,0.4-3.5,0.6c-0.2,0-0.4,0.2-0.5,0.3c0.2,0.2,0.3,0.4,0.5,0.4c1.8,0.1,3.7,0.7,5.4,0.3
				c2.4-0.7,4.7-2,6.9-3.4c0.7-0.4,1.1-1.5,1.5-2.4c0.2-0.4-0.1-1-0.1-1.4c-0.5,0.2-1.4,0.3-1.5,0.7c-0.5,1.6-1.9,1.5-3,1.6
				c-1.2,0.2-2.4,0-3.6,0.1c-3,0.1-5.9,0.2-8.8,1.2c-0.3,0.1-0.8,0.1-1.1,0C224.5,81.1,225.1,82.2,225.4,83.2
				c-2.4-1.2-3.8,1.1-5.6,1.9c-0.3,0.1-0.4,0.9-0.6,1.3c0.5-0.1,1-0.1,1.4-0.3C222.2,85.1,223.8,84.1,225.4,83.2z M209.9,66.9
				c0.6,0.3,1.2,0.7,1.7,1c0.1-0.1,0.1-0.2,0.2-0.4c-0.6-0.2-1.2-0.4-1.8-0.6C210,67,209.9,67,209.9,66.9c-0.6-1.1-2.4-1.8-1.5-3.6
				c0,0-0.3-0.2-0.4-0.2c-1.1,1-1.8-0.1-2.6-0.6c-2.4-1.3-4.5-3.1-7.2-3.6c-0.7-0.1-1.1-0.5-0.6-1.3c0.2-0.4,0.4-0.8,0.6-1.2
				c-0.5,0.1-1.1,0-1.4,0.3c-1.7,1.2-3.2,1.4-4.8-0.1c-0.3-0.3-0.6-0.5-0.9-0.7c-1.1-0.7-2.2-0.7-3.2,0c-1,0.8-2,1.8-2.8,2.9
				c-0.2,0.2,0.3,1.2,0.7,1.6c0.8,0.6,1.8,0.9,2.6,1.4c0.8,0.6,1.5,0.6,2.3,0c0.7-0.6,1.6-1.7,1.3,0.5c0,0.3,0.3,0.8,0.5,0.9
				c1.5,0.7,2.9,1.8,4.9,1.4c2.2-0.5,4.4-0.1,6.4,1C205.7,66.7,207.7,67.3,209.9,66.9z M247.4,178.7c-0.9,0.2-2,0.3-3.1,0.6
				c-0.1,0-0.1,0.4-0.1,0.6c0.2,1.3,0.8,1.3,1.9,0.8c0.9-0.4,2-0.4,3-0.7c2.6-0.6,5.3-0.3,7.8-1.7c2.2-1.3,4.7-2.2,6.9-3.5
				c1-0.5,1.8-1.3,2.6-2.1c1.1-1.1,2.2-2.1,3.1-3.3c0.9-1.2,1.7-2.6,2.2-4c0.7-1.8-0.1-3.1-2-3.4c-1-0.2-1.2-0.6-1.3-1.5
				c-0.1-1.1-0.7-2.3-1.9-2.1c-0.8,0.1-1.4,1.1-2.1,1.8c-0.2,0.2-0.2,0.6-0.4,0.8c-1.2,1.4-2.2,3-3.6,4c-1.3,0.9-3.1,1-4.5,1.6
				c-0.9,0.4-1.4,0.5-2.1-0.4c-0.7-0.9-0.7-1.7,0-2.4c1.3-1.2,2.8-2.3,4.2-3.3c0.7-0.5,1.6-0.9,2.3-1.4c0.2-0.2,0.1-0.7,0.2-1
				c-0.3,0.1-0.8,0.1-0.9,0.3c-0.5,0.9-1.3,0.9-2.1,1c-0.8,0.1-2,0.3-2.4,0.8c-1,1.2-1.6,2.8-2.6,4.1c-0.8,1.1-1.8,2.1-2.8,2.8
				c-1.7,1.1-3.6,1.9-5.3,3c-1.1,0.7-1,1.9-0.5,2.9c0.6,1.1,1.4,0.3,2.1-0.2c0.4-0.3,0.8-0.5,1.1-0.8c2.5-2.1,5.5-2.3,8.2-1.4
				c2.3,0.7,3.4,0.1,4.5-1.6c0.2-0.4,1-0.7,1.3-0.6c1.8,0.7,2.7-0.2,3.5-1.6c0.2-0.3,0.9-0.4,1.3-0.4c0.2,0,0.5,0.8,0.4,1.1
				c-0.3,1.4-0.6,2.8-1,4.2c-0.6,2-1.2,2.3-3.2,2.3c-0.6,0-1.2,0.2-1.8,0.2c-1,0.1-2,0.2-2.6-0.9c-0.2-0.3-0.9-0.3-1.3-0.3
				c-0.7,0.1-1.5,0.3-2.1,0.7c-1.3,0.8-3.2,1.6-3.6,2.8C250.1,178.6,249.3,179.1,247.4,178.7z M197,82.1c0.5,0.1,1,0.1,1.5,0.3
				c3,1.3,5.9,2.6,8.9,3.9c0.3,0.1,0.8,0,1.2,0c-0.1-0.4-0.1-0.9-0.3-1.1c-2.9-3.5-7.1-4.6-11.2-5.8c-3.1-0.9-6.6-0.8-8.4-4.2
				c-0.2-0.3-0.8-0.5-1.2-0.7c-1.6-0.8-1.6-1.1-0.4-2.4c0.7-0.8,1.5-1.5,2.1-2.4c0.5-0.9,0.7-2.1-0.2-3c-0.6-0.6-2.5-0.2-3.3,0.6
				c-0.4,0.4-0.9,1-1.3,1.1c-1.7,0.1-1.8,1.3-1.7,2.4c0.2,1.6,0.1,2.8-1.1,4c-0.5,0.4-0.7,1.1,0.3,1.4c1.5,0.4,1.1,1.3,0.6,2.3
				c-0.3,0.7-0.3,1.6-0.4,2.3c0.4-0.6,0.9-1.3,1.2-2c0.6-1.3,1.2-1.5,1.9-0.4c1.2,1.7,2.3,3.5,3,5.4c0.3,0.9,0.6,1.6,1.4,2.1
				c1.3,0.9,5.2,0.7,6.4-0.3c0.3-0.3,0.6-1,0.5-1.4c-0.1-0.3-0.8-0.6-1.2-0.6c-1.1,0-2.1,0.3-3.2,0.2c-0.4,0-0.8-0.7-1.2-1.1
				c0.5-0.2,1.2-0.8,1.4-0.7C193.8,83.1,195.4,82.3,197,82.1z M222.4,68.4c0,0.1,0.1,0.2,0.1,0.3c1.1-0.4,2.1-0.8,3.2-1.3
				c1.3-0.6,2.6-1.3,4-1.7c2.9-0.9,5.9-1.5,8.8-2.4c0.4-0.1,1.1-0.9,1-0.9c-0.5-0.9-1.1-1.8-1.9-2.5c-0.4-0.3-1.3-0.3-1.8-0.2
				c-2,0.5-4,1.6-6.1,1.6c-2.4,0.1-4,1-5.6,2.5c-0.6,0.6-1.3,1.1-2.3,0c-0.7-0.8-1.7-0.3-1.8,0.9c-0.1,0.7,0.2,1.6-0.2,1.9
				c-1.8,1.6-0.1,1.5,0.8,1.8C221.2,68.6,221.8,68.5,222.4,68.4z M216.8,76.1c-0.3-0.6-0.8-1.7-1.4-2.7c-0.5-0.9-1.1-0.8-1.8,0
				c-1.4,1.6-2.6,3.3-2.2,5.7c0.1,0.9-0.2,1.9-0.2,2.9c0,0.4-0.2,1,0,1.3c1.2,1.7,1.7,3.5,1.7,5.6c0,0.3,0.4,0.6,0.6,0.9
				c0.2-0.3,0.6-0.5,0.7-0.8c0.4-1.4,0.8-2.8,1.1-4.2C215.7,82,216.2,79.3,216.8,76.1z M254.5,146.7c2.6-0.1,3.4,1.1,2.2,3.3
				c-0.8,1.4-1.9,2.7-2.8,4c-0.1,0.2-0.2,0.4-0.3,0.5c0.3,0.1,0.6,0.3,0.8,0.2c0.6-0.3,1.1-0.7,1.7-1.1c1.2-0.9,2.4-1.8,3.6-2.8
				c0.6-0.5,1.1-1.1,1.6-1.8c1.1-1.4-0.2-2.6-0.5-3.9c-0.2-1.1-0.4-2.3-1.9-2.5c-2.4-0.3-3.9,0.1-4.7,1.9c-0.4,0.9-0.8,1.6-1.9,1.7
				c-0.2,0-0.4,0.2-0.6,0.3c0.2,0.1,0.4,0.2,0.6,0.2C253,146.8,253.8,146.7,254.5,146.7z M238.3,166.4c0.2,0,0.5-0.1,0.8-0.1
				c4.1-0.8,7.4-3,10.6-5.3c0.7-0.5,1.1-1.5,1.7-2.2c-0.8,0.5-1.6,0.9-2.4,1.5c-1.2,0.9-2.2,1.7-3.9,0.9c-0.7-0.3-1.8-0.2-2.6,0
				c-1.8,0.4-3.5,1.1-5.2,1.7c-1,0.3-2.4,0.6-2.1,1.9c0.2,0.7,1.6,1.1,2.5,1.6C237.9,166.5,238.1,166.4,238.3,166.4z M266.1,181.1
				c1.2-0.6,2.7-0.9,3.1-1.8c1.1-2.1,3.1-3.2,4.5-5c0.2-0.3,0.6-0.6,0.6-0.9c0-0.6-0.1-1.4-0.4-1.8c-0.2-0.2-1.1-0.1-1.6,0.1
				c-0.6,0.3-1.4,0.8-1.5,1.3c-0.6,3-2.9,3.9-5.4,4.5c-1,0.3-1.9,1.1-1.5,2.2C264.1,180.2,265.2,180.5,266.1,181.1z M247.5,134.2
				c0.1,0.1,0.1,0.3,0.2,0.4c0.5-0.1,1.2-0.1,1.6-0.5c0.8-0.7,0.9-3.6,0.3-4.5c-0.6-1-1.3-1.2-2.6-1c-2.4,0.4-3,2.3-3.9,4
				c-0.5,0.8-0.8,1.6,0,2.2c0.7,0.6,1.5,0.9,2.5,0.2C246.2,134.6,246.9,134.5,247.5,134.2z M192.1,69.5c0-0.1,0-0.2-0.1-0.3
				c-0.4,0.1-1,0.2-1.1,0.4c-0.1,0.5-0.2,1.5,0,1.7c1.6,1,2.3,3.1,4.5,3.2c1.4,0.1,3.2-0.5,3.9-1.7c0.2-0.3,0.2-0.7,0-1
				c-0.1-0.1-0.6-0.3-0.8-0.2c-1.9,1-2.4-0.1-2.9-1.6c-0.2-0.6-0.9-1.1-1.4-1.7c-0.3,0.3-0.6,0.7-1,0.9
				C193,69.5,192.5,69.4,192.1,69.5z M233.9,71.3c-0.4-0.2-0.7-0.6-1-0.9c-0.5,0.6-0.2,3-0.4,3.7c-0.5,1.5-2,0.6-3.9-0.4
				c-0.2-0.1-0.7,0-0.8,0.2c-0.1,0.3-0.1,0.7,0,1c0.7,1.2,2.5,1.8,3.9,1.7c2.2-0.1,2.9-1.2,4.5-2.2c0.3-0.2,0.2-2.1,0-2.7
				c-0.1-0.2-0.7-0.3-1.1-0.4c0,0.1,0,0.2-0.1,0.3C234.8,71.4,234.3,71.5,233.9,71.3z M247.7,142.2c0.7-0.3,1.5-0.6,2.2-1
				c1-0.6,2.1-1.3,3.1-2c1-0.7,1.9-1.4,2.9-2.2c-1.1-0.6-2.1-1.3-3.2-1.8c-1.5-0.7-2.2-0.5-2.4,1.1c-0.3,2.1-1.5,3.4-3,4.6
				c-0.2,0.2-0.3,0.6-0.4,0.9C246.9,142,247.2,142,247.7,142.2z M222.5,144.4c2.5-0.9,4.7-1.6,6.8-2.4c0.4-0.2,0.7-0.8,0.9-1.2
				c0.1-0.3,0.2-0.9,0-1c-0.3-0.2-0.9-0.4-1.2-0.3c-2,1.2-4.4,1.1-6.6,1.5c-0.9,0.2-2.1,0.5-1.8,1.6
				C220.9,143.3,222,143.8,222.5,144.4z M224.1,56.3c-0.9-0.9-1.8-1.8-2.6-2.6c-0.2-0.2-0.4-0.5-0.6-0.5c-2.1-0.5-5.8,1.7-6.4,3.7
				c-0.1,0.3,0.2,0.8,0.3,1.2c0.4-0.1,0.8-0.2,1.2-0.4c0.3-0.2,0.3-0.7,0.6-0.9c0.8-0.6,1.6-1.3,2.5-1.8c0.3-0.2,0.9,0.1,1.3,0.2
				c-0.1,0.4-0.2,0.7-0.3,1.1c-0.3,0.7-0.6,1.4-0.9,2c-0.1,0.2-0.1,0.5-0.1,0.8c0.3,0,0.6,0,0.8-0.1c1.1-0.9,2-2.1,3.7-2
				C223.7,57,223.8,56.7,224.1,56.3z M231.1,105.1c-0.3,0.2-0.9,0.5-1.4,1c-1.1,1.2-2,2.5-3,3.7c-0.7,0.8-0.5,1.5,0.3,1.9
				c0.4,0.2,1.2,0,1.7-0.3c1-0.7,2-1.6,2.9-2.4c0.5-0.4,1-0.9,1.3-1.5C233.4,106.3,232.6,105.1,231.1,105.1z M233.7,144.4
				c0.1,0.1,0.5,0.9,0.7,0.9c1.5-0.3,3-0.7,4.3-1.4c1.2-0.6-0.3-1.4-0.3-2.1c0-0.3,0.1-0.6,0.1-0.9c0-0.2-0.2-0.6-0.4-0.7
				C236.2,139.7,233.8,141.8,233.7,144.4z M275.7,143.3c0-0.8-0.1-1.6-1.4-1.6c-2,0-3.6,0.6-3.6,1.6c0,1.1,1.6,3.8,2.3,3.9
				C274.1,147.3,275.6,145.3,275.7,143.3z M265.7,153.5c-0.3-0.4-0.8-1.4-1.6-2c-0.3-0.2-1.7,0.2-1.9,0.6c-0.6,1.2-0.8,2.6-1.1,3.9
				c-0.1,0.3,0.4,0.9,0.7,0.9C263.5,157.5,265.7,155.9,265.7,153.5z M235.1,98.8c-0.1-0.2-0.2-0.4-0.3-0.6c-0.6,0.3-1.5,0.4-1.8,0.9
				c-0.2,0.4,0.1,1.4,0.5,1.8c0.4,0.4,1.3,0.6,1.9,0.5c1.3-0.3,2.5-0.9,3.7-1.5c0.8-0.4,1.5-1.2,0.7-2c-0.7-0.6-1.6-1.5-2.7-0.2
				C236.6,98.2,235.8,98.5,235.1,98.8z M272.3,136c0.1-1-0.4-1.5-1.4-1.5c-1.6,0-2.9,0.9-2.9,2c0.1,1,1.3,2.3,2.2,2.3
				C271.2,138.9,272.3,137.5,272.3,136z M232.1,91.9c-1.6,0.3-3.2,0.7-3.8,2.5c-0.1,0.3-0.2,0.5-0.3,0.8c0.2-0.1,0.5-0.3,0.7-0.3
				c0.4-0.1,0.9-0.3,1.1-0.1c1.9,1.2,2.7,0.9,3.3-1.4C233.4,92.3,233.1,91.9,232.1,91.9z M230.7,128.8c-0.6-0.1-1.3-0.5-1.7-0.3
				c-1.1,0.5-2.1,1.1-3.1,1.9c-0.4,0.3-0.6,1-0.7,1.6c0,0.2,0.8,0.8,0.9,0.7c1.4-0.9,2.7-1.9,4.1-2.9
				C230.4,129.7,230.5,129.4,230.7,128.8z M277.3,121.4c-0.4-1-0.6-1.9-1.1-2.6c-0.2-0.4-0.9-0.8-1.3-0.7c-0.4,0.1-1,0.8-1,1.1
				c0.2,1.1,0.6,2.1,1.1,3c0.2,0.3,1,0.5,1.4,0.4C276.8,122.5,277,121.9,277.3,121.4z M221.1,132c-1.6,0.1-2.8,0.1-3.8,0.3
				c-0.6,0.1-1.1,0.8-1.6,1.3c-0.1,0.1,0.2,0.6,0.2,0.6c1.7-0.2,3.4-0.4,5.1-0.7c0.3-0.1,0.5-0.6,0.7-1
				C221.4,132.2,221,132,221.1,132z M250,122.2c-0.8-1.2-1.5-2.3-2.2-3.3c-0.1-0.2-0.7-0.2-0.8-0.1c-0.2,0.2-0.5,0.7-0.4,0.9
				c0.3,1,0.7,2,1.1,2.9c0.2,0.4,0.6,0.7,0.9,1.1C249,123.3,249.5,122.8,250,122.2z M193,126.6c-0.6,0.8-1.2,1.2-1.3,1.8
				c-0.2,1.4,1,1.5,2,1.6c1.2,0.2,1.7-0.9,1.5-1.7C195,127.7,194,127.3,193,126.6z M193,134.8c1-0.3,1.5-0.5,2.1-0.7
				c0.3-0.1,0.5-0.2,0.8-0.3c-0.2-0.2-0.3-0.6-0.5-0.7c-1.3-0.5-2.7-1-4-1.4c-0.2-0.1-0.6,0-0.8,0.2c-0.1,0.2-0.1,0.7,0,0.8
				C191.4,133.5,192.3,134.2,193,134.8z M270.3,101.3c-1.3,0.5-1.8,1.2-1.1,1.9c0.8,0.8,2,1.2,3,1.7c0.1,0,0.7-0.9,0.7-1
				C272.1,103,271.2,102.2,270.3,101.3z M261.1,101.4c-0.1-0.2-0.1-0.4-0.2-0.5c-0.9-1.3-1.8-2.6-2.8-3.9c-0.1-0.2-0.7-0.3-0.8-0.2
				c-0.2,0.3-0.4,0.8-0.3,0.9c1.1,1.3,2.3,2.5,3.5,3.8C260.6,101.6,260.9,101.5,261.1,101.4z M236.9,121.4c0.2-0.1,0.3-0.2,0.5-0.3
				c0.3-0.2,0.6-0.5,0.9-0.6c0.8-0.4,1.6-0.8,2.3-1.2c0.4-0.2,0.7-0.6,1-0.9c-0.5-0.2-1.2-0.6-1.6-0.4c-1,0.4-2,1-2.9,1.6
				c-0.3,0.2-0.4,0.7-0.5,1.1C236.7,120.8,236.9,121.1,236.9,121.4z M238.7,134.2c-0.4-0.1-0.8-0.3-1.1-0.2
				c-0.9,0.2-1.8,0.5-2.6,0.8c-0.3,0.1-0.5,0.6-0.8,0.9c0.4,0.2,0.9,0.8,1.2,0.7c1-0.3,1.9-0.9,2.8-1.4
				C238.4,134.8,238.5,134.5,238.7,134.2z M261.7,180.4c-0.1-0.1-0.5-0.4-0.6-0.3c-1.2,0.8-2.4,1.5-3.5,2.4c-0.1,0,0.1,0.6,0.2,0.7
				C258.7,183.6,261.7,181.5,261.7,180.4z M278.8,141.9c0.1,0,0.2,0.1,0.2,0.1c0,0.2-0.1,0.5,0,0.7c0.2,0.4,0.4,0.7,0.6,1.1
				c0.3-0.3,0.6-0.6,0.9-0.9c0.1-0.2,0.2-0.4,0.2-0.7c-0.1-0.8-0.2-1.6-0.4-2.4c0-0.1-0.6-0.1-0.6-0.1
				C279.3,140.4,279.1,141.1,278.8,141.9z M243.9,110.5c-0.2,0.9-0.5,1.4-0.3,1.6c0.7,1,1.5,2,2.3,3c0.2,0.3,0.6,0.4,0.9,0.6
				c-0.1-0.5-0.1-1.4-0.3-1.5c-1.1-0.2-1.2-1-1.4-1.8C244.9,111.9,244.5,111.5,243.9,110.5z M248.6,78.3c0.2-0.1,0.7-0.3,0.9-0.7
				c0.2-0.3,0.2-0.7,0.3-1.1c-0.5,0-0.9,0.1-1.4,0.1c-0.2,0-0.5,0-0.7,0c-0.7,0.1-1.3,0.2-2,0.3c0.7,0.4,1.3,0.7,2,1.1
				C248,78.1,248.1,78.1,248.6,78.3z M281.9,148c-0.4-0.5-0.8-1-1.1-1.4c-0.3,0.5-1,1.1-0.9,1.5c0.1,0.6,0.7,1.2,1,1.7
				C281.2,149.2,281.5,148.7,281.9,148z M271.4,124c0.1,0,0.2,0.1,0.2,0.1c0,0.3-0.1,0.6,0,0.9c0.1,0.3,0.3,0.6,0.4,0.9
				c0.3-0.2,0.6-0.4,0.8-0.7c0.2-0.2,0.3-0.6,0.2-0.9c-0.2-0.7-0.5-1.5-0.8-2.2C272,122.8,271.7,123.4,271.4,124z M252.8,122.8
				c-0.2,0-0.4,0-0.6,0c-0.2,0.5-0.7,0.9-0.6,1.4c0.1,0.7,0.5,1.4,0.8,2.2c0.4-0.7,0.9-1.4,1-2.1C253.5,123.8,253,123.3,252.8,122.8
				z M202.9,126.6c-0.2-0.5-0.4-1.1-0.5-1.6c-0.3,0.5-0.6,0.9-0.9,1.4c-0.2,0.3-0.4,0.7-0.4,1.1c0,0.4,0.2,0.7,0.4,1.1
				c0.4-0.2,0.8-0.4,1-0.7C202.7,127.6,202.7,127.1,202.9,126.6z M210.5,53.2c-0.7-0.4-1.2-0.9-1.6-0.9c-0.3,0-1,0.7-1,0.8
				c0.3,0.6,0.8,1.1,1.2,1.6C209.4,54.2,209.8,53.9,210.5,53.2z M251,127.7c-0.1,0.1-0.3,0.4-0.3,0.5c0.4,1.2,0.9,2.3,1.4,3.4
				c0.3-0.2,0.8-0.5,0.7-0.6c-0.4-1-0.8-2-1.3-3C251.5,127.9,251.3,127.9,251,127.7z M253.9,95.7c0.5-0.5,0.9-1,0.9-1
				c-0.6-0.7-1.3-1.4-1.9-2.1c0,0-0.7,0.5-0.7,0.6C252.8,94,253.3,94.7,253.9,95.7z M225.3,105.9c-0.4,0.1-0.7,0.1-0.8,0.2
				c-0.5,0.5-1.4,1.1-1.3,1.4c0.5,1.5,0.9-0.2,1.4-0.2c0.2,0,0.5,0.1,0.7,0c0.3-0.2,0.5-0.4,0.8-0.7
				C225.8,106.4,225.5,106.1,225.3,105.9z M259.4,134.3c-1-0.8-1.4-1.3-1.9-1.4c-0.3,0-0.7,0.5-1.1,0.8c0.5,0.4,0.9,1,1.4,1.3
				C258.1,135.1,258.6,134.7,259.4,134.3z M214.1,67.5c-0.5,0.2-0.9,0.4-1.4,0.6c0.6,0.3,1.1,0.7,1.8,0.9c0.4,0.1,0.8-0.3,1.3-0.5
				C215.3,68.2,214.8,67.9,214.1,67.5z M248.9,92.9c0.5-0.3,0.9-0.4,1.2-0.6c-0.3-0.2-0.6-0.6-1-0.7c-0.8-0.1-1.6-0.1-2.4-0.1
				c0,0.1-0.1,0.4,0,0.4C247.5,92.2,248.2,92.6,248.9,92.9z M259,111.9c0.5-0.3,0.9-0.6,1.2-0.8c-0.4-0.4-0.8-0.8-1.4-1.1
				c-0.1-0.1-0.8,0.6-0.8,0.8C258.2,111.2,258.6,111.5,259,111.9z M239.9,116.1c0.3-0.7,0.6-1.1,0.7-1.5c0-0.2-0.4-0.4-0.6-0.7
				c-0.3,0.4-0.6,0.7-0.8,1.2C239.1,115.2,239.5,115.6,239.9,116.1z M221.6,157.7c-0.4,0.4-0.7,0.7-1,0.9c0.4,0.2,0.9,0.5,1.3,0.5
				c0.3,0,0.6-0.3,0.9-0.5C222.4,158.3,222.1,158.1,221.6,157.7z M268.3,130.9c-0.5-0.3-0.7-0.5-1-0.5c-0.5,0-1,0.2-1.5,0.3
				c0.3,0.3,0.6,0.7,0.9,0.8C267.2,131.5,267.6,131.2,268.3,130.9z M237.9,93.4c-0.4-0.5-0.7-1-0.8-1c-0.4,0.2-0.8,0.5-1.2,0.8
				c0,0,0.4,0.8,0.5,0.7C236.8,93.9,237.2,93.7,237.9,93.4z M204.2,55.6c-0.2-0.1-0.4-0.2-0.5-0.3c-0.1,0.3-0.3,0.6-0.2,0.8
				c0.2,0.5,0.5,0.9,0.8,1.3c0.2-0.2,0.6-0.4,0.5-0.6C204.7,56.4,204.4,56,204.2,55.6z M206,61c0.4-0.5,0.7-0.8,0.8-1.2
				c0-0.2-0.4-0.8-0.5-0.8c-0.4,0.1-0.9,0.4-0.9,0.6C205.3,60,205.7,60.4,206,61z M213.8,53.6c-0.3-0.4-0.6-0.9-0.8-0.8
				c-0.4,0.1-0.7,0.4-1,0.6c0.3,0.3,0.5,0.7,0.9,0.8C213,54.3,213.4,53.9,213.8,53.6z M238.4,103.6c-0.3,0.4-0.7,0.7-0.6,0.8
				c0.1,0.4,0.4,0.7,0.7,1.1c0.2-0.2,0.5-0.4,0.5-0.5C238.8,104.6,238.6,104.2,238.4,103.6z M197.1,77.1c0.3-0.3,0.6-0.5,0.6-0.7
				c0-0.1-0.3-0.5-0.5-0.5c-0.2,0-0.5,0.3-0.6,0.5C196.6,76.5,196.9,76.7,197.1,77.1z M251.6,75.9c-0.3,0.6-0.4,0.8-0.4,0.9
				c0.1,0.6,0.3,1.1,0.5,1.7c0.2-0.2,0.5-0.4,0.5-0.6C252.1,77.4,251.9,76.8,251.6,75.9z M280.7,150.9c-0.1,0.6-0.3,0.8-0.2,1
				c0,0.2,0.3,0.3,0.4,0.4c0.2-0.2,0.4-0.4,0.4-0.6C281.3,151.6,281.1,151.4,280.7,150.9z M203.4,53c-0.4-0.1-0.7-0.3-0.9-0.2
				c-0.2,0.1-0.3,0.4-0.5,0.6c0.2,0.1,0.5,0.4,0.7,0.3C202.9,53.7,203.1,53.4,203.4,53z M256.9,191.8c0.4,0.1,0.6,0.2,0.9,0.2
				c0.1,0,0.4-0.3,0.3-0.4c0-0.2-0.2-0.4-0.4-0.6C257.7,191.1,257.5,191.3,256.9,191.8z M225.7,157.9c-0.3-0.3-0.5-0.5-0.6-0.5
				c-0.3,0-0.5,0.2-0.8,0.3c0.1,0.2,0.1,0.5,0.2,0.5C224.8,158.1,225.1,158,225.7,157.9z M257.4,101.7c-0.3-0.3-0.4-0.5-0.6-0.7
				c-0.2,0.2-0.5,0.3-0.5,0.5c0,0.2,0.2,0.5,0.3,0.7C256.9,102,257.1,101.9,257.4,101.7z M240.4,95.2c-0.2-0.3-0.4-0.5-0.5-0.5
				c-0.3,0-0.7,0.2-1,0.2c0.1,0.2,0.2,0.5,0.4,0.5C239.6,95.5,239.9,95.3,240.4,95.2z M241.9,127.2c-0.2,0-0.4-0.1-0.6-0.1
				c-0.1,0-0.1,0.2-0.1,0.4c0.2,0.1,0.4,0.1,0.6,0.1C241.8,127.7,241.8,127.5,241.9,127.2z M275.4,116.2c-0.2-0.2-0.3-0.4-0.4-0.6
				c-0.1,0.1-0.3,0.3-0.3,0.4c0,0.2,0.2,0.3,0.3,0.5C275.1,116.5,275.2,116.4,275.4,116.2z M245.6,100c0.3-0.2,0.5-0.3,0.6-0.4
				c0-0.1-0.2-0.4-0.3-0.4c-0.2,0-0.4,0.1-0.5,0.3C245.4,99.5,245.5,99.7,245.6,100z M245.7,87.1c-0.3-0.2-0.4-0.4-0.6-0.4
				c-0.2,0-0.3,0.2-0.5,0.4c0.1,0.1,0.3,0.4,0.4,0.4C245.2,87.5,245.4,87.3,245.7,87.1z M199.7,84.8c-0.1,0.2-0.2,0.4-0.3,0.5
				c0.2,0.1,0.4,0.3,0.6,0.3c0.1,0,0.2-0.3,0.3-0.4C200.2,85.1,200,84.9,199.7,84.8z M201.7,76.6c-0.2-0.1-0.4-0.2-0.4-0.1
				c-0.2,0.1-0.4,0.3-0.5,0.5c0.1,0,0.3,0.1,0.4,0C201.3,76.9,201.5,76.7,201.7,76.6z M207.8,68.8c0-0.1-0.1-0.2-0.1-0.3
				c0,0-0.2,0-0.2,0c0,0.1,0,0.2,0,0.3C207.5,68.8,207.6,68.8,207.8,68.8z M246.1,74.8c-0.1-0.1-0.3-0.3-0.4-0.4
				c0,0.1-0.2,0.2-0.1,0.3c0,0.1,0.1,0.2,0.2,0.4C245.9,75,246,74.9,246.1,74.8z M190.6,74.5c-0.1,0.1-0.3,0.1-0.3,0.2
				c0,0.1,0.1,0.2,0.1,0.4c0.2-0.1,0.3-0.2,0.5-0.3C190.8,74.7,190.7,74.6,190.6,74.5z M231.1,176.2c0-0.1-0.1-0.2-0.1-0.3
				c0,0-0.2,0-0.2,0c0,0.1,0,0.2-0.1,0.4C230.9,176.2,231,176.2,231.1,176.2z M262.6,103.3c-0.1,0.3-0.2,0.5-0.2,0.6
				c0.1,0.2,0.3,0.3,0.5,0.4c0.1-0.2,0.3-0.4,0.2-0.5C263,103.6,262.8,103.5,262.6,103.3z"/>
			<path class="st1" d="M211,164.1c0.6,2.4,1.3,4.8,2.8,6.8c0.9,1.2,1.1,2.2,0.9,3.6c-0.6,3.1,0.5,4.1,3.7,3.3
				c1.5-0.4,2.1,0.1,2.5,1.5c0.7,2.4,1.4,2.7,3.6,1.8c1.2-0.5,1.9-0.5,2.9,0.7c0.8,1,2.2,1.5,2.6,2.9c0.1,0.4,1.1,0.6,1.8,0.7
				c1.7,0.2,2.4,1.1,2.3,2.8c0,0.4,0,1,0.2,1.3c1,1.3,0.2,1.7-0.9,2c-1.6,0.5-3,0.1-4.2-1c-2-1.7-2.2-1.6-4.1,0.3
				c-0.5,0.5-1.3,0.8-2,0.9c-1.2,0.1-1.5,0.7-1.6,1.8c-0.2,1.8-0.7,1.9-2.1,0.9c-1.8-1.3-3.6-2.5-5.5-3.8c-1.4-1-3-1.4-4.8-1.2
				c-0.9,0.1-2-0.3-2.7-0.9c-2.6-1.8-5.2-3.7-7.7-5.7c-0.6-0.5-0.9-1.4-1.4-2c-0.7-1-0.5-2.5-2.3-2.8c-0.9-0.1-0.9-1.8,0.1-2.7
				c0.4-0.4,1-0.7,1.5-0.9c0.5-0.2,1-0.3,1.5-0.5c-0.5-0.4-1-0.9-1.6-1.1c-0.8-0.4-1.7-0.4-2.3-0.9c-0.6-0.5-1.5-1.7-1.3-2.1
				c0.8-1.4-0.3-1.4-1-1.8c-0.9-0.5-1.7-1.1-2.4-1.7c-0.2-0.2-0.4-0.8-0.3-1c0.2-0.3,0.7-0.5,1.1-0.5c1.8,0.3,3.6,0.5,5.4,1
				c1,0.3,1.9,1,1.3,2.2c-0.6,1.3,0.2,1.8,1,2.1c1.9,0.6,2.4,1.9,2.3,3.7c0,0.4,0,1,0.2,1.3c1.7,2.6,3.1,5.4,5.6,7.4
				c2.6,2,4.8,4.5,7.4,6.5c1.3,1,3.1,1.5,4.7,2.2c0.1-0.3,0.3-0.7,0.2-0.8c-1.1-1.4-2.2-2.9-3.5-4.1c-2.5-2.3-5.2-4.4-7.8-6.6
				c-0.8-0.6-1.5-1.3-2.3-2c0.7-0.6,1.5-1.2,2.2-1.9c0.3-0.3,0.5-0.6,0.6-0.9c0.3-1.6,1.4-2.5,2.9-2.8c1.4-0.3,1.2-0.9,0.5-1.7
				c-1.3-1.4-1.8-2.9-1.6-4.8c0.2-1.2-0.5-1.8-1.6-2.2c-0.6-0.2-1.5-0.4-1.7-0.9c-0.7-1.5-1.3-1.4-2.6-0.5c-1.6,1.2-3.6,1.6-5.7,1.3
				c-2.6-0.4-5.3-0.5-7.9-1c-1.2-0.2-2.3-1.1-3.3-1.8c-0.2-0.1-0.3-0.7-0.1-1c0.1-0.2,0.6-0.3,0.9-0.2c2.7,0.7,5.4,1.5,8.1,2.3
				c1.2,0.4,3.1-0.8,3.2-2.1c0-0.2-0.7-0.6-1-0.5c-2.1,0.4-3.6-0.8-5.2-1.9c-0.3-0.2-0.4-0.8-0.6-1.1c0.4-0.2,0.9-0.6,1.3-0.7
				c0.7,0,1.4,0.1,2,0.3c1.3,0.4,2.5,0.9,3.7,1.3c0.2,0.1,0.5-0.1,0.6-0.2c0.1-0.3,0.2-0.9,0.1-1c-0.7-0.8-1.2-1.7,0.1-2.1
				c0.5-0.2,1.4,0.7,2.1,1.2c0.4,0.3,0.7,0.8,1,1.2c0.3-0.5,0.6-1,0.8-1.5c0.4-1.1,1.1-2,2-2.9c0.9-1,1.2-2.7,1.5-4.1
				c0.2-0.7-0.1-1.8,1-1.5c0.3,0.1,0.7,1.3,0.6,1.9c-0.2,0.9-0.8,1.6-1.1,2.5c-0.2,0.5-0.3,1.1-0.3,1.7c0,0.2,0.3,0.5,0.5,0.7
				c0.2-0.2,0.3-0.4,0.5-0.6c0.3-0.3,0.5-0.7,0.8-1c0.3,0.4,0.8,0.7,0.9,1.2c0.6,3.9,1.1,7.8,1.7,11.7
				C211.4,164,211.2,164.1,211,164.1z M207.9,160.3c-0.1,0.3-0.3,0.5-0.3,0.8c0,0.2,0.1,0.5,0.1,0.8c0.1-0.2,0.3-0.4,0.3-0.7
				C208.1,160.9,207.9,160.6,207.9,160.3c-0.1-0.2-0.1-0.5-0.2-0.6c-0.2-0.2-0.5-0.3-0.7-0.4c0,0.2,0,0.6,0.1,0.7
				C207.3,160.2,207.6,160.2,207.9,160.3z M202.3,157c-0.2,0.8-0.4,1.2-0.5,1.6c0,0.2,0.3,0.4,0.4,0.7c0.2-0.3,0.6-0.6,0.6-1
				C202.9,158,202.6,157.6,202.3,157z M224.7,186.5c0.3-0.5,0.5-1,0.7-1.4c0-0.1-0.4-0.3-0.6-0.4c-0.2,0.4-0.4,0.9-0.6,1.3
				C224.1,186.1,224.4,186.2,224.7,186.5z"/>
			<path class="st1" d="M285,215.7c-0.5-0.2-1.3-0.3-1.8-0.8c-1.5-1.3-3-1.4-4.7-0.5c-1.2,0.6-2.1,0.5-3.2-0.3
				c-1.9-1.5-4.2-1.4-6.4-1.3c-3.4,0-6.3-1.1-8.4-3.8c-0.4-0.4-0.7-1.5-0.5-1.7c0.5-0.4,1.5-0.9,1.9-0.7c1.5,0.8,2.5,0.5,3.5-0.8
				c0.3-0.4,1.2-0.6,1.8-0.6c3.5,0.2,5.5-1.6,7.2-4.4c1.4-2.3,3.1-4.6,4.7-6.7c1-1.2,2.1-1.2,3,0.1c0.9,1.2,1.8,2.6,2.2,4
				c0.4,1.4,1.2,2.4,2.2,3.4c1.2,1.2,2,2.6,2.1,4.4c0.1,1.1,1,2.1,1.7,3.1c0.7,0.9,1.8,1.5,1.2,2.9c-0.6,1.5-1.3,2.8-3,3.2
				C287.6,215.4,286.5,215.5,285,215.7z"/>
			<path class="st1" d="M238.5,200.5c-0.7,3.4-1.2,6.4-2,9.4c-1.2,4.7-1.3,9.3-0.9,14.1c0.2,2.6,0.3,2.6,2.8,3.5
				c0.4,0.1,0.9,1.1,0.8,1.5c-0.6,2.6-1.5,5.1-3.3,7.2c-0.7,0.8-1.3,1.1-2.4,0.5c-1.5-0.8-2.4-0.6-2.9,0.9c-0.8,2.6-2.7,3.2-5.1,3.3
				c-3.3,0.1-6.5,0.5-9.8,0.9c-3.1,0.4-3.3,0.2-4-2.7c-0.2-0.7-0.7-1.3-1.1-2c-0.2-0.4-0.5-1-0.3-1.2c0.3-0.3,1-0.7,1.3-0.6
				c1.8,0.6,3.2,0.3,4.7-0.9c0.4-0.3,1.4-0.2,1.9,0.1c1.7,1,3.3,1.2,4.8-0.4c0.2-0.2,0.5-0.4,0.8-0.4c2.5,0.2,4.4-1.1,6.2-2.5
				c0.4-0.3,1-0.7,1.4-0.6c1.9,0.3,1.9-0.9,1.6-2.1c-1-3.7-0.3-7.4-0.6-11.1c-0.6-5.7,0.2-11.6-1.5-17.2c-0.3-1.1-0.5-2.2-0.6-3.4
				c-0.1-1.3,0.5-1.7,1.7-1.2c1.7,0.8,3.4,1.6,5,2.6C237.7,198.8,238.1,199.9,238.5,200.5z"/>
			<path class="st1" d="M275.3,235.4c-1-0.1-2.5-0.7-3-0.3c-1.5,1.2-3.2,0.6-4.8,1.1c-1,0.3-1.8,0.3-2.2-0.9c0-0.1-0.1-0.3-0.2-0.4
				c-0.8-0.5-1.5-1.8-2.5-0.9c-0.8,0.8-0.1,1.6,0.7,2.2c0.3,0.2,0.5,1.1,0.3,1.3c-0.5,0.6-1.1,1.5-1.8,1.5c-0.9,0-2.1-0.4-2.6-1
				c-0.8-1-1.5-0.9-2.4-0.5c-2.5,1.1-5.1,2.1-7.9,1.9c-0.2,0-0.6,0.3-0.7,0.6c-0.1,0.1,0.3,0.6,0.5,0.6c0.6,0.2,1.2,0.2,1.8,0.4
				c0.8,0.3,2.7-0.1,1.5,1.8c0.3,0.2,0.8,0.5,1,0.4c0.5-0.2,0.9-0.6,1.3-0.9c0.7-0.7,1.2-0.9,1.7,0.2c0.5,1.1,0.8,0.7,1.3-0.1
				c1.8-2.8,4.4-2.6,5.9,0.5c0.1,0.3,0.1,0.7,0.1,1.1c-0.3,0-0.7,0.1-1,0c-0.6-0.2-1.1-0.7-1.6-0.8c-0.5,0-1,0.5-1.5,0.7
				c0.2,0.5,0.4,1,0.7,1.4c0.3,0.4,0.7,0.6,1.1,0.9c-0.5,0.3-1,0.7-1.5,0.8c-2.7,0.4-5.4,0.6-8.2,0.9c-2.2,0.3-2.6,0.6-3,2.8
				c-0.6,2.5-3,3.6-5.4,2.3c-0.2-0.1-0.6-0.7-0.5-0.8c0.7-1.3,1.3-2.8,2.4-3.8c1.4-1.3,2-2.2,0.8-3.6c-1-1.2-1-2.1-0.4-3.4
				c0.4-0.9,0.1-2.2,0.1-3.3c0-0.3,0.2-0.7,0.3-1c0.2,0.1,0.5,0.3,0.7,0.4c0.4,0.2,0.7,0.3,1.1,0.5c0.1-0.5,0.4-1,0.3-1.4
				c-0.1-0.7-0.6-1.2-0.8-1.9c-0.1-0.5,0.1-1.1,0.1-1.7c0.5,0.1,1.1,0.1,1.6,0.2c0.4,0.1,0.8,0.4,1.2,0.6c2.1,1.1,2.5,1,3.6-1
				c0.9-1.7,2.7-2.3,4.3-2c3.8,0.6,7.3-1,11-1.2c2.1-0.1,4.2-0.5,6.3-0.4c2,0.1,4,0.7,6,1.2c1,0.3,1.6,1,0.3,1.7
				C279.4,233.3,278.1,235.8,275.3,235.4z M260.9,235.6c-0.1,0.3-0.3,0.5-0.3,0.7c0,0.1,0.1,0.2,0.2,0.4c0.1-0.1,0.4-0.2,0.4-0.4
				C261.2,236.1,261.1,235.9,260.9,235.6z M249.5,243.9c0.1,0.2,0.2,0.3,0.3,0.3c0.2,0,0.3-0.1,0.5-0.2c-0.1-0.1-0.2-0.3-0.2-0.3
				C249.9,243.7,249.7,243.8,249.5,243.9z"/>
			<path class="st1" d="M227,250.1c-0.4,0-0.6,0-0.7,0c-0.7-0.2-1.4-0.5-2.2-0.8c0.6-0.3,1.3-0.6,1.9-0.9c0.8-0.3,1.8-0.3,2.3-0.9
				c1.4-1.6,3.3-2,5.2-2.6c1.3-0.4,2.3-1.2,2.5-2.7c0.1-0.6,0.4-1.2,0.8-1.6c0.8-0.9,1.7-0.9,2.1,0.3c0.6,1.7,1,3.5,1.3,5.3
				c0.2,1.2-0.5,2.1-1.7,2.2C234.6,249.1,230.7,249.6,227,250.1z"/>
			<path class="st1" d="M189.6,148.8c-0.2,0.4-0.5,0.8-0.7,1.2c-0.3-0.3-0.8-0.5-1-0.8c-0.6-1.1-1.1-2.3-1.5-3.5
				c-0.1-0.1,0.3-0.6,0.5-0.7c0.3-0.1,0.6,0,0.9,0.1c3.5,0.6,7,1.2,10.5,1.8c0.4,0.1,1,0.4,1,0.7c0,0.5-0.1,1.3-0.4,1.6
				c-1.3,1-2.8,1.3-4.3,0.7c-1.3-0.6-2.5-1.4-3.8-2.1c-0.4-0.2-0.8-0.4-1.2-0.6c-0.1,0.5-0.2,0.9-0.4,1.4
				C189.3,148.7,189.5,148.8,189.6,148.8z"/>
			<path class="st1" d="M179.2,112.6c0.2-0.4,0.3-0.9,0.6-1.2c0.2-0.1,0.7,0.2,1,0.3c0.3,0.1,0.6,0.3,0.7,0.6
				c0.5,1.6,1.5,2.6,3.1,3.4c1,0.5,0.8,2.1-0.2,2.5c-0.4,0.2-1.3,0.1-1.6-0.2c-1.1-1.2-2.1-2.6-3.1-3.9
				C179.5,113.6,179.4,113.1,179.2,112.6z"/>
			<path class="st1" d="M198.1,109.6c0,1.3-0.4,2.3-1.9,2.4c-1.1,0.1-2-0.8-1.9-2.1c0-1.3,1.1-2.9,1.8-2.8
				C197.2,107.3,198.1,108.5,198.1,109.6z"/>
			<path class="st1" d="M199.7,117.2c-1.1,0.5-1.6,1-2.2,1c-0.9,0-1.7-0.2-2.6-0.4c-0.8-0.1-1.6-1.3-1.1-1.8c0.8-0.7,2-1.4,2.9-1.3
				C197.6,115,198.4,116.1,199.7,117.2z"/>
			<path class="st1" d="M202.5,141c1-1,1.7-1.6,2.4-2.3c0.7,0.9,1.7,1.6,2.1,2.6c0.3,0.7-1.3,2.1-2.4,1.8
				C203.9,142.9,203.4,141.9,202.5,141z"/>
			<path class="st1" d="M186,153.4c-0.5-0.3-1.1-0.4-1.3-0.8c-0.4-0.5-0.5-1.2-0.7-1.8c0.6,0.1,1.2,0,1.8,0.2
				c0.3,0.1,0.6,0.5,0.8,0.7c0.3,0.3,0.5,0.6,0.8,1C187,152.9,186.5,153.1,186,153.4z"/>
			<path class="st1" d="M191.9,95.8c-0.5,0.2-0.8,0.3-1,0.4c-1,0.6-2.1,1.2-3.1,1.7c-0.2,0.1-0.5,0.1-0.8,0.1c0-0.1,0-0.3,0-0.4
				c0.4-1.2,2.6-2.5,3.8-2.3C191.1,95.4,191.4,95.6,191.9,95.8z"/>
			<path class="st1" d="M224.6,247.4c-0.3,0.1-0.7,0.3-1.1,0.3c-0.5-0.1-1-0.4-1.4-0.6c-0.3-0.2-0.6-0.4-1-0.6
				c0.4-0.2,0.7-0.6,1.1-0.7C223.6,245.4,224.7,246,224.6,247.4z"/>
			<path class="st1" d="M180.3,136.3c0.7,1,1.3,1.5,1.5,2.1c0.1,0.3-0.6,0.9-0.9,1.3c-0.4-0.5-0.9-1-1.1-1.6
				C179.6,137.8,180,137.3,180.3,136.3z"/>
			<path class="st1" d="M181.9,143.9c0.6,1.4,1,2.4,1.4,3.4c-0.2,0.1-0.5,0.2-0.6,0.2c-0.6-0.7-1.2-1.5-1.7-2.3
				C181,145,181.4,144.6,181.9,143.9z"/>
			<path class="st1" d="M184.8,130c0.9,0.9,1.4,1.3,1.8,1.7c-0.4,0.2-0.8,0.6-1.1,0.6c-0.5-0.1-1-0.5-1.3-1
				C184.1,131.1,184.5,130.6,184.8,130z"/>
			<path class="st1" d="M215.6,159.4c-0.6-0.3-1-0.6-1.5-0.9c0.5-0.2,1-0.6,1.6-0.6c0.3,0,0.7,0.6,1,1
				C216.3,159.1,216,159.2,215.6,159.4z"/>
			<path class="st1" d="M250.2,209.2c-0.3,0.8-0.7,1.6-1,2.4c0.1-0.8,0.1-1.7,0.3-2.5c0-0.3,0.4-0.5,0.5-0.8
				C250.1,208.6,250.1,208.8,250.2,209.2z"/>
			<path class="st1" d="M191.4,113.6c-0.3,0.5-0.7,1-1,1.5c-0.2-0.3-0.6-0.6-0.5-0.8c0.3-0.5,0.7-1,1-1.5
				C191,113,191.2,113.3,191.4,113.6z"/>
			<path class="st1" d="M218.5,148.2c0.2,0.5,0.5,1,0.4,1.3c-0.1,0.3-0.6,0.7-0.9,0.7c-0.3,0-0.6-0.5-0.9-0.7
				C217.4,149.2,217.7,149,218.5,148.2z"/>
			<path class="st1" d="M183,100.1c0.1-0.7,0.2-1.5,0.4-2.2c0.1-0.2,0.6-0.3,0.9-0.4c0.1,0,0.5,0.3,0.4,0.4
				c-0.1,0.3-0.2,0.5-0.4,0.7C183.9,99.1,183.5,99.6,183,100.1L183,100.1z"/>
			<path class="st1" d="M263.2,247.4c-0.4-0.3-0.6-0.5-0.9-0.7c0.2-0.2,0.5-0.6,0.7-0.6c0.3,0,0.6,0.4,0.8,0.6
				C263.8,246.8,263.4,247.1,263.2,247.4z"/>
			<path class="st1" d="M247.9,216.7c-0.1,0.1-0.1,0.2-0.2,0.4c-0.1-0.1-0.3-0.1-0.3-0.2c0-0.1,0.1-0.2,0.1-0.4
				C247.7,216.5,247.8,216.6,247.9,216.7z"/>
			<path class="st1" d="M182.6,85.1c0.3-0.1,0.5-0.3,0.6-0.3c0.1,0,0.2,0.3,0.2,0.4c0,0.1-0.2,0.2-0.3,0.2
				C182.9,85.5,182.8,85.3,182.6,85.1z"/>
		</g>
	</g>
	<g>
		<g>
			<path class="st1" d="M72.8,286.4h27.6v8.1h-9.3v48.7h-8.9v-48.7h-9.3V286.4z"/>
			<path class="st1" d="M112.4,343.2h-8.9v-56.8h8.9v24.4h10.2v-24.4h9.1v56.8h-9.1v-24.4h-10.2V343.2z"/>
			<path class="st1" d="M143.7,310.3H156v8.1h-12.3v16.6h15.4v8.1h-24.4v-56.8h24.4v8.1h-15.4V310.3z"/>
			<path class="st1" d="M195.1,343.2c-0.5-1.5-0.8-2.4-0.8-7v-8.9c0-5.3-1.8-7.2-5.8-7.2h-3.1v23.1h-8.9v-56.8h13.5
				c9.3,0,13.2,4.3,13.2,13.1v4.5c0,5.8-1.9,9.7-5.8,11.5c4.5,1.9,5.9,6.2,5.9,12.1v8.8c0,2.8,0.1,4.8,1,6.9H195.1z M185.3,294.5
				V312h3.5c3.3,0,5.4-1.5,5.4-6v-5.6c0-4.1-1.4-5.8-4.5-5.8H185.3z"/>
			<path class="st1" d="M216.3,310.3h12.3v8.1h-12.3v16.6h15.4v8.1h-24.4v-56.8h24.4v8.1h-15.4V310.3z"/>
			<path class="st1" d="M243.6,311.6h11.5v8.1h-11.5v23.5h-8.9v-56.8h23.6v8.1h-14.7V311.6z"/>
			<path class="st1" d="M261.8,286.4h8.9v56.8h-8.9V286.4z"/>
			<path class="st1" d="M282.6,302.1v41.2h-8v-56.8h11.2l9.2,34v-34h8v56.8h-9.2L282.6,302.1z"/>
			<path class="st1" d="M315.7,310.3H328v8.1h-12.3v16.6h15.4v8.1h-24.4v-56.8h24.4v8.1h-15.4V310.3z"/>
			<path class="st1" d="M353.6,343.2c-0.5-1.5-0.8-2.4-0.8-7v-8.9c0-5.3-1.8-7.2-5.8-7.2h-3.1v23.1H335v-56.8h13.5
				c9.3,0,13.2,4.3,13.2,13.1v4.5c0,5.8-1.9,9.7-5.8,11.5c4.5,1.9,5.9,6.2,5.9,12.1v8.8c0,2.8,0.1,4.8,1,6.9H353.6z M343.9,294.5
				V312h3.5c3.3,0,5.4-1.5,5.4-6v-5.6c0-4.1-1.4-5.8-4.5-5.8H343.9z"/>
			<path class="st1" d="M372.6,324.4l-11.3-38h9.3l6.8,25.9l6.8-25.9h8.5l-11.3,38v18.8h-8.9V324.4z"/>
		</g>
		<g>
			<polygon class="st1" points="53.2,319.4 0,314.8 53.2,310.3 			"/>
			<polygon class="st1" points="412.4,310.3 465.7,314.8 412.4,319.4 			"/>
		</g>
	</g>
</g>
</svg>
