<?xml version="1.0" encoding="utf-8"?>
<!-- Generator: Adobe Illustrator 19.1.0, SVG Export Plug-In . SVG Version: 6.00 Build 0)  -->
<!DOCTYPE svg PUBLIC "-//W3C//DTD SVG 1.1//EN" "http://www.w3.org/Graphics/SVG/1.1/DTD/svg11.dtd">
<svg version="1.1" id="Layer_1" xmlns="http://www.w3.org/2000/svg" xmlns:xlink="http://www.w3.org/1999/xlink" x="0px" y="0px"
	 viewBox="0 0 333.5 480.6" style="enable-background:new 0 0 333.5 480.6;" xml:space="preserve">
<style type="text/css">
	.st0{fill:#E4E2DE;}
	.st1{fill:#292928;}
</style>
<g>
	<circle class="st0" cx="166.8" cy="253.5" r="166.8"/>
	<g>
		<path class="st1" d="M72.3,189.6c-2.6,3.1-0.1,6,0.6,8.9c0.1,0.5,1.5,1,2.2,0.9c0.5-0.1,0.9-1.2,1.1-2c0.1-0.5-0.4-1.1-0.4-1.7
			c0-0.4,0.3-0.7,0.5-1.1c0.3,0.2,0.6,0.4,0.8,0.7c2.8,4.9,4.4,4.8,7.7,0.1c2.2-3,4.6-6.4,7.7-8.2c2.2-1.3,5.9-0.2,8.8-0.3
			c1.1,0,2.3,0.1,3.1-0.5c0.9-0.6,1.2-1.6-0.5-2.1c-1.1-0.3-1.9-1.2-2.9-1.9c-3.5-2.3-6.8-4.7-10.5-6.8c-0.7-0.4-2.3,1-3.4,1.5
			c-0.8,0.4-2,1.2-2.3,1c-1.1-0.9-1.8-2.1-2.7-3.2c0.8-0.6,1.5-1.4,2.4-1.6c1.7-0.3,3.4-0.2,5.1-0.4c0.6-0.1,1.1-0.7,1.7-1.1
			c-0.4-0.3-0.8-0.6-1.3-0.8c-4.1-1.4-8.2-2.7-12.2-4.1c-2.4-0.8-2.7-2.2-1.7-4.4c0.4-0.8,0.5-1.8,0.7-2.7c-1.3-0.3-2.7-0.8-4-0.9
			c-0.8,0-1.5,0.9-2.3,1.1c-0.6,0.1-1.8-0.1-1.9-0.4c-1-3.6-4.6-6.2-3.2-10.7c1.3-4.2,2-8.7,2.6-13.1c0.2-1.6,0.1-3.5-0.6-4.9
			C57,113,51.1,93.5,50.6,72.6c-0.2-9.2,4.5-16.4,13.2-19.9c7.2-3,14.8-3.9,22.5-4c4.5-0.1,9-0.2,13.5-0.1c4.2,0.1,7.3-1.6,9.5-4.9
			c1.4-2,2.5-4.2,3.6-6.4c4.7-9.4,9.3-18.8,14.1-28.2c0.7-1.3,2-2.6,3.3-3.1C143.6,1,157.3-2,171.2,1.6C185,5.2,198.6,9.9,209.7,19
			c8.4,6.9,15.1,15.5,19.3,25.8c3.6,8.9,7.8,17.5,8.8,27.2c0.4,3.7,0.1,7.2-1.4,10.6c-2.7,6.3-5.4,12.7-8,19.1
			c-1.6,3.9-1.2,7.6,1.3,11.1c5.6,7.9,9.8,16.4,11.6,26c2.5,13.7,0.1,26-11.2,34.6c-0.3,0.3-0.7,0.5-1,0.8c-3.2,2.6-3.2,3.8,0.2,6.2
			c5.1,3.7,10.3,7.3,15.3,11.1c5.1,3.8,8.5,9,11.4,14.5c0.4,0.8,0.1,2.1,0,3.2c-0.3,2.5-1,5-1.1,7.4c-0.1,1.7,0.6,3.4-1.6,4.4
			c-0.6,0.3-1.2,1.7-1.1,2.5c0.5,3.7,1,7.4,1.9,11c0.6,2.4,1.4,4.2,0,6.9c-1.3,2.4-2,5.4-2.9,8.1c-0.7,2.1,1.4,5.5,3,7.7
			c1.1,1.5,1.9-0.5,2.1-1.4c0.5-3.3,0.7-6.6,1.1-9.9c0.1-0.5,0.1-1,0.2-1.6c0.4,0.4,0.9,0.7,1.1,1.1c1.9,3.2,4.1,5.9,2.3,10.3
			c-1.4,3.4,1.1,7,3.9,9c3,2.1,3.8,4.6,3.1,7.8c-0.8,3.7-1.8,7.3-2.7,10.9c-0.7,2.9-1.1,5.7,2,7.6c0.4,0.2,0.6,0.9,0.9,1.3
			c-0.5,0.2-0.9,0.5-1.4,0.6c-3.3,0.2-4.5,1.7-3.9,5.3c0.8,5,1.7,10,2.4,15c0.4,2.4-0.6,4.1-1.8,6.3c-1.8,3.1-2.1,7-3,10.6
			c-0.6,2.3-1,4.7-1.5,7c-0.9-2.1-1.7-4.2-2.7-6.3c-0.7-1.5-1.5-3.1-2.6-4.4c-0.9-1.1-2.3-1.7-3.5-2.5c0.3,1.1,0.7,2.2,0.8,3.3
			c0.3,5.5,0.4,11,0.7,16.4c0.2,3.3,0.8,6.5,0.8,9.7c0,1.2-0.8,3.3-1.6,3.5c-5.3,1.4-7,6.2-9.9,9.9c-1.9,2.4-3.3,4.3-6.7,2.8
			c-0.8-0.3-2.4,0.6-3.3,1.3c-2.4,1.8-4.6,3.9-6.9,5.9c-3.2,2.7-6.2,3-9.9,0.7c-1.8-1.1-2.9-0.7-4.2,0.4c-1.3,1.2-2.4,2.6-3.9,3.4
			c-0.9,0.6-2.8,0.9-3.5,0.4c-3.2-2.8-6.2-0.6-8.2,1c-2.6,2.1-3.9,1.7-5.6-0.6c-0.3-0.5-0.9-0.8-1.2-1.3c-0.7-1.4-1.2-2.8-1.8-4.2
			c1.6-0.5,3.2-1.5,4.7-1.4c2.4,0.2,3.4,0.3,3.1-2.8c-0.2-1.6,1.2-3.7,2.3-5.2c1.2-1.5,1.3-1.9-0.7-2.5c-1-0.3-1.9-1.2-2.7-2
			c-1.4-1.5-2.8-2.7-5.2-2.3c-1,0.2-2.3-1.2-3.3-2c-1.5-1.2-2.8-2.7-4.5-3.6c-2.4-1.3-5.3-1.7-7.6-3.1c-2-1.2-3.8-2.9-5.1-4.8
			c-3.1-4.4-8.1-5.7-12.5-6.8c-6.6-1.5-10.7-6-15.3-10.1c-1.7-1.5-1.1-3.2,1.3-4.3c4.2-1.9,4.7-5.6,1.2-8.5
			c-0.8-0.6-1.5-1.3-2.2-2.1c-2.3-2.5-2.3-2.5,0.8-3.3c3.3-0.9,4.4-3.3,2.1-5.7c-3.1-3.1-1.9-6.7-1.6-10c0.4-3.8,2.8-4.5,6.7-4.2
			c2.9,0.3,6-0.5,8.9-1.3c1.8-0.5,1.3-2.1,0.1-3c-0.9-0.6-2.2-0.7-3.3-0.9c-2.9-0.4-4.8-1.7-5-5c-0.1-0.9-1.3-2.2-2.2-2.5
			c-1.9-0.6-4.1-1.2-5.9-0.7c-3.2,0.8-5.9-0.5-8.8-1.3c-2-0.5-3.1-1.6-2.8-3.7c0.4-2,2-3.2,3.8-2.7c2.4,0.7,4-0.3,5.5-1.5
			c0.7-0.5,1.1-2.2,0.8-3c-0.3-0.8-1.7-1.6-2.7-1.7c-0.6-0.1-1.9,1.1-2,1.7c-0.4,3.2-1.5,3.3-3.8,1.5c-0.8-0.6-2.3-1.1-3.2-0.9
			c-3.2,0.8-5.4-0.9-7.9-2.5c-2.1-1.4-1.3-2.2,0.2-3.1c2.8-1.5,5.6-2.9,8.4-4.3c0.6-0.3,1.1-0.8,1.6-1.3c-0.5-0.4-1-0.8-1.6-1
			c-3.1-1.1-1.4-3.2-1.1-5.1c0.2-1.3,2.6-2.6-0.2-3.8c-3.2-1.4-5.2-1.2-6.8,1c-0.7,1-1.6,2.1-2.7,2.4c-1.8,0.6-2.2,1.7-2.2,3.2
			c-0.1,2.2-1,3.3-3.3,4.3c-2.2,1-3.7,3.8-5.3,6c-0.4,0.5-0.1,2.1,0.4,2.5c2.1,1.7,1.4,3.6,0.5,5.5c-0.6,1.2-1.4,2.2-1.9,3.4
			c-1,2.3-2.1,2.5-3.7,0.6c-0.1-0.1-0.2-0.2-0.4-0.3c-5.4-1.8-11.3-2.2-15.9-6c-0.4-0.4-1.8,0.6-2.8,0.7c-1.5,0.1-3.1,0.2-4.6-0.1
			c-0.7-0.1-1.2-1-1.9-1.5c0.6-0.4,1.2-1.1,1.9-1.3c2.4-0.7,0.8-1.7,0.2-2.4c-2.1-2.6-4.3-5-6.3-7.6c-0.7-0.9-1.3-2.1-1.2-3.2
			c0-0.7,1.2-2,1.8-2c2.3-0.1,4.1,0.8,5.3,3.1c2.5,4.9,6.9,7.6,11.7,9.8c0.3,0.1,0.6,0.3,0.8,0.3c1.8-0.3,3.6-0.7,5.4-1.1
			c-0.7-1.4-1.2-3.1-2.3-4c-1.8-1.6-3.8-3.1-6-4c-2.2-0.9-3.3-2.3-3.7-4.3c-1-5.6-4.7-8.7-9.9-10.2c-0.6-0.2-1.8,0.7-2.3,1.4
			c-0.6,0.8-0.3,3-1.9,1.7c-1.5-1.2-5.4,0.9-4.8-3.3c0.3-2.4,0.4-4.9,0.5-7.4c0.1-1.5,0.6-2.5,2.1-1.2c2.2,1.9,2,0.3,2.4-1.3
			c0.3-1.2,1.5-2.1,2.3-3.1c0.8,0.8,1.7,1.6,2.5,2.4c0.6,0.6,1.1,1.9,1.6,1.8c3.2-0.4,4,1.4,4.8,4c0.7,2.1,6.7,3.1,8.4,1.7
			c1.4-1.1,1.4-3.8-0.2-5c-0.9-0.6-2.2-1.3-3.2-1.1c-4.3,1-5.7-2.2-7.3-5c-0.3-0.6-0.5-1.8-0.1-2.3c0.3-0.5,1.4-0.7,2.2-0.7
			c2.1,0,4.3,0.3,6.4,0.4c2.7,0,4.9,0.9,5.4,3.8c0.3,2,1.5,2.4,3.1,3c1.7,0.7,3.1,2.2,4.7,3.3c0.9,0.6,1.8,1.6,2.7,1.6
			c1.2,0,2.5-0.7,3.8-1.1c-1-0.8-2-1.7-3-2.5c-1-0.8-2.1-1.6-3.2-2.4c1.4-1.6,2.7-3.2,4.3-4.6c0.2-0.1,2.4,1.4,2.8,2.5
			c0.6,1.7,1.4,1.8,2.9,1.5c2.1-0.5,4.2-0.7,6.4-0.8c0.6,0,1.3,0.7,2,1.1c-0.5,0.4-1,0.8-1.5,1.3c-1,0.9-2.2,1.6-2.8,2.7
			c-1,1.6-1.8,3.4-2.1,5.1c-0.4,2.2-0.6,4.6,0,6.7c0.7,2.2,3,1.4,3.8,0.1c2.6-4,6.4-4.3,10.5-4.4c1,0,2.1-0.7,3-1.4
			c0.9-0.6,1.5-1.6,2.2-2.4c-1-0.2-1.9-0.3-2.9-0.5c-2.8-0.4-3.6-1.5-3.4-4.4c0.2-2.6,1.3-3.3,3.9-3.1c2.2,0.2,4.5-0.9,6.8-1
			c1.1-0.1,3,0.3,3.3,1c0.5,1.2,0.2,2.9,0,4.4c-0.1,0.4-0.8,0.8-1.2,1.2c-1.5,2.2-0.8,4,1.8,4.4c4.2,0.6,8-0.8,11.6-2.8
			c3-1.7,6.1-3.1,9-5c1.9-1.3,3.7-3,5.1-4.8c0.4-0.5-0.4-2.4-1.2-3.1c-0.4-0.4-2,0.3-2.9,0.8c-1.7,0.9-3.2,2.1-4.9,3.1
			c-1.2,0.7-2.6,1.3-3.6,2.2c-2.5,2.2-5.5,3-8.8,3.1c-0.5,0-0.9-0.4-1.4-0.6c0.3-0.4,0.6-0.9,0.9-1.3c0.1-0.1,0.3-0.1,0.4-0.2
			c0.9-0.8,1.7-1.7,2.5-2.5c-1.2,0-2.4-0.1-3.6,0c-2.9,0.2-4-1-2.8-3.5c0.9-1.9,2.5-3.5,3.9-5.2c0.6-0.8,1.7-1.4,2-2.2
			c0.4-1,0.1-2.1,0.2-3.2c-0.9,0-1.9-0.1-2.7,0.1c-4.3,1.4-10.4-2.2-11.1-6.7c-0.3-1.8,0-3.1,2.2-3.4c1.3-0.2,2.6-0.6,3.7-1.2
			c2.3-1.2,3.5-3,2.6-5.7c-0.1-0.3-0.3-0.5-0.3-0.8c-0.4-1.8-0.2-4.2-1.3-5.1c-1-0.8-3.3,0.3-5.1,0.5c-0.5,0.1-1.1-0.2-1.6-0.3
			c0.3-0.5,0.5-1,0.9-1.3c2.7-2.1,5.5-3.5,9.2-2.6c1.6,0.4,3.5-0.4,5.2-0.9c0.6-0.2,0.9-1.3,1.3-2c-0.8-0.5-1.6-1.2-2.5-1.3
			c-0.8-0.1-1.8,0.2-2.4,0.7c-1.5,1.1-2.4,1.2-3.2-0.8c-0.8-1.8-2.2-1.9-3.9-0.9c-2,1.1-4.2,1.9-6.3,2.6c-4.8,1.6-7.2,7.3-4.5,11.4
			c1,1.6,0.9,2.2-0.4,3.6c-1.6,1.6-2.8,3.6-3.7,5.7c-1.5,3.3-4.5,3-6.8,2.4c-3.1-0.7-5.9,0-8.8,0.5c-1.3,0.2-3.2,0.8-3.2-1.5
			c-0.1-1.7,0.5-3.2,2.6-3.3c0.1,0,0.3,0,0.4,0c2.3,0.3,4.5,0.6,6.8,1c-0.7-3.3,2.2-3.9,4.1-5.2c2.8-1.9,4.7-7.3,4.2-10.5
			c-0.2-1.1,0.7-2.5,1.1-3.7c0.4-1,1.3-2.1,1.1-3c-0.2-0.6-1.7-1.1-2.8-1.3c-3-0.6-6.5-0.3-7.3-4.6c-0.1-0.5-2.9-1.1-4.1-0.6
			c-2.6,1.1-3,6-0.9,8.1c1.4,1.3,2.9,2.5,4.1,3.8c1.4,1.5,1,2.9-0.8,3.8c-4.5,2.1-9.1,4.1-13.6,6.2c-2.3,1.1-4.4,0.9-6.3-0.5
			c-1.9-1.5-2.6-0.6-3,1.2c-0.4,1.9-0.6,3.9-0.8,5.9c0,0.5,0.5,1.5,0.7,1.5c3.6-0.1,1.8,2,1.4,3.3c-0.6,1.8-0.8,3.8-3.2,0.8
			c-3.2-4-7.5-4-10.3-0.7c-0.9,1.1-1,2.8-1.5,4.3c-0.2,0.5-0.2,1-0.4,1.5c-0.4-0.5-1.1-0.9-1.2-1.4c-0.2-0.8,0-1.7-0.1-2.6
			c-0.2-1.5-0.8-2.6-2.5-1.8c-2.1,1-2.1-0.3-2.1-1.7c-0.1-4-0.3-8-0.6-12c-0.2-2.9,0.2-5.3,3.7-5.7L72.3,189.6z M192.1,289.4
			c-0.9,0.9-1.8,1.9-2.7,2.8c0.2,0.1,0.7,0.4,0.7,0.4c0.6-1.1,1.3-2.2,1.9-3.3c0.3,0,0.6,0.1,0.8,0c0.4-0.3,0.8-0.6,1.2-1
			c0,0-0.2-0.4-0.3-0.6c-0.4,0.3-0.9,0.6-1.2,1C192.3,288.8,192.2,289.1,192.1,289.4z M240,347.7c-3.3,0.6-6.6,0.9-9.7,1.8
			c-1.8,0.5-3.5,1.8-5,2.9c-0.6,0.4-0.6,1.5-0.9,2.2c0.9,0.1,2.1,0.7,2.7,0.4c4.3-2.4,8.6-4.9,12.9-7.4c1.9-2,3.8-4,5.6-6.1
			c0.3-0.3,0.1-1,0.1-1.6c-0.6,0.1-1.6,0-1.8,0.4C242.4,342.7,241.2,345.2,240,347.7z M152.6,157.6c1.8-0.6,3.7-1.3,5.5-1.9
			c1.1-0.3,2.5-1,3.3-0.5c3.1,1.9,6.1,0.8,9.2,0.1c1.1-0.2,2.3,0.3,3.5,0.5c-0.8,0.7-1.5,1.6-2.4,2.2c-0.6,0.4-1.3,0.5-2,0.7
			c-2.2,0.4-4.5,0.7-6.7,1.1c-0.4,0.1-0.7,0.4-1,0.6c0.3,0.3,0.6,0.8,0.9,0.8c3.4,0.3,7.1,1.4,10.2,0.5c4.6-1.3,8.9-3.9,13.1-6.4
			c1.4-0.8,2.1-2.9,2.8-4.6c0.3-0.7-0.1-1.8-0.2-2.7c-1,0.4-2.6,0.6-2.8,1.3c-1,2.9-3.5,2.8-5.7,3.1c-2.3,0.3-4.6,0-6.9,0.1
			c-5.6,0.2-11.2,0.3-16.6,2.3c-0.6,0.2-1.5,0.1-2.1-0.1C151,153.6,152.1,155.8,152.6,157.6c-4.6-2.3-7.2,2.1-10.7,3.6
			c-0.6,0.2-0.8,1.6-1.1,2.5c0.9-0.2,1.9-0.1,2.7-0.6C146.6,161.3,149.6,159.5,152.6,157.6z M123.3,126.8c1.1,0.6,2.2,1.2,3.3,1.9
			c0.1-0.2,0.2-0.5,0.4-0.7c-1.1-0.4-2.2-0.7-3.3-1.1c-0.1,0-0.3,0-0.4,0c-1.1-2.2-4.5-3.6-2.8-7c0,0-0.6-0.5-0.7-0.4
			c-2.2,1.9-3.3-0.3-4.9-1.1c-4.5-2.4-8.5-5.9-13.7-6.8c-1.3-0.2-2.1-1-1.1-2.5c0.5-0.7,0.8-1.5,1.2-2.3c-0.9,0.2-2.1,0.1-2.7,0.6
			c-3.1,2.3-6.1,2.7-9-0.3c-0.5-0.5-1.1-0.9-1.7-1.3c-2-1.4-4.2-1.4-6.1,0c-2,1.6-3.7,3.4-5.3,5.4c-0.3,0.5,0.5,2.3,1.3,3
			c1.4,1.1,3.3,1.6,4.9,2.7c1.6,1.1,2.9,1.1,4.3,0c1.4-1.1,3.1-3.1,2.5,1c-0.1,0.5,0.5,1.5,1,1.7c2.9,1.4,5.5,3.5,9.3,2.7
			c4.2-0.9,8.4-0.2,12.1,2C115.4,126.4,119.1,127.6,123.3,126.8z M194.3,338.7c-1.6,0.3-3.8,0.7-5.9,1.1c-0.1,0-0.2,0.7-0.1,1.1
			c0.3,2.4,1.6,2.4,3.5,1.6c1.8-0.7,3.8-0.8,5.7-1.3c4.9-1.2,10.1-0.5,14.7-3.2c4.2-2.4,8.8-4.2,13.1-6.6c1.8-1,3.4-2.6,5-4
			c2-2,4.1-4,5.8-6.3c1.7-2.3,3.1-4.9,4.2-7.5c1.4-3.4-0.2-5.9-3.8-6.5c-1.8-0.3-2.3-1.1-2.5-2.8c-0.2-2.1-1.3-4.3-3.6-4
			c-1.4,0.2-2.7,2.1-3.9,3.4c-0.4,0.4-0.3,1.1-0.7,1.6c-2.2,2.6-4.1,5.7-6.8,7.7c-2.4,1.7-5.8,1.9-8.6,3.1c-1.7,0.8-2.7,0.9-4-0.7
			c-1.4-1.7-1.4-3.3,0.1-4.6c2.5-2.3,5.3-4.3,8-6.3c1.4-1,3-1.7,4.3-2.7c0.4-0.3,0.2-1.3,0.3-1.9c-0.6,0.2-1.5,0.2-1.7,0.6
			c-0.9,1.7-2.4,1.7-4,1.8c-1.6,0.1-3.7,0.5-4.6,1.6c-2,2.4-3.1,5.4-4.9,7.9c-1.5,2-3.3,3.9-5.4,5.3c-3.2,2.1-6.8,3.6-10.1,5.6
			c-2.1,1.3-2,3.6-0.9,5.4c1.2,2,2.7,0.6,4-0.3c0.7-0.5,1.5-0.9,2.1-1.5c4.7-4.1,10.4-4.3,15.6-2.7c4.4,1.4,6.4,0.2,8.5-3
			c0.4-0.7,1.8-1.4,2.5-1.2c3.4,1.2,5.1-0.4,6.7-3c0.3-0.6,1.7-0.8,2.5-0.7c0.4,0.1,0.9,1.5,0.7,2.2c-0.5,2.7-1.2,5.3-2,7.9
			c-1.2,3.8-2.2,4.4-6.1,4.3c-1.1,0-2.3,0.4-3.4,0.4c-1.9,0.1-3.7,0.3-5-1.7c-0.3-0.5-1.6-0.6-2.4-0.5c-1.4,0.3-2.8,0.6-4,1.4
			c-2.4,1.6-6.1,3.1-6.7,5.3C199.5,338.5,198,339.3,194.3,338.7z M98.9,155.5c0.9,0.2,2,0.1,2.9,0.5c5.6,2.4,11.2,4.9,16.9,7.3
			c0.6,0.3,1.5,0,2.3-0.1c-0.2-0.7-0.2-1.6-0.6-2.2c-5.5-6.7-13.4-8.7-21.2-10.9c-5.8-1.7-12.5-1.5-16-7.9c-0.3-0.6-1.4-0.9-2.2-1.3
			c-3-1.5-3.1-2.1-0.7-4.6c1.4-1.5,2.9-2.9,3.9-4.6c1-1.8,1.4-3.9-0.4-5.6c-1.2-1.1-4.8-0.4-6.3,1.1c-0.8,0.8-1.6,2-2.5,2
			c-3.2,0.2-3.5,2.5-3.2,4.6c0.4,2.9,0.1,5.4-2.2,7.5c-0.9,0.8-1.3,2.1,0.5,2.7c2.8,0.8,2.1,2.4,1.2,4.3c-0.6,1.3-0.5,3-0.8,4.4
			c0.8-1.2,1.7-2.4,2.4-3.7c1.1-2.4,2.2-2.8,3.6-0.7c2.2,3.3,4.4,6.7,5.7,10.3c0.6,1.8,1.1,3.1,2.6,4.1c2.4,1.7,9.9,1.4,12-0.6
			c0.6-0.6,1.2-1.9,1-2.6c-0.2-0.6-1.5-1.2-2.3-1.2c-2,0-4,0.5-6,0.3c-0.8-0.1-1.5-1.4-2.3-2.1c0.9-0.5,2.3-1.6,2.7-1.3
			C92.7,157.4,95.8,156,98.9,155.5z M147,129.7c0.1,0.2,0.2,0.3,0.3,0.5c2-0.8,4.1-1.6,6.1-2.4c2.5-1.1,4.9-2.5,7.5-3.3
			c5.5-1.6,11.1-2.9,16.6-4.5c0.8-0.2,2-1.6,1.9-1.8c-1-1.7-2.1-3.5-3.6-4.8c-0.7-0.6-2.4-0.6-3.5-0.3c-3.9,1-7.7,2.9-11.6,3.1
			c-4.5,0.2-7.6,1.9-10.6,4.8c-1.2,1.1-2.6,2.1-4.3,0c-1.3-1.6-3.2-0.5-3.3,1.8c-0.1,1.3,0.3,3.1-0.4,3.7c-3.5,3.1-0.1,2.9,1.5,3.3
			C144.7,130,145.9,129.7,147,129.7z M136.3,144.1c-0.6-1.2-1.6-3.3-2.7-5.2c-1-1.8-2.2-1.5-3.4-0.1c-2.7,3.1-4.9,6.3-4.2,10.8
			c0.3,1.8-0.3,3.7-0.5,5.5c-0.1,0.8-0.4,1.9,0,2.4c2.2,3.2,3.3,6.7,3.2,10.6c0,0.5,0.7,1.1,1.1,1.6c0.4-0.5,1.1-1,1.2-1.5
			c0.8-2.6,1.5-5.2,2-7.9C134.3,155.3,135.2,150.2,136.3,144.1z M207.9,277.9c4.9-0.2,6.5,2,4.1,6.3c-1.5,2.7-3.6,5.1-5.4,7.7
			c-0.2,0.3-0.4,0.7-0.6,1c0.5,0.1,1.1,0.5,1.5,0.3c1.1-0.6,2.2-1.4,3.2-2.1c2.3-1.8,4.6-3.5,6.8-5.4c1.1-1,2.1-2.1,3.1-3.3
			c2.1-2.7-0.4-4.9-0.9-7.3c-0.4-2-0.8-4.4-3.7-4.7c-4.6-0.6-7.4,0.3-8.9,3.5c-0.8,1.7-1.6,3-3.6,3.2c-0.4,0-0.7,0.4-1.1,0.6
			c0.4,0.2,0.8,0.4,1.1,0.4C205,278.2,206.4,278,207.9,277.9z M177.2,315.4c0.4-0.1,0.9-0.1,1.5-0.2c7.7-1.5,14-5.7,20.1-10.1
			c1.4-1,2.1-2.8,3.2-4.2c-1.5,0.9-3.1,1.7-4.5,2.8c-2.2,1.8-4.2,3.2-7.3,1.7c-1.4-0.7-3.4-0.4-5,0c-3.3,0.8-6.6,2-9.8,3.1
			c-1.9,0.7-4.6,1.2-3.9,3.6c0.4,1.3,3,2.1,4.7,3C176.3,315.4,176.7,315.4,177.2,315.4z M229.7,343.1c2.2-1.2,5.1-1.8,5.9-3.4
			c2.1-4,5.9-6.1,8.4-9.5c0.4-0.6,1.2-1.2,1.2-1.7c0-1.2-0.1-2.6-0.8-3.5c-0.4-0.5-2.1-0.2-3,0.2c-1.1,0.6-2.7,1.5-2.9,2.5
			c-1.2,5.7-5.4,7.3-10.2,8.6c-1.9,0.5-3.7,2-2.9,4.1C225.9,341.5,228,342,229.7,343.1z M194.6,254.3c0.1,0.3,0.2,0.6,0.3,0.8
			c1-0.3,2.3-0.3,3.1-0.9c1.5-1.3,1.7-6.8,0.6-8.5c-1.2-1.9-2.4-2.3-4.9-1.9c-4.6,0.8-5.6,4.4-7.5,7.5c-0.9,1.5-1.5,3,0.1,4.2
			c1.4,1.1,2.9,1.7,4.7,0.3C192,255.1,193.4,254.8,194.6,254.3z M89.6,131.7c0-0.2-0.1-0.3-0.1-0.5c-0.7,0.2-2,0.4-2.1,0.8
			c-0.3,1-0.4,2.9,0.1,3.2c3,1.8,4.3,5.8,8.5,6c2.6,0.1,6.1-1,7.4-3.3c0.3-0.5,0.3-1.3,0.1-1.9c-0.1-0.3-1.1-0.5-1.5-0.3
			c-3.5,1.9-4.5-0.2-5.4-3.1c-0.4-1.2-1.7-2.1-2.7-3.2c-0.6,0.6-1.2,1.4-1.9,1.7C91.3,131.6,90.4,131.6,89.6,131.7z M168.8,135
			c-0.7-0.4-1.3-1.1-1.9-1.7c-0.9,1-0.4,5.7-0.8,7c-0.9,2.9-3.8,1.2-7.3-0.7c-0.4-0.2-1.4,0.1-1.5,0.3c-0.2,0.6-0.2,1.4,0.1,1.9
			c1.3,2.2,4.8,3.4,7.4,3.3c4.2-0.2,5.6-2.3,8.5-4.1c0.5-0.3,0.3-4.1,0.1-5.1c-0.1-0.4-1.4-0.5-2.1-0.8c0,0.2-0.1,0.3-0.1,0.5
			C170.4,135.4,169.5,135.4,168.8,135z M194.8,269.4c1.3-0.6,2.8-1.1,4.1-1.9c2-1.1,3.9-2.4,5.8-3.7c1.9-1.3,3.6-2.7,5.4-4.1
			c-2-1.2-4-2.5-6.1-3.5c-2.7-1.3-4.2-0.9-4.6,2.1c-0.6,4-2.9,6.4-5.6,8.8c-0.4,0.4-0.6,1.1-0.8,1.7
			C193.5,269,194,269.2,194.8,269.4z M147.2,273.6c4.8-1.7,8.9-3,12.9-4.5c0.8-0.3,1.4-1.4,1.8-2.3c0.3-0.6,0.3-1.7,0-2
			c-0.6-0.4-1.8-0.8-2.3-0.5c-3.9,2.4-8.3,2-12.5,2.8c-1.7,0.3-3.9,1-3.3,3.1C144.2,271.6,146.1,272.6,147.2,273.6z M150.1,106.7
			c-1.7-1.7-3.3-3.3-5-5c-0.4-0.4-0.7-0.9-1.2-1c-4-0.9-10.9,3.1-12.1,7c-0.2,0.6,0.4,1.5,0.6,2.3c0.7-0.2,1.6-0.3,2.2-0.8
			c0.5-0.4,0.6-1.4,1.2-1.8c1.5-1.2,3.1-2.4,4.8-3.3c0.6-0.3,1.6,0.3,2.5,0.5c-0.2,0.7-0.3,1.4-0.6,2.1c-0.5,1.3-1.1,2.6-1.6,3.9
			c-0.2,0.5-0.1,1-0.2,1.5c0.5-0.1,1.2,0,1.6-0.3c2-1.8,3.8-4,6.9-3.8C149.4,108.1,149.6,107.4,150.1,106.7z M163.4,199.1
			c-0.6,0.4-1.8,0.9-2.6,1.8c-2,2.3-3.7,4.8-5.7,7c-1.3,1.5-1,2.8,0.5,3.5c0.8,0.4,2.3-0.1,3.1-0.7c2-1.4,3.8-3,5.6-4.6
			c0.9-0.8,1.9-1.8,2.5-2.9C167.7,201.4,166.3,199.2,163.4,199.1z M168.4,273.6c0.2,0.2,1,1.8,1.4,1.7c2.8-0.6,5.6-1.3,8.1-2.6
			c2.4-1.2-0.6-2.6-0.5-4c0-0.6,0.2-1.2,0.1-1.7c-0.1-0.5-0.4-1.2-0.7-1.3C173.1,264.7,168.5,268.6,168.4,273.6z M248,271.5
			c0-1.5-0.3-3-2.7-3.1c-3.8,0-6.9,1.2-6.9,3c0,2,3,7.2,4.3,7.3C244.8,279,247.7,275.3,248,271.5z M229,290.9
			c-0.6-0.8-1.5-2.7-3-3.8c-0.7-0.5-3.2,0.3-3.6,1.2c-1.1,2.3-1.6,4.9-2,7.4c-0.1,0.5,0.7,1.6,1.3,1.8
			C224.9,298.5,229,295.3,229,290.9z M171,187.2c-0.2-0.4-0.3-0.7-0.5-1.1c-1.2,0.5-2.9,0.8-3.4,1.7c-0.4,0.8,0.2,2.7,0.9,3.4
			c0.8,0.8,2.5,1.2,3.6,0.9c2.4-0.7,4.8-1.7,7-2.8c1.6-0.7,2.8-2.3,1.3-3.7c-1.3-1.2-3-2.9-5.1-0.5
			C173.9,186.2,172.3,186.6,171,187.2z M241.5,257.7c0.2-1.8-0.7-2.8-2.7-2.8c-3.1,0.1-5.6,1.8-5.4,3.7c0.1,2,2.4,4.4,4.1,4.5
			C239.5,263.2,241.6,260.5,241.5,257.7z M165.4,174.1c-3.1,0.6-6,1.3-7.1,4.8c-0.2,0.5-0.3,1-0.5,1.5c0.4-0.2,0.9-0.5,1.3-0.6
			c0.7-0.2,1.7-0.6,2.1-0.3c3.7,2.3,5.2,1.7,6.2-2.6C167.8,174.9,167.2,174.2,165.4,174.1z M162.7,244.1c-1.2-0.3-2.4-1-3.2-0.6
			c-2.1,0.9-4.1,2.2-5.8,3.6c-0.8,0.6-1.2,1.9-1.3,3c0,0.4,1.6,1.6,1.8,1.4c2.6-1.7,5.2-3.6,7.7-5.5
			C162.2,245.7,162.2,245.2,162.7,244.1z M251.1,230.1c-0.7-1.8-1.2-3.5-2-5c-0.4-0.7-1.7-1.4-2.4-1.3c-0.8,0.1-2,1.4-1.9,2
			c0.4,2,1.1,4,2.1,5.8c0.3,0.6,1.9,1,2.6,0.8C250.1,232.2,250.5,231,251.1,230.1z M144.4,250.1c-3,0.2-5.2,0.1-7.3,0.6
			c-1.1,0.3-2,1.5-3,2.4c-0.1,0.1,0.3,1.1,0.4,1.1c3.3-0.4,6.5-0.8,9.7-1.4c0.5-0.1,0.9-1.2,1.3-1.9
			C145,250.5,144.4,250.1,144.4,250.1z M199.2,231.5c-1.5-2.3-2.8-4.3-4.3-6.2c-0.2-0.3-1.3-0.4-1.5-0.1c-0.4,0.4-0.9,1.3-0.8,1.8
			c0.6,1.9,1.3,3.7,2.2,5.5c0.4,0.8,1.2,1.4,1.8,2C197.5,233.6,198.2,232.7,199.2,231.5z M91.2,239.9c-1.1,1.5-2.3,2.3-2.5,3.4
			c-0.4,2.7,2,2.8,3.7,3c2.3,0.3,3.3-1.7,2.9-3.2C95.1,242,93.1,241.3,91.2,239.9z M91.3,255.5c1.9-0.6,2.9-1,4-1.3
			c0.5-0.2,1-0.4,1.4-0.5c-0.3-0.4-0.6-1.1-1-1.3c-2.5-1-5.1-1.9-7.6-2.7c-0.4-0.1-1.2,0.1-1.5,0.4c-0.3,0.3-0.3,1.2,0,1.5
			C88.1,253,89.8,254.3,91.3,255.5z M237.7,192.1c-2.4,1-3.4,2.2-2,3.5c1.5,1.5,3.7,2.2,5.7,3.2c0.1,0.1,1.4-1.7,1.3-1.9
			C241.1,195.2,239.4,193.6,237.7,192.1z M220.2,192.2c-0.1-0.4-0.1-0.7-0.3-0.9c-1.7-2.5-3.5-4.9-5.3-7.3c-0.3-0.3-1.3-0.6-1.5-0.4
			c-0.4,0.5-0.8,1.5-0.6,1.8c2.1,2.5,4.4,4.8,6.6,7.2C219.3,192.6,219.9,192.3,220.2,192.2z M174.5,230c0.3-0.2,0.6-0.4,0.9-0.6
			c0.6-0.4,1.1-0.9,1.7-1.2c1.5-0.8,3-1.5,4.4-2.3c0.7-0.5,1.3-1.2,2-1.8c-1-0.3-2.2-1.1-3-0.8c-2,0.7-3.8,1.8-5.6,3
			c-0.5,0.4-0.7,1.4-0.9,2.1C174,228.9,174.4,229.5,174.5,230z M177.8,254.3c-0.8-0.2-1.5-0.5-2-0.4c-1.7,0.4-3.3,0.9-4.9,1.5
			c-0.6,0.3-1,1.1-1.5,1.6c0.8,0.5,1.8,1.5,2.3,1.3c1.9-0.6,3.6-1.7,5.4-2.6C177.4,255.5,177.5,255,177.8,254.3z M221.4,341.9
			c-0.3-0.1-0.9-0.7-1.1-0.6c-2.3,1.4-4.5,2.9-6.7,4.5c-0.1,0.1,0.2,1.2,0.5,1.3C215.7,347.9,221.4,344,221.4,341.9z M253.8,268.8
			c0.2,0.1,0.3,0.1,0.5,0.2c0,0.4-0.1,0.9,0,1.3c0.3,0.7,0.7,1.4,1.1,2.1c0.6-0.6,1.2-1.1,1.7-1.8c0.2-0.3,0.3-0.8,0.3-1.2
			c-0.2-1.5-0.4-3.1-0.7-4.6c0-0.1-1.1-0.2-1.1-0.1C254.9,266,254.3,267.4,253.8,268.8z M187.7,209.5c-0.4,1.7-0.9,2.6-0.7,3
			c1.4,2,2.9,3.8,4.4,5.7c0.4,0.5,1.2,0.8,1.8,1.1c-0.2-1-0.2-2.7-0.6-2.8c-2-0.4-2.3-1.8-2.7-3.4
			C189.7,212.1,188.9,211.3,187.7,209.5z M196.6,148.3c0.4-0.3,1.2-0.6,1.8-1.3c0.4-0.5,0.4-1.3,0.5-2c-0.9,0.1-1.7,0.2-2.6,0.2
			c-0.4,0-0.9-0.1-1.3,0c-1.2,0.2-2.5,0.4-3.7,0.6c1.3,0.7,2.6,1.4,3.8,2.1C195.4,148,195.7,148.1,196.6,148.3z M259.8,280.4
			c-0.8-1-1.4-1.9-2.1-2.7c-0.6,1-1.8,2-1.7,2.9c0.1,1.1,1.2,2.2,1.9,3.3C258.5,282.8,259,281.8,259.8,280.4z M239.9,235.1
			c0.2,0.1,0.3,0.1,0.5,0.2c0,0.6-0.2,1.2-0.1,1.7c0.1,0.6,0.5,1.2,0.8,1.7c0.5-0.4,1.1-0.8,1.5-1.3c0.3-0.4,0.5-1.1,0.4-1.6
			c-0.4-1.4-1-2.8-1.5-4.2C240.9,232.8,240.4,233.9,239.9,235.1z M204.5,232.7c-0.4,0-0.8,0-1.2,0c-0.4,0.9-1.2,1.8-1.1,2.6
			c0.2,1.4,1,2.7,1.5,4.1c0.7-1.3,1.6-2.6,1.9-4C205.9,234.6,204.9,233.6,204.5,232.7z M109.9,240c-0.3-1-0.7-2-1-3
			c-0.6,0.9-1.2,1.7-1.6,2.7c-0.3,0.6-0.7,1.3-0.7,2c0,0.7,0.4,1.4,0.7,2.1c0.7-0.4,1.6-0.7,2-1.3
			C109.7,241.8,109.7,240.9,109.9,240z M124.4,100.7c-1.4-0.8-2.2-1.7-3-1.7c-0.7,0-2,1.3-1.9,1.4c0.6,1.1,1.4,2,2.2,3
			C122.4,102.8,123.1,102.1,124.4,100.7z M201.1,242.1c-0.1,0.2-0.6,0.7-0.5,0.9c0.8,2.2,1.8,4.3,2.7,6.5c0.5-0.4,1.5-1,1.4-1.1
			c-0.7-2-1.6-3.9-2.4-5.8C202.1,242.4,201.7,242.3,201.1,242.1z M206.7,181.3c0.9-1,1.8-1.8,1.7-1.9c-1.1-1.4-2.4-2.7-3.7-3.9
			c0,0-1.3,1-1.2,1.1C204.5,178.1,205.5,179.5,206.7,181.3z M152.4,200.6c-0.8,0.2-1.3,0.2-1.6,0.4c-0.9,0.9-2.6,2.2-2.4,2.7
			c0.9,2.8,1.7-0.5,2.6-0.3c0.4,0.1,0.9,0.1,1.2,0c0.6-0.3,1-0.8,1.6-1.3C153.4,201.6,152.8,201,152.4,200.6z M217.1,254.6
			c-2-1.5-2.7-2.5-3.5-2.6c-0.6-0.1-1.4,0.9-2.1,1.4c0.9,0.8,1.6,1.9,2.7,2.4C214.6,256,215.6,255.2,217.1,254.6z M131.3,127.9
			c-1,0.5-1.8,0.8-2.6,1.2c1.1,0.6,2.2,1.4,3.3,1.6c0.7,0.1,1.6-0.6,2.4-0.9C133.5,129.2,132.5,128.6,131.3,127.9z M197.1,176.1
			c1-0.5,1.7-0.8,2.3-1.2c-0.6-0.5-1.2-1.2-1.9-1.3c-1.5-0.3-3-0.2-4.5-0.3c0,0.3-0.1,0.7,0,0.8
			C194.5,174.8,195.8,175.4,197.1,176.1z M216.3,212c1-0.7,1.6-1.1,2.3-1.5c-0.8-0.7-1.6-1.6-2.6-2.1c-0.2-0.1-1.6,1.2-1.5,1.6
			C214.7,210.8,215.6,211.3,216.3,212z M180.2,220c0.6-1.3,1.2-2,1.3-2.9c0.1-0.4-0.8-0.8-1.2-1.3c-0.5,0.7-1.2,1.4-1.5,2.2
			C178.7,218.3,179.4,219,180.2,220z M145.5,298.8c-0.8,0.7-1.4,1.2-2,1.7c0.8,0.3,1.6,0.9,2.5,0.9c0.5,0,1.1-0.6,1.6-1
			C147,300,146.3,299.5,145.5,298.8z M234,248c-1-0.5-1.4-0.9-1.8-0.9c-0.9,0.1-1.8,0.3-2.8,0.5c0.6,0.5,1.1,1.4,1.8,1.5
			C231.9,249.2,232.7,248.6,234,248z M176.3,177c-0.8-1-1.4-1.9-1.6-1.8c-0.8,0.4-1.6,0.9-2.2,1.6c-0.1,0.1,0.7,1.4,1,1.4
			C174.3,178,175.1,177.5,176.3,177z M112.5,105.3c-0.3-0.2-0.7-0.4-1-0.6c-0.2,0.5-0.6,1.2-0.5,1.6c0.4,0.9,1,1.7,1.6,2.5
			c0.4-0.4,1.1-0.8,1-1.1C113.3,106.9,112.9,106.1,112.5,105.3z M115.9,115.6c0.7-1,1.4-1.6,1.5-2.2c0.1-0.4-0.8-1.5-0.9-1.4
			c-0.7,0.2-1.7,0.7-1.8,1.2C114.6,113.7,115.3,114.5,115.9,115.6z M130.6,101.6c-0.6-0.7-1.1-1.6-1.4-1.6c-0.7,0.1-1.3,0.8-1.9,1.2
			c0.5,0.5,1,1.3,1.6,1.5C129.2,102.9,129.9,102.1,130.6,101.6z M177.2,196.4c-0.6,0.7-1.3,1.3-1.2,1.5c0.3,0.7,0.8,1.3,1.3,2
			c0.3-0.3,1-0.7,1-1C178.1,198.2,177.7,197.5,177.2,196.4z M99,146c0.6-0.6,1.1-1,1.2-1.4c0-0.3-0.6-1-0.9-0.9
			c-0.4,0-1,0.5-1.1,0.9C98.1,144.9,98.6,145.4,99,146z M202.4,143.9c-0.5,1.1-0.8,1.4-0.8,1.7c0.2,1.1,0.6,2.2,0.9,3.3
			c0.3-0.4,0.9-0.8,0.9-1.2C203.3,146.6,202.9,145.6,202.4,143.9z M257.5,285.9c-0.2,1-0.5,1.5-0.4,2c0.1,0.3,0.5,0.6,0.8,0.8
			c0.3-0.4,0.8-0.8,0.8-1.2C258.7,287.2,258.1,286.8,257.5,285.9z M111,100.4c-0.8-0.2-1.4-0.5-1.6-0.4c-0.4,0.2-0.6,0.8-0.9,1.2
			c0.4,0.2,0.9,0.7,1.2,0.6C110.1,101.7,110.4,101.1,111,100.4z M212.4,363.5c0.7,0.2,1.2,0.5,1.7,0.4c0.2,0,0.7-0.6,0.6-0.8
			c-0.1-0.4-0.5-0.8-0.7-1.1C213.8,362.2,213.5,362.5,212.4,363.5z M153.2,299.1c-0.6-0.5-0.9-0.9-1.2-0.9c-0.5,0-1,0.3-1.5,0.5
			c0.1,0.3,0.3,0.9,0.4,0.9C151.5,299.6,152.1,299.4,153.2,299.1z M213.3,192.8c-0.5-0.6-0.8-1-1.1-1.4c-0.3,0.3-0.9,0.6-0.9,1
			c0,0.4,0.4,0.9,0.7,1.3C212.3,193.4,212.7,193.1,213.3,192.8z M181.1,180.4c-0.5-0.5-0.7-1-0.9-1c-0.6,0-1.3,0.3-1.9,0.5
			c0.2,0.4,0.5,1,0.7,1C179.6,180.9,180.2,180.6,181.1,180.4z M183.9,241.1c-0.4,0-0.8-0.2-1.1-0.1c-0.1,0-0.2,0.5-0.3,0.7
			c0.3,0.1,0.7,0.2,1,0.3C183.7,242,183.8,241.5,183.9,241.1z M247.4,220.3c-0.3-0.5-0.6-0.8-0.8-1.1c-0.2,0.2-0.6,0.5-0.6,0.7
			c0,0.3,0.4,0.7,0.6,1C246.8,220.7,247.1,220.5,247.4,220.3z M191,189.5c0.5-0.3,0.9-0.5,1.1-0.8c0.1-0.2-0.3-0.8-0.5-0.8
			c-0.3,0-0.8,0.3-1,0.6C190.5,188.6,190.8,189,191,189.5z M191,165.1c-0.5-0.3-0.8-0.7-1.1-0.7c-0.3,0-0.6,0.5-0.9,0.7
			c0.3,0.3,0.6,0.7,0.8,0.7C190.2,165.8,190.5,165.4,191,165.1z M104,160.7c-0.2,0.4-0.4,0.7-0.5,1c0.4,0.2,0.7,0.5,1.1,0.5
			c0.2,0,0.4-0.5,0.6-0.8C104.8,161.2,104.5,161,104,160.7z M107.7,145.1c-0.4-0.1-0.7-0.3-0.8-0.2c-0.4,0.3-0.7,0.6-1,0.9
			c0.3,0,0.6,0.1,0.8,0C107,145.7,107.3,145.4,107.7,145.1z M119.2,130.4c-0.1-0.2-0.1-0.5-0.3-0.7c0-0.1-0.4-0.1-0.4,0
			c-0.1,0.2-0.1,0.4-0.1,0.7C118.7,130.4,119,130.4,119.2,130.4z M191.9,141.7c-0.2-0.3-0.5-0.5-0.7-0.8c-0.1,0.2-0.3,0.5-0.3,0.7
			c0,0.2,0.3,0.4,0.4,0.7C191.5,142,191.6,141.9,191.9,141.7z M86.7,141.2c-0.2,0.1-0.5,0.2-0.6,0.4c-0.1,0.2,0.1,0.4,0.2,0.7
			c0.3-0.2,0.6-0.3,0.9-0.5C87,141.5,86.9,141.4,86.7,141.2z M163.5,333.9c-0.1-0.2-0.1-0.5-0.3-0.7c0-0.1-0.4-0.1-0.4,0
			c-0.1,0.2-0.1,0.4-0.1,0.7C163,333.9,163.3,333.9,163.5,333.9z M223.1,195.8c-0.2,0.5-0.5,0.9-0.4,1.2c0.1,0.3,0.6,0.5,0.9,0.7
			c0.2-0.3,0.5-0.7,0.4-0.9C224,196.4,223.6,196.2,223.1,195.8z"/>
		<path class="st1" d="M125.4,311c1.1,4.5,2.6,9.1,5.3,12.9c1.6,2.2,2.1,4.1,1.6,6.8c-1.1,6,0.9,7.8,6.9,6.2c2.8-0.7,4,0.2,4.8,2.8
			c1.3,4.5,2.6,5.1,6.8,3.5c2.2-0.9,3.7-0.9,5.5,1.4c1.5,1.9,4.1,2.8,5,5.5c0.3,0.8,2.2,1.2,3.4,1.4c3.2,0.5,4.5,2.2,4.4,5.3
			c0,0.8,0,1.9,0.4,2.5c1.9,2.5,0.3,3.2-1.8,3.8c-3.1,0.9-5.6,0.1-8-1.9c-3.8-3.2-4.2-3-7.8,0.5c-1,0.9-2.5,1.6-3.9,1.7
			c-2.2,0.2-2.8,1.3-3,3.3c-0.4,3.4-1.3,3.6-4.1,1.6c-3.4-2.5-6.9-4.8-10.3-7.2c-2.7-1.8-5.6-2.7-9-2.3c-1.7,0.2-3.7-0.7-5.2-1.7
			c-5-3.5-9.8-7.1-14.5-10.9c-1.2-0.9-1.8-2.6-2.7-3.8c-1.3-1.8-0.9-4.8-4.4-5.3c-1.7-0.2-1.6-3.3,0.1-5.1c0.8-0.8,1.9-1.3,2.9-1.7
			c0.9-0.4,1.8-0.6,2.8-0.9c-1-0.7-1.9-1.6-3-2.2c-1.4-0.7-3.2-0.8-4.4-1.7c-1.2-1-2.9-3.2-2.5-3.9c1.5-2.7-0.6-2.6-1.9-3.4
			c-1.6-0.9-3.2-2-4.6-3.2c-0.4-0.4-0.8-1.6-0.5-1.9c0.4-0.5,1.4-1,2-0.9c3.4,0.5,6.9,1,10.3,1.8c1.9,0.5,3.7,1.8,2.5,4.2
			c-1.2,2.4,0.3,3.4,1.9,3.9c3.6,1.2,4.6,3.6,4.4,7c-0.1,0.8,0,1.8,0.5,2.5c3.2,4.9,5.8,10.2,10.6,14c4.9,3.8,9.1,8.5,14,12.3
			c2.5,2,5.9,2.9,8.9,4.2c0.2-0.5,0.7-1.3,0.5-1.6c-2.2-2.6-4.2-5.4-6.7-7.7c-4.8-4.3-9.9-8.3-14.8-12.4c-1.5-1.2-2.9-2.5-4.3-3.8
			c1.4-1.2,2.8-2.4,4.1-3.6c0.5-0.5,1-1.1,1.2-1.8c0.6-3.1,2.7-4.7,5.6-5.3c2.6-0.5,2.3-1.8,1-3.3c-2.4-2.6-3.4-5.6-3-9.1
			c0.3-2.2-1-3.4-3.1-4.1c-1.2-0.4-2.9-0.7-3.3-1.6c-1.4-2.8-2.5-2.7-4.9-0.9c-3.1,2.3-6.8,3-10.7,2.4c-5-0.7-10-1-14.9-2
			c-2.3-0.5-4.3-2.2-6.3-3.5c-0.4-0.3-0.5-1.4-0.3-2c0.2-0.4,1.2-0.6,1.8-0.4c5.1,1.4,10.2,2.8,15.3,4.3c2.2,0.7,5.9-1.6,6-4
			c0-0.3-1.3-1.1-1.9-1c-4.1,0.8-6.9-1.5-9.8-3.7c-0.6-0.4-0.8-1.4-1.2-2.2c0.8-0.4,1.6-1.2,2.5-1.2c1.2-0.1,2.6,0.2,3.8,0.6
			c2.4,0.8,4.7,1.7,7.1,2.5c0.3,0.1,1-0.1,1.1-0.3c0.2-0.6,0.4-1.6,0.1-2c-1.4-1.5-2.3-3.2,0.2-4c1-0.3,2.7,1.4,3.9,2.3
			c0.8,0.6,1.3,1.6,1.9,2.4c0.5-1,1.2-1.9,1.6-2.9c0.8-2.2,2.1-3.8,3.8-5.5c1.8-1.8,2.2-5.1,2.9-7.8c0.3-1.4-0.3-3.3,2-2.8
			c0.6,0.2,1.3,2.4,1.1,3.5c-0.3,1.6-1.5,3.1-2.2,4.7c-0.4,1-0.6,2.1-0.7,3.2c0,0.4,0.6,0.9,0.9,1.4c0.3-0.4,0.6-0.7,1-1.1
			c0.5-0.6,1-1.2,1.5-1.9c0.6,0.7,1.5,1.4,1.6,2.2c1.2,7.4,2.2,14.8,3.2,22.2C126.1,310.8,125.7,310.9,125.4,311z M119.5,303.8
			c-0.2,0.5-0.5,1-0.6,1.6c-0.1,0.5,0.1,1,0.2,1.4c0.2-0.4,0.6-0.8,0.7-1.3C119.8,305,119.5,304.4,119.5,303.8
			c-0.2-0.3-0.2-0.9-0.5-1.1c-0.4-0.3-0.9-0.5-1.4-0.7c0.1,0.5,0,1.1,0.3,1.4C118.3,303.6,118.9,303.6,119.5,303.8z M108.8,297.4
			c-0.5,1.5-0.8,2.2-0.9,2.9c0,0.4,0.5,0.9,0.8,1.3c0.4-0.6,1.1-1.2,1.2-1.8C110,299.3,109.4,298.7,108.8,297.4z M151.3,353.4
			c0.5-1,1-1.8,1.2-2.7c0-0.1-0.7-0.5-1.1-0.8c-0.4,0.8-0.8,1.6-1.1,2.5C150.2,352.6,150.7,352.9,151.3,353.4z"/>
		<path class="st1" d="M265.6,408.7c-0.9-0.3-2.4-0.6-3.5-1.4c-2.8-2.4-5.8-2.6-8.9-1c-2.2,1.1-4,1-6-0.6c-3.6-2.8-7.9-2.6-12.1-2.5
			c-6.5,0.1-11.9-2.2-16-7.2c-0.7-0.8-1.3-2.9-0.9-3.2c0.9-0.8,2.8-1.7,3.7-1.3c2.9,1.5,4.8,1,6.6-1.6c0.6-0.8,2.3-1.1,3.5-1.1
			c6.5,0.4,10.4-3,13.6-8.3c2.7-4.4,5.8-8.6,9-12.7c1.8-2.3,4-2.2,5.8,0.2c1.7,2.3,3.4,4.8,4.2,7.5c0.8,2.7,2.3,4.5,4.1,6.4
			c2.3,2.3,3.7,4.9,4,8.4c0.2,2,1.9,4.1,3.2,5.9c1.2,1.7,3.4,2.8,2.2,5.6c-1.1,2.8-2.5,5.3-5.7,6
			C270.5,408.3,268.4,408.4,265.6,408.7z"/>
		<path class="st1" d="M177.6,380c-1.3,6.4-2.3,12.1-3.7,17.7c-2.2,8.8-2.5,17.7-1.7,26.7c0.5,5,0.5,4.9,5.4,6.7
			c0.8,0.3,1.7,2.1,1.5,2.9c-1.1,5-2.9,9.7-6.3,13.6c-1.3,1.4-2.5,2-4.5,1c-2.9-1.5-4.5-1.1-5.4,1.7c-1.6,5-5.1,6-9.7,6.2
			c-6.2,0.3-12.4,0.9-18.5,1.6c-5.8,0.7-6.3,0.5-7.6-5c-0.3-1.3-1.4-2.4-2-3.7c-0.4-0.7-0.9-1.9-0.6-2.3c0.5-0.6,1.8-1.3,2.5-1.1
			c3.4,1.2,6.1,0.5,8.8-1.7c0.7-0.6,2.6-0.4,3.6,0.1c3.3,1.9,6.2,2.3,9-0.7c0.4-0.4,1-0.8,1.5-0.8c4.7,0.4,8.3-2,11.7-4.7
			c0.8-0.6,1.9-1.3,2.7-1.2c3.7,0.6,3.6-1.8,3-4c-1.9-7-0.5-14.1-1.2-21.1c-1.1-10.9,0.4-22-2.9-32.6c-0.6-2.1-1-4.2-1.2-6.4
			c-0.2-2.4,0.9-3.3,3.2-2.3c3.2,1.5,6.5,3,9.4,4.9C175.9,376.7,176.7,378.7,177.6,380z"/>
		<path class="st1" d="M247.2,446c-2-0.2-4.7-1.4-5.8-0.5c-2.9,2.3-6.1,1.1-9,2c-1.8,0.6-3.5,0.5-4.1-1.8c-0.1-0.3-0.2-0.6-0.5-0.7
			c-1.5-0.9-2.9-3.4-4.7-1.6c-1.5,1.5-0.1,3,1.4,4.3c0.6,0.4,1,2,0.6,2.5c-0.9,1.2-2.2,2.8-3.3,2.9c-1.6,0.1-3.9-0.7-4.9-1.9
			c-1.5-1.9-2.8-1.8-4.5-1c-4.8,2.1-9.6,3.9-15,3.5c-0.5,0-1.1,0.6-1.4,1.2c-0.1,0.2,0.5,1.1,0.9,1.2c1.1,0.4,2.3,0.4,3.4,0.8
			c1.5,0.6,5.1-0.2,2.9,3.5c0.6,0.3,1.4,1,1.9,0.8c0.9-0.3,1.7-1.1,2.4-1.8c1.3-1.3,2.3-1.6,3.2,0.4c0.9,2.2,1.5,1.3,2.4-0.1
			c3.5-5.4,8.3-5,11.2,0.9c0.3,0.6,0.1,1.3,0.2,2c-0.7,0-1.4,0.2-2-0.1c-1.1-0.4-2-1.4-3.1-1.4c-0.9,0-1.9,0.9-2.9,1.4
			c0.5,0.9,0.8,1.9,1.4,2.7c0.5,0.7,1.3,1.2,2,1.8c-1,0.5-1.9,1.4-2.9,1.5c-5.1,0.7-10.3,1.1-15.5,1.7c-4.1,0.5-4.8,1.2-5.8,5.2
			c-1.1,4.8-5.7,6.8-10.2,4.3c-0.5-0.3-1-1.3-0.9-1.6c1.4-2.5,2.5-5.3,4.6-7.2c2.6-2.4,3.7-4.2,1.5-6.8c-1.9-2.2-2-3.9-0.7-6.5
			c0.8-1.7,0.1-4.2,0.2-6.3c0-0.6,0.4-1.3,0.6-1.9c0.4,0.3,0.9,0.6,1.3,0.8c0.7,0.3,1.4,0.6,2.1,1c0.2-0.9,0.7-1.9,0.5-2.7
			c-0.3-1.2-1.2-2.3-1.5-3.6c-0.2-1,0.1-2.2,0.2-3.3c1,0.1,2.1,0.1,3.1,0.4c0.8,0.2,1.5,0.8,2.3,1.2c3.9,2,4.8,1.8,6.8-2
			c1.8-3.3,5.2-4.3,8.1-3.8c7.2,1.1,13.9-1.9,20.8-2.2c4-0.2,8-0.9,11.9-0.7c3.8,0.3,7.6,1.4,11.3,2.3c2,0.5,3,1.9,0.6,3.2
			C254.9,442.1,252.5,446.9,247.2,446z M219.9,446.5c-0.3,0.6-0.5,0.9-0.5,1.2c0,0.2,0.2,0.4,0.3,0.7c0.3-0.2,0.7-0.4,0.7-0.7
			C220.5,447.4,220.2,447.1,219.9,446.5z M198.3,462.1c0.3,0.3,0.5,0.6,0.6,0.6c0.3-0.1,0.6-0.3,0.9-0.4c-0.2-0.2-0.3-0.5-0.5-0.5
			C199,461.9,198.7,462,198.3,462.1z"/>
		<path class="st1" d="M155.7,473.9c-0.8,0-1.1,0.1-1.4,0c-1.4-0.5-2.7-0.9-4.1-1.4c1.2-0.6,2.4-1.2,3.7-1.7
			c1.5-0.6,3.4-0.6,4.3-1.6c2.7-3,6.3-3.9,9.8-4.9c2.5-0.8,4.3-2.2,4.7-5c0.2-1.1,0.8-2.2,1.5-3.1c1.5-1.8,3.2-1.6,4,0.5
			c1.1,3.3,1.9,6.6,2.5,10c0.4,2.4-0.9,3.9-3.3,4.3C170.1,472,162.7,473,155.7,473.9z"/>
		<path class="st1" d="M84.8,282c-0.4,0.8-0.9,1.5-1.3,2.3c-0.6-0.5-1.5-0.9-1.9-1.5c-1.1-2.2-2.1-4.4-2.9-6.7
			c-0.1-0.3,0.5-1.1,0.9-1.2c0.5-0.2,1.1,0,1.7,0.1c6.6,1.1,13.2,2.3,19.8,3.5c0.7,0.1,1.8,0.8,1.9,1.3c0.1,1-0.1,2.5-0.8,3
			c-2.4,1.8-5.3,2.5-8.1,1.3c-2.5-1.1-4.8-2.6-7.2-3.9c-0.7-0.4-1.5-0.7-2.2-1.1c-0.2,0.9-0.4,1.7-0.7,2.6
			C84.3,281.8,84.5,281.9,84.8,282z"/>
		<path class="st1" d="M65.2,213.3c0.4-0.8,0.6-1.8,1.2-2.2c0.3-0.2,1.3,0.3,1.9,0.6c0.5,0.3,1.1,0.6,1.3,1.1c1,3,2.9,5,5.9,6.4
			c2,0.9,1.6,4-0.4,4.8c-0.8,0.3-2.4,0.1-3-0.5c-2.1-2.3-4-4.9-5.8-7.4C65.6,215.4,65.5,214.3,65.2,213.3z"/>
		<path class="st1" d="M100.9,207.8c-0.1,2.4-0.8,4.4-3.5,4.6c-2.1,0.2-3.7-1.6-3.7-3.9c0-2.4,2-5.5,3.5-5.3
			C99.1,203.4,101,205.6,100.9,207.8z"/>
		<path class="st1" d="M103.9,222.2c-2,1-3.1,1.9-4.1,2c-1.6,0.1-3.3-0.4-5-0.7c-1.6-0.2-3-2.5-2-3.4c1.6-1.2,3.8-2.7,5.5-2.5
			C100,217.8,101.5,220.1,103.9,222.2z"/>
		<path class="st1" d="M109.3,267.2c1.9-1.8,3.3-3.1,4.6-4.3c1.4,1.6,3.2,3.1,4,5c0.6,1.4-2.6,3.9-4.6,3.3
			C111.9,270.8,111,269,109.3,267.2z"/>
		<path class="st1" d="M78,290.7c-1-0.5-2.1-0.8-2.6-1.5c-0.7-1-0.9-2.3-1.3-3.4c1.2,0.1,2.4,0.1,3.5,0.4c0.6,0.2,1.1,0.9,1.6,1.4
			c0.5,0.6,1,1.2,1.5,1.8C79.9,289.8,79,290.2,78,290.7z"/>
		<path class="st1" d="M89.2,181.6c-1,0.4-1.5,0.6-2,0.8c-2,1.1-3.9,2.2-5.9,3.2c-0.4,0.2-1,0.2-1.5,0.3c0-0.3,0-0.6,0-0.8
			c0.8-2.2,4.9-4.7,7.3-4.4C87.7,180.8,88.2,181.1,89.2,181.6z"/>
		<path class="st1" d="M151.1,468.7c-0.5,0.1-1.3,0.6-2.1,0.5c-0.9-0.1-1.8-0.7-2.7-1.1c-0.6-0.3-1.2-0.7-1.8-1.1
			c0.7-0.5,1.3-1.2,2-1.3C149.3,465.1,151.3,466.2,151.1,468.7z"/>
		<path class="st1" d="M67.2,258.3c1.4,1.9,2.5,2.9,2.8,4c0.2,0.6-1.1,1.6-1.8,2.4c-0.7-1-1.6-1.9-2-3
			C65.9,261.1,66.6,260.2,67.2,258.3z"/>
		<path class="st1" d="M70.3,272.6c1.1,2.7,1.8,4.5,2.6,6.4c-0.4,0.1-1,0.5-1.1,0.4c-1.1-1.4-2.2-2.8-3.2-4.3
			C68.5,274.8,69.2,274.1,70.3,272.6z"/>
		<path class="st1" d="M75.7,246.3c1.7,1.6,2.6,2.4,3.4,3.2c-0.7,0.4-1.5,1.2-2.1,1.1c-1-0.3-1.9-1-2.5-1.8
			C74.3,248.5,75.1,247.4,75.7,246.3z"/>
		<path class="st1" d="M134.1,302.1c-1.1-0.6-2-1.2-2.8-1.7c1-0.4,2-1.2,2.9-1.1c0.7,0,1.3,1.2,1.9,1.8
			C135.5,301.4,134.8,301.8,134.1,302.1z"/>
		<path class="st1" d="M199.7,396.4c-0.7,1.5-1.3,3-2,4.5c0.2-1.6,0.2-3.1,0.5-4.7c0.1-0.5,0.7-1,1-1.5
			C199.4,395.2,199.5,395.7,199.7,396.4z"/>
		<path class="st1" d="M88.2,215.2c-0.7,1-1.3,1.9-1.9,2.8c-0.4-0.5-1.1-1.2-1-1.4c0.5-1,1.2-1.9,1.9-2.9
			C87.5,214.2,87.8,214.6,88.2,215.2z"/>
		<path class="st1" d="M139.6,280.9c0.4,1,0.9,1.8,0.8,2.5c-0.1,0.6-1.1,1.3-1.7,1.3c-0.6,0-1.2-0.9-1.8-1.4
			C137.4,282.8,138,282.3,139.6,280.9z"/>
		<path class="st1" d="M72.3,189.7c0.3-1.4,0.4-2.8,0.8-4.1c0.1-0.4,1.1-0.7,1.7-0.8c0.3,0,0.9,0.5,0.8,0.7c-0.1,0.5-0.4,1-0.8,1.4
			c-0.9,0.9-1.8,1.8-2.7,2.7L72.3,189.7z"/>
		<path class="st1" d="M224.2,468.8c-0.7-0.6-1.2-1-1.7-1.4c0.5-0.4,0.9-1.2,1.4-1.2c0.5,0,1.1,0.7,1.4,1.2
			C225.4,467.6,224.7,468.2,224.2,468.8z"/>
		<path class="st1" d="M195.3,410.6c-0.1,0.2-0.2,0.5-0.3,0.7c-0.2-0.1-0.5-0.2-0.6-0.4c0-0.2,0.2-0.5,0.3-0.7
			C194.9,410.3,195.1,410.5,195.3,410.6z"/>
		<path class="st1" d="M71.5,161.3c0.5-0.2,0.9-0.5,1.2-0.5c0.2,0,0.4,0.5,0.4,0.8c0,0.1-0.4,0.5-0.6,0.4
			C72.2,162,71.9,161.7,71.5,161.3z"/>
	</g>
</g>
</svg>
